<?xml version="1.0" encoding="utf-8"?>
<!-- Generator: Adobe Illustrator 22.0.0, SVG Export Plug-In . SVG Version: 6.00 Build 0)  -->
<svg version="1.1" id="Layer_1" xmlns="http://www.w3.org/2000/svg" xmlns:xlink="http://www.w3.org/1999/xlink" x="0px" y="0px"
	 viewBox="0 0 937 503.4" style="enable-background:new 0 0 937 503.4;" xml:space="preserve">
<style type="text/css">
	.st0{fill:none;stroke:#353E68;stroke-width:2;stroke-miterlimit:10;}
	.st1{fill:#C3C7DB;}
	.st2{fill:#025EB7;}
	.st3{fill:none;stroke:#262F49;stroke-width:2;stroke-miterlimit:10;}
	.st4{fill:#F6871E;}
</style>
<title>Asset 16</title>
<g id="Layer_2_1_">
	<g id="Layer_1_copy_6">
		<path class="st0" d="M372.5,1h192c2.2,0,4,1.8,4,4v42c0,2.2-1.8,4-4,4h-192c-2.2,0-4-1.8-4-4V5C368.5,2.8,370.3,1,372.5,1z"/>
		<path class="st1" d="M428.9,30.1l-3.4-4.4l-1,1.1v3.3h-1.3v-9.5h1.3V25l4.3-4.6l1,0.8l-3.4,3.6l4.1,5.4L428.9,30.1z"/>
		<path class="st1" d="M436.5,20.4c1.7,0,3.2,0.9,4,2.4c0.8,1.6,0.8,3.5,0,5.1c-0.4,0.7-0.9,1.4-1.6,1.8c-0.7,0.4-1.5,0.7-2.4,0.7
			c-1.7,0-3.2-0.9-3.9-2.4c-0.8-1.6-0.8-3.5,0-5.1c0.4-0.7,0.9-1.3,1.6-1.8C434.9,20.6,435.6,20.4,436.5,20.4z M433.3,25.4
			c0,0.7,0.1,1.3,0.4,2c0.2,0.5,0.6,1,1.1,1.4c0.5,0.3,1,0.5,1.6,0.5c0.6,0,1.2-0.2,1.6-0.5c0.5-0.3,0.9-0.8,1.1-1.4
			c0.3-0.6,0.4-1.3,0.4-2c0-0.7-0.1-1.3-0.4-1.9c-0.2-0.5-0.6-1-1.1-1.3c-0.5-0.3-1-0.5-1.6-0.5c-0.6,0-1.2,0.2-1.6,0.5
			c-0.5,0.3-0.9,0.8-1.1,1.4C433.4,24,433.3,24.7,433.3,25.4L433.3,25.4z"/>
		<path class="st1" d="M443.5,20.6h2.7c0.9,0,1.8,0.2,2.6,0.7c0.7,0.5,1.1,1.3,1,2.1c0,0.5-0.2,1.1-0.5,1.5c-0.3,0.4-0.7,0.8-1.2,1
			l2.4,4.2h-1.5l-2.1-3.9c-0.3,0-0.6,0-0.9,0h-1.3v3.8h-1.3L443.5,20.6z M446.2,21.7h-1.4v3.5h1.3c0.6,0,1.2-0.1,1.6-0.4
			c0.4-0.3,0.7-0.8,0.6-1.3c0-0.5-0.2-1-0.6-1.4C447.4,21.8,446.8,21.7,446.2,21.7L446.2,21.7z"/>
		<path class="st1" d="M456,30.1h-3.4v-9.5h3.4c1.2-0.1,2.4,0.4,3.2,1.3c0.7,1,1.1,2.2,1.1,3.4c0,0.9-0.2,1.7-0.5,2.5
			c-0.3,0.7-0.8,1.3-1.5,1.7C457.6,29.9,456.8,30.1,456,30.1z M456.1,21.7H454V29h2c0.8,0,1.6-0.3,2.1-1c0.6-0.8,0.9-1.7,0.8-2.7
			c0-0.9-0.2-1.8-0.7-2.6C457.7,22,457,21.7,456.1,21.7L456.1,21.7z"/>
		<path class="st1" d="M462.9,30.1v-9.5h1.3v9.5H462.9z"/>
		<path class="st1" d="M467.4,30.1v-9.5h1.2l4.9,7v-7h1.4v9.5h-1.2l-4.9-7.1v7.1L467.4,30.1z"/>
		<path class="st1" d="M481.8,20.6l3.7,9.4l-1.3,0.2l-1-2.7h-3.9l-1,2.5H477l3.6-9.5L481.8,20.6z M481.2,22.4l-1.5,4.1h3.1
			L481.2,22.4z"/>
		<path class="st1" d="M494.2,21.7h-3.3v8.5h-1.4v-8.5h-3.1v-1.1h7.5L494.2,21.7z"/>
		<path class="st1" d="M500.1,20.4c1.7,0,3.2,0.9,4,2.4c0.8,1.6,0.8,3.5,0,5.1c-0.4,0.7-0.9,1.4-1.6,1.8c-0.7,0.4-1.5,0.7-2.4,0.7
			c-1.7,0-3.2-0.9-3.9-2.4c-0.8-1.6-0.8-3.5,0-5.1c0.4-0.7,0.9-1.3,1.6-1.8C498.5,20.6,499.3,20.4,500.1,20.4z M497,25.4
			c0,0.7,0.1,1.3,0.4,2c0.2,0.5,0.6,1,1.1,1.4c0.5,0.3,1,0.5,1.6,0.5c0.6,0,1.2-0.2,1.6-0.5c0.5-0.3,0.9-0.8,1.1-1.4
			c0.3-0.6,0.4-1.3,0.4-2c0-0.7-0.1-1.3-0.4-1.9c-0.2-0.5-0.6-1-1.1-1.3c-0.5-0.3-1-0.5-1.6-0.5c-0.6,0-1.2,0.2-1.6,0.5
			c-0.5,0.3-0.9,0.8-1.1,1.4C497.1,24,497,24.7,497,25.4L497,25.4z"/>
		<path class="st1" d="M507.2,20.6h2.7c0.9,0,1.8,0.2,2.6,0.7c0.7,0.5,1.1,1.3,1,2.1c0,0.5-0.2,1.1-0.5,1.5c-0.3,0.4-0.7,0.8-1.2,1
			l2.4,4.2h-1.5l-2.1-3.9c-0.3,0-0.6,0-0.9,0h-1.3v3.8h-1.3V20.6z M509.9,21.7h-1.4v3.5h1.3c0.6,0,1.1-0.1,1.6-0.4
			c0.4-0.3,0.7-0.8,0.6-1.3c0-0.5-0.2-1-0.6-1.4C511.1,21.8,510.5,21.7,509.9,21.7z"/>
		<path class="st0" d="M5,224.2h192c2.2,0,4,1.8,4,4v42c0,2.2-1.8,4-4,4H5c-2.2,0-4-1.8-4-4v-42C1,226,2.8,224.2,5,224.2z"/>
		<path class="st0" d="M493,224.2h192c2.2,0,4,1.8,4,4v42c0,2.2-1.8,4-4,4H493c-2.2,0-4-1.8-4-4v-42C489,226,490.8,224.2,493,224.2z
			"/>
		<path class="st1" d="M548.2,252.8l0.3-1.1c0.4,0.2,0.7,0.3,1.1,0.4c0.4,0.1,0.8,0.2,1.3,0.2c0.5,0,1.1-0.1,1.5-0.4
			c0.3-0.2,0.6-0.6,0.5-1c0-0.3-0.1-0.6-0.3-0.8c-0.2-0.3-0.5-0.5-0.8-0.6c-0.3-0.2-0.8-0.4-1.4-0.7c-0.5-0.2-1-0.5-1.4-0.8
			c-0.3-0.2-0.6-0.5-0.8-0.9c-0.2-0.4-0.3-0.8-0.3-1.2c0-0.4,0.1-0.9,0.4-1.3c0.3-0.4,0.6-0.7,1.1-0.9c0.5-0.2,1.1-0.3,1.7-0.3
			c0.4,0,0.9,0.1,1.3,0.2c0.4,0.1,0.8,0.3,1.2,0.4l-0.5,1.1c-0.3-0.1-0.6-0.3-0.9-0.4c-0.3-0.1-0.7-0.1-1-0.1
			c-0.5,0-0.9,0.1-1.4,0.3c-0.3,0.2-0.5,0.5-0.5,0.9c0,0.3,0.1,0.6,0.3,0.8c0.2,0.3,0.5,0.5,0.8,0.6c0.3,0.2,0.8,0.4,1.4,0.7
			c0.7,0.3,1.3,0.7,1.9,1.2c0.4,0.4,0.6,1,0.6,1.6c0,0.5-0.1,0.9-0.4,1.3c-0.3,0.4-0.7,0.7-1.2,0.9c-0.6,0.2-1.2,0.3-1.8,0.3
			c-0.5,0-1-0.1-1.5-0.2C549,253.2,548.6,253,548.2,252.8z"/>
		<path class="st1" d="M556.7,253.3v-9.5h5.4l0.2,1H558v3.1h3.2l0.2,1H558v3.3h4.5l0.2,1L556.7,253.3z"/>
		<path class="st1" d="M570.7,253.3l-3.3-4.4l-1,1.1v3.3H565v-9.5h1.3v4.4l4.3-4.6l1,0.8l-3.4,3.6l4.1,5.4H570.7z"/>
		<path class="st1" d="M574.4,243.8h2.7c0.9,0,1.8,0.2,2.6,0.7c0.7,0.5,1.1,1.3,1,2.1c0,0.5-0.2,1.1-0.5,1.5c-0.3,0.4-0.7,0.8-1.2,1
			l2.4,4.2H580l-2.1-3.9c-0.3,0-0.6,0-0.9,0h-1.3v3.8h-1.3L574.4,243.8z M577.2,244.9h-1.4v3.5h1.3c0.6,0,1.2-0.1,1.7-0.4
			c0.4-0.3,0.7-0.8,0.6-1.3c0-0.5-0.2-1-0.6-1.4C578.3,245,577.7,244.9,577.2,244.9L577.2,244.9z"/>
		<path class="st1" d="M583.6,253.3v-9.5h5.4l0.2,1H585v3.1h3.2l0.2,1H585v3.3h4.5l0.2,1L583.6,253.3z"/>
		<path class="st1" d="M598.5,244.9h-3.3v8.5h-1.4v-8.5h-3.1v-1.1h7.5L598.5,244.9z"/>
		<path class="st1" d="M604.3,243.8l3.7,9.4l-1.3,0.2l-1-2.7h-3.9l-1,2.6h-1.3l3.6-9.5L604.3,243.8z M603.6,245.6l-1.5,4.1h3.1
			L603.6,245.6z"/>
		<path class="st1" d="M610,243.8h2.7c0.9,0,1.8,0.2,2.6,0.7c0.7,0.5,1.1,1.3,1,2.1c0,0.5-0.2,1.1-0.5,1.5c-0.3,0.4-0.7,0.8-1.2,1
			l2.4,4.2h-1.5l-2.1-3.9c-0.3,0-0.6,0-0.9,0h-1.3v3.8H610V243.8z M612.7,244.9h-1.4v3.5h1.3c0.6,0,1.1-0.1,1.6-0.4
			c0.4-0.3,0.7-0.8,0.6-1.3c0-0.5-0.2-1-0.6-1.4C613.9,245,613.3,244.9,612.7,244.9L612.7,244.9z"/>
		<path class="st1" d="M619.2,253.3v-9.5h1.3v9.5H619.2z"/>
		<path class="st1" d="M623.2,252.8l0.3-1.1c0.4,0.2,0.7,0.3,1.1,0.4c0.4,0.1,0.8,0.2,1.3,0.2c0.5,0,1.1-0.1,1.5-0.4
			c0.3-0.2,0.6-0.6,0.5-1c0-0.3-0.1-0.6-0.3-0.8c-0.2-0.3-0.5-0.5-0.8-0.6c-0.3-0.2-0.8-0.4-1.4-0.7c-0.5-0.2-1-0.5-1.4-0.8
			c-0.7-0.5-1.1-1.2-1.1-2.1c0-0.4,0.1-0.9,0.4-1.3c0.3-0.4,0.6-0.7,1.1-0.9c0.5-0.2,1.1-0.3,1.7-0.3c0.4,0,0.9,0.1,1.3,0.2
			c0.4,0.1,0.8,0.3,1.2,0.4l-0.5,1.1c-0.3-0.1-0.6-0.3-0.9-0.4c-0.3-0.1-0.7-0.1-1-0.1c-0.5,0-0.9,0.1-1.4,0.3
			c-0.3,0.2-0.5,0.5-0.5,0.9c0,0.3,0.1,0.6,0.3,0.8c0.2,0.3,0.5,0.5,0.8,0.6c0.3,0.2,0.8,0.4,1.4,0.7c0.7,0.3,1.3,0.7,1.9,1.2
			c0.4,0.4,0.6,1,0.6,1.6c0,0.5-0.1,0.9-0.4,1.3c-0.3,0.4-0.7,0.7-1.2,0.9c-0.6,0.2-1.2,0.3-1.8,0.3c-0.5,0-1-0.1-1.5-0.2
			C624,253.2,623.6,253,623.2,252.8z"/>
		<path class="st0" d="M740,224.2h192c2.2,0,4,1.8,4,4v42c0,2.2-1.8,4-4,4H740c-2.2,0-4-1.8-4-4v-42C736,226,737.8,224.2,740,224.2z
			"/>
		<path class="st1" d="M797.6,253.3h-3.3v-9.5h3c2.2,0,3.3,0.9,3.3,2.6c-0.1,0.8-0.5,1.5-1.2,1.8c0.5,0.2,0.9,0.5,1.3,0.9
			c0.3,0.4,0.5,0.9,0.5,1.5c0,0.8-0.3,1.5-0.9,2C799.4,253.1,798.5,253.3,797.6,253.3z M797.2,244.9h-1.5v2.9h1.3
			c0.6,0,1.1-0.1,1.6-0.4c0.4-0.2,0.6-0.7,0.6-1.1c0-0.4-0.1-0.9-0.5-1.1C798.2,245,797.7,244.9,797.2,244.9L797.2,244.9z
			 M797.6,248.9h-2v3.3h1.9c0.6,0,1.1-0.1,1.6-0.4c0.4-0.3,0.6-0.7,0.6-1.2c0-0.5-0.2-0.9-0.5-1.3
			C798.7,249,798.2,248.9,797.6,248.9L797.6,248.9z"/>
		<path class="st1" d="M803.4,253.3v-9.5h5.4l0.2,1h-4.2v3.1h3.3l0.2,1h-3.4v3.3h4.5l0.2,1L803.4,253.3z"/>
		<path class="st1" d="M811.7,253.3v-9.5h1.2l4.9,7v-7h1.4v9.5H818l-4.9-7.1v7.1H811.7z"/>
		<path class="st1" d="M825.8,253.3h-3.4v-9.5h3.4c1.2-0.1,2.4,0.4,3.2,1.3c0.7,1,1.1,2.2,1.1,3.4c0,0.9-0.2,1.7-0.5,2.5
			c-0.3,0.7-0.8,1.3-1.5,1.7C827.4,253.1,826.6,253.3,825.8,253.3z M825.9,244.9h-2.1v7.3h2c0.8,0,1.6-0.3,2.1-1
			c0.6-0.8,0.9-1.7,0.8-2.7c0-0.9-0.2-1.8-0.7-2.6C827.5,245.2,826.7,244.9,825.9,244.9L825.9,244.9z"/>
		<path class="st1" d="M836.3,243.8l3.7,9.4l-1.3,0.2l-1-2.7h-3.9l-1,2.6h-1.3l3.6-9.5L836.3,243.8z M835.7,245.6l-1.5,4.1h3.1
			L835.7,245.6z"/>
		<path class="st1" d="M847.6,253.3v-4.2h-4.2v4.2H842v-9.5l1.3-0.1v4.3h4.2v-4.2h1.4v9.5L847.6,253.3z"/>
		<path class="st1" d="M855.9,243.8l3.7,9.4l-1.3,0.2l-1-2.7h-3.9l-1,2.6H851l3.6-9.5L855.9,243.8z M855.2,245.6l-1.5,4.1h3.1
			L855.2,245.6z"/>
		<path class="st1" d="M861.6,243.8h2.7c0.9,0,1.8,0.2,2.6,0.7c0.7,0.5,1.1,1.3,1,2.1c0,0.5-0.2,1.1-0.5,1.5c-0.3,0.4-0.7,0.8-1.2,1
			l2.4,4.2h-1.5l-2.1-3.9c-0.3,0-0.6,0-0.9,0H863v3.8h-1.3L861.6,243.8z M864.4,244.9H863v3.5h1.3c0.6,0,1.1-0.1,1.6-0.4
			c0.4-0.3,0.7-0.8,0.6-1.3c0-0.5-0.2-1-0.6-1.4C865.5,245,864.9,244.9,864.4,244.9L864.4,244.9z"/>
		<path class="st1" d="M874.5,243.8l3.7,9.4l-1.3,0.2l-1-2.7h-3.9l-1,2.6h-1.3l3.6-9.5L874.5,243.8z M873.8,245.6l-1.5,4.1h3.1
			L873.8,245.6z"/>
		<path class="st0" d="M5,442.4h192c2.2,0,4,1.8,4,4v52c0,2.2-1.8,4-4,4H5c-2.2,0-4-1.8-4-4v-52C1,444.2,2.8,442.4,5,442.4z"/>
		<path class="st1" d="M79,469.6l-3.3-4.4l-1,1.1v3.3h-1.4v-9.5h1.3v4.4l4.3-4.6l1,0.8l-3.4,3.6l4.1,5.4L79,469.6z"/>
		<path class="st1" d="M86.6,459.8c1.7,0,3.2,0.9,4,2.4c0.8,1.6,0.8,3.5,0,5.1c-0.4,0.7-0.9,1.4-1.6,1.8c-0.7,0.4-1.5,0.7-2.4,0.7
			c-1.7,0-3.2-0.9-3.9-2.4c-0.8-1.6-0.8-3.5,0-5.1c0.4-0.7,0.9-1.3,1.6-1.8C84.9,460.1,85.7,459.9,86.6,459.8z M83.4,464.8
			c0,0.7,0.1,1.3,0.4,2c0.2,0.5,0.6,1,1.1,1.4c0.5,0.3,1,0.5,1.6,0.5c0.6,0,1.2-0.2,1.6-0.5c0.5-0.3,0.9-0.8,1.1-1.4
			c0.3-0.6,0.4-1.3,0.4-2c0-0.7-0.1-1.3-0.4-1.9c-0.2-0.5-0.6-1-1.1-1.3c-0.5-0.3-1-0.5-1.6-0.5c-0.6,0-1.2,0.2-1.6,0.5
			c-0.5,0.3-0.9,0.8-1.1,1.4C83.5,463.5,83.4,464.2,83.4,464.8L83.4,464.8z"/>
		<path class="st1" d="M97.6,466.5l-2.6-3.7v6.7h-1.4v-9.5h0.8l3.3,4.7l3.2-4.7h0.8v9.5h-1.4V463l-2.4,3.5L97.6,466.5z"/>
		<path class="st1" d="M105,469.6v-9.5h1.3v9.5H105z"/>
		<path class="st1" d="M109.1,469.1l0.3-1.1c0.4,0.2,0.7,0.3,1.1,0.4c0.4,0.1,0.8,0.2,1.3,0.2c0.5,0,1.1-0.1,1.5-0.4
			c0.3-0.2,0.6-0.6,0.6-1c0-0.3-0.1-0.6-0.3-0.8c-0.2-0.3-0.5-0.5-0.8-0.6c-0.3-0.2-0.8-0.4-1.4-0.7c-0.5-0.2-1-0.5-1.4-0.8
			c-0.3-0.2-0.6-0.5-0.8-0.9c-0.2-0.4-0.3-0.8-0.3-1.2c0-0.4,0.1-0.9,0.4-1.3c0.3-0.4,0.6-0.7,1.1-0.9c0.5-0.2,1.1-0.3,1.7-0.3
			c0.4,0,0.9,0.1,1.3,0.2c0.4,0.1,0.8,0.3,1.2,0.5l-0.4,1.1c-0.3-0.1-0.6-0.3-0.9-0.4c-0.3-0.1-0.7-0.1-1-0.1
			c-0.5,0-0.9,0.1-1.4,0.3c-0.3,0.2-0.5,0.5-0.5,0.9c0,0.3,0.1,0.6,0.3,0.8c0.2,0.3,0.5,0.5,0.8,0.6c0.3,0.2,0.8,0.4,1.4,0.7
			c0.7,0.3,1.3,0.7,1.9,1.2c0.4,0.4,0.6,1,0.6,1.6c0,0.5-0.1,0.9-0.4,1.3c-0.3,0.4-0.7,0.7-1.2,0.9c-0.6,0.2-1.2,0.3-1.8,0.3
			c-0.5,0-1-0.1-1.5-0.2C109.8,469.5,109.4,469.3,109.1,469.1z"/>
		<path class="st1" d="M117.5,469.6v-9.5h1.3v9.5H117.5z"/>
		<path class="st1" d="M127,469.6v-6.4l-1.5,0.8l-0.6-1.1l2.5-1.2h0.9v7.9H127z"/>
		<path class="st2" d="M49.4,475.3v4.7c0,0.5,0.1,1,0.5,1.4c0.7,0.7,1.8,0.7,2.5,0c0.3-0.4,0.5-0.9,0.5-1.4v-4.7h1.2v4.8
			c0,0.5-0.1,1-0.4,1.5c-0.2,0.4-0.6,0.8-1,1c-1,0.5-2.2,0.5-3.2,0c-0.4-0.2-0.8-0.6-1-1c-0.2-0.4-0.4-0.9-0.4-1.5v-4.8H49.4z"/>
		<path class="st2" d="M56.5,482.8v-7.5h1.2l3.7,5.3v-5.3h1.2v7.5h-1.2l-3.7-5.3v5.3H56.5z"/>
		<path class="st2" d="M67.8,482.8H65v-7.5h2.8c1-0.1,1.9,0.3,2.5,1c0.6,0.8,0.9,1.7,0.9,2.7c0,0.7-0.1,1.4-0.4,2
			c-0.2,0.6-0.7,1-1.2,1.3C69.1,482.6,68.4,482.8,67.8,482.8z M67.8,476.4h-1.6v5.4h1.5c0.6,0,1.2-0.2,1.6-0.7
			c0.4-0.6,0.6-1.3,0.6-2c0.1-0.7-0.1-1.4-0.5-2C69,476.5,68.4,476.3,67.8,476.4z"/>
		<path class="st2" d="M76.2,475.3l2.9,7.4l-1.2,0.2l-0.7-2h-2.9l-0.7,1.9h-1.2l2.9-7.5L76.2,475.3z M75.6,477l-1.1,2.9h2.2
			L75.6,477z"/>
		<path class="st2" d="M80.7,482.8v-7.5h1.2l3.7,5.3v-5.3h1.2v7.5h-1.2l-3.6-5.3v5.3H80.7z"/>
		<path class="st2" d="M92,479.7l0.1-1h2.6v3.6c-0.3,0.2-0.7,0.3-1,0.4c-0.4,0.1-0.8,0.2-1.2,0.1c-0.7,0-1.4-0.2-2-0.5
			c-0.6-0.3-1-0.8-1.3-1.4c-0.3-0.6-0.5-1.3-0.4-2c0-0.7,0.2-1.4,0.5-2c0.3-0.6,0.8-1.1,1.4-1.4c0.6-0.3,1.3-0.5,2-0.5
			c0.3,0,0.7,0,1,0.1c0.3,0.1,0.7,0.2,1,0.3l-0.4,0.9c-0.4-0.1-0.7-0.2-0.9-0.3c-0.2,0-0.5-0.1-0.7-0.1c-0.5,0-0.9,0.1-1.3,0.3
			c-0.4,0.2-0.7,0.6-0.9,1c-0.2,0.5-0.4,1-0.3,1.6c0,0.5,0.1,1,0.3,1.5c0.2,0.4,0.5,0.8,0.8,1c0.4,0.2,0.8,0.4,1.3,0.4
			c0.4,0,0.8,0,1.2-0.1v-2L92,479.7z"/>
		<path class="st2" d="M102.1,480.3h-2.8l-0.1-1h2.8L102.1,480.3z"/>
		<path class="st2" d="M108.2,475.3v4.7c0,0.5,0.1,1,0.5,1.4c0.7,0.7,1.8,0.7,2.6,0c0.3-0.4,0.5-0.9,0.5-1.4v-4.7h1.2v4.8
			c0,0.5-0.1,1-0.4,1.5c-0.2,0.4-0.6,0.8-1,1c-1,0.5-2.2,0.5-3.2,0c-0.4-0.2-0.8-0.6-1-1c-0.2-0.4-0.4-0.9-0.4-1.5v-4.8H108.2z"/>
		<path class="st2" d="M115.3,482.8v-7.5h1.2l3.7,5.3v-5.3h1.2v7.5h-1.2l-3.7-5.3v5.3H115.3z"/>
		<path class="st2" d="M126.6,482.8h-2.7v-7.5h2.8c1-0.1,1.9,0.3,2.5,1c0.6,0.8,0.9,1.7,0.9,2.7c0,0.7-0.1,1.4-0.4,2
			c-0.2,0.6-0.7,1-1.2,1.3C127.9,482.6,127.2,482.8,126.6,482.8z M126.7,476.4h-1.6v5.4h1.5c0.6,0,1.2-0.2,1.6-0.7
			c0.4-0.6,0.6-1.3,0.6-2c0.1-0.7-0.1-1.4-0.5-2C127.8,476.5,127.3,476.3,126.7,476.4L126.7,476.4z"/>
		<path class="st2" d="M135,475.3l2.9,7.4l-1.2,0.2l-0.7-2H133l-0.7,1.9h-1.2l2.9-7.5L135,475.3z M134.4,477l-1.1,2.9h2.2L134.4,477
			z"/>
		<path class="st2" d="M139.5,482.8v-7.5h1.2l3.7,5.3v-5.3h1.2v7.5h-1.2l-3.7-5.3v5.3H139.5z"/>
		<path class="st2" d="M150.8,479.7l0.1-1h2.6v3.6c-0.3,0.2-0.7,0.3-1,0.4c-0.4,0.1-0.8,0.2-1.2,0.1c-0.7,0-1.4-0.2-2-0.5
			c-0.6-0.3-1-0.8-1.3-1.4c-0.3-0.6-0.5-1.3-0.4-2c0-0.7,0.2-1.4,0.5-2c0.3-0.6,0.8-1.1,1.4-1.4c0.6-0.3,1.3-0.5,2-0.5
			c0.3,0,0.7,0,1,0.1c0.3,0.1,0.7,0.2,1,0.3l-0.4,0.9c-0.4-0.1-0.7-0.2-0.9-0.3c-0.2,0-0.5-0.1-0.7-0.1c-0.5,0-0.9,0.1-1.3,0.3
			c-0.4,0.2-0.7,0.6-0.9,1c-0.2,0.5-0.4,1-0.4,1.6c0,0.5,0.1,1,0.3,1.5c0.2,0.4,0.5,0.8,0.9,1c0.4,0.2,0.8,0.4,1.3,0.4
			c0.4,0,0.8,0,1.1-0.1v-2L150.8,479.7z"/>
		<path class="st0" d="M249,442.4h192c2.2,0,4,1.8,4,4v52c0,2.2-1.8,4-4,4H249c-2.2,0-4-1.8-4-4v-52
			C245,444.2,246.8,442.4,249,442.4z"/>
		<path class="st1" d="M321.9,469.6l-3.4-4.4l-1,1.1v3.3h-1.3v-9.5h1.3v4.4l4.3-4.6l1,0.8l-3.4,3.6l4.1,5.4L321.9,469.6z"/>
		<path class="st1" d="M329.5,459.8c1.7,0,3.2,0.9,4,2.4c0.8,1.6,0.8,3.5,0,5.1c-0.4,0.7-0.9,1.4-1.6,1.8c-0.7,0.4-1.5,0.7-2.4,0.7
			c-1.7,0-3.2-0.9-3.9-2.4c-0.8-1.6-0.8-3.5,0-5.1c0.4-0.7,0.9-1.3,1.6-1.8C327.8,460.1,328.6,459.9,329.5,459.8z M326.3,464.8
			c0,0.7,0.1,1.3,0.4,2c0.2,0.5,0.6,1,1.1,1.4c0.5,0.3,1,0.5,1.6,0.5c0.6,0,1.2-0.2,1.6-0.5c0.5-0.3,0.9-0.8,1.1-1.4
			c0.3-0.6,0.4-1.3,0.4-2c0-0.7-0.1-1.3-0.4-1.9c-0.2-0.5-0.6-1-1.1-1.3c-0.5-0.3-1-0.5-1.6-0.5c-0.6,0-1.2,0.2-1.6,0.5
			c-0.5,0.3-0.9,0.8-1.1,1.4C326.4,463.5,326.3,464.2,326.3,464.8L326.3,464.8z"/>
		<path class="st1" d="M340.5,466.5l-2.6-3.7v6.7h-1.4v-9.5h0.8l3.4,4.7l3.2-4.7h0.8v9.5h-1.4V463l-2.3,3.5L340.5,466.5z"/>
		<path class="st1" d="M347.9,469.6v-9.5h1.3v9.5H347.9z"/>
		<path class="st1" d="M351.9,469.1l0.3-1.1c0.4,0.2,0.7,0.3,1.1,0.4c0.4,0.1,0.8,0.2,1.3,0.2c0.5,0,1.1-0.1,1.5-0.4
			c0.3-0.2,0.6-0.6,0.5-1c0-0.3-0.1-0.6-0.3-0.8c-0.2-0.3-0.5-0.5-0.8-0.6c-0.3-0.2-0.8-0.4-1.4-0.7c-0.5-0.2-1-0.5-1.4-0.8
			c-0.3-0.2-0.6-0.5-0.8-0.9c-0.2-0.4-0.3-0.8-0.3-1.2c0-0.4,0.1-0.9,0.4-1.3c0.3-0.4,0.6-0.7,1.1-0.9c0.5-0.2,1.1-0.3,1.7-0.3
			c0.4,0,0.9,0.1,1.3,0.2c0.4,0.1,0.8,0.3,1.2,0.5l-0.5,1.1c-0.3-0.1-0.6-0.3-0.9-0.4c-0.3-0.1-0.7-0.1-1-0.1
			c-0.5,0-0.9,0.1-1.4,0.3c-0.3,0.2-0.5,0.5-0.5,0.9c0,0.3,0.1,0.6,0.3,0.8c0.2,0.3,0.5,0.5,0.8,0.6c0.3,0.2,0.8,0.4,1.4,0.7
			c0.7,0.3,1.3,0.7,1.9,1.2c0.4,0.4,0.6,1,0.6,1.6c0,0.5-0.1,0.9-0.4,1.3c-0.3,0.4-0.7,0.7-1.2,0.9c-0.6,0.2-1.2,0.3-1.9,0.3
			c-0.5,0-1-0.1-1.5-0.2C352.7,469.5,352.3,469.3,351.9,469.1z"/>
		<path class="st1" d="M360.4,469.6v-9.5h1.3v9.5H360.4z"/>
		<path class="st1" d="M370.7,461.5c0.8,0,1.5,0.2,2.2,0.6c0.5,0.4,0.8,1,0.8,1.7c0,0.6-0.2,1.1-0.5,1.6c-0.5,0.7-1,1.3-1.6,1.7
			l-1.8,1.5h4l0.3,1h-6v-0.9l3-2.6c0.4-0.4,0.8-0.7,1.1-1.2c0.2-0.3,0.3-0.6,0.4-1c0-0.4-0.1-0.8-0.5-1c-0.4-0.2-0.8-0.4-1.3-0.3
			c-0.4,0-0.8,0.1-1.1,0.2c-0.4,0.2-0.7,0.3-1.1,0.5l-0.3-1.1c0.4-0.2,0.7-0.4,1.1-0.5C369.8,461.5,370.3,461.5,370.7,461.5z"/>
		<path class="st2" d="M292.6,475.6l-0.4,0.9c-0.4-0.1-0.7-0.2-0.9-0.3c-0.2,0-0.5-0.1-0.7-0.1c-0.4,0-0.8,0.1-1.1,0.4
			c-0.4,0.3-0.6,0.6-0.8,1c-0.2,0.5-0.3,1-0.3,1.5c0,0.5,0.1,1,0.3,1.4c0.2,0.4,0.4,0.7,0.8,1c0.3,0.3,0.7,0.4,1.2,0.4
			c0.6,0,1.1-0.1,1.6-0.3l0.5,0.9c-0.3,0.2-0.7,0.3-1,0.3c-0.4,0.1-0.7,0.1-1.1,0.1c-0.7,0-1.3-0.2-1.9-0.5
			c-0.5-0.3-0.9-0.8-1.2-1.4c-0.3-0.6-0.4-1.3-0.4-2c0-0.7,0.1-1.4,0.4-2c0.3-0.6,0.7-1.1,1.3-1.4c0.6-0.3,1.2-0.5,1.9-0.5
			c0.3,0,0.7,0,1,0.1C292,475.3,292.3,475.4,292.6,475.6z"/>
		<path class="st2" d="M299.3,475.6l-0.4,0.9c-0.4-0.1-0.7-0.2-0.9-0.3c-0.2,0-0.5-0.1-0.7-0.1c-0.4,0-0.8,0.1-1.1,0.4
			c-0.4,0.3-0.6,0.6-0.8,1c-0.2,0.5-0.3,1-0.3,1.5c0,0.5,0.1,1,0.3,1.4c0.2,0.4,0.4,0.7,0.8,1c0.3,0.3,0.7,0.4,1.2,0.4
			c0.6,0,1.1-0.1,1.6-0.3l0.5,0.9c-0.3,0.2-0.7,0.3-1,0.3c-0.4,0.1-0.7,0.1-1.1,0.1c-0.7,0-1.3-0.2-1.9-0.5
			c-0.5-0.3-0.9-0.8-1.2-1.4c-0.3-0.6-0.4-1.3-0.4-2c0-0.7,0.1-1.4,0.4-2c0.3-0.6,0.7-1.1,1.3-1.4c0.6-0.3,1.2-0.5,1.9-0.5
			c0.3,0,0.7,0,1,0.1C298.7,475.3,299,475.4,299.3,475.6z"/>
		<path class="st2" d="M306.4,476.3h-2.6v6.5h-1.3v-6.5h-2.4v-1h6L306.4,476.3z"/>
		<path class="st2" d="M310.6,481.1l2.2-5.8h1.2l-2.9,7.5H310l-2.9-7.4l1.2-0.2L310.6,481.1z"/>
		<path class="st2" d="M320.6,482.9l-1,0.4c-0.4-0.6-0.8-1.2-1-1.9c-0.2-0.7-0.4-1.4-0.4-2.1c0-0.7,0.1-1.4,0.4-2
			c0.2-0.7,0.6-1.3,1-1.9l1,0.4c-0.4,0.5-0.6,1.1-0.8,1.7c-0.2,0.6-0.3,1.3-0.4,1.9c0,0.7,0.1,1.3,0.4,2
			C319.9,481.8,320.2,482.4,320.6,482.9z"/>
		<path class="st2" d="M323.7,482.8h-1.2v-7.5h2.2c0.7,0,1.5,0.2,2.1,0.6c0.6,0.4,0.9,1.1,0.8,1.8c0,0.5-0.1,1-0.4,1.4
			c-0.3,0.4-0.7,0.6-1.1,0.8c-0.5,0.2-1,0.3-1.5,0.3h-0.9L323.7,482.8z M324.7,476.3h-1v2.7h1c0.4,0,0.8-0.1,1.2-0.3
			c0.6-0.5,0.6-1.5,0.1-2.1c0,0,0,0,0,0C325.5,476.4,325.1,476.3,324.7,476.3L324.7,476.3z"/>
		<path class="st2" d="M329.4,482.8v-7.5h4.3l0.2,1h-3.3v2.2h2.5l0.2,1h-2.7v2.3h3.6l0.2,1L329.4,482.8z"/>
		<path class="st2" d="M336.1,482.8v-7.5h1.2l3.7,5.3v-5.3h1.2v7.5H341l-3.7-5.3v5.3H336.1z"/>
		<path class="st2" d="M347.4,479.7l0.1-1h2.6v3.6c-0.3,0.2-0.7,0.3-1,0.4c-0.4,0.1-0.8,0.2-1.2,0.1c-0.7,0-1.4-0.2-2-0.5
			c-0.6-0.3-1-0.8-1.3-1.4c-0.3-0.6-0.5-1.3-0.5-2c0-0.7,0.2-1.4,0.5-2c0.3-0.6,0.8-1.1,1.4-1.4c0.6-0.3,1.3-0.5,2-0.5
			c0.3,0,0.7,0,1,0.1c0.3,0.1,0.7,0.2,1,0.3l-0.4,0.9c-0.4-0.1-0.7-0.2-0.9-0.3c-0.2,0-0.5-0.1-0.7-0.1c-0.5,0-0.9,0.1-1.3,0.3
			c-0.4,0.2-0.7,0.6-1,1c-0.2,0.5-0.4,1-0.4,1.6c0,0.5,0.1,1,0.3,1.5c0.2,0.4,0.5,0.8,0.9,1c0.4,0.2,0.8,0.4,1.3,0.4
			c0.4,0,0.8,0,1.2-0.1v-2L347.4,479.7z"/>
		<path class="st2" d="M355.2,475.3l2.9,7.4l-1.2,0.2l-0.7-2h-2.9l-0.7,1.9h-1.2l2.9-7.5L355.2,475.3z M354.7,477l-1.1,2.9h2.2
			L354.7,477z"/>
		<path class="st2" d="M368.7,475.3l-2.2,7.5h-1.1l-1.6-5.7l-1.6,5.7h-1.1l-2.2-7.4l1.2-0.2l1.6,5.9l1.5-5.8h1.2l1.5,5.8l1.5-5.8
			L368.7,475.3z"/>
		<path class="st2" d="M373.4,475.3l2.9,7.4l-1.2,0.2l-0.7-2h-2.9l-0.7,1.9h-1.2l2.9-7.5L373.4,475.3z M372.8,477l-1.1,2.9h2.2
			L372.8,477z"/>
		<path class="st2" d="M377.5,482.3l0.3-1c0.3,0.1,0.6,0.3,0.9,0.3c0.3,0.1,0.7,0.2,1,0.1c0.4,0,0.8-0.1,1.1-0.3
			c0.2-0.1,0.4-0.4,0.4-0.7c0-0.2-0.1-0.4-0.2-0.5c-0.2-0.2-0.3-0.3-0.5-0.4c-0.2-0.1-0.5-0.3-0.9-0.5c-0.6-0.3-1.1-0.6-1.6-1
			c-0.3-0.3-0.5-0.8-0.5-1.3c0-0.4,0.1-0.7,0.3-1c0.2-0.3,0.5-0.6,0.9-0.7c0.4-0.2,0.9-0.3,1.3-0.3c0.4,0,0.7,0.1,1,0.1
			c0.3,0.1,0.7,0.2,1,0.4l-0.4,1c-0.3-0.1-0.5-0.2-0.8-0.3c-0.3-0.1-0.5-0.1-0.8-0.1c-0.3,0-0.6,0.1-0.9,0.2
			c-0.2,0.1-0.4,0.4-0.4,0.6c0,0.2,0.1,0.4,0.2,0.5c0.1,0.2,0.3,0.3,0.5,0.4c0.2,0.1,0.5,0.3,1,0.5c0.4,0.2,0.8,0.4,1.1,0.6
			c0.3,0.2,0.5,0.4,0.7,0.7c0.2,0.3,0.3,0.6,0.3,1c0,0.4-0.1,0.7-0.3,1.1c-0.2,0.3-0.6,0.6-0.9,0.7c-0.5,0.2-1,0.3-1.5,0.3
			c-0.4,0-0.8-0.1-1.2-0.2C378.1,482.7,377.8,482.5,377.5,482.3z"/>
		<path class="st2" d="M387.3,475.3l2.9,7.4l-1.2,0.2l-0.7-2h-2.9l-0.7,1.9h-1.2l2.9-7.5L387.3,475.3z M386.7,477l-1.1,2.9h2.2
			L386.7,477z"/>
		<path class="st2" d="M391.8,482.8v-7.5h1.2l3.7,5.3v-5.3h1.2v7.5h-1.2l-3.7-5.3v5.3H391.8z"/>
		<path class="st2" d="M399.7,475.7l1-0.4c0.4,0.6,0.8,1.2,1,1.9c0.2,0.7,0.4,1.4,0.4,2.1c0,0.7-0.1,1.4-0.4,2c-0.2,0.7-0.6,1.3-1,2
			l-1-0.3c0.4-0.5,0.6-1.1,0.8-1.7c0.2-0.6,0.3-1.3,0.4-1.9c0-0.7-0.1-1.3-0.4-1.9C400.4,476.7,400.1,476.2,399.7,475.7z"/>
		<path class="st0" d="M493,442.4h192c2.2,0,4,1.8,4,4v52c0,2.2-1.8,4-4,4H493c-2.2,0-4-1.8-4-4v-52
			C489,444.2,490.8,442.4,493,442.4z"/>
		<path class="st1" d="M565.9,469.6l-3.3-4.4l-1,1.1v3.3h-1.3v-9.5h1.3v4.4l4.3-4.6l1,0.8l-3.4,3.6l4.1,5.4L565.9,469.6z"/>
		<path class="st1" d="M573.5,459.8c1.7,0,3.2,0.9,4,2.4c0.8,1.6,0.8,3.5,0,5.1c-0.4,0.7-0.9,1.4-1.6,1.8c-0.7,0.4-1.5,0.7-2.4,0.7
			c-1.7,0-3.2-0.9-3.9-2.4c-0.8-1.6-0.8-3.5,0-5.1c0.4-0.7,0.9-1.3,1.6-1.8C571.9,460.1,572.7,459.9,573.5,459.8z M570.4,464.8
			c0,0.7,0.1,1.3,0.4,2c0.2,0.5,0.6,1,1.1,1.4c0.5,0.3,1,0.5,1.6,0.5c0.6,0,1.2-0.2,1.6-0.5c0.5-0.3,0.9-0.8,1.1-1.4
			c0.3-0.6,0.4-1.3,0.4-2c0-0.7-0.1-1.3-0.4-1.9c-0.2-0.5-0.6-1-1.1-1.3c-0.5-0.3-1-0.5-1.6-0.5c-0.6,0-1.2,0.2-1.6,0.5
			c-0.5,0.3-0.9,0.8-1.1,1.4C570.5,463.5,570.3,464.2,570.4,464.8L570.4,464.8z"/>
		<path class="st1" d="M584.5,466.5l-2.6-3.7v6.7h-1.3v-9.5h0.8l3.3,4.7l3.2-4.7h0.8v9.5h-1.4V463l-2.4,3.5L584.5,466.5z"/>
		<path class="st1" d="M592,469.6v-9.5h1.3v9.5H592z"/>
		<path class="st1" d="M596,469.1l0.3-1.1c0.4,0.2,0.7,0.3,1.1,0.4c0.4,0.1,0.8,0.2,1.3,0.2c0.5,0,1.1-0.1,1.5-0.4
			c0.3-0.2,0.6-0.6,0.5-1c0-0.3-0.1-0.6-0.3-0.8c-0.2-0.3-0.5-0.5-0.8-0.6c-0.3-0.2-0.8-0.4-1.4-0.7c-0.5-0.2-1-0.5-1.4-0.8
			c-0.3-0.2-0.6-0.5-0.8-0.9c-0.2-0.4-0.3-0.8-0.3-1.2c0-0.4,0.1-0.9,0.4-1.3c0.3-0.4,0.6-0.7,1.1-0.9c0.5-0.2,1.1-0.3,1.7-0.3
			c0.4,0,0.9,0.1,1.3,0.2c0.4,0.1,0.8,0.3,1.2,0.5l-0.5,1.1c-0.3-0.1-0.6-0.3-0.9-0.4c-0.3-0.1-0.7-0.1-1-0.1
			c-0.5,0-0.9,0.1-1.4,0.3c-0.3,0.2-0.5,0.5-0.5,0.9c0,0.3,0.1,0.6,0.3,0.8c0.2,0.3,0.5,0.5,0.8,0.6c0.3,0.2,0.8,0.4,1.4,0.7
			c0.7,0.3,1.3,0.7,1.9,1.2c0.4,0.4,0.6,1,0.6,1.6c0,0.5-0.1,0.9-0.4,1.3c-0.3,0.4-0.7,0.7-1.2,0.9c-0.6,0.2-1.2,0.3-1.8,0.3
			c-0.5,0-1-0.1-1.5-0.2C596.8,469.5,596.4,469.3,596,469.1z"/>
		<path class="st1" d="M604.5,469.6v-9.5h1.3v9.5H604.5z"/>
		<path class="st1" d="M614.8,461.5c0.5,0,1.1,0.1,1.6,0.3c0.4,0.2,0.8,0.5,1,0.9c0.2,0.4,0.3,0.8,0.3,1.2c0,0.4-0.1,0.9-0.4,1.2
			c-0.2,0.3-0.6,0.6-1,0.8c0.4,0.1,0.8,0.4,1.1,0.8c0.3,0.4,0.5,0.9,0.5,1.5c0,0.5-0.1,0.9-0.4,1.4c-0.3,0.4-0.7,0.8-1.1,1
			c-0.5,0.2-1.1,0.4-1.7,0.3c-0.5,0-1-0.1-1.5-0.2c-0.5-0.1-0.9-0.3-1.4-0.6l0.7-0.9c0.3,0.2,0.7,0.4,1,0.5c0.4,0.1,0.8,0.2,1.2,0.1
			c0.5,0,1-0.1,1.3-0.4c0.4-0.3,0.6-0.7,0.6-1.1c0-0.5-0.2-0.9-0.6-1.2c-0.6-0.3-1.2-0.5-1.8-0.5h-0.4l-0.2-1h0.7
			c0.6,0,1.1-0.1,1.6-0.4c0.4-0.2,0.6-0.6,0.6-1.1c0-0.4-0.2-0.7-0.5-0.9c-0.3-0.3-0.8-0.4-1.2-0.4c-0.4,0-0.8,0.1-1.2,0.2
			c-0.4,0.1-0.7,0.3-1,0.5l-0.6-0.9C612.7,461.8,613.7,461.5,614.8,461.5z"/>
		<path class="st2" d="M533.3,475.3l2.9,7.4l-1.2,0.2l-0.7-2h-2.9l-0.7,1.9h-1.2l2.9-7.5L533.3,475.3z M532.8,477l-1.1,2.9h2.2
			L532.8,477z"/>
		<path class="st2" d="M537.4,482.3l0.3-1c0.3,0.1,0.6,0.3,0.9,0.3c0.3,0.1,0.7,0.2,1,0.1c0.4,0,0.8-0.1,1.1-0.3
			c0.2-0.1,0.4-0.4,0.4-0.7c0-0.2-0.1-0.4-0.2-0.5c-0.2-0.2-0.3-0.3-0.5-0.4c-0.2-0.1-0.5-0.3-0.9-0.5c-0.6-0.3-1.1-0.6-1.6-1
			c-0.3-0.3-0.5-0.8-0.5-1.3c0-0.4,0.1-0.7,0.3-1c0.2-0.3,0.5-0.6,0.9-0.7c0.4-0.2,0.9-0.3,1.3-0.3c0.4,0,0.7,0.1,1,0.1
			c0.3,0.1,0.7,0.2,1,0.4l-0.4,1c-0.3-0.1-0.5-0.2-0.8-0.3c-0.3-0.1-0.5-0.1-0.8-0.1c-0.3,0-0.7,0.1-0.9,0.2
			c-0.2,0.1-0.4,0.4-0.4,0.6c0,0.2,0.1,0.4,0.2,0.5c0.1,0.2,0.3,0.3,0.5,0.4c0.2,0.1,0.5,0.3,1,0.5c0.4,0.2,0.8,0.4,1.1,0.6
			c0.3,0.2,0.5,0.4,0.7,0.7c0.2,0.3,0.3,0.6,0.3,1c0,0.4-0.1,0.7-0.3,1.1c-0.2,0.3-0.6,0.6-0.9,0.7c-0.5,0.2-1,0.3-1.5,0.3
			c-0.4,0-0.8-0.1-1.2-0.2C538.1,482.7,537.7,482.5,537.4,482.3z"/>
		<path class="st2" d="M545.4,482.8h-1.2v-7.5h2.2c0.7,0,1.5,0.2,2.1,0.6c0.6,0.4,0.9,1.1,0.8,1.8c0,0.5-0.1,1-0.4,1.4
			c-0.3,0.4-0.7,0.6-1.1,0.8c-0.5,0.2-1,0.3-1.5,0.3h-0.9L545.4,482.8z M546.4,476.3h-1v2.7h1c0.4,0,0.8-0.1,1.2-0.3
			c0.6-0.5,0.6-1.5,0.1-2.1c0,0,0,0,0,0C547.2,476.4,546.8,476.3,546.4,476.3L546.4,476.3z"/>
		<path class="st2" d="M551.1,482.8v-7.5h1.2v7.5H551.1z"/>
		<path class="st2" d="M554.8,475.3h2.2c0.7,0,1.5,0.2,2.1,0.6c0.5,0.4,0.8,1,0.8,1.7c0,0.4-0.1,0.8-0.3,1.2
			c-0.2,0.3-0.6,0.6-0.9,0.8l1.9,3.3h-1.3l-1.6-3c-0.2,0-0.4,0-0.6,0H556v2.9h-1.2L554.8,475.3z M557,476.3h-1v2.5h1
			c0.4,0,0.8-0.1,1.2-0.3c0.3-0.2,0.5-0.6,0.5-1c0-0.4-0.1-0.8-0.4-1C557.8,476.4,557.4,476.3,557,476.3L557,476.3z"/>
		<path class="st2" d="M565.2,475.3l2.9,7.4l-1.2,0.2l-0.7-2h-2.9l-0.7,1.9h-1.2l2.9-7.5L565.2,475.3z M564.6,477l-1.1,2.9h2.2
			L564.6,477z"/>
		<path class="st2" d="M569.3,482.3l0.3-1c0.3,0.1,0.6,0.3,0.9,0.3c0.3,0.1,0.7,0.2,1,0.1c0.4,0,0.8-0.1,1.1-0.3
			c0.2-0.1,0.4-0.4,0.4-0.7c0-0.2-0.1-0.4-0.2-0.5c-0.2-0.2-0.3-0.3-0.5-0.4c-0.2-0.1-0.5-0.3-0.9-0.5c-0.6-0.3-1.1-0.6-1.6-1
			c-0.3-0.3-0.5-0.8-0.5-1.3c0-0.4,0.1-0.7,0.3-1c0.2-0.3,0.5-0.6,0.9-0.7c0.4-0.2,0.9-0.3,1.3-0.3c0.4,0,0.7,0.1,1,0.1
			c0.3,0.1,0.7,0.2,1,0.4l-0.4,1c-0.3-0.1-0.5-0.2-0.8-0.3c-0.3-0.1-0.5-0.1-0.8-0.1c-0.3,0-0.7,0.1-0.9,0.2
			c-0.2,0.1-0.4,0.4-0.4,0.6c0,0.2,0.1,0.4,0.2,0.5c0.1,0.2,0.3,0.3,0.5,0.4c0.2,0.1,0.5,0.3,1,0.5c0.4,0.2,0.8,0.4,1.1,0.6
			c0.3,0.2,0.5,0.4,0.7,0.7c0.2,0.3,0.3,0.6,0.3,1c0,0.4-0.1,0.7-0.3,1.1c-0.2,0.3-0.6,0.6-0.9,0.7c-0.5,0.2-1,0.3-1.5,0.3
			c-0.4,0-0.8-0.1-1.2-0.2C570,482.7,569.6,482.5,569.3,482.3z"/>
		<path class="st2" d="M576,482.8v-7.5h1.2v7.5H576z"/>
		<path class="st2" d="M585.9,480.5l-1.9-2.6v4.9h-1.2v-7.5h0.8l2.6,3.6l2.4-3.6h0.8v7.5H588V478l-1.6,2.4L585.9,480.5z"/>
		<path class="st2" d="M594.8,475.3l2.9,7.4l-1.2,0.2l-0.7-2h-2.9l-0.7,1.9h-1.2l2.9-7.5L594.8,475.3z M594.3,477l-1.1,2.9h2.2
			L594.3,477z"/>
		<path class="st2" d="M603.7,482.8v-3.3h-3.1v3.3h-1.2v-7.5l1.2-0.1v3.3h3.1v-3.2h1.3v7.5H603.7z"/>
		<path class="st2" d="M610.5,475.3l2.9,7.4l-1.2,0.2l-0.7-2h-2.9l-0.7,1.9h-1.2l2.9-7.5L610.5,475.3z M610,477l-1.1,2.9h2.2
			L610,477z"/>
		<path class="st2" d="M614.6,482.3l0.3-1c0.3,0.1,0.6,0.3,0.9,0.3c0.3,0.1,0.7,0.2,1,0.1c0.4,0,0.8-0.1,1.1-0.3
			c0.2-0.1,0.4-0.4,0.4-0.7c0-0.2-0.1-0.4-0.2-0.5c-0.2-0.2-0.3-0.3-0.5-0.4c-0.2-0.1-0.5-0.3-0.9-0.5c-0.6-0.3-1.1-0.6-1.6-1
			c-0.3-0.3-0.5-0.8-0.5-1.3c0-0.4,0.1-0.7,0.3-1c0.2-0.3,0.5-0.6,0.9-0.7c0.4-0.2,0.9-0.3,1.3-0.3c0.4,0,0.7,0.1,1,0.1
			c0.3,0.1,0.7,0.2,1,0.4l-0.4,1c-0.3-0.1-0.5-0.2-0.8-0.3c-0.3-0.1-0.5-0.1-0.8-0.1c-0.3,0-0.6,0.1-0.9,0.2
			c-0.2,0.1-0.4,0.4-0.4,0.6c0,0.2,0.1,0.4,0.2,0.5c0.1,0.2,0.3,0.3,0.5,0.4c0.2,0.1,0.5,0.3,1,0.5c0.4,0.2,0.8,0.4,1.1,0.6
			c0.3,0.2,0.5,0.4,0.7,0.7c0.2,0.3,0.3,0.6,0.3,1c0,0.4-0.1,0.7-0.3,1.1c-0.2,0.3-0.6,0.6-0.9,0.7c-0.5,0.2-1,0.3-1.5,0.3
			c-0.4,0-0.8-0.1-1.2-0.2C615.3,482.7,614.9,482.5,614.6,482.3z"/>
		<path class="st2" d="M621.3,482.8v-7.5h1.2v7.5H621.3z"/>
		<path class="st2" d="M624.6,482.3l0.3-1c0.3,0.1,0.6,0.3,0.9,0.3c0.3,0.1,0.7,0.2,1,0.1c0.4,0,0.8-0.1,1.1-0.3
			c0.2-0.1,0.4-0.4,0.4-0.7c0-0.2-0.1-0.4-0.2-0.5c-0.2-0.2-0.3-0.3-0.5-0.4c-0.2-0.1-0.5-0.3-0.9-0.5c-0.6-0.3-1.1-0.6-1.6-1
			c-0.3-0.3-0.5-0.8-0.5-1.3c0-0.4,0.1-0.7,0.3-1c0.2-0.3,0.5-0.6,0.9-0.7c0.4-0.2,0.9-0.3,1.3-0.3c0.4,0,0.7,0.1,1,0.1
			c0.3,0.1,0.7,0.2,1,0.4l-0.4,1c-0.3-0.1-0.5-0.2-0.8-0.3c-0.3-0.1-0.5-0.1-0.8-0.1c-0.3,0-0.6,0.1-0.9,0.2
			c-0.2,0.1-0.4,0.4-0.4,0.6c0,0.2,0.1,0.4,0.2,0.5c0.1,0.2,0.3,0.3,0.5,0.4c0.2,0.1,0.5,0.3,1,0.5c0.4,0.2,0.8,0.4,1.1,0.6
			c0.3,0.2,0.5,0.4,0.7,0.7c0.2,0.3,0.3,0.6,0.3,1c0,0.4-0.1,0.7-0.3,1.1c-0.2,0.3-0.6,0.6-0.9,0.7c-0.5,0.2-1,0.3-1.5,0.3
			c-0.4,0-0.8-0.1-1.2-0.2C625.3,482.7,624.9,482.5,624.6,482.3z"/>
		<path class="st2" d="M640.3,475.3l-2.3,7.5h-1l-1.6-5.7l-1.6,5.7h-1.1l-2.2-7.4l1.2-0.2l1.6,5.9l1.5-5.8h1.2l1.5,5.8l1.5-5.8
			L640.3,475.3z"/>
		<path class="st2" d="M645,475.3l2.9,7.4l-1.2,0.2l-0.7-2H643l-0.7,1.9H641l2.9-7.5L645,475.3z M644.4,477l-1.1,2.9h2.2L644.4,477z
			"/>
		<path class="st3" d="M100.3,223.1v-77c0-5.5,4.5-10,10-10h716c5.5,0,10,4.5,10,10v77"/>
		<line class="st3" x1="588.3" y1="223.1" x2="588.3" y2="136.1"/>
		<line class="st3" x1="468.3" y1="50.1" x2="468.3" y2="136.1"/>
		<line class="st3" x1="345.3" y1="136.1" x2="345.3" y2="441.1"/>
		<path class="st3" d="M100.3,441.1v-72c0-5.5,4.5-10,10-10h468c5.5,0,10,4.5,10,10v72"/>
		<circle class="st4" cx="100.7" cy="223.8" r="5"/>
		<circle class="st4" cx="588" cy="223.8" r="5"/>
		<circle class="st4" cx="836.2" cy="223.8" r="5"/>
		<circle class="st4" cx="469" cy="50.7" r="5"/>
		<circle class="st4" cx="100.7" cy="441.9" r="5"/>
		<circle class="st4" cx="345.9" cy="441.9" r="5"/>
		<circle class="st4" cx="589" cy="441.9" r="5"/>
	</g>
</g>
<g>
	<path class="st1" d="M83.4,255.2H82v-4.6h-5.4v4.6h-1.4v-10h1.4v4.5H82v-4.5h1.4V255.2z"/>
	<path class="st1" d="M90,254.1c0.4,0,0.8-0.1,1.1-0.2s0.6-0.3,0.8-0.6c0.2-0.3,0.4-0.6,0.5-0.9c0.1-0.3,0.2-0.7,0.2-1.2v-6.1H94
		v6.1c0,0.6-0.1,1.1-0.3,1.6c-0.2,0.5-0.4,0.9-0.8,1.3c-0.3,0.4-0.8,0.6-1.3,0.8c-0.5,0.2-1.1,0.3-1.7,0.3c-0.6,0-1.2-0.1-1.7-0.3
		c-0.5-0.2-0.9-0.5-1.3-0.8c-0.3-0.4-0.6-0.8-0.8-1.3c-0.2-0.5-0.3-1-0.3-1.6v-6.1h1.4v6.1c0,0.4,0.1,0.8,0.2,1.2
		c0.1,0.4,0.3,0.7,0.5,0.9c0.2,0.3,0.5,0.4,0.8,0.6C89.2,254,89.6,254.1,90,254.1z"/>
	<path class="st1" d="M101.7,251.9c0,0.1,0.1,0.2,0.1,0.4c0-0.1,0.1-0.3,0.1-0.4c0.1-0.1,0.1-0.2,0.2-0.4l3.4-6.2
		c0.1-0.1,0.1-0.2,0.2-0.2s0.2,0,0.3,0h1v10h-1.2v-7.4c0-0.1,0-0.2,0-0.3c0-0.1,0-0.2,0-0.3l-3.4,6.3c-0.1,0.2-0.3,0.3-0.5,0.3h-0.2
		c-0.2,0-0.4-0.1-0.5-0.3l-3.5-6.3c0,0.1,0,0.2,0,0.4c0,0.1,0,0.2,0,0.3v7.4h-1.2v-10h1c0.1,0,0.2,0,0.3,0s0.1,0.1,0.2,0.2l3.5,6.2
		C101.6,251.7,101.6,251.8,101.7,251.9z"/>
	<path class="st1" d="M118,255.2h-1.1c-0.1,0-0.2,0-0.3-0.1s-0.1-0.1-0.2-0.2l-0.9-2.4H111l-0.9,2.4c0,0.1-0.1,0.2-0.2,0.2
		c-0.1,0.1-0.2,0.1-0.3,0.1h-1.1l4-10h1.4L118,255.2z M111.4,251.5h3.7l-1.6-4.1c-0.1-0.3-0.2-0.6-0.3-0.9c-0.1,0.2-0.1,0.4-0.2,0.5
		c0,0.2-0.1,0.3-0.1,0.4L111.4,251.5z"/>
	<path class="st1" d="M124.7,246.7c0,0.1-0.1,0.1-0.1,0.2c0,0-0.1,0.1-0.2,0.1c-0.1,0-0.2,0-0.3-0.1s-0.2-0.2-0.4-0.3
		c-0.2-0.1-0.4-0.2-0.6-0.3c-0.2-0.1-0.5-0.1-0.8-0.1c-0.3,0-0.6,0-0.8,0.1c-0.2,0.1-0.4,0.2-0.6,0.3c-0.2,0.1-0.3,0.3-0.4,0.5
		c-0.1,0.2-0.1,0.4-0.1,0.6c0,0.3,0.1,0.5,0.2,0.7c0.1,0.2,0.3,0.3,0.5,0.5c0.2,0.1,0.5,0.2,0.8,0.3s0.6,0.2,0.9,0.3
		c0.3,0.1,0.6,0.2,0.9,0.3c0.3,0.1,0.5,0.3,0.8,0.5c0.2,0.2,0.4,0.4,0.5,0.7c0.1,0.3,0.2,0.6,0.2,1c0,0.4-0.1,0.9-0.2,1.2
		s-0.4,0.7-0.7,1c-0.3,0.3-0.6,0.5-1.1,0.7c-0.4,0.2-0.9,0.2-1.4,0.2c-0.6,0-1.2-0.1-1.8-0.4c-0.5-0.2-1-0.6-1.4-1l0.4-0.6
		c0-0.1,0.1-0.1,0.1-0.1s0.1-0.1,0.2-0.1c0.1,0,0.2,0.1,0.3,0.2c0.1,0.1,0.3,0.2,0.5,0.3s0.4,0.2,0.7,0.3c0.3,0.1,0.6,0.2,1,0.2
		c0.3,0,0.6,0,0.9-0.1c0.3-0.1,0.5-0.2,0.6-0.4c0.2-0.2,0.3-0.4,0.4-0.6c0.1-0.2,0.1-0.5,0.1-0.7c0-0.3-0.1-0.6-0.2-0.7
		c-0.1-0.2-0.3-0.4-0.5-0.5c-0.2-0.1-0.5-0.2-0.8-0.3c-0.3-0.1-0.6-0.2-0.9-0.3c-0.3-0.1-0.6-0.2-0.9-0.3s-0.5-0.3-0.8-0.5
		c-0.2-0.2-0.4-0.5-0.5-0.8s-0.2-0.7-0.2-1.1c0-0.4,0.1-0.7,0.2-1s0.3-0.6,0.6-0.9s0.6-0.5,1-0.6c0.4-0.2,0.8-0.2,1.3-0.2
		c0.6,0,1.1,0.1,1.5,0.3s0.9,0.4,1.2,0.8L124.7,246.7z"/>
</g>
</svg>
