<svg xmlns="http://www.w3.org/2000/svg" width="1519.97" height="638.57" viewBox="0 0 1519.97 638.57"><defs><style>.cls-1,.cls-2,.cls-3{fill:none;stroke-miterlimit:10;stroke-width:2px;}.cls-1,.cls-2{stroke:#262f49;}.cls-2{stroke-dasharray:8;}.cls-3{stroke:#353e68;}.cls-4{fill:#c3c7db;}.cls-5{fill:#f6871e;}.cls-6{fill:#025eb7;}.cls-7{fill:#4d5d7c;}</style></defs><title>Asset 17</title><g id="Layer_2" data-name="Layer 2"><g id="Layer_1_copy_7" data-name="Layer 1 copy 7"><path class="cls-1" d="M260.64,573.69l.17-35.53a10,10,0,0,1,10-10h199a10,10,0,0,1,10,10l0,36.17"/><path class="cls-1" d="M705.92,574l-.24-35.77a10,10,0,0,1,10-10H1055.9a10,10,0,0,1,10,10V574"/><line class="cls-1" x1="885.8" y1="462.22" x2="886.04" y2="574.03"/><line class="cls-1" x1="370.3" y1="462.69" x2="370.3" y2="528.03"/><line class="cls-1" x1="370.4" y1="394.88" x2="370.3" y2="316.69"/><line class="cls-1" x1="633.17" y1="394.6" x2="633.17" y2="316.69"/><line class="cls-1" x1="885.99" y1="394.6" x2="885.99" y2="316.69"/><line class="cls-1" x1="1148.48" y1="394.6" x2="1148.48" y2="316.69"/><line class="cls-1" x1="760.65" y1="51.03" x2="760.83" y2="318.53"/><path class="cls-1" d="M542.51,162l-.25-25a10,10,0,0,1,10-10.1H760.83"/><path class="cls-1" d="M981.49,126.89V95.72a10,10,0,0,0-10-10H760.83"/><path class="cls-1" d="M108.16,394.36V326.69a10,10,0,0,1,10-10h1283a10,10,0,0,1,10,10l-.17,68.09"/><line class="cls-2" x1="1160.15" y1="394.57" x2="1160.15" y2="328.69"/><line class="cls-2" x1="896.82" y1="394.57" x2="896.82" y2="328.69"/><line class="cls-2" x1="645.5" y1="394.57" x2="645.5" y2="328.69"/><line class="cls-2" x1="382.84" y1="394.57" x2="382.84" y2="328.69"/><path class="cls-2" d="M772.16,328.69"/><line class="cls-2" x1="772.16" y1="51.11" x2="772.16" y2="328.69"/><path class="cls-2" d="M970.16,127.1V107.39a10,10,0,0,0-10-10h-188"/><path class="cls-2" d="M554.16,162V148.06a10,10,0,0,1,10-10h208"/><path class="cls-2" d="M1422.6,394.36V338.63a10,10,0,0,0-10-10H130.24a10,10,0,0,0-10,10v55.73"/><rect class="cls-3" x="656.18" y="1" width="210" height="50" rx="4" ry="4"/><path class="cls-4" d="M721.29,30.11l-3.35-4.38-1,1.09v3.29h-1.34V20.59h1.34V25l4.34-4.62,1,.78-3.37,3.6,4.09,5.35Z"/><path class="cls-4" d="M725,30.11V20.59h5.36l.18,1h-4.2v3.12h3.23l.18,1h-3.42v3.28h4.52l.18,1Z"/><path class="cls-4" d="M739.93,21.65h-3.28v8.46h-1.36V21.65H732.2V20.59h7.55Z"/><path class="cls-4" d="M743.23,20.59v6a2.64,2.64,0,0,0,.65,1.88,2.24,2.24,0,0,0,1.71.69,2.2,2.2,0,0,0,1.72-.7,2.7,2.7,0,0,0,.63-1.88v-6h1.36v6.12a3.64,3.64,0,0,1-.46,1.83,3.24,3.24,0,0,1-1.29,1.27,4,4,0,0,1-2,.46,4.06,4.06,0,0,1-2-.45,3.2,3.2,0,0,1-1.29-1.27,3.68,3.68,0,0,1-.46-1.83V20.59Z"/><path class="cls-4" d="M756.07,20.59,759.73,30l-1.33.2-1-2.66h-3.88l-1,2.55h-1.32l3.58-9.52Zm-.63,1.81-1.53,4.09H757Z"/><path class="cls-4" d="M767,20.59v6a2.64,2.64,0,0,0,.65,1.88,2.24,2.24,0,0,0,1.71.69,2.2,2.2,0,0,0,1.72-.7,2.7,2.7,0,0,0,.63-1.88v-6H773v6.12a3.65,3.65,0,0,1-.46,1.83,3.27,3.27,0,0,1-1.29,1.27,4,4,0,0,1-2,.46,4.06,4.06,0,0,1-2-.45,3.2,3.2,0,0,1-1.29-1.27,3.68,3.68,0,0,1-.46-1.83V20.59Z"/><path class="cls-4" d="M780.09,27.06l-2.63-3.68v6.73h-1.34V20.59h.83l3.35,4.7,3.18-4.7h.84v9.52h-1.36V23.5L780.58,27Z"/><path class="cls-4" d="M788.73,20.59v6a2.64,2.64,0,0,0,.65,1.88,2.24,2.24,0,0,0,1.71.69,2.2,2.2,0,0,0,1.72-.7,2.7,2.7,0,0,0,.63-1.88v-6h1.36v6.12a3.64,3.64,0,0,1-.46,1.83,3.26,3.26,0,0,1-1.29,1.27,4,4,0,0,1-2,.46,4.06,4.06,0,0,1-2-.45,3.19,3.19,0,0,1-1.29-1.27,3.68,3.68,0,0,1-.46-1.83V20.59Z"/><path class="cls-4" d="M801.86,27.06l-2.63-3.68v6.73h-1.34V20.59h.83l3.35,4.7,3.18-4.7h.84v9.52h-1.36V23.5L802.35,27Z"/><circle class="cls-5" cx="760.65" cy="50.96" r="5"/><rect class="cls-3" x="437.2" y="161.99" width="210" height="64.73" rx="4" ry="4"/><path class="cls-4" d="M468.56,191.1h-3.29v-9.52h3q3.28,0,3.28,2.58a2.21,2.21,0,0,1-1.22,1.83,2.78,2.78,0,0,1,1.25.91,2.39,2.39,0,0,1,.46,1.48,2.34,2.34,0,0,1-.94,2A4.24,4.24,0,0,1,468.56,191.1Zm-.41-8.39h-1.54v2.93h1.3a3.37,3.37,0,0,0,1.62-.36,1.18,1.18,0,0,0,.62-1.11,1.24,1.24,0,0,0-.5-1.14A2.86,2.86,0,0,0,468.15,182.71Zm.49,4h-2V190h1.89a2.83,2.83,0,0,0,1.57-.39,1.33,1.33,0,0,0,.59-1.2,1.51,1.51,0,0,0-.53-1.26A2.34,2.34,0,0,0,468.64,186.73Z"/><path class="cls-4" d="M474.41,191.1v-9.52h5.36l.18,1h-4.2v3.12H479l.18,1h-3.42v3.28h4.52l.18,1Z"/><path class="cls-4" d="M482.7,191.1v-9.52h1.19l4.94,7v-7h1.36v9.52H489L484,184v7.1Z"/><path class="cls-4" d="M496.78,191.1h-3.37v-9.52h3.43a3.88,3.88,0,0,1,3.18,1.29,5.2,5.2,0,0,1,1.06,3.41,6,6,0,0,1-.5,2.49,3.86,3.86,0,0,1-1.47,1.71A4.26,4.26,0,0,1,496.78,191.1Zm.11-8.37h-2.14V190h2a2.64,2.64,0,0,0,2.14-1,4.14,4.14,0,0,0,.8-2.72,4.32,4.32,0,0,0-.71-2.61A2.47,2.47,0,0,0,496.89,182.73Z"/><path class="cls-4" d="M507.28,181.58l3.67,9.44-1.33.2-1-2.66h-3.88l-1,2.55h-1.32l3.58-9.52Zm-.63,1.81-1.53,4.09h3.09Z"/><path class="cls-4" d="M518.62,191.1v-4.24h-4.23v4.24H513v-9.52l1.34-.07v4.27h4.23v-4.2H520v9.52Z"/><path class="cls-4" d="M526.87,181.58l3.67,9.44-1.33.2-1-2.66h-3.88l-1,2.55h-1.32l3.58-9.52Zm-.63,1.81-1.53,4.09h3.09Z"/><path class="cls-4" d="M532.64,181.58h2.73a4.43,4.43,0,0,1,2.6.7,2.43,2.43,0,0,1,1,2.13,2.67,2.67,0,0,1-.46,1.53,2.76,2.76,0,0,1-1.2,1l2.39,4.2h-1.46l-2.13-3.85a6,6,0,0,1-.88,0H534v3.81h-1.34Zm2.72,1.13H534v3.49h1.3a2.93,2.93,0,0,0,1.64-.41,1.5,1.5,0,0,0,.64-1.32,1.54,1.54,0,0,0-.57-1.35A2.84,2.84,0,0,0,535.35,182.71Z"/><path class="cls-4" d="M545.47,181.58l3.67,9.44-1.33.2-1-2.66h-3.88l-1,2.55h-1.32l3.58-9.52Zm-.63,1.81-1.53,4.09h3.09Z"/><path class="cls-4" d="M560.61,182l-.46,1.06-.38-.18a5.09,5.09,0,0,0-.64-.25,3,3,0,0,0-.87-.11,1.36,1.36,0,0,0-1,.39,1.29,1.29,0,0,0-.38.94,1.7,1.7,0,0,0,.29,1,6.68,6.68,0,0,0,1,1.09l2.59,2.41a6.31,6.31,0,0,0,.53-2.3l1.15.45a6.75,6.75,0,0,1-.67,2.74l1.13,1-.76,1-1.11-1a4,4,0,0,1-2.94,1.08,4.76,4.76,0,0,1-1.86-.37,2.88,2.88,0,0,1-1.79-2.78,3.56,3.56,0,0,1,1.46-2.8,2.41,2.41,0,0,1-.42-1.39,2.6,2.6,0,0,1,.33-1.29,2.43,2.43,0,0,1,1-.94,2.94,2.94,0,0,1,1.46-.35,4.17,4.17,0,0,1,1.2.17A7.72,7.72,0,0,1,560.61,182Zm-.52,7.34-2.74-2.51q-.36-.35-.6-.62a2.16,2.16,0,0,0-.64.8,2.61,2.61,0,0,0-.25,1.09,1.77,1.77,0,0,0,.66,1.49,2.53,2.53,0,0,0,1.6.51A2.69,2.69,0,0,0,560.09,189.32Z"/><path class="cls-4" d="M572.89,181.58l3.67,9.44-1.33.2-1-2.66h-3.88l-1,2.55h-1.32l3.58-9.52Zm-.63,1.81-1.53,4.09h3.09Z"/><path class="cls-4" d="M579.86,181.58v6a2.64,2.64,0,0,0,.65,1.88,2.24,2.24,0,0,0,1.71.69,2.2,2.2,0,0,0,1.72-.7,2.7,2.7,0,0,0,.63-1.88v-6h1.36v6.12a3.64,3.64,0,0,1-.46,1.83,3.26,3.26,0,0,1-1.29,1.27,4,4,0,0,1-2,.46,4.06,4.06,0,0,1-2-.45,3.19,3.19,0,0,1-1.29-1.27,3.68,3.68,0,0,1-.46-1.83v-6.12Z"/><path class="cls-4" d="M592.39,191.1H589v-9.52h3.43a3.87,3.87,0,0,1,3.18,1.29,5.2,5.2,0,0,1,1.06,3.41,5.94,5.94,0,0,1-.5,2.49,3.86,3.86,0,0,1-1.47,1.71A4.26,4.26,0,0,1,592.39,191.1Zm.11-8.37h-2.14V190h2a2.64,2.64,0,0,0,2.14-1,4.15,4.15,0,0,0,.8-2.72,4.32,4.32,0,0,0-.71-2.61A2.47,2.47,0,0,0,592.5,182.73Z"/><path class="cls-4" d="M599.2,191.1v-9.52h1.34v9.52Z"/><path class="cls-4" d="M610.38,182.64H607.1v8.46h-1.36v-8.46h-3.09v-1.06h7.55Z"/><path class="cls-4" d="M617.36,191.1v-6.41l-1.47.78-.62-1.06,2.53-1.23h.9v7.92Z"/><path class="cls-4" d="M467.47,207.9h-3.29v-9.52h3q3.28,0,3.28,2.58a2.21,2.21,0,0,1-1.22,1.83,2.78,2.78,0,0,1,1.25.91,2.39,2.39,0,0,1,.46,1.48,2.34,2.34,0,0,1-.94,2A4.24,4.24,0,0,1,467.47,207.9Zm-.41-8.39h-1.54v2.93h1.3a3.37,3.37,0,0,0,1.62-.36,1.18,1.18,0,0,0,.62-1.11,1.24,1.24,0,0,0-.5-1.14A2.86,2.86,0,0,0,467.06,199.51Zm.49,4h-2v3.26h1.89a2.83,2.83,0,0,0,1.57-.39,1.33,1.33,0,0,0,.59-1.2A1.51,1.51,0,0,0,469,204,2.34,2.34,0,0,0,467.55,203.53Z"/><path class="cls-4" d="M473.32,207.9v-9.52h5.36l.18,1h-4.2v3.12h3.23l.18,1h-3.42v3.28h4.52l.18,1Z"/><path class="cls-4" d="M481.61,207.9v-9.52h1.19l4.94,7v-7h1.36v9.52h-1.2l-4.94-7.1v7.1Z"/><path class="cls-4" d="M495.69,207.9h-3.37v-9.52h3.43a3.88,3.88,0,0,1,3.18,1.29,5.2,5.2,0,0,1,1.06,3.41,6,6,0,0,1-.5,2.49,3.86,3.86,0,0,1-1.47,1.71A4.26,4.26,0,0,1,495.69,207.9Zm.11-8.37h-2.14v7.25h2a2.64,2.64,0,0,0,2.14-1,4.14,4.14,0,0,0,.8-2.72,4.32,4.32,0,0,0-.71-2.61A2.47,2.47,0,0,0,495.8,199.53Z"/><path class="cls-4" d="M506.19,198.38l3.67,9.44-1.33.2-1-2.66h-3.88l-1,2.55h-1.32l3.58-9.52Zm-.63,1.81L504,204.27h3.09Z"/><path class="cls-4" d="M517.53,207.9v-4.24H513.3v4.24H512v-9.52l1.34-.07v4.27h4.23v-4.2h1.34v9.52Z"/><path class="cls-4" d="M525.78,198.38l3.67,9.44-1.33.2-1-2.66h-3.88l-1,2.55H521l3.58-9.52Zm-.63,1.81-1.53,4.09h3.09Z"/><path class="cls-4" d="M531.54,198.38h2.73a4.43,4.43,0,0,1,2.6.7,2.43,2.43,0,0,1,1,2.13,2.67,2.67,0,0,1-.46,1.53,2.76,2.76,0,0,1-1.2,1l2.39,4.2h-1.46L535,204a6,6,0,0,1-.88,0h-1.25v3.81h-1.34Zm2.72,1.13h-1.37V203h1.3a2.93,2.93,0,0,0,1.64-.41,1.5,1.5,0,0,0,.64-1.32,1.54,1.54,0,0,0-.57-1.35A2.84,2.84,0,0,0,534.26,199.51Z"/><path class="cls-4" d="M544.38,198.38l3.67,9.44-1.33.2-1-2.66h-3.88l-1,2.55h-1.32l3.58-9.52Zm-.63,1.81-1.53,4.09h3.09Z"/><path class="cls-4" d="M559.52,198.79l-.46,1.06-.38-.18a5.09,5.09,0,0,0-.64-.25,3,3,0,0,0-.87-.11,1.36,1.36,0,0,0-1,.39,1.29,1.29,0,0,0-.38.94,1.7,1.7,0,0,0,.29,1,6.68,6.68,0,0,0,1,1.09l2.59,2.41a6.31,6.31,0,0,0,.53-2.3l1.15.45a6.75,6.75,0,0,1-.67,2.74l1.13,1-.76,1-1.11-1a4,4,0,0,1-2.94,1.08,4.76,4.76,0,0,1-1.86-.37,2.88,2.88,0,0,1-1.79-2.78,3.56,3.56,0,0,1,1.46-2.8,2.41,2.41,0,0,1-.42-1.39,2.6,2.6,0,0,1,.33-1.29,2.43,2.43,0,0,1,1-.94,2.94,2.94,0,0,1,1.46-.35,4.17,4.17,0,0,1,1.2.17A7.72,7.72,0,0,1,559.52,198.79Zm-.52,7.34-2.74-2.51q-.36-.35-.6-.62a2.16,2.16,0,0,0-.64.8,2.61,2.61,0,0,0-.25,1.09,1.77,1.77,0,0,0,.66,1.49,2.53,2.53,0,0,0,1.6.51A2.69,2.69,0,0,0,559,206.12Z"/><path class="cls-4" d="M571.79,198.38l3.67,9.44-1.33.2-1-2.66h-3.88l-1,2.55H567l3.58-9.52Zm-.63,1.81-1.53,4.09h3.09Z"/><path class="cls-4" d="M578.77,198.38v6a2.64,2.64,0,0,0,.65,1.88,2.24,2.24,0,0,0,1.71.69,2.2,2.2,0,0,0,1.72-.7,2.7,2.7,0,0,0,.63-1.88v-6h1.36v6.12a3.64,3.64,0,0,1-.46,1.83,3.26,3.26,0,0,1-1.29,1.27,4,4,0,0,1-2,.46,4.06,4.06,0,0,1-2-.45,3.19,3.19,0,0,1-1.29-1.27,3.68,3.68,0,0,1-.46-1.83v-6.12Z"/><path class="cls-4" d="M591.29,207.9h-3.37v-9.52h3.43a3.87,3.87,0,0,1,3.18,1.29,5.2,5.2,0,0,1,1.06,3.41,5.94,5.94,0,0,1-.5,2.49,3.86,3.86,0,0,1-1.47,1.71A4.26,4.26,0,0,1,591.29,207.9Zm.11-8.37h-2.14v7.25h2a2.64,2.64,0,0,0,2.14-1,4.15,4.15,0,0,0,.8-2.72,4.32,4.32,0,0,0-.71-2.61A2.47,2.47,0,0,0,591.41,199.53Z"/><path class="cls-4" d="M598.11,207.9v-9.52h1.34v9.52Z"/><path class="cls-4" d="M609.28,199.44H606v8.46h-1.36v-8.46h-3.09v-1.06h7.55Z"/><path class="cls-4" d="M617.11,199.79a3.55,3.55,0,0,1,2.16.59,2,2,0,0,1,.79,1.67,3.05,3.05,0,0,1-.45,1.59,7.55,7.55,0,0,1-1.64,1.74l-1.78,1.48h4l.25,1h-6.1V207l3-2.59a7.73,7.73,0,0,0,1.12-1.18,1.73,1.73,0,0,0,.36-1,1.16,1.16,0,0,0-.46-1,2.17,2.17,0,0,0-1.27-.33,3,3,0,0,0-1.13.19,10,10,0,0,0-1.06.53l-.32-1.08a6.29,6.29,0,0,1,1.13-.52A4.29,4.29,0,0,1,617.11,199.79Z"/><circle class="cls-5" cx="542.51" cy="162.03" r="5"/><rect class="cls-3" x="876.32" y="127.08" width="210" height="50" rx="4" ry="4"/><path class="cls-4" d="M922.57,146.67l-2.74,9.52h-1.22l-2.14-7.59-2.07,7.59h-1.22l-2.83-9.44,1.33-.2,2.13,7.83,2-7.71h1.32l2.1,7.71,2-7.71Z"/><path class="cls-4" d="M928.35,146.67,932,156.1l-1.33.2-1-2.66h-3.88l-1,2.55h-1.32l3.58-9.52Zm-.63,1.81-1.53,4.09h3.09Z"/><path class="cls-4" d="M939.83,156.19l-3.35-4.38-1,1.09v3.29h-1.34v-9.52h1.34v4.41l4.34-4.62,1,.78-3.37,3.6,4.09,5.35Z"/><path class="cls-4" d="M943.57,156.19v-9.52h1.34v9.52Z"/><path class="cls-4" d="M953.95,156.19h-5.81v-9.52h1.34v8.47h4.3Z"/><path class="cls-4" d="M965.68,156.19l-3.35-4.38-1,1.09v3.29H960v-9.52h1.34v4.41l4.34-4.62,1,.78-3.37,3.6,4.09,5.35Z"/><path class="cls-4" d="M969.42,156.19v-9.52h5.36l.18,1h-4.2v3.12H974l.18,1h-3.42v3.28h4.52l.18,1Z"/><path class="cls-4" d="M984.31,147.73H981v8.46h-1.36v-8.46h-3.09v-1.06h7.55Z"/><path class="cls-4" d="M987.62,146.67v6a2.64,2.64,0,0,0,.65,1.88,2.24,2.24,0,0,0,1.71.69,2.2,2.2,0,0,0,1.72-.7,2.7,2.7,0,0,0,.63-1.88v-6h1.36v6.12a3.63,3.63,0,0,1-.46,1.83,3.24,3.24,0,0,1-1.29,1.27,4,4,0,0,1-2,.46,4.06,4.06,0,0,1-2-.45,3.2,3.2,0,0,1-1.29-1.27,3.68,3.68,0,0,1-.46-1.83v-6.12Z"/><path class="cls-4" d="M1000.45,146.67l3.67,9.44-1.33.2-1-2.66h-3.88l-1,2.55h-1.32l3.58-9.52Zm-.63,1.81-1.53,4.09h3.09Z"/><path class="cls-4" d="M1011.35,146.67v6a2.64,2.64,0,0,0,.65,1.88,2.24,2.24,0,0,0,1.71.69,2.2,2.2,0,0,0,1.72-.7,2.7,2.7,0,0,0,.63-1.88v-6h1.36v6.12a3.64,3.64,0,0,1-.46,1.83,3.26,3.26,0,0,1-1.29,1.27,4,4,0,0,1-2,.46,4.06,4.06,0,0,1-2-.45,3.19,3.19,0,0,1-1.29-1.27,3.68,3.68,0,0,1-.46-1.83v-6.12Z"/><path class="cls-4" d="M1024.48,153.14l-2.63-3.68v6.73h-1.34v-9.52h.83l3.35,4.7,3.18-4.7h.84v9.52h-1.36v-6.61l-2.37,3.49Z"/><path class="cls-4" d="M1033.12,146.67v6a2.64,2.64,0,0,0,.65,1.88,2.24,2.24,0,0,0,1.71.69,2.2,2.2,0,0,0,1.72-.7,2.7,2.7,0,0,0,.63-1.88v-6h1.36v6.12a3.64,3.64,0,0,1-.46,1.83,3.26,3.26,0,0,1-1.29,1.27,4,4,0,0,1-2,.46,4.06,4.06,0,0,1-2-.45,3.19,3.19,0,0,1-1.29-1.27,3.68,3.68,0,0,1-.46-1.83v-6.12Z"/><path class="cls-4" d="M1046.25,153.14l-2.63-3.68v6.73h-1.34v-9.52h.83l3.35,4.7,3.18-4.7h.84v9.52h-1.36v-6.61l-2.37,3.49Z"/><circle class="cls-5" cx="981.79" cy="127.01" r="5"/><rect class="cls-3" x="1" y="394.6" width="215" height="68.22" rx="4" ry="4"/><path class="cls-4" d="M86.42,416.37l3.67,9.44-1.33.2-1-2.66H83.89l-1,2.55H81.62l3.58-9.52Zm-.63,1.81-1.53,4.09h3.09Z"/><path class="cls-4" d="M95.56,425.89H92.19v-9.52h3.43a3.87,3.87,0,0,1,3.18,1.29,5.2,5.2,0,0,1,1.06,3.41,6,6,0,0,1-.5,2.49,3.86,3.86,0,0,1-1.47,1.71A4.26,4.26,0,0,1,95.56,425.89Zm.11-8.37H93.54v7.25h2a2.64,2.64,0,0,0,2.14-1,4.14,4.14,0,0,0,.8-2.72,4.31,4.31,0,0,0-.71-2.61A2.47,2.47,0,0,0,95.68,417.52Z"/><path class="cls-4" d="M108.1,425.89l-3.35-4.38-1,1.09v3.29h-1.34v-9.52h1.34v4.41l4.34-4.62,1,.78-3.37,3.6,4.09,5.35Z"/><path class="cls-4" d="M111.83,425.89v-9.52h5.36l.18,1h-4.2v3.12h3.23l.18,1h-3.42v3.28h4.52l.18,1Z"/><path class="cls-4" d="M119.59,425.38l.31-1.06a5.46,5.46,0,0,0,1.11.42,4.66,4.66,0,0,0,1.25.18,2.72,2.72,0,0,0,1.54-.37,1.15,1.15,0,0,0,.55-1,1.24,1.24,0,0,0-.27-.79,2.67,2.67,0,0,0-.78-.63q-.5-.29-1.4-.68a8.31,8.31,0,0,1-1.41-.76,2.34,2.34,0,0,1-1.06-2.06,2.2,2.2,0,0,1,.38-1.26,2.54,2.54,0,0,1,1.08-.88,4,4,0,0,1,1.66-.32,5,5,0,0,1,1.32.18,6.48,6.48,0,0,1,1.2.45l-.45,1.06a6.42,6.42,0,0,0-.93-.37,3.62,3.62,0,0,0-1-.13,2.54,2.54,0,0,0-1.36.32,1,1,0,0,0-.52.92,1.27,1.27,0,0,0,.27.8,2.53,2.53,0,0,0,.76.62q.49.28,1.44.71a6.11,6.11,0,0,1,1.87,1.19,2.2,2.2,0,0,1,.59,1.6,2.28,2.28,0,0,1-.41,1.34,2.62,2.62,0,0,1-1.18.9,4.78,4.78,0,0,1-1.85.32,6.33,6.33,0,0,1-1.5-.22A3,3,0,0,1,119.59,425.38Z"/><path class="cls-4" d="M134.68,417.44H131.4v8.46H130v-8.46H127v-1.06h7.55Z"/><path class="cls-6" d="M13.39,431.61l2.88,7.4-1.22.18-.74-2H11.37l-.71,1.88H9.44l2.86-7.48Zm-.57,1.68-1.09,2.92h2.21Z"/><path class="cls-6" d="M20.64,439.09H17.9v-7.48h2.76a3.13,3.13,0,0,1,2.53,1,4,4,0,0,1,.86,2.68,4.68,4.68,0,0,1-.4,2,3,3,0,0,1-1.17,1.33A3.46,3.46,0,0,1,20.64,439.09Zm.07-6.42H19.13v5.39h1.5a2,2,0,0,0,1.58-.69,3.12,3.12,0,0,0,.58-2.05,3.23,3.23,0,0,0-.52-2A1.82,1.82,0,0,0,20.7,432.67Z"/><path class="cls-6" d="M29.13,436.76l-1.92-2.61v4.94H26v-7.48h.77l2.57,3.58,2.41-3.58h.76v7.48H31.23v-4.76L29.6,436.7Z"/><path class="cls-6" d="M35,439.09v-7.48h1.23v7.48Z"/><path class="cls-6" d="M38.66,439.09v-7.48h1.17l3.67,5.27v-5.27h1.24v7.48H43.57l-3.67-5.3v5.3Z"/><path class="cls-6" d="M47.23,439.09v-7.48h1.23v7.48Z"/><path class="cls-6" d="M50.52,438.64l.28-1a5.57,5.57,0,0,0,.89.34,3.41,3.41,0,0,0,1,.15,2.06,2.06,0,0,0,1.11-.25.78.78,0,0,0,.39-.7.77.77,0,0,0-.21-.52,2.11,2.11,0,0,0-.53-.42q-.32-.19-.94-.5a6.22,6.22,0,0,1-1.56-1,1.77,1.77,0,0,1-.52-1.3,1.75,1.75,0,0,1,.3-1,2,2,0,0,1,.87-.7,3.2,3.2,0,0,1,1.34-.26,3.88,3.88,0,0,1,1.05.15,5.5,5.5,0,0,1,1,.38l-.42,1a5.88,5.88,0,0,0-.78-.31,2.75,2.75,0,0,0-.81-.11,1.78,1.78,0,0,0-.94.22.71.71,0,0,0-.36.65.84.84,0,0,0,.19.54,1.81,1.81,0,0,0,.51.42q.31.18,1,.52a10.68,10.68,0,0,1,1.13.65,2.54,2.54,0,0,1,.69.7,1.72,1.72,0,0,1,.27,1,1.81,1.81,0,0,1-.32,1.06,2.07,2.07,0,0,1-.94.72,3.88,3.88,0,0,1-1.49.26A4.52,4.52,0,0,1,51.5,439,3.23,3.23,0,0,1,50.52,438.64Z"/><path class="cls-6" d="M62.54,432.59H60v6.5H58.73v-6.5H56.37v-1h6Z"/><path class="cls-6" d="M64.17,431.61h2.23a3.55,3.55,0,0,1,2.09.57,1.93,1.93,0,0,1,.8,1.69,2.05,2.05,0,0,1-.35,1.2,2.24,2.24,0,0,1-.94.77l1.86,3.26H68.54l-1.63-2.95a4.23,4.23,0,0,1-.6,0h-.9v2.92H64.17Zm2.21,1h-1v2.52h1a2.13,2.13,0,0,0,1.19-.3,1.05,1.05,0,0,0,.45-.95,1.12,1.12,0,0,0-.42-1A2.05,2.05,0,0,0,66.38,432.65Z"/><path class="cls-6" d="M74.59,431.61l2.88,7.4-1.22.18-.74-2H72.58l-.71,1.88H70.64l2.86-7.48ZM74,433.3l-1.09,2.92h2.21Z"/><path class="cls-6" d="M78.68,438.64l.28-1a5.57,5.57,0,0,0,.89.34,3.41,3.41,0,0,0,1,.15,2.06,2.06,0,0,0,1.11-.25.78.78,0,0,0,.39-.7.77.77,0,0,0-.21-.52,2.11,2.11,0,0,0-.53-.42q-.32-.19-.94-.5a6.22,6.22,0,0,1-1.56-1,1.77,1.77,0,0,1-.52-1.3,1.75,1.75,0,0,1,.3-1,2,2,0,0,1,.87-.7,3.2,3.2,0,0,1,1.34-.26,3.88,3.88,0,0,1,1.05.15,5.5,5.5,0,0,1,1,.38l-.42,1a5.88,5.88,0,0,0-.78-.31,2.75,2.75,0,0,0-.81-.11,1.78,1.78,0,0,0-.94.22.71.71,0,0,0-.36.65.84.84,0,0,0,.19.54,1.81,1.81,0,0,0,.51.42q.31.18,1,.52a10.68,10.68,0,0,1,1.13.65,2.54,2.54,0,0,1,.69.7,1.72,1.72,0,0,1,.27,1,1.81,1.81,0,0,1-.32,1.06,2.07,2.07,0,0,1-.94.72,3.88,3.88,0,0,1-1.49.26,4.52,4.52,0,0,1-1.17-.19A3.23,3.23,0,0,1,78.68,438.64Z"/><path class="cls-6" d="M85.39,439.09v-7.48h1.23v7.48Z"/><path class="cls-6" d="M96.57,432l-.42,1a6.67,6.67,0,0,0-.76-.33,2.4,2.4,0,0,0-.75-.1,1,1,0,0,0-.71.27.9.9,0,0,0-.26.66,1.24,1.24,0,0,0,.22.7,4.34,4.34,0,0,0,.75.79l1.9,1.75a4.82,4.82,0,0,0,.36-1.7l1.09.44a5.39,5.39,0,0,1-.52,2.11l.88.78-.71.9-.86-.78a3.22,3.22,0,0,1-2.28.79,3.75,3.75,0,0,1-1.47-.3,2.35,2.35,0,0,1-1-.85,2.38,2.38,0,0,1-.38-1.36,2.54,2.54,0,0,1,.3-1.19,3,3,0,0,1,.8-1,1.81,1.81,0,0,1-.32-1.06,2,2,0,0,1,.27-1,2,2,0,0,1,.78-.75,2.38,2.38,0,0,1,1.18-.28A4.21,4.21,0,0,1,96.57,432Zm-.68,5.67-2.06-1.88a3.92,3.92,0,0,1-.35-.35,1.77,1.77,0,0,0-.42.58,1.83,1.83,0,0,0-.17.72,1.27,1.27,0,0,0,.46,1.07,1.78,1.78,0,0,0,1.13.36A2,2,0,0,0,95.89,437.63Z"/><path class="cls-6" d="M107.68,439.09l-2.45-3.29-.77.83v2.46h-1.23v-7.48h1.23v3.3l3.33-3.46.89.71-2.61,2.76,3.12,4.17Z"/><path class="cls-6" d="M110.82,439.09v-7.48h4.33l.18,1h-3.28v2.23h2.49l.19,1h-2.67v2.34h3.56l.19,1Z"/><path class="cls-6" d="M117.13,438.64l.28-1a5.57,5.57,0,0,0,.89.34,3.4,3.4,0,0,0,1,.15,2.06,2.06,0,0,0,1.11-.25.78.78,0,0,0,.38-.7.77.77,0,0,0-.21-.52,2.1,2.1,0,0,0-.53-.42l-.94-.5a6.22,6.22,0,0,1-1.56-1,1.77,1.77,0,0,1-.52-1.3,1.75,1.75,0,0,1,.3-1,2,2,0,0,1,.87-.7,3.21,3.21,0,0,1,1.34-.26,3.88,3.88,0,0,1,1.05.15,5.48,5.48,0,0,1,1,.38l-.42,1a5.85,5.85,0,0,0-.78-.31,2.75,2.75,0,0,0-.81-.11,1.78,1.78,0,0,0-.93.22.71.71,0,0,0-.36.65.84.84,0,0,0,.19.54,1.81,1.81,0,0,0,.51.42q.31.18,1,.52a10.72,10.72,0,0,1,1.13.65,2.54,2.54,0,0,1,.69.7,1.72,1.72,0,0,1,.27,1,1.81,1.81,0,0,1-.32,1.06,2.07,2.07,0,0,1-.94.72,3.88,3.88,0,0,1-1.49.26,4.52,4.52,0,0,1-1.17-.19A3.23,3.23,0,0,1,117.13,438.64Z"/><path class="cls-6" d="M123.84,439.09v-7.48h4.33l.18,1h-3.28v2.23h2.49l.19,1h-2.67v2.34h3.56l.19,1Z"/><path class="cls-6" d="M135,439.09l-2.45-3.29-.77.83v2.46h-1.23v-7.48h1.23v3.3l3.33-3.46.89.71-2.61,2.76,3.12,4.17Z"/><path class="cls-6" d="M138.16,431.61h2.23a3.55,3.55,0,0,1,2.09.57,1.93,1.93,0,0,1,.8,1.69,2.05,2.05,0,0,1-.35,1.2,2.25,2.25,0,0,1-.94.77l1.86,3.26h-1.33l-1.63-2.95a4.23,4.23,0,0,1-.61,0h-.9v2.92h-1.23Zm2.21,1h-1v2.52h1a2.12,2.12,0,0,0,1.19-.3,1.05,1.05,0,0,0,.45-.95,1.12,1.12,0,0,0-.42-1A2.05,2.05,0,0,0,140.37,432.65Z"/><path class="cls-6" d="M145.48,439.09v-7.48h4.33l.18,1h-3.28v2.23h2.49l.19,1h-2.67v2.34h3.56l.19,1Z"/><path class="cls-6" d="M157.52,432.59H155v6.5H153.7v-6.5h-2.35v-1h6Z"/><path class="cls-6" d="M162.24,431.61l2.88,7.4-1.22.18-.74-2h-2.94l-.71,1.88h-1.22l2.86-7.48Zm-.57,1.68-1.09,2.92h2.21Z"/><path class="cls-6" d="M166.75,431.61H169a3.55,3.55,0,0,1,2.09.57,1.93,1.93,0,0,1,.8,1.69,2.05,2.05,0,0,1-.35,1.2,2.25,2.25,0,0,1-.94.77l1.86,3.26h-1.33l-1.63-2.95a4.23,4.23,0,0,1-.61,0H168v2.92h-1.23Zm2.21,1h-1v2.52h1a2.12,2.12,0,0,0,1.19-.3,1.05,1.05,0,0,0,.45-.95,1.12,1.12,0,0,0-.42-1A2.05,2.05,0,0,0,169,432.65Z"/><path class="cls-6" d="M174.07,439.09v-7.48h1.23v7.48Z"/><path class="cls-6" d="M180.87,431.61l2.88,7.4-1.22.18-.74-2h-2.94l-.71,1.88h-1.22l2.86-7.48Zm-.57,1.68-1.09,2.92h2.21Z"/><path class="cls-6" d="M190.69,432.59h-2.56v6.5h-1.25v-6.5h-2.35v-1h6Z"/><path class="cls-6" d="M195.41,431.61l2.88,7.4-1.22.18-.74-2H193.4l-.71,1.88h-1.22l2.86-7.48Zm-.57,1.68-1.09,2.92H196Z"/><path class="cls-6" d="M199.92,439.09v-7.48h1.17l3.67,5.27v-5.27H206v7.48h-1.18l-3.67-5.3v5.3Z"/><circle class="cls-5" cx="108.24" cy="395.18" r="5"/><rect class="cls-3" x="263.17" y="394.6" width="215" height="68.22" rx="4" ry="4"/><path class="cls-4" d="M354.14,419.29h-1.34v-9.52h2.73a4.3,4.3,0,0,1,2.61.73,2.6,2.6,0,0,1,1,2.24,2.8,2.8,0,0,1-.5,1.71,3,3,0,0,1-1.35,1,5.15,5.15,0,0,1-1.88.33h-1.25Zm1.37-8.39h-1.37v3.77h1.3a2.64,2.64,0,0,0,1.63-.46,1.77,1.77,0,0,0,.65-1.41,1.73,1.73,0,0,0-.56-1.46A2.69,2.69,0,0,0,355.51,410.91Z"/><path class="cls-4" d="M361,418.78l.31-1.06a5.5,5.5,0,0,0,1.11.42,4.69,4.69,0,0,0,1.25.18,2.72,2.72,0,0,0,1.54-.37,1.15,1.15,0,0,0,.55-1,1.24,1.24,0,0,0-.27-.79,2.67,2.67,0,0,0-.78-.63q-.5-.29-1.4-.68a8.41,8.41,0,0,1-1.41-.76,2.53,2.53,0,0,1-.79-.87,2.5,2.5,0,0,1-.27-1.2,2.2,2.2,0,0,1,.38-1.26,2.54,2.54,0,0,1,1.08-.88,4,4,0,0,1,1.66-.32,5,5,0,0,1,1.32.18,6.63,6.63,0,0,1,1.2.45l-.45,1.06a6.29,6.29,0,0,0-.93-.37,3.63,3.63,0,0,0-1-.13,2.54,2.54,0,0,0-1.36.32,1,1,0,0,0-.52.92,1.28,1.28,0,0,0,.27.81,2.52,2.52,0,0,0,.76.62q.49.28,1.44.71a6.1,6.1,0,0,1,1.87,1.19,2.2,2.2,0,0,1,.6,1.6,2.27,2.27,0,0,1-.41,1.34,2.62,2.62,0,0,1-1.18.9,4.78,4.78,0,0,1-1.85.32,6.34,6.34,0,0,1-1.5-.22A3,3,0,0,1,361,418.78Z"/><path class="cls-4" d="M372.83,419.29h-3.37v-9.52h3.43a3.87,3.87,0,0,1,3.18,1.29,5.2,5.2,0,0,1,1.06,3.41,6,6,0,0,1-.5,2.49,3.87,3.87,0,0,1-1.47,1.71A4.26,4.26,0,0,1,372.83,419.29Zm.11-8.37H370.8v7.25h2a2.64,2.64,0,0,0,2.14-1,4.14,4.14,0,0,0,.8-2.72,4.31,4.31,0,0,0-.71-2.61A2.47,2.47,0,0,0,372.94,410.92Z"/><path class="cls-4" d="M383.62,416.24,381,412.56v6.73h-1.34v-9.52h.83l3.35,4.7,3.18-4.7h.84v9.52h-1.36v-6.61l-2.37,3.49Z"/><path class="cls-6" d="M285.83,432.49H284.6V425h2.23a3.49,3.49,0,0,1,2.1.58,2.06,2.06,0,0,1,.8,1.79,2.19,2.19,0,0,1-.41,1.35,2.43,2.43,0,0,1-1.09.81,4.07,4.07,0,0,1-1.49.26h-.9Zm1-6.45h-1v2.74h1a1.89,1.89,0,0,0,1.17-.33,1.46,1.46,0,0,0,.05-2.09A1.94,1.94,0,0,0,286.81,426Z"/><path class="cls-6" d="M291.55,432.49V425h4.33l.18,1h-3.28v2.23h2.49l.19,1h-2.67v2.34h3.56l.19,1Z"/><path class="cls-6" d="M298.27,432.49V425h1.17l3.67,5.27V425h1.24v7.48h-1.18l-3.67-5.3v5.3Z"/><path class="cls-6" d="M309.55,429.44l.1-.95h2.62v3.62a3.9,3.9,0,0,1-1,.39,5.05,5.05,0,0,1-1.23.15,3.78,3.78,0,0,1-2-.51,3.37,3.37,0,0,1-1.3-1.39,4.23,4.23,0,0,1-.45-2,4.13,4.13,0,0,1,.5-2,3.57,3.57,0,0,1,1.39-1.4,4,4,0,0,1,2-.5,5.13,5.13,0,0,1,1,.12,3.62,3.62,0,0,1,1,.34l-.38.89q-.59-.19-.86-.25a3.38,3.38,0,0,0-.72-.06,2.64,2.64,0,0,0-1.31.33,2.38,2.38,0,0,0-.95,1,3.26,3.26,0,0,0-.35,1.57,3.37,3.37,0,0,0,.31,1.48,2.34,2.34,0,0,0,.85,1,2.28,2.28,0,0,0,1.25.35,4.43,4.43,0,0,0,1.16-.15v-2Z"/><path class="cls-6" d="M314.31,432.49V425h4.33l.18,1h-3.28v2.23H318l.19,1h-2.67v2.34h3.56l.19,1Z"/><path class="cls-6" d="M324.19,430.16l-1.92-2.61v4.94H321V425h.77l2.57,3.58,2.41-3.58h.76v7.48h-1.25v-4.76l-1.63,2.37Z"/><path class="cls-6" d="M332.83,432.49H330V425h2.62a3.06,3.06,0,0,1,1.84.49,1.82,1.82,0,0,1,.67,1.57,1.74,1.74,0,0,1-.88,1.39,2.26,2.26,0,0,1,.92.73,2.12,2.12,0,0,1-.4,2.75A3.13,3.13,0,0,1,332.83,432.49Zm-.35-6.45h-1.23v2.09h1a2.31,2.31,0,0,0,1.14-.26.85.85,0,0,0,.43-.79.89.89,0,0,0-.35-.81A1.9,1.9,0,0,0,332.48,426Zm.38,3.09h-1.62v2.33h1.51a1.86,1.86,0,0,0,1.08-.28,1,1,0,0,0,.4-.84,1.11,1.11,0,0,0-.37-.9A1.52,1.52,0,0,0,332.87,429.14Z"/><path class="cls-6" d="M340.43,425l2.88,7.4-1.22.18-.74-2h-2.94l-.71,1.88h-1.22l2.86-7.48Zm-.57,1.68-1.09,2.92H341Z"/><path class="cls-6" d="M344.94,432.49V425h1.17l3.67,5.27V425H351v7.48h-1.18l-3.67-5.3v5.3Z"/><path class="cls-6" d="M356.22,429.44l.1-.95h2.62v3.62a3.9,3.9,0,0,1-1,.39,5.05,5.05,0,0,1-1.23.15,3.78,3.78,0,0,1-2-.51,3.37,3.37,0,0,1-1.3-1.39,4.23,4.23,0,0,1-.45-2,4.13,4.13,0,0,1,.5-2,3.57,3.57,0,0,1,1.39-1.4,4,4,0,0,1,2-.5,5.13,5.13,0,0,1,1,.12,3.62,3.62,0,0,1,1,.34l-.38.89q-.59-.19-.86-.25a3.38,3.38,0,0,0-.72-.06,2.64,2.64,0,0,0-1.31.33,2.38,2.38,0,0,0-.95,1,3.26,3.26,0,0,0-.35,1.57,3.37,3.37,0,0,0,.31,1.48,2.34,2.34,0,0,0,.85,1,2.28,2.28,0,0,0,1.25.35,4.43,4.43,0,0,0,1.16-.15v-2Z"/><path class="cls-6" d="M364.07,425l2.88,7.4-1.22.18-.74-2h-2.94l-.71,1.88h-1.22L363,425Zm-.57,1.68-1.09,2.92h2.21Z"/><path class="cls-6" d="M368.58,432.49V425h1.17l3.67,5.27V425h1.24v7.48h-1.18l-3.67-5.3v5.3Z"/><path class="cls-6" d="M379.79,432l.28-1a5.49,5.49,0,0,0,.89.34,3.38,3.38,0,0,0,1,.15,2.06,2.06,0,0,0,1.11-.25.79.79,0,0,0,.38-.7.78.78,0,0,0-.21-.52,2.11,2.11,0,0,0-.53-.42q-.33-.19-.94-.5a6.21,6.21,0,0,1-1.56-1.05,1.77,1.77,0,0,1-.52-1.3,1.74,1.74,0,0,1,.3-1,2,2,0,0,1,.87-.7,3.19,3.19,0,0,1,1.34-.26,3.93,3.93,0,0,1,1.05.15,5.45,5.45,0,0,1,1,.38l-.42,1A5.78,5.78,0,0,0,383,426a2.75,2.75,0,0,0-.81-.11,1.78,1.78,0,0,0-.93.22.71.71,0,0,0-.36.65.85.85,0,0,0,.19.54,1.83,1.83,0,0,0,.51.42q.31.18,1,.52a10.65,10.65,0,0,1,1.13.65,2.54,2.54,0,0,1,.69.7,1.72,1.72,0,0,1,.27,1,1.82,1.82,0,0,1-.32,1.06,2.07,2.07,0,0,1-.94.72,3.87,3.87,0,0,1-1.49.26,4.52,4.52,0,0,1-1.17-.19A3.21,3.21,0,0,1,379.79,432Z"/><path class="cls-6" d="M387.63,425v4.69a2,2,0,0,0,.47,1.41,1.88,1.88,0,0,0,2.55,0,2,2,0,0,0,.47-1.4V425h1.24v4.79a2.86,2.86,0,0,1-.37,1.45,2.58,2.58,0,0,1-1,1,3.61,3.61,0,0,1-3.16,0,2.58,2.58,0,0,1-1-1,2.85,2.85,0,0,1-.37-1.45V425Z"/><path class="cls-6" d="M397.91,430.16,396,427.55v4.94h-1.23V425h.77l2.57,3.58L400.5,425h.76v7.48H400v-4.76l-1.63,2.37Z"/><path class="cls-6" d="M406.55,432.49h-2.82V425h2.62a3.06,3.06,0,0,1,1.84.49,1.82,1.82,0,0,1,.67,1.57,1.74,1.74,0,0,1-.88,1.39,2.26,2.26,0,0,1,.92.73,2.13,2.13,0,0,1-.4,2.75A3.13,3.13,0,0,1,406.55,432.49ZM406.2,426H405v2.09h1a2.3,2.3,0,0,0,1.14-.26.85.85,0,0,0,.43-.79.89.89,0,0,0-.35-.81A1.9,1.9,0,0,0,406.2,426Zm.39,3.09H405v2.33h1.51a1.86,1.86,0,0,0,1.08-.28,1,1,0,0,0,.4-.84,1.11,1.11,0,0,0-.37-.9A1.52,1.52,0,0,0,406.59,429.14Z"/><path class="cls-6" d="M411.06,432.49V425h4.33l.18,1H412.3v2.23h2.49l.19,1H412.3v2.34h3.56l.19,1Z"/><path class="cls-6" d="M417.79,425H420a3.55,3.55,0,0,1,2.09.57,1.93,1.93,0,0,1,.8,1.69,2,2,0,0,1-.35,1.2,2.25,2.25,0,0,1-.94.77l1.86,3.26h-1.33l-1.63-2.95a4.23,4.23,0,0,1-.61,0H419v2.92h-1.23Zm2.21,1h-1v2.52h1a2.12,2.12,0,0,0,1.19-.3,1,1,0,0,0,.45-.95,1.12,1.12,0,0,0-.42-1A2.05,2.05,0,0,0,420,426Z"/><path class="cls-6" d="M430.91,432.49h-2.74V425h2.76a3.13,3.13,0,0,1,2.53,1,4,4,0,0,1,.86,2.68,4.66,4.66,0,0,1-.4,2,3,3,0,0,1-1.17,1.33A3.46,3.46,0,0,1,430.91,432.49Zm.07-6.42H429.4v5.39h1.5a2,2,0,0,0,1.58-.69,3.13,3.13,0,0,0,.58-2.05,3.23,3.23,0,0,0-.52-2A1.82,1.82,0,0,0,431,426.07Z"/><path class="cls-6" d="M439.33,425l2.88,7.4-1.22.18-.74-2h-2.94l-.71,1.88h-1.22l2.86-7.48Zm-.57,1.68-1.09,2.92h2.21Z"/><path class="cls-6" d="M445.45,432.49v-2.95L443,425.23l1.21-.4,1.86,3.46L448,425h1.31l-2.6,4.55v2.93Z"/><path class="cls-6" d="M454,425l2.88,7.4-1.22.18-.74-2H452l-.71,1.88h-1.22l2.86-7.48Zm-.57,1.68-1.09,2.92h2.21Z"/><path class="cls-6" d="M341.36,443.36l-1.92-2.61v4.94H338.2v-7.48H339l2.57,3.58,2.41-3.58h.76v7.48h-1.25v-4.76l-1.63,2.37Z"/><path class="cls-6" d="M350.28,438.21l2.88,7.4-1.22.18-.74-2h-2.94l-.71,1.88h-1.22l2.86-7.48Zm-.57,1.68-1.09,2.92h2.21Z"/><path class="cls-6" d="M359.16,445.69v-3.26H356v3.26h-1.23v-7.48l1.23-.06v3.29h3.13v-3.23h1.23v7.48Z"/><path class="cls-6" d="M366,438.21l2.88,7.4-1.22.18-.74-2H364l-.71,1.88H362l2.86-7.48Zm-.57,1.68-1.09,2.92h2.21Z"/><path class="cls-6" d="M370.06,445.24l.28-1a5.57,5.57,0,0,0,.89.34,3.41,3.41,0,0,0,1,.15,2.06,2.06,0,0,0,1.11-.25.78.78,0,0,0,.39-.7.77.77,0,0,0-.21-.52,2.11,2.11,0,0,0-.53-.42q-.32-.19-.94-.5a6.22,6.22,0,0,1-1.56-1,1.77,1.77,0,0,1-.52-1.3,1.75,1.75,0,0,1,.3-1,2,2,0,0,1,.87-.7,3.2,3.2,0,0,1,1.34-.26,3.88,3.88,0,0,1,1.05.15,5.5,5.5,0,0,1,1,.38l-.42,1a5.88,5.88,0,0,0-.78-.31,2.75,2.75,0,0,0-.81-.11,1.78,1.78,0,0,0-.94.22.71.71,0,0,0-.36.65.84.84,0,0,0,.19.54,1.81,1.81,0,0,0,.51.42q.31.18,1,.52a10.68,10.68,0,0,1,1.13.65,2.54,2.54,0,0,1,.69.7,1.72,1.72,0,0,1,.27,1,1.81,1.81,0,0,1-.32,1.06,2.07,2.07,0,0,1-.94.72,3.88,3.88,0,0,1-1.49.26,4.52,4.52,0,0,1-1.17-.19A3.23,3.23,0,0,1,370.06,445.24Z"/><path class="cls-6" d="M376.77,445.69v-7.48H378v7.48Z"/><path class="cls-6" d="M380.06,445.24l.28-1a5.57,5.57,0,0,0,.89.34,3.4,3.4,0,0,0,1,.15,2.06,2.06,0,0,0,1.11-.25.78.78,0,0,0,.38-.7.77.77,0,0,0-.21-.52,2.1,2.1,0,0,0-.53-.42l-.94-.5a6.23,6.23,0,0,1-1.56-1,1.77,1.77,0,0,1-.52-1.3,1.75,1.75,0,0,1,.3-1,2,2,0,0,1,.87-.7,3.2,3.2,0,0,1,1.34-.26,3.88,3.88,0,0,1,1.05.15,5.48,5.48,0,0,1,1,.38l-.42,1a5.85,5.85,0,0,0-.78-.31,2.75,2.75,0,0,0-.81-.11,1.78,1.78,0,0,0-.93.22.71.71,0,0,0-.36.65.84.84,0,0,0,.19.54,1.8,1.8,0,0,0,.51.42q.31.18,1,.52a10.72,10.72,0,0,1,1.13.65,2.54,2.54,0,0,1,.69.7,1.72,1.72,0,0,1,.27,1,1.81,1.81,0,0,1-.32,1.06,2.07,2.07,0,0,1-.94.72,3.88,3.88,0,0,1-1.49.26,4.52,4.52,0,0,1-1.17-.19A3.23,3.23,0,0,1,380.06,445.24Z"/><path class="cls-6" d="M395.69,438.21l-2.21,7.48H392.4L390.79,440l-1.57,5.72h-1.08l-2.23-7.4,1.23-.18,1.56,5.9,1.5-5.8h1.22L393,444l1.5-5.8Z"/><path class="cls-6" d="M400.41,438.21l2.88,7.4-1.22.18-.74-2h-2.94l-.71,1.88h-1.22l2.86-7.48Zm-.57,1.68-1.09,2.92H401Z"/><circle class="cls-5" cx="370.4" cy="394.88" r="5"/><circle class="cls-5" cx="370.4" cy="462.92" r="5"/><rect class="cls-3" x="525.87" y="394.6" width="215" height="68.22" rx="4" ry="4"/><path class="cls-4" d="M623.83,425.89l-3.35-4.38-1,1.09v3.29h-1.34v-9.52h1.34v4.41l4.34-4.62,1,.78-3.37,3.6,4.09,5.35Z"/><path class="cls-4" d="M638.67,416.37l-2.74,9.52h-1.22l-2.14-7.59-2.07,7.59h-1.22l-2.83-9.44,1.33-.2,2.13,7.83,2-7.71h1.32l2.1,7.71,2-7.71Z"/><path class="cls-4" d="M642,416.37v6a2.64,2.64,0,0,0,.65,1.88,2.24,2.24,0,0,0,1.71.69,2.2,2.2,0,0,0,1.72-.7,2.7,2.7,0,0,0,.63-1.88v-6h1.36v6.12a3.64,3.64,0,0,1-.46,1.83,3.26,3.26,0,0,1-1.29,1.27,4,4,0,0,1-2,.46,4.06,4.06,0,0,1-2-.46,3.18,3.18,0,0,1-1.29-1.27,3.69,3.69,0,0,1-.46-1.83v-6.12Z"/><path class="cls-6" d="M590,439.09l-2.45-3.29-.77.83v2.46h-1.23v-7.48h1.23v3.3l3.33-3.46.89.71-2.61,2.76,3.12,4.17Z"/><path class="cls-6" d="M593.11,439.09v-7.48h4.33l.18,1h-3.28v2.23h2.49l.19,1h-2.67v2.34h3.56l.19,1Z"/><path class="cls-6" d="M608.75,431.61l-2.21,7.48h-1.08l-1.61-5.72-1.57,5.72h-1.08l-2.23-7.4,1.23-.18,1.56,5.9,1.5-5.8h1.22l1.54,5.8,1.5-5.8Z"/><path class="cls-6" d="M610.38,439.09v-7.48h1.23v7.48Z"/><path class="cls-6" d="M614.09,431.61h2.23a3.54,3.54,0,0,1,2.09.57,1.93,1.93,0,0,1,.8,1.69,2.05,2.05,0,0,1-.35,1.2,2.24,2.24,0,0,1-.93.77l1.86,3.26h-1.33l-1.63-2.95a4.23,4.23,0,0,1-.6,0h-.9v2.92h-1.23Zm2.21,1h-1v2.52h1a2.13,2.13,0,0,0,1.19-.3,1.05,1.05,0,0,0,.45-.95,1.11,1.11,0,0,0-.42-1A2,2,0,0,0,616.3,432.65Z"/><path class="cls-6" d="M624.5,431.61l2.88,7.4-1.22.18-.74-2h-2.94l-.71,1.88h-1.22l2.86-7.48Zm-.57,1.68-1.09,2.92h2.21Z"/><path class="cls-6" d="M630.15,431.61v4.69a2,2,0,0,0,.47,1.41,1.88,1.88,0,0,0,2.55,0,2,2,0,0,0,.47-1.4v-4.69h1.24v4.79a2.86,2.86,0,0,1-.37,1.45,2.58,2.58,0,0,1-1,1,3.61,3.61,0,0,1-3.16,0,2.58,2.58,0,0,1-1-1,2.87,2.87,0,0,1-.37-1.45v-4.79Z"/><path class="cls-6" d="M636.85,438.64l.28-1a5.57,5.57,0,0,0,.89.34,3.41,3.41,0,0,0,1,.15,2.06,2.06,0,0,0,1.11-.25.78.78,0,0,0,.39-.7.77.77,0,0,0-.21-.52,2.11,2.11,0,0,0-.53-.42q-.32-.19-.94-.5a6.23,6.23,0,0,1-1.56-1,1.77,1.77,0,0,1-.52-1.3,1.75,1.75,0,0,1,.3-1,2,2,0,0,1,.87-.7,3.2,3.2,0,0,1,1.34-.26,3.88,3.88,0,0,1,1.05.15,5.52,5.52,0,0,1,1,.38l-.42,1a5.91,5.91,0,0,0-.78-.31,2.75,2.75,0,0,0-.81-.11,1.79,1.79,0,0,0-.94.22.71.71,0,0,0-.36.65.84.84,0,0,0,.19.54,1.82,1.82,0,0,0,.51.42q.31.18,1,.52a10.72,10.72,0,0,1,1.13.65,2.54,2.54,0,0,1,.69.7,1.72,1.72,0,0,1,.27,1,1.81,1.81,0,0,1-.32,1.06,2.07,2.07,0,0,1-.94.72,3.88,3.88,0,0,1-1.49.26,4.52,4.52,0,0,1-1.17-.19A3.24,3.24,0,0,1,636.85,438.64Z"/><path class="cls-6" d="M646.65,431.61l2.88,7.4-1.22.18-.74-2h-2.94l-.71,1.88H642.7l2.86-7.48Zm-.57,1.68L645,436.21h2.21Z"/><path class="cls-6" d="M655.52,439.09v-3.26h-3.13v3.26h-1.23v-7.48l1.23-.06v3.29h3.13v-3.23h1.23v7.48Z"/><path class="cls-6" d="M662.33,431.61l2.88,7.4-1.22.18-.74-2h-2.94l-.71,1.88h-1.22l2.86-7.48Zm-.57,1.68-1.09,2.92h2.21Z"/><path class="cls-6" d="M669.93,431.61l2.88,7.4-1.22.18-.74-2h-2.94l-.71,1.88H666l2.86-7.48Zm-.57,1.68-1.09,2.92h2.21Z"/><path class="cls-6" d="M674.44,439.09v-7.48h1.17l3.67,5.27v-5.27h1.24v7.48h-1.18l-3.67-5.3v5.3Z"/><circle class="cls-5" cx="633.1" cy="395.18" r="5"/><rect class="cls-3" x="778.56" y="394.6" width="215" height="68.22" rx="4" ry="4"/><path class="cls-4" d="M854.56,425.89v-9.52h1.34v9.52Z"/><path class="cls-4" d="M859.13,425.89v-9.52h1.19l4.94,7v-7h1.36v9.52h-1.2l-4.94-7.1v7.1Z"/><path class="cls-4" d="M874.44,421.62h-3.26v4.27h-1.34v-9.52H875l.2,1h-4v3.19h3.09Z"/><path class="cls-4" d="M881.26,416.15a4.35,4.35,0,0,1,4,2.39,5.82,5.82,0,0,1,0,5.08,4.55,4.55,0,0,1-1.63,1.79,4.43,4.43,0,0,1-2.36.67,4.31,4.31,0,0,1-3.93-2.38,5.82,5.82,0,0,1,0-5.08,4.57,4.57,0,0,1,1.62-1.79A4.46,4.46,0,0,1,881.26,416.15Zm-3.15,5a4.61,4.61,0,0,0,.4,1.95,3.22,3.22,0,0,0,1.11,1.35,2.75,2.75,0,0,0,1.59.48,2.8,2.8,0,0,0,1.63-.5,3.32,3.32,0,0,0,1.13-1.38,4.7,4.7,0,0,0,.41-2,4.55,4.55,0,0,0-.4-1.94,3.24,3.24,0,0,0-1.1-1.34,2.72,2.72,0,0,0-1.58-.48,2.84,2.84,0,0,0-1.64.5,3.3,3.3,0,0,0-1.13,1.37A4.65,4.65,0,0,0,878.11,421.16Z"/><path class="cls-4" d="M894,425.89l-3.35-4.38-1,1.09v3.29h-1.34v-9.52h1.34v4.41l4.34-4.62,1,.78-3.37,3.6,4.09,5.35Z"/><path class="cls-4" d="M901.62,416.15a4.35,4.35,0,0,1,4,2.39,5.81,5.81,0,0,1,0,5.08,4.55,4.55,0,0,1-1.63,1.79,4.42,4.42,0,0,1-2.36.67,4.31,4.31,0,0,1-3.93-2.38,5.81,5.81,0,0,1,0-5.08,4.56,4.56,0,0,1,1.62-1.79A4.46,4.46,0,0,1,901.62,416.15Zm-3.15,5a4.59,4.59,0,0,0,.4,1.95,3.21,3.21,0,0,0,1.11,1.35,2.75,2.75,0,0,0,1.59.48,2.8,2.8,0,0,0,1.63-.5,3.3,3.3,0,0,0,1.13-1.38,4.69,4.69,0,0,0,.41-2,4.57,4.57,0,0,0-.4-1.94,3.25,3.25,0,0,0-1.1-1.34,2.72,2.72,0,0,0-1.58-.48,2.84,2.84,0,0,0-1.64.5,3.3,3.3,0,0,0-1.13,1.37A4.65,4.65,0,0,0,898.47,421.16Z"/><path class="cls-4" d="M912.65,422.84,910,419.16v6.73h-1.34v-9.52h.83l3.35,4.7,3.18-4.7h.84v9.52h-1.36v-6.61l-2.37,3.49Z"/><path class="cls-6" d="M814,439.09v-7.48h1.23v7.48Z"/><path class="cls-6" d="M817.71,439.09v-7.48h1.17l3.67,5.27v-5.27h1.24v7.48h-1.18l-3.67-5.3v5.3Z"/><path class="cls-6" d="M830.07,435.83h-2.55v3.27h-1.23v-7.48h4.13l.19,1h-3.08v2.3h2.39Z"/><path class="cls-6" d="M835.39,431.44a3.56,3.56,0,0,1,1.9.51,3.38,3.38,0,0,1,1.27,1.39,4.64,4.64,0,0,1,0,4,3.49,3.49,0,0,1-1.29,1.4,3.61,3.61,0,0,1-1.88.52,3.54,3.54,0,0,1-1.89-.5,3.35,3.35,0,0,1-1.26-1.38,4.65,4.65,0,0,1,0-4,3.48,3.48,0,0,1,1.28-1.4A3.62,3.62,0,0,1,835.39,431.44Zm-2.32,3.94a3.55,3.55,0,0,0,.29,1.46,2.37,2.37,0,0,0,.81,1,2.06,2.06,0,0,0,1.21.36,2.12,2.12,0,0,0,1.19-.35,2.39,2.39,0,0,0,.84-1,3.58,3.58,0,0,0,.31-1.54,3.51,3.51,0,0,0-.29-1.45,2.37,2.37,0,0,0-.81-1,2.06,2.06,0,0,0-1.21-.36,2.08,2.08,0,0,0-1.19.36,2.44,2.44,0,0,0-.85,1A3.49,3.49,0,0,0,833.07,435.38Z"/><path class="cls-6" d="M840.94,431.61h2.23a3.55,3.55,0,0,1,2.09.57,1.93,1.93,0,0,1,.8,1.69,2.05,2.05,0,0,1-.35,1.2,2.24,2.24,0,0,1-.93.77l1.86,3.26h-1.33l-1.63-2.95a4.24,4.24,0,0,1-.6,0h-.9v2.92h-1.23Zm2.21,1h-1v2.52h1a2.12,2.12,0,0,0,1.19-.3,1.05,1.05,0,0,0,.45-.95,1.11,1.11,0,0,0-.42-1A2.05,2.05,0,0,0,843.16,432.65Z"/><path class="cls-6" d="M851.43,436.76l-1.92-2.61v4.94h-1.23v-7.48H849l2.57,3.58,2.41-3.58h.76v7.48h-1.25v-4.76l-1.63,2.37Z"/><path class="cls-6" d="M860.35,431.61l2.88,7.4-1.22.18-.74-2h-2.94l-.71,1.88H856.4l2.86-7.48Zm-.57,1.68-1.09,2.92h2.21Z"/><path class="cls-6" d="M864.44,438.64l.28-1a5.57,5.57,0,0,0,.89.34,3.41,3.41,0,0,0,1,.15,2.06,2.06,0,0,0,1.11-.25.78.78,0,0,0,.39-.7.77.77,0,0,0-.21-.52,2.14,2.14,0,0,0-.53-.42c-.22-.12-.53-.29-.94-.5a6.21,6.21,0,0,1-1.56-1,1.77,1.77,0,0,1-.52-1.3,1.75,1.75,0,0,1,.3-1,2,2,0,0,1,.87-.7,3.21,3.21,0,0,1,1.34-.26,3.89,3.89,0,0,1,1.05.15,5.48,5.48,0,0,1,1,.38l-.42,1a5.85,5.85,0,0,0-.78-.31,2.75,2.75,0,0,0-.81-.11,1.78,1.78,0,0,0-.93.22.71.71,0,0,0-.36.65.84.84,0,0,0,.19.54,1.81,1.81,0,0,0,.51.42q.31.18,1,.52a10.64,10.64,0,0,1,1.13.65,2.54,2.54,0,0,1,.69.7,1.72,1.72,0,0,1,.27,1,1.81,1.81,0,0,1-.32,1.06,2.07,2.07,0,0,1-.94.72,3.89,3.89,0,0,1-1.49.26,4.53,4.53,0,0,1-1.17-.19A3.24,3.24,0,0,1,864.44,438.64Z"/><path class="cls-6" d="M871.15,439.09v-7.48h1.23v7.48Z"/><path class="cls-6" d="M882.33,432l-.42,1a6.67,6.67,0,0,0-.76-.33,2.41,2.41,0,0,0-.75-.1,1,1,0,0,0-.71.27.9.9,0,0,0-.26.66,1.24,1.24,0,0,0,.22.7,4.32,4.32,0,0,0,.75.79l1.9,1.75a4.81,4.81,0,0,0,.36-1.7l1.09.44a5.39,5.39,0,0,1-.52,2.11l.88.78-.71.9-.86-.78a3.22,3.22,0,0,1-2.28.79,3.76,3.76,0,0,1-1.47-.3,2.28,2.28,0,0,1-1.41-2.21,2.54,2.54,0,0,1,.3-1.19,3,3,0,0,1,.8-1,1.81,1.81,0,0,1-.32-1.06,2,2,0,0,1,.27-1,2,2,0,0,1,.78-.75,2.38,2.38,0,0,1,1.18-.28A4.21,4.21,0,0,1,882.33,432Zm-.68,5.67-2.06-1.88a4,4,0,0,1-.35-.35,1.78,1.78,0,0,0-.42.58,1.81,1.81,0,0,0-.17.72,1.27,1.27,0,0,0,.46,1.07,1.78,1.78,0,0,0,1.13.36A2,2,0,0,0,881.64,437.63Z"/><path class="cls-6" d="M893.44,439.09,891,435.8l-.77.83v2.46H889v-7.48h1.23v3.3l3.33-3.46.89.71-2.61,2.76,3.12,4.17Z"/><path class="cls-6" d="M899.64,431.44a3.56,3.56,0,0,1,1.9.51,3.38,3.38,0,0,1,1.27,1.39,4.64,4.64,0,0,1,0,4,3.49,3.49,0,0,1-1.29,1.4,3.61,3.61,0,0,1-1.88.52,3.54,3.54,0,0,1-1.89-.5,3.35,3.35,0,0,1-1.27-1.38,4.65,4.65,0,0,1,0-4,3.49,3.49,0,0,1,1.28-1.4A3.62,3.62,0,0,1,899.64,431.44Zm-2.32,3.94a3.54,3.54,0,0,0,.29,1.46,2.35,2.35,0,0,0,.81,1,2.05,2.05,0,0,0,1.2.36,2.11,2.11,0,0,0,1.19-.35,2.38,2.38,0,0,0,.84-1,3.58,3.58,0,0,0,.31-1.54,3.5,3.5,0,0,0-.29-1.45,2.36,2.36,0,0,0-.81-1,2.15,2.15,0,0,0-2.39,0,2.44,2.44,0,0,0-.85,1A3.5,3.5,0,0,0,897.32,435.38Z"/><path class="cls-6" d="M908.35,436.76l-1.92-2.61v4.94h-1.23v-7.48H906l2.57,3.58,2.41-3.58h.76v7.48h-1.25v-4.76l-1.63,2.37Z"/><path class="cls-6" d="M915.31,431.61v4.69a2,2,0,0,0,.47,1.41,1.88,1.88,0,0,0,2.55,0,2,2,0,0,0,.47-1.4v-4.69h1.24v4.79a2.87,2.87,0,0,1-.37,1.45,2.58,2.58,0,0,1-1,1,3.61,3.61,0,0,1-3.16,0,2.57,2.57,0,0,1-1-1,2.86,2.86,0,0,1-.37-1.45v-4.79Z"/><path class="cls-6" d="M922.43,439.09v-7.48h1.17l3.67,5.27v-5.27h1.24v7.48h-1.18l-3.67-5.3v5.3Z"/><path class="cls-6" d="M931,439.09v-7.48h1.23v7.48Z"/><path class="cls-6" d="M939.16,439.09l-2.45-3.29-.77.83v2.46h-1.23v-7.48h1.23v3.3l3.33-3.46.89.71-2.61,2.76,3.12,4.17Z"/><path class="cls-6" d="M945.4,431.61l2.88,7.4-1.22.18-.74-2h-2.94l-.71,1.88h-1.22l2.86-7.48Zm-.57,1.68-1.09,2.92H946Z"/><path class="cls-6" d="M949.49,438.64l.28-1a5.57,5.57,0,0,0,.89.34,3.4,3.4,0,0,0,1,.15,2.06,2.06,0,0,0,1.11-.25.78.78,0,0,0,.38-.7.77.77,0,0,0-.21-.52,2.1,2.1,0,0,0-.53-.42l-.94-.5a6.23,6.23,0,0,1-1.56-1,1.77,1.77,0,0,1-.52-1.3,1.75,1.75,0,0,1,.3-1,2,2,0,0,1,.87-.7,3.2,3.2,0,0,1,1.34-.26,3.88,3.88,0,0,1,1.05.15,5.48,5.48,0,0,1,1,.38l-.42,1a5.85,5.85,0,0,0-.78-.31,2.75,2.75,0,0,0-.81-.11,1.78,1.78,0,0,0-.93.22.71.71,0,0,0-.36.65.84.84,0,0,0,.19.54,1.81,1.81,0,0,0,.51.42q.31.18,1,.52a10.72,10.72,0,0,1,1.13.65,2.54,2.54,0,0,1,.69.7,1.72,1.72,0,0,1,.27,1,1.81,1.81,0,0,1-.32,1.06,2.07,2.07,0,0,1-.94.72,3.88,3.88,0,0,1-1.49.26,4.52,4.52,0,0,1-1.17-.19A3.23,3.23,0,0,1,949.49,438.64Z"/><path class="cls-6" d="M956.2,439.09v-7.48h1.23v7.48Z"/><circle class="cls-5" cx="885.8" cy="395.18" r="5"/><circle class="cls-5" cx="885.8" cy="462.22" r="5"/><rect class="cls-3" x="1041.27" y="394.6" width="215" height="68.22" rx="4" ry="4"/><path class="cls-4" d="M1110.43,409.77l3.67,9.44-1.33.2-1-2.66h-3.88l-1,2.55h-1.32l3.58-9.52Zm-.63,1.81-1.53,4.09h3.09Z"/><path class="cls-4" d="M1119.58,419.29h-3.37v-9.52h3.43a3.88,3.88,0,0,1,3.18,1.29,5.2,5.2,0,0,1,1.06,3.41,6,6,0,0,1-.5,2.49,3.86,3.86,0,0,1-1.47,1.71A4.26,4.26,0,0,1,1119.58,419.29Zm.11-8.37h-2.14v7.25h2a2.64,2.64,0,0,0,2.14-1,4.14,4.14,0,0,0,.8-2.72,4.32,4.32,0,0,0-.71-2.61A2.47,2.47,0,0,0,1119.69,410.92Z"/><path class="cls-4" d="M1129.57,417.49l2.86-7.71h1.32l-3.58,9.52h-1.22l-3.67-9.44,1.33-.2Z"/><path class="cls-4" d="M1139.69,409.55a4.34,4.34,0,0,1,4,2.39,5.82,5.82,0,0,1,0,5.08,4.55,4.55,0,0,1-1.63,1.79,4.41,4.41,0,0,1-2.36.67,4.31,4.31,0,0,1-3.93-2.38,5.82,5.82,0,0,1,0-5.08,4.58,4.58,0,0,1,1.62-1.79A4.45,4.45,0,0,1,1139.69,409.55Zm-3.15,5a4.61,4.61,0,0,0,.4,1.95,3.21,3.21,0,0,0,1.11,1.35,2.75,2.75,0,0,0,1.59.48,2.81,2.81,0,0,0,1.63-.5,3.31,3.31,0,0,0,1.13-1.38,4.7,4.7,0,0,0,.41-2,4.54,4.54,0,0,0-.4-1.94,3.25,3.25,0,0,0-1.1-1.34,2.73,2.73,0,0,0-1.58-.48,2.84,2.84,0,0,0-1.64.5,3.29,3.29,0,0,0-1.13,1.37A4.64,4.64,0,0,0,1136.54,414.56Z"/><path class="cls-4" d="M1152.46,419.29l-3.35-4.38-1,1.09v3.29h-1.34v-9.52h1.34v4.41l4.34-4.62,1,.78-3.37,3.6,4.09,5.35Z"/><path class="cls-4" d="M1156.2,419.29v-9.52h5.36l.18,1h-4.2v3.12h3.23l.18,1h-3.42v3.28h4.52l.18,1Z"/><path class="cls-4" d="M1164,418.78l.31-1.06a5.52,5.52,0,0,0,1.11.42,4.7,4.7,0,0,0,1.25.18,2.71,2.71,0,0,0,1.54-.37,1.15,1.15,0,0,0,.55-1,1.24,1.24,0,0,0-.27-.79,2.67,2.67,0,0,0-.78-.63q-.5-.29-1.4-.68a8.38,8.38,0,0,1-1.41-.76,2.34,2.34,0,0,1-1.06-2.07,2.19,2.19,0,0,1,.38-1.26,2.54,2.54,0,0,1,1.08-.88,4,4,0,0,1,1.66-.32,5,5,0,0,1,1.32.18,6.62,6.62,0,0,1,1.2.45l-.45,1.06a6.31,6.31,0,0,0-.93-.37,3.62,3.62,0,0,0-1-.13,2.54,2.54,0,0,0-1.36.32,1,1,0,0,0-.52.92,1.27,1.27,0,0,0,.27.81,2.53,2.53,0,0,0,.76.62q.49.28,1.44.71a6.12,6.12,0,0,1,1.87,1.19,2.2,2.2,0,0,1,.59,1.6,2.28,2.28,0,0,1-.41,1.34,2.62,2.62,0,0,1-1.18.9,4.78,4.78,0,0,1-1.85.32,6.33,6.33,0,0,1-1.5-.22A3,3,0,0,1,1164,418.78Z"/><path class="cls-4" d="M1176.42,416.24l-2.63-3.68v6.73h-1.34v-9.52h.83l3.35,4.7,3.18-4.7h.84v9.52h-1.36v-6.61l-2.37,3.49Z"/><path class="cls-4" d="M1187.53,409.77l3.67,9.44-1.33.2-1-2.66H1185l-1,2.55h-1.32l3.58-9.52Zm-.63,1.81-1.53,4.09h3.09Z"/><path class="cls-6" d="M1071.43,425l2.88,7.4-1.22.18-.74-2h-2.94l-.71,1.88h-1.22l2.86-7.48Zm-.57,1.68-1.09,2.92H1072Z"/><path class="cls-6" d="M1078.68,432.49h-2.74V425h2.76a3.13,3.13,0,0,1,2.53,1,4,4,0,0,1,.86,2.68,4.67,4.67,0,0,1-.4,2,3,3,0,0,1-1.17,1.33A3.46,3.46,0,0,1,1078.68,432.49Zm.07-6.42h-1.57v5.39h1.5a2,2,0,0,0,1.58-.69,3.13,3.13,0,0,0,.58-2.05,3.23,3.23,0,0,0-.52-2A1.82,1.82,0,0,0,1078.75,426.07Z"/><path class="cls-6" d="M1086.61,430.81l2.16-5.8H1090l-2.86,7.48h-1.08l-2.89-7.4,1.23-.18Z"/><path class="cls-6" d="M1094.68,424.84a3.57,3.57,0,0,1,1.9.51,3.39,3.39,0,0,1,1.27,1.39,4.65,4.65,0,0,1,0,4,3.48,3.48,0,0,1-1.29,1.4,3.59,3.59,0,0,1-1.88.52,3.55,3.55,0,0,1-1.89-.5,3.36,3.36,0,0,1-1.26-1.38,4.32,4.32,0,0,1-.45-2,4.36,4.36,0,0,1,.46-2,3.49,3.49,0,0,1,1.28-1.4A3.63,3.63,0,0,1,1094.68,424.84Zm-2.32,3.94a3.54,3.54,0,0,0,.29,1.46,2.36,2.36,0,0,0,.81,1,2.07,2.07,0,0,0,1.21.36,2.12,2.12,0,0,0,1.19-.35,2.39,2.39,0,0,0,.84-1,3.57,3.57,0,0,0,.31-1.53,3.52,3.52,0,0,0-.29-1.45,2.36,2.36,0,0,0-.81-1,2.06,2.06,0,0,0-1.2-.36,2.08,2.08,0,0,0-1.19.36,2.44,2.44,0,0,0-.85,1A3.5,3.5,0,0,0,1092.36,428.78Z"/><path class="cls-6" d="M1104.69,432.49l-2.45-3.29-.77.83v2.46h-1.23V425h1.23v3.3l3.33-3.46.89.71-2.61,2.76,3.12,4.17Z"/><path class="cls-6" d="M1110.92,425l2.88,7.4-1.22.18-.74-2h-2.94l-.71,1.88H1107l2.86-7.48Zm-.57,1.68-1.09,2.92h2.21Z"/><path class="cls-6" d="M1115,432l.28-1a5.48,5.48,0,0,0,.89.34,3.37,3.37,0,0,0,1,.15,2.06,2.06,0,0,0,1.11-.25.79.79,0,0,0,.38-.7.77.77,0,0,0-.21-.52,2.11,2.11,0,0,0-.53-.42q-.33-.19-.94-.5a6.21,6.21,0,0,1-1.56-1.05,1.77,1.77,0,0,1-.52-1.3,1.74,1.74,0,0,1,.3-1,2,2,0,0,1,.87-.7,3.19,3.19,0,0,1,1.34-.26,3.93,3.93,0,0,1,1.05.15,5.49,5.49,0,0,1,1,.38l-.42,1a5.83,5.83,0,0,0-.78-.31,2.75,2.75,0,0,0-.81-.11,1.78,1.78,0,0,0-.93.22.71.71,0,0,0-.36.65.84.84,0,0,0,.19.54,1.82,1.82,0,0,0,.51.42q.31.18,1,.52a10.48,10.48,0,0,1,1.13.65,2.53,2.53,0,0,1,.69.7,1.72,1.72,0,0,1,.27,1,1.82,1.82,0,0,1-.32,1.06,2.07,2.07,0,0,1-.94.72,3.87,3.87,0,0,1-1.49.26,4.52,4.52,0,0,1-1.17-.19A3.2,3.2,0,0,1,1115,432Z"/><path class="cls-6" d="M1121.73,432.49V425H1123v7.48Z"/><path class="cls-6" d="M1132.9,425.37l-.42,1a6.47,6.47,0,0,0-.76-.32,2.41,2.41,0,0,0-.75-.1,1,1,0,0,0-.71.27.9.9,0,0,0-.26.65,1.25,1.25,0,0,0,.22.7,4.39,4.39,0,0,0,.75.79l1.9,1.75a4.84,4.84,0,0,0,.36-1.71l1.09.44a5.39,5.39,0,0,1-.52,2.11l.88.78-.71.9-.86-.78a3.22,3.22,0,0,1-2.28.79,3.77,3.77,0,0,1-1.47-.3,2.28,2.28,0,0,1-1.41-2.21,2.53,2.53,0,0,1,.3-1.19,3,3,0,0,1,.8-1,1.81,1.81,0,0,1-.32-1.06,2,2,0,0,1,.27-1,2,2,0,0,1,.78-.75,2.39,2.39,0,0,1,1.18-.28A4.2,4.2,0,0,1,1132.9,425.37Zm-.68,5.67-2.06-1.88a4,4,0,0,1-.35-.35,1.77,1.77,0,0,0-.42.58,1.82,1.82,0,0,0-.17.72,1.27,1.27,0,0,0,.46,1.07,1.78,1.78,0,0,0,1.13.36A2,2,0,0,0,1132.22,431Z"/><path class="cls-6" d="M1144,432.49l-2.45-3.29-.77.83v2.46h-1.23V425h1.23v3.3l3.33-3.46.89.71-2.61,2.76,3.12,4.17Z"/><path class="cls-6" d="M1147.16,432.49V425h4.33l.18,1h-3.28v2.23h2.49l.19,1h-2.67v2.34H1152l.19,1Z"/><path class="cls-6" d="M1153.46,432l.28-1a5.48,5.48,0,0,0,.89.34,3.37,3.37,0,0,0,1,.15,2.06,2.06,0,0,0,1.11-.25.79.79,0,0,0,.38-.7.77.77,0,0,0-.21-.52,2.11,2.11,0,0,0-.53-.42q-.33-.19-.94-.5a6.21,6.21,0,0,1-1.56-1.05,1.77,1.77,0,0,1-.52-1.3,1.74,1.74,0,0,1,.3-1,2,2,0,0,1,.87-.7,3.19,3.19,0,0,1,1.34-.26,3.93,3.93,0,0,1,1.05.15,5.49,5.49,0,0,1,1,.38l-.42,1a5.83,5.83,0,0,0-.78-.31,2.75,2.75,0,0,0-.81-.11,1.78,1.78,0,0,0-.93.22.71.71,0,0,0-.36.65.84.84,0,0,0,.19.54,1.82,1.82,0,0,0,.51.42q.31.18,1,.52a10.48,10.48,0,0,1,1.13.65,2.53,2.53,0,0,1,.69.7,1.72,1.72,0,0,1,.27,1,1.82,1.82,0,0,1-.32,1.06,2.07,2.07,0,0,1-.94.72,3.87,3.87,0,0,1-1.49.26,4.52,4.52,0,0,1-1.17-.19A3.2,3.2,0,0,1,1153.46,432Z"/><path class="cls-6" d="M1160.17,432.49V425h4.33l.18,1h-3.28v2.23h2.49l.19,1h-2.67v2.34H1165l.19,1Z"/><path class="cls-6" d="M1166.91,431.61V425h1.24v6.81a2,2,0,0,1-.15.82,1.32,1.32,0,0,1-.5.55,4.05,4.05,0,0,1-1,.42l-.5-.9a2.91,2.91,0,0,0,.58-.26.59.59,0,0,0,.24-.3A1.79,1.79,0,0,0,1166.91,431.61Z"/><path class="cls-6" d="M1173.62,425l2.88,7.4-1.22.18-.74-2h-2.94l-.71,1.88h-1.22l2.86-7.48Zm-.57,1.68-1.09,2.92h2.21Z"/><path class="cls-6" d="M1182.5,432.49v-3.26h-3.13v3.26h-1.23V425l1.23-.05v3.29h3.13V425h1.23v7.48Z"/><path class="cls-6" d="M1191.53,426H1189v6.5h-1.25V426h-2.35v-1h6Z"/><path class="cls-6" d="M1193.16,432.49V425h4.33l.18,1h-3.28v2.23h2.49l.19,1h-2.67v2.34H1198l.19,1Z"/><path class="cls-6" d="M1199.88,425h2.23a3.55,3.55,0,0,1,2.09.57,1.93,1.93,0,0,1,.8,1.69,2,2,0,0,1-.35,1.2,2.25,2.25,0,0,1-.94.77l1.86,3.26h-1.33l-1.63-2.95a4.23,4.23,0,0,1-.61,0h-.9v2.92h-1.23Zm2.21,1h-1v2.52h1a2.12,2.12,0,0,0,1.19-.3,1,1,0,0,0,.45-.95,1.12,1.12,0,0,0-.42-1A2.05,2.05,0,0,0,1202.09,426Z"/><path class="cls-6" d="M1210.3,425l2.88,7.4-1.22.18-.74-2h-2.94l-.71,1.88h-1.22l2.86-7.48Zm-.57,1.68-1.09,2.92h2.21Z"/><path class="cls-6" d="M1217.9,425l2.88,7.4-1.22.18-.74-2h-2.94l-.71,1.88h-1.22l2.86-7.48Zm-.57,1.68-1.09,2.92h2.21Z"/><path class="cls-6" d="M1222.41,432.49V425h1.17l3.67,5.27V425h1.24v7.48h-1.18l-3.67-5.3v5.3Z"/><path class="cls-6" d="M1119.46,443.36l-1.92-2.61v4.94h-1.23v-7.48h.77l2.57,3.58,2.41-3.58h.76v7.48h-1.25v-4.76l-1.63,2.37Z"/><path class="cls-6" d="M1128.38,438.21l2.88,7.4-1.22.18-.74-2h-2.94l-.71,1.88h-1.22l2.86-7.48Zm-.57,1.68-1.09,2.92h2.21Z"/><path class="cls-6" d="M1137.26,445.69v-3.26h-3.13v3.26h-1.23v-7.48l1.23-.06v3.29h3.13v-3.23h1.23v7.48Z"/><path class="cls-6" d="M1144.07,438.21l2.88,7.4-1.22.18-.74-2h-2.94l-.71,1.88h-1.22l2.86-7.48Zm-.57,1.68-1.09,2.92h2.21Z"/><path class="cls-6" d="M1148.16,445.24l.28-1a5.57,5.57,0,0,0,.89.34,3.41,3.41,0,0,0,1,.15,2.06,2.06,0,0,0,1.11-.25.78.78,0,0,0,.39-.7.77.77,0,0,0-.21-.52,2.11,2.11,0,0,0-.53-.42q-.32-.19-.94-.5a6.23,6.23,0,0,1-1.56-1,1.77,1.77,0,0,1-.52-1.3,1.75,1.75,0,0,1,.3-1,2,2,0,0,1,.87-.7,3.2,3.2,0,0,1,1.34-.26,3.88,3.88,0,0,1,1.05.15,5.52,5.52,0,0,1,1,.38l-.42,1a5.91,5.91,0,0,0-.78-.31,2.75,2.75,0,0,0-.81-.11,1.79,1.79,0,0,0-.94.22.71.71,0,0,0-.36.65.84.84,0,0,0,.19.54,1.82,1.82,0,0,0,.51.42q.31.18,1,.52a10.72,10.72,0,0,1,1.13.65,2.54,2.54,0,0,1,.69.7,1.72,1.72,0,0,1,.27,1,1.81,1.81,0,0,1-.32,1.06,2.07,2.07,0,0,1-.94.72,3.88,3.88,0,0,1-1.49.26,4.52,4.52,0,0,1-1.17-.19A3.24,3.24,0,0,1,1148.16,445.24Z"/><path class="cls-6" d="M1154.87,445.69v-7.48h1.23v7.48Z"/><path class="cls-6" d="M1158.16,445.24l.28-1a5.57,5.57,0,0,0,.89.34,3.4,3.4,0,0,0,1,.15,2.06,2.06,0,0,0,1.11-.25.78.78,0,0,0,.38-.7.77.77,0,0,0-.21-.52,2.1,2.1,0,0,0-.53-.42l-.94-.5a6.23,6.23,0,0,1-1.56-1,1.77,1.77,0,0,1-.52-1.3,1.75,1.75,0,0,1,.3-1,2,2,0,0,1,.87-.7,3.2,3.2,0,0,1,1.34-.26,3.88,3.88,0,0,1,1.05.15,5.48,5.48,0,0,1,1,.38l-.42,1a5.85,5.85,0,0,0-.78-.31,2.75,2.75,0,0,0-.81-.11,1.78,1.78,0,0,0-.93.22.71.71,0,0,0-.36.65.84.84,0,0,0,.19.54,1.8,1.8,0,0,0,.51.42q.31.18,1,.52a10.72,10.72,0,0,1,1.13.65,2.54,2.54,0,0,1,.69.7,1.72,1.72,0,0,1,.27,1,1.81,1.81,0,0,1-.32,1.06,2.07,2.07,0,0,1-.94.72,3.88,3.88,0,0,1-1.49.26,4.52,4.52,0,0,1-1.17-.19A3.22,3.22,0,0,1,1158.16,445.24Z"/><path class="cls-6" d="M1173.79,438.21l-2.21,7.48h-1.08l-1.61-5.72-1.57,5.72h-1.08l-2.23-7.4,1.23-.18,1.56,5.9,1.5-5.8h1.22l1.54,5.8,1.5-5.8Z"/><path class="cls-6" d="M1178.51,438.21l2.88,7.4-1.22.18-.74-2h-2.94l-.71,1.88h-1.22l2.86-7.48Zm-.57,1.68-1.09,2.92h2.21Z"/><circle class="cls-5" cx="1148.5" cy="394.88" r="5"/><rect class="cls-3" x="1303.97" y="394.81" width="215" height="68" rx="4" ry="4"/><path class="cls-4" d="M1388.21,425.33l.31-1.06a5.45,5.45,0,0,0,1.11.42,4.65,4.65,0,0,0,1.25.18,2.73,2.73,0,0,0,1.54-.37,1.15,1.15,0,0,0,.55-1,1.24,1.24,0,0,0-.27-.79,2.66,2.66,0,0,0-.78-.63q-.5-.29-1.4-.68a8.35,8.35,0,0,1-1.41-.76,2.53,2.53,0,0,1-.79-.87,2.5,2.5,0,0,1-.27-1.2,2.2,2.2,0,0,1,.38-1.26,2.54,2.54,0,0,1,1.08-.88,4,4,0,0,1,1.66-.32,5,5,0,0,1,1.32.18,6.48,6.48,0,0,1,1.2.45l-.45,1.06a6.38,6.38,0,0,0-.93-.37,3.62,3.62,0,0,0-1-.13,2.55,2.55,0,0,0-1.36.32,1,1,0,0,0-.52.92,1.28,1.28,0,0,0,.27.8,2.53,2.53,0,0,0,.76.62q.49.28,1.44.71a6.08,6.08,0,0,1,1.87,1.19,2.2,2.2,0,0,1,.59,1.6,2.27,2.27,0,0,1-.41,1.34,2.62,2.62,0,0,1-1.18.9,4.77,4.77,0,0,1-1.85.32,6.34,6.34,0,0,1-1.5-.22A3,3,0,0,1,1388.21,425.33Z"/><path class="cls-4" d="M1400.55,416.11a4.35,4.35,0,0,1,4,2.39,5.82,5.82,0,0,1,0,5.08,4.55,4.55,0,0,1-1.63,1.79,4.42,4.42,0,0,1-2.36.67,4.31,4.31,0,0,1-3.93-2.38,5.82,5.82,0,0,1,0-5.08,4.57,4.57,0,0,1,1.62-1.79A4.46,4.46,0,0,1,1400.55,416.11Zm-3.15,5a4.61,4.61,0,0,0,.4,1.95,3.22,3.22,0,0,0,1.11,1.35,2.75,2.75,0,0,0,1.59.48,2.8,2.8,0,0,0,1.63-.5,3.31,3.31,0,0,0,1.13-1.38,4.7,4.7,0,0,0,.41-2,4.55,4.55,0,0,0-.4-1.94,3.24,3.24,0,0,0-1.1-1.34,2.72,2.72,0,0,0-1.58-.48,2.84,2.84,0,0,0-1.64.5,3.3,3.3,0,0,0-1.13,1.37A4.65,4.65,0,0,0,1397.4,421.12Z"/><path class="cls-4" d="M1407.07,425.33l.31-1.06a5.44,5.44,0,0,0,1.11.42,4.65,4.65,0,0,0,1.25.18,2.72,2.72,0,0,0,1.54-.37,1.15,1.15,0,0,0,.55-1,1.24,1.24,0,0,0-.27-.79,2.67,2.67,0,0,0-.78-.63q-.5-.29-1.4-.68a8.33,8.33,0,0,1-1.41-.76,2.34,2.34,0,0,1-1.06-2.06,2.2,2.2,0,0,1,.38-1.26,2.54,2.54,0,0,1,1.08-.88,4,4,0,0,1,1.66-.32,5,5,0,0,1,1.32.18,6.5,6.5,0,0,1,1.2.45l-.45,1.06a6.42,6.42,0,0,0-.93-.37,3.64,3.64,0,0,0-1-.13,2.54,2.54,0,0,0-1.36.32,1,1,0,0,0-.52.92,1.27,1.27,0,0,0,.27.8,2.51,2.51,0,0,0,.76.62q.49.28,1.44.71a6.09,6.09,0,0,1,1.87,1.19,2.2,2.2,0,0,1,.6,1.6,2.28,2.28,0,0,1-.41,1.34,2.62,2.62,0,0,1-1.18.9,4.78,4.78,0,0,1-1.85.32,6.35,6.35,0,0,1-1.5-.22A3,3,0,0,1,1407.07,425.33Z"/><path class="cls-4" d="M1419.53,422.8l-2.63-3.68v6.73h-1.34v-9.52h.83l3.35,4.7,3.18-4.7h.84v9.52h-1.36v-6.61l-2.37,3.49Z"/><path class="cls-4" d="M1430.65,416.33l3.67,9.44-1.33.2-1-2.66h-3.88l-1,2.55h-1.32l3.58-9.52Zm-.63,1.81-1.53,4.09h3.09Z"/><path class="cls-6" d="M1353.52,438.6l.28-1a5.57,5.57,0,0,0,.89.34,3.4,3.4,0,0,0,1,.15,2.06,2.06,0,0,0,1.11-.25.78.78,0,0,0,.38-.7.77.77,0,0,0-.21-.52,2.12,2.12,0,0,0-.53-.42l-.94-.5a6.21,6.21,0,0,1-1.56-1,1.77,1.77,0,0,1-.52-1.3,1.75,1.75,0,0,1,.3-1,2,2,0,0,1,.87-.7,3.2,3.2,0,0,1,1.34-.26,3.89,3.89,0,0,1,1.05.15,5.48,5.48,0,0,1,1,.38l-.42,1a5.85,5.85,0,0,0-.78-.31,2.75,2.75,0,0,0-.81-.11,1.78,1.78,0,0,0-.93.22.71.71,0,0,0-.36.65.84.84,0,0,0,.19.54,1.8,1.8,0,0,0,.51.42q.31.18,1,.52a10.64,10.64,0,0,1,1.13.65,2.54,2.54,0,0,1,.69.7,1.72,1.72,0,0,1,.27,1,1.82,1.82,0,0,1-.32,1.06,2.07,2.07,0,0,1-.94.72,3.89,3.89,0,0,1-1.49.26,4.52,4.52,0,0,1-1.17-.19A3.22,3.22,0,0,1,1353.52,438.6Z"/><path class="cls-6" d="M1363.28,431.39a3.56,3.56,0,0,1,1.9.51,3.38,3.38,0,0,1,1.27,1.39,4.64,4.64,0,0,1,0,4,3.49,3.49,0,0,1-1.29,1.4,3.61,3.61,0,0,1-1.88.52,3.55,3.55,0,0,1-1.89-.5,3.35,3.35,0,0,1-1.26-1.38,4.65,4.65,0,0,1,0-4,3.49,3.49,0,0,1,1.28-1.4A3.63,3.63,0,0,1,1363.28,431.39Zm-2.32,3.94a3.54,3.54,0,0,0,.29,1.46,2.36,2.36,0,0,0,.81,1,2.06,2.06,0,0,0,1.21.36,2.12,2.12,0,0,0,1.19-.35,2.39,2.39,0,0,0,.84-1,3.58,3.58,0,0,0,.31-1.54,3.51,3.51,0,0,0-.29-1.45,2.35,2.35,0,0,0-.81-1,2.06,2.06,0,0,0-1.2-.36,2.08,2.08,0,0,0-1.19.36,2.44,2.44,0,0,0-.85,1A3.5,3.5,0,0,0,1361,435.33Z"/><path class="cls-6" d="M1368.42,438.6l.28-1a5.57,5.57,0,0,0,.89.34,3.41,3.41,0,0,0,1,.15,2.06,2.06,0,0,0,1.11-.25.78.78,0,0,0,.39-.7.77.77,0,0,0-.21-.52,2.11,2.11,0,0,0-.53-.42q-.32-.19-.94-.5a6.23,6.23,0,0,1-1.56-1,1.77,1.77,0,0,1-.52-1.3,1.75,1.75,0,0,1,.3-1,2,2,0,0,1,.87-.7,3.2,3.2,0,0,1,1.34-.26,3.88,3.88,0,0,1,1.05.15,5.52,5.52,0,0,1,1,.38l-.42,1a5.91,5.91,0,0,0-.78-.31,2.75,2.75,0,0,0-.81-.11,1.79,1.79,0,0,0-.94.22.71.71,0,0,0-.36.65.84.84,0,0,0,.19.54,1.82,1.82,0,0,0,.51.42q.31.18,1,.52a10.72,10.72,0,0,1,1.13.65,2.54,2.54,0,0,1,.69.7,1.72,1.72,0,0,1,.27,1,1.81,1.81,0,0,1-.32,1.06,2.07,2.07,0,0,1-.94.72,3.88,3.88,0,0,1-1.49.26,4.52,4.52,0,0,1-1.17-.19A3.24,3.24,0,0,1,1368.42,438.6Z"/><path class="cls-6" d="M1375.13,439v-7.48h1.23V439Z"/><path class="cls-6" d="M1381.93,431.57l2.88,7.4-1.22.18-.74-2h-2.94l-.71,1.88H1378l2.86-7.48Zm-.57,1.68-1.09,2.92h2.21Z"/><path class="cls-6" d="M1391.18,439h-4.74v-7.48h1.23v6.51H1391Z"/><path class="cls-6" d="M1399,436.72l-1.92-2.61V439h-1.23v-7.48h.77l2.57,3.58,2.41-3.58h.76V439h-1.25v-4.76l-1.63,2.37Z"/><path class="cls-6" d="M1407.94,431.57l2.88,7.4-1.22.18-.74-2h-2.94l-.71,1.88H1404l2.86-7.48Zm-.57,1.68-1.09,2.92h2.21Z"/><path class="cls-6" d="M1412,438.6l.28-1a5.57,5.57,0,0,0,.89.34,3.41,3.41,0,0,0,1,.15,2.06,2.06,0,0,0,1.11-.25.78.78,0,0,0,.39-.7.77.77,0,0,0-.21-.52,2.11,2.11,0,0,0-.53-.42q-.32-.19-.94-.5a6.23,6.23,0,0,1-1.56-1,1.77,1.77,0,0,1-.52-1.3,1.75,1.75,0,0,1,.3-1,2,2,0,0,1,.87-.7,3.2,3.2,0,0,1,1.34-.26,3.88,3.88,0,0,1,1.05.15,5.52,5.52,0,0,1,1,.38l-.42,1a5.91,5.91,0,0,0-.78-.31,2.75,2.75,0,0,0-.81-.11,1.79,1.79,0,0,0-.94.22.71.71,0,0,0-.36.65.84.84,0,0,0,.19.54,1.82,1.82,0,0,0,.51.42q.31.18,1,.52a10.72,10.72,0,0,1,1.13.65,2.54,2.54,0,0,1,.69.7,1.72,1.72,0,0,1,.27,1,1.81,1.81,0,0,1-.32,1.06,2.07,2.07,0,0,1-.94.72,3.88,3.88,0,0,1-1.49.26A4.52,4.52,0,0,1,1413,439,3.24,3.24,0,0,1,1412,438.6Z"/><path class="cls-6" d="M1420.35,439V436.1l-2.46-4.31,1.21-.4,1.86,3.46,1.92-3.29h1.31l-2.6,4.55V439Z"/><path class="cls-6" d="M1428.91,431.57l2.88,7.4-1.22.18-.74-2h-2.94l-.71,1.88H1425l2.86-7.48Zm-.57,1.68-1.09,2.92h2.21Z"/><path class="cls-6" d="M1433.42,431.57h2.23a3.55,3.55,0,0,1,2.09.57,1.93,1.93,0,0,1,.8,1.69,2.05,2.05,0,0,1-.35,1.2,2.25,2.25,0,0,1-.94.77l1.86,3.26h-1.33l-1.63-2.95a4.23,4.23,0,0,1-.61,0h-.9V439h-1.23Zm2.21,1h-1v2.52h1a2.12,2.12,0,0,0,1.19-.3,1.05,1.05,0,0,0,.45-.95,1.12,1.12,0,0,0-.42-1A2.05,2.05,0,0,0,1435.63,432.6Z"/><path class="cls-6" d="M1443.84,431.57l2.88,7.4-1.22.18-.74-2h-2.94l-.71,1.88h-1.22l2.86-7.48Zm-.57,1.68-1.09,2.92h2.21Z"/><path class="cls-6" d="M1452.8,439l-2.45-3.29-.77.83V439h-1.23v-7.48h1.23v3.3l3.33-3.46.89.71-2.61,2.76,3.12,4.17Z"/><path class="cls-6" d="M1459,431.57l2.88,7.4-1.22.18-.74-2H1457l-.71,1.88h-1.22l2.86-7.48Zm-.57,1.68-1.09,2.92h2.21Z"/><path class="cls-6" d="M1468.86,432.55h-2.56V439H1465v-6.5h-2.35v-1h6Z"/><circle class="cls-5" cx="1410.97" cy="394.81" r="5"/><rect class="cls-3" x="625.68" y="573.95" width="160" height="50" rx="4" ry="4"/><path class="cls-4" d="M659.89,603.06h-3.37v-9.52h3.43a3.88,3.88,0,0,1,3.18,1.29,5.2,5.2,0,0,1,1.06,3.41,6,6,0,0,1-.5,2.49,3.86,3.86,0,0,1-1.47,1.71A4.26,4.26,0,0,1,659.89,603.06Zm.11-8.37h-2.14v7.25h2a2.64,2.64,0,0,0,2.14-1,4.14,4.14,0,0,0,.8-2.72,4.32,4.32,0,0,0-.71-2.61A2.47,2.47,0,0,0,660,594.69Z"/><path class="cls-4" d="M666.71,603.06v-9.52h1.34v9.52Z"/><path class="cls-4" d="M674.45,601.25l2.86-7.71h1.32L675,603.06h-1.22l-3.67-9.44,1.33-.2Z"/><path class="cls-4" d="M680.74,603.06a.82.82,0,0,1-.61-.25.84.84,0,0,1,0-1.19.83.83,0,0,1,.61-.25.79.79,0,0,1,.59.25.86.86,0,0,1,0,1.19A.79.79,0,0,1,680.74,603.06Z"/><path class="cls-4" d="M687.86,603.06v-9.52h1.34v9.52Z"/><path class="cls-4" d="M692.43,603.06v-9.52h1.19l4.94,7v-7h1.36v9.52h-1.2l-4.94-7.1v7.1Z"/><path class="cls-4" d="M709.74,594.6h-3.28v8.46h-1.36V594.6H702v-1.06h7.55Z"/><path class="cls-4" d="M711.84,603.06v-9.52h5.36l.18,1h-4.2v3.12h3.23l.18,1h-3.42V602h4.52l.18,1Z"/><path class="cls-4" d="M720.13,593.54h2.73a4.43,4.43,0,0,1,2.6.7,2.43,2.43,0,0,1,1,2.13,2.67,2.67,0,0,1-.46,1.53,2.75,2.75,0,0,1-1.2,1l2.39,4.2h-1.46l-2.13-3.85a6,6,0,0,1-.88,0h-1.25v3.81h-1.34Zm2.72,1.13h-1.37v3.49h1.3a2.93,2.93,0,0,0,1.64-.41,1.5,1.5,0,0,0,.64-1.32,1.54,1.54,0,0,0-.57-1.35A2.84,2.84,0,0,0,722.85,594.67Z"/><path class="cls-4" d="M729.29,603.06v-9.52h1.19l4.94,7v-7h1.36v9.52h-1.2l-4.94-7.1v7.1Z"/><path class="cls-4" d="M743.68,593.54l3.67,9.44-1.33.2-1-2.66h-3.88l-1,2.55h-1.32l3.58-9.52Zm-.63,1.81-1.53,4.09h3.09Z"/><path class="cls-4" d="M755.26,603.06h-5.81v-9.52h1.34V602h4.3Z"/><circle class="cls-5" cx="705.92" cy="573.99" r="5"/><rect class="cls-3" x="805.79" y="573.95" width="160" height="50" rx="4" ry="4"/><path class="cls-4" d="M834.8,603.06h-3.37v-9.52h3.43a3.88,3.88,0,0,1,3.18,1.29,5.2,5.2,0,0,1,1.06,3.41,6,6,0,0,1-.5,2.49,3.86,3.86,0,0,1-1.47,1.71A4.26,4.26,0,0,1,834.8,603.06Zm.11-8.37h-2.14v7.25h2a2.64,2.64,0,0,0,2.14-1,4.14,4.14,0,0,0,.8-2.72,4.32,4.32,0,0,0-.71-2.61A2.47,2.47,0,0,0,834.91,594.69Z"/><path class="cls-4" d="M841.61,603.06v-9.52H843v9.52Z"/><path class="cls-4" d="M849.35,601.25l2.86-7.71h1.32l-3.58,9.52h-1.22l-3.67-9.44,1.33-.2Z"/><path class="cls-4" d="M855.64,603.06a.82.82,0,0,1-.61-.25.84.84,0,0,1,0-1.19.83.83,0,0,1,.61-.25.79.79,0,0,1,.59.25.86.86,0,0,1,0,1.19A.79.79,0,0,1,855.64,603.06Z"/><path class="cls-4" d="M862.77,603.06v-9.52h5.36l.18,1h-4.2v3.12h3.23l.18,1h-3.42V602h4.52l.18,1Z"/><path class="cls-4" d="M876.77,603.06l-3.35-4.38-1,1.09v3.29h-1.34v-9.52h1.34V598l4.34-4.62,1,.78-3.37,3.6,4.09,5.35Z"/><path class="cls-4" d="M880,602.54l.31-1.06a5.45,5.45,0,0,0,1.11.42,4.65,4.65,0,0,0,1.25.18,2.73,2.73,0,0,0,1.54-.37,1.15,1.15,0,0,0,.55-1,1.24,1.24,0,0,0-.27-.79,2.66,2.66,0,0,0-.78-.63q-.5-.29-1.4-.68a8.35,8.35,0,0,1-1.41-.76,2.53,2.53,0,0,1-.79-.87,2.5,2.5,0,0,1-.27-1.2,2.2,2.2,0,0,1,.38-1.26,2.54,2.54,0,0,1,1.08-.88,4,4,0,0,1,1.66-.32,5,5,0,0,1,1.32.18,6.48,6.48,0,0,1,1.2.45L885,595a6.38,6.38,0,0,0-.93-.37,3.62,3.62,0,0,0-1-.13,2.55,2.55,0,0,0-1.36.32,1,1,0,0,0-.52.92,1.28,1.28,0,0,0,.27.8,2.53,2.53,0,0,0,.76.62q.49.28,1.44.71a6.08,6.08,0,0,1,1.87,1.19,2.2,2.2,0,0,1,.59,1.6,2.27,2.27,0,0,1-.41,1.34,2.62,2.62,0,0,1-1.18.9,4.77,4.77,0,0,1-1.85.32,6.34,6.34,0,0,1-1.5-.22A3,3,0,0,1,880,602.54Z"/><path class="cls-4" d="M895.06,594.6h-3.28v8.46h-1.36V594.6h-3.09v-1.06h7.55Z"/><path class="cls-4" d="M897.16,603.06v-9.52h5.36l.18,1h-4.2v3.12h3.23l.18,1h-3.42V602H903l.18,1Z"/><path class="cls-4" d="M905.45,593.54h2.73a4.43,4.43,0,0,1,2.6.7,2.43,2.43,0,0,1,1,2.13,2.67,2.67,0,0,1-.46,1.53,2.75,2.75,0,0,1-1.2,1l2.39,4.2h-1.46l-2.13-3.85a6,6,0,0,1-.88,0H906.8v3.81h-1.34Zm2.72,1.13H906.8v3.49h1.3a2.93,2.93,0,0,0,1.64-.41,1.5,1.5,0,0,0,.64-1.32,1.54,1.54,0,0,0-.57-1.35A2.84,2.84,0,0,0,908.17,594.67Z"/><path class="cls-4" d="M914.61,603.06v-9.52h1.19l4.94,7v-7h1.36v9.52h-1.2L916,596v7.1Z"/><path class="cls-4" d="M929,593.54l3.67,9.44-1.33.2-1-2.66h-3.88l-1,2.55H924.2l3.58-9.52Zm-.63,1.81-1.53,4.09h3.09Z"/><path class="cls-4" d="M940.58,603.06h-5.81v-9.52h1.34V602h4.3Z"/><circle class="cls-5" cx="886.04" cy="573.99" r="5"/><rect class="cls-3" x="985.9" y="573.95" width="160" height="50" rx="4" ry="4"/><path class="cls-4" d="M1011.44,603.06h-3.37v-9.52h3.43a3.87,3.87,0,0,1,3.18,1.29,5.2,5.2,0,0,1,1.06,3.41,6,6,0,0,1-.5,2.49,3.86,3.86,0,0,1-1.47,1.71A4.26,4.26,0,0,1,1011.44,603.06Zm.11-8.37h-2.14v7.25h2a2.64,2.64,0,0,0,2.14-1,4.14,4.14,0,0,0,.8-2.72,4.31,4.31,0,0,0-.71-2.61A2.47,2.47,0,0,0,1011.55,594.69Z"/><path class="cls-4" d="M1018.25,603.06v-9.52h1.34v9.52Z"/><path class="cls-4" d="M1026,601.25l2.86-7.71h1.32l-3.58,9.52h-1.22l-3.67-9.44,1.33-.2Z"/><path class="cls-4" d="M1032.28,603.06a.82.82,0,0,1-.61-.25.84.84,0,0,1,0-1.19.83.83,0,0,1,.61-.25.79.79,0,0,1,.59.25.86.86,0,0,1,0,1.19A.78.78,0,0,1,1032.28,603.06Z"/><path class="cls-4" d="M1043.38,600l-2.63-3.68v6.73h-1.34v-9.52h.83l3.35,4.7,3.18-4.7h.84v9.52h-1.36v-6.61l-2.37,3.49Z"/><path class="cls-4" d="M1052,593.54v6a2.64,2.64,0,0,0,.65,1.88,2.24,2.24,0,0,0,1.71.69,2.2,2.2,0,0,0,1.72-.7,2.7,2.7,0,0,0,.63-1.88v-6h1.36v6.12a3.65,3.65,0,0,1-.46,1.83,3.26,3.26,0,0,1-1.29,1.27,4,4,0,0,1-2,.46,4.06,4.06,0,0,1-2-.46,3.18,3.18,0,0,1-1.29-1.27,3.69,3.69,0,0,1-.46-1.83v-6.12Z"/><path class="cls-4" d="M1067,603.06h-5.81v-9.52h1.34V602h4.3Z"/><path class="cls-4" d="M1075.7,594.6h-3.28v8.46h-1.36V594.6H1068v-1.06h7.55Z"/><path class="cls-4" d="M1077.8,603.06v-9.52h1.34v9.52Z"/><path class="cls-4" d="M1086.34,600l-2.63-3.68v6.73h-1.34v-9.52h.83l3.35,4.7,3.18-4.7h.84v9.52h-1.36v-6.61l-2.37,3.49Z"/><path class="cls-4" d="M1093.77,603.06v-9.52h5.36l.18,1h-4.2v3.12h3.23l.18,1h-3.42V602h4.52l.18,1Z"/><path class="cls-4" d="M1105.43,603.06h-3.37v-9.52h3.43a3.87,3.87,0,0,1,3.18,1.29,5.2,5.2,0,0,1,1.06,3.41,5.94,5.94,0,0,1-.5,2.49,3.86,3.86,0,0,1-1.47,1.71A4.26,4.26,0,0,1,1105.43,603.06Zm.11-8.37h-2.14v7.25h2a2.64,2.64,0,0,0,2.14-1,4.15,4.15,0,0,0,.8-2.72,4.32,4.32,0,0,0-.71-2.61A2.47,2.47,0,0,0,1105.54,594.69Z"/><path class="cls-4" d="M1112.25,603.06v-9.52h1.34v9.52Z"/><path class="cls-4" d="M1120.5,593.54l3.67,9.44-1.33.2-1-2.66H1118l-1,2.55h-1.32l3.58-9.52Zm-.63,1.81-1.53,4.09h3.09Z"/><circle class="cls-5" cx="1066.15" cy="573.99" r="5"/><rect class="cls-3" x="162.45" y="573.95" width="196.57" height="63.62" rx="4" ry="4"/><path class="cls-4" d="M234.62,597.06h-3.37v-9.52h3.43a3.87,3.87,0,0,1,3.18,1.29,5.2,5.2,0,0,1,1.06,3.41,6,6,0,0,1-.5,2.49,3.86,3.86,0,0,1-1.47,1.71A4.26,4.26,0,0,1,234.62,597.06Zm.11-8.37h-2.14v7.25h2a2.64,2.64,0,0,0,2.14-1,4.14,4.14,0,0,0,.8-2.72,4.31,4.31,0,0,0-.71-2.61A2.47,2.47,0,0,0,234.74,588.68Z"/><path class="cls-4" d="M241.44,597.06v-9.52h1.34v9.52Z"/><path class="cls-4" d="M249.18,595.25l2.86-7.71h1.32l-3.58,9.52h-1.22l-3.67-9.44,1.33-.2Z"/><path class="cls-4" d="M255.47,597.06a.82.82,0,0,1-.61-.25.84.84,0,0,1,0-1.19.83.83,0,0,1,.61-.25.79.79,0,0,1,.59.25.86.86,0,0,1,0,1.19A.78.78,0,0,1,255.47,597.06Z"/><path class="cls-4" d="M263.94,597.06H262.6v-9.52h2.73a4.3,4.3,0,0,1,2.61.73,2.6,2.6,0,0,1,1,2.24,2.81,2.81,0,0,1-.5,1.71,3,3,0,0,1-1.35,1,5.15,5.15,0,0,1-1.88.33h-1.25Zm1.37-8.39h-1.37v3.77h1.3a2.63,2.63,0,0,0,1.63-.46,1.77,1.77,0,0,0,.65-1.41,1.73,1.73,0,0,0-.56-1.46A2.7,2.7,0,0,0,265.31,588.67Z"/><path class="cls-4" d="M273.11,589a3.55,3.55,0,0,1,2.16.59,2,2,0,0,1,.79,1.67,3.06,3.06,0,0,1-.45,1.59,7.59,7.59,0,0,1-1.64,1.74L272.2,596h4l.25,1h-6.1v-.88l3-2.59a7.77,7.77,0,0,0,1.12-1.18,1.73,1.73,0,0,0,.36-1,1.16,1.16,0,0,0-.46-1,2.17,2.17,0,0,0-1.28-.33,3,3,0,0,0-1.13.19,10,10,0,0,0-1.06.53l-.32-1.08a6.27,6.27,0,0,1,1.13-.52A4.28,4.28,0,0,1,273.11,589Z"/><path class="cls-4" d="M278.74,597.06v-9.52h1.34v9.52Z"/><path class="cls-4" d="M289,597.06l-3.35-4.38-1,1.09v3.29H283.3v-9.52h1.34v4.41l4.34-4.62,1,.78-3.37,3.6,4.09,5.35Z"/><path class="cls-6" d="M174.74,610.26h-1.23v-7.48h2.23a3.49,3.49,0,0,1,2.1.58,2.06,2.06,0,0,1,.8,1.79,2.19,2.19,0,0,1-.41,1.35,2.43,2.43,0,0,1-1.09.81,4,4,0,0,1-1.49.26h-.9Zm1-6.45h-1v2.74h1a1.89,1.89,0,0,0,1.17-.33,1.46,1.46,0,0,0,.05-2.09A1.94,1.94,0,0,0,175.72,603.81Z"/><path class="cls-6" d="M180.46,610.26v-7.48h4.33l.18,1h-3.28V606h2.49l.19,1h-2.67v2.34h3.56l.19,1Z"/><path class="cls-6" d="M187.18,610.26v-7.48h1.17L192,608v-5.27h1.24v7.48h-1.18l-3.67-5.3v5.3Z"/><path class="cls-6" d="M198.49,610.26h-2.74v-7.48h2.76a3.13,3.13,0,0,1,2.53,1,4,4,0,0,1,.86,2.68,4.68,4.68,0,0,1-.4,2,3,3,0,0,1-1.17,1.33A3.46,3.46,0,0,1,198.49,610.26Zm.07-6.42H197v5.39h1.5a2,2,0,0,0,1.58-.69,3.12,3.12,0,0,0,.58-2.05,3.23,3.23,0,0,0-.52-2A1.82,1.82,0,0,0,198.56,603.83Z"/><path class="cls-6" d="M203.82,610.26v-7.48h1.23v7.48Z"/><path class="cls-6" d="M210.27,610.26h-2.74v-7.48h2.76a3.13,3.13,0,0,1,2.53,1,4,4,0,0,1,.86,2.68,4.68,4.68,0,0,1-.4,2,3,3,0,0,1-1.17,1.33A3.46,3.46,0,0,1,210.27,610.26Zm.07-6.42h-1.57v5.39h1.5a2,2,0,0,0,1.58-.69,3.12,3.12,0,0,0,.58-2.05,3.23,3.23,0,0,0-.52-2A1.82,1.82,0,0,0,210.34,603.83Z"/><path class="cls-6" d="M215.6,610.26v-7.48h1.23v7.48Z"/><path class="cls-6" d="M223.77,610.26,221.31,607l-.77.83v2.46h-1.23v-7.48h1.23v3.3l3.33-3.46.89.71-2.61,2.76,3.12,4.17Z"/><path class="cls-6" d="M230,602.78l2.88,7.4-1.22.18-.74-2H228l-.71,1.88h-1.22l2.86-7.48Zm-.57,1.68-1.09,2.92h2.21Z"/><path class="cls-6" d="M234.51,610.26v-7.48h1.17l3.67,5.27v-5.27h1.24v7.48h-1.18l-3.67-5.3v5.3Z"/><path class="cls-6" d="M250.55,603.13l-.42,1a6.67,6.67,0,0,0-.76-.33,2.4,2.4,0,0,0-.75-.1,1,1,0,0,0-.71.27.9.9,0,0,0-.26.66,1.24,1.24,0,0,0,.22.7,4.34,4.34,0,0,0,.75.79l1.9,1.75a4.82,4.82,0,0,0,.36-1.7l1.09.44a5.39,5.39,0,0,1-.52,2.11l.88.78-.71.9-.86-.78a3.22,3.22,0,0,1-2.28.79,3.75,3.75,0,0,1-1.47-.3,2.35,2.35,0,0,1-1-.85,2.38,2.38,0,0,1-.38-1.36,2.54,2.54,0,0,1,.3-1.19,3,3,0,0,1,.8-1,1.81,1.81,0,0,1-.32-1.06,2,2,0,0,1,.27-1,2,2,0,0,1,.78-.75,2.38,2.38,0,0,1,1.18-.28A4.21,4.21,0,0,1,250.55,603.13Zm-.68,5.67-2.06-1.88a3.92,3.92,0,0,1-.35-.35,1.77,1.77,0,0,0-.42.58,1.83,1.83,0,0,0-.17.72,1.27,1.27,0,0,0,.46,1.07,1.78,1.78,0,0,0,1.13.36A2,2,0,0,0,249.87,608.79Z"/><path class="cls-6" d="M258.44,610.26h-1.23v-7.48h2.23a3.49,3.49,0,0,1,2.1.58,2.06,2.06,0,0,1,.8,1.79,2.19,2.19,0,0,1-.41,1.35,2.43,2.43,0,0,1-1.09.81,4,4,0,0,1-1.49.26h-.9Zm1-6.45h-1v2.74h1a1.89,1.89,0,0,0,1.17-.33,1.46,1.46,0,0,0,.05-2.09A1.94,1.94,0,0,0,259.42,603.81Z"/><path class="cls-6" d="M264.16,610.26v-7.48h4.33l.18,1h-3.28V606h2.49l.19,1h-2.67v2.34H269l.19,1Z"/><path class="cls-6" d="M270.88,610.26v-7.48H272l3.67,5.27v-5.27H277v7.48h-1.18l-3.67-5.3v5.3Z"/><path class="cls-6" d="M282.15,607.2l.1-.95h2.62v3.62a3.88,3.88,0,0,1-1,.39,5.09,5.09,0,0,1-1.23.15,3.79,3.79,0,0,1-2-.51,3.39,3.39,0,0,1-1.3-1.39,4.23,4.23,0,0,1-.45-2,4.12,4.12,0,0,1,.5-2,3.55,3.55,0,0,1,1.39-1.4,4,4,0,0,1,2-.5,5,5,0,0,1,1,.12,3.66,3.66,0,0,1,1,.34l-.38.89q-.59-.19-.86-.25a3.44,3.44,0,0,0-.72-.06,2.65,2.65,0,0,0-1.31.33,2.39,2.39,0,0,0-.95,1,3.27,3.27,0,0,0-.35,1.57,3.38,3.38,0,0,0,.31,1.49,2.34,2.34,0,0,0,.85,1,2.27,2.27,0,0,0,1.25.35,4.42,4.42,0,0,0,1.15-.15v-2Z"/><path class="cls-6" d="M286.92,610.26v-7.48h4.33l.18,1h-3.28V606h2.49l.19,1h-2.67v2.34h3.56l.19,1Z"/><path class="cls-6" d="M296.8,607.92l-1.92-2.61v4.94h-1.23v-7.48h.77l2.57,3.58,2.41-3.58h.76v7.48H298.9v-4.76l-1.63,2.37Z"/><path class="cls-6" d="M305.44,610.26h-2.82v-7.48h2.62a3.06,3.06,0,0,1,1.84.49,1.82,1.82,0,0,1,.67,1.57,1.74,1.74,0,0,1-.88,1.39,2.26,2.26,0,0,1,.92.73,2.13,2.13,0,0,1-.4,2.75A3.13,3.13,0,0,1,305.44,610.26Zm-.35-6.45h-1.23v2.09h1a2.31,2.31,0,0,0,1.14-.26.85.85,0,0,0,.43-.79.89.89,0,0,0-.35-.81A1.91,1.91,0,0,0,305.09,603.81Zm.39,3.09h-1.62v2.33h1.51a1.86,1.86,0,0,0,1.08-.28,1,1,0,0,0,.4-.84,1.11,1.11,0,0,0-.37-.9A1.52,1.52,0,0,0,305.47,606.9Z"/><path class="cls-6" d="M313,602.78l2.88,7.4-1.22.18-.74-2H311l-.71,1.88h-1.22l2.86-7.48Zm-.57,1.68-1.09,2.92h2.21Z"/><path class="cls-6" d="M317.55,610.26v-7.48h1.17l3.67,5.27v-5.27h1.24v7.48h-1.18l-3.67-5.3v5.3Z"/><path class="cls-6" d="M328.83,607.2l.1-.95h2.62v3.62a3.88,3.88,0,0,1-1,.39,5.09,5.09,0,0,1-1.23.15,3.79,3.79,0,0,1-2-.51,3.39,3.39,0,0,1-1.3-1.39,4.23,4.23,0,0,1-.45-2,4.12,4.12,0,0,1,.5-2,3.55,3.55,0,0,1,1.39-1.4,4,4,0,0,1,2-.5,5,5,0,0,1,1,.12,3.66,3.66,0,0,1,1,.34L331,604q-.59-.19-.86-.25a3.44,3.44,0,0,0-.72-.06,2.65,2.65,0,0,0-1.31.33,2.39,2.39,0,0,0-.95,1,3.27,3.27,0,0,0-.35,1.57,3.38,3.38,0,0,0,.31,1.49,2.34,2.34,0,0,0,.85,1,2.27,2.27,0,0,0,1.25.35,4.42,4.42,0,0,0,1.15-.15v-2Z"/><path class="cls-6" d="M336.68,602.78l2.88,7.4-1.22.18-.74-2h-2.94l-.71,1.88h-1.22l2.86-7.48Zm-.57,1.68L335,607.37h2.21Z"/><path class="cls-6" d="M341.19,610.26v-7.48h1.17L346,608v-5.27h1.24v7.48H346.1l-3.67-5.3v5.3Z"/><path class="cls-6" d="M214.09,623.46V616h1.23v7.48Z"/><path class="cls-6" d="M217.79,623.46V616H219l3.67,5.27V616h1.24v7.48H222.7l-3.67-5.3v5.3Z"/><path class="cls-6" d="M229.42,615.8a3.57,3.57,0,0,1,1.9.51,3.4,3.4,0,0,1,1.27,1.39,4.65,4.65,0,0,1,0,4,3.48,3.48,0,0,1-1.29,1.4,3.59,3.59,0,0,1-1.88.52,3.54,3.54,0,0,1-1.89-.5,3.36,3.36,0,0,1-1.27-1.38,4.65,4.65,0,0,1,0-4,3.48,3.48,0,0,1,1.28-1.4A3.63,3.63,0,0,1,229.42,615.8Zm-2.32,3.94a3.55,3.55,0,0,0,.29,1.46,2.36,2.36,0,0,0,.81,1,2.07,2.07,0,0,0,1.2.36,2.12,2.12,0,0,0,1.19-.35,2.39,2.39,0,0,0,.84-1,3.57,3.57,0,0,0,.31-1.53,3.52,3.52,0,0,0-.29-1.45,2.37,2.37,0,0,0-.81-1,2.06,2.06,0,0,0-1.2-.36,2.08,2.08,0,0,0-1.19.36,2.44,2.44,0,0,0-.85,1A3.49,3.49,0,0,0,227.1,619.74Z"/><path class="cls-6" d="M237.57,621.77l2.16-5.8h1.22l-2.86,7.48H237l-2.89-7.4,1.23-.18Z"/><path class="cls-6" d="M245.67,616l2.88,7.4-1.22.18-.74-2h-2.94l-.71,1.88h-1.22l2.86-7.48Zm-.57,1.68L244,620.57h2.21Z"/><path class="cls-6" d="M249.76,623l.28-1a5.48,5.48,0,0,0,.89.34,3.37,3.37,0,0,0,1,.15,2.06,2.06,0,0,0,1.11-.25.79.79,0,0,0,.39-.7.77.77,0,0,0-.21-.52,2.11,2.11,0,0,0-.53-.42q-.32-.19-.94-.5a6.22,6.22,0,0,1-1.56-1.05,1.77,1.77,0,0,1-.52-1.3,1.74,1.74,0,0,1,.3-1,2,2,0,0,1,.87-.7,3.19,3.19,0,0,1,1.34-.26,3.92,3.92,0,0,1,1.05.15,5.51,5.51,0,0,1,1,.38l-.42,1A5.86,5.86,0,0,0,253,617a2.75,2.75,0,0,0-.81-.11,1.78,1.78,0,0,0-.94.22.71.71,0,0,0-.36.65.84.84,0,0,0,.19.54,1.83,1.83,0,0,0,.51.42q.31.18,1,.52a10.51,10.51,0,0,1,1.13.65,2.53,2.53,0,0,1,.69.7,1.72,1.72,0,0,1,.27,1,1.82,1.82,0,0,1-.32,1.06,2.07,2.07,0,0,1-.94.72,3.86,3.86,0,0,1-1.49.26,4.52,4.52,0,0,1-1.17-.19A3.21,3.21,0,0,1,249.76,623Z"/><path class="cls-6" d="M256.47,623.46V616h1.23v7.48Z"/><path class="cls-6" d="M267.69,623.46l-2.45-3.29-.77.83v2.46h-1.23V616h1.23v3.3l3.33-3.46.89.71-2.61,2.76,3.12,4.17Z"/><path class="cls-6" d="M270.84,616h2.23a3.55,3.55,0,0,1,2.09.57,1.93,1.93,0,0,1,.8,1.69,2,2,0,0,1-.35,1.2,2.24,2.24,0,0,1-.94.77l1.86,3.26H275.2l-1.63-2.95a4.22,4.22,0,0,1-.61,0h-.9v2.92h-1.23Zm2.21,1h-1v2.52h1a2.13,2.13,0,0,0,1.19-.3,1,1,0,0,0,.45-.95,1.12,1.12,0,0,0-.42-1A2.06,2.06,0,0,0,273,617Z"/><path class="cls-6" d="M278.16,623.46V616h4.33l.18,1h-3.28v2.23h2.49l.19,1h-2.67v2.34H283l.19,1Z"/><path class="cls-6" d="M288,616l2.88,7.4-1.22.18-.74-2H286l-.71,1.88H284l2.86-7.48Zm-.57,1.68-1.09,2.92h2.21Z"/><path class="cls-6" d="M297.8,617h-2.56v6.5H294V617h-2.35v-1h6Z"/><path class="cls-6" d="M299.42,623.46V616h1.23v7.48Z"/><path class="cls-6" d="M306.91,620.19h-2.55v3.27h-1.23V616h4.13l.19,1h-3.08v2.3h2.39Z"/><circle class="cls-5" cx="260.64" cy="573.99" r="5"/><rect class="cls-3" x="381.59" y="573.95" width="196.57" height="63.62" rx="4" ry="4"/><path class="cls-4" d="M446,603.06h-3.37v-9.52H446a3.87,3.87,0,0,1,3.18,1.29,5.2,5.2,0,0,1,1.06,3.41,6,6,0,0,1-.5,2.49,3.86,3.86,0,0,1-1.47,1.71A4.26,4.26,0,0,1,446,603.06Zm.11-8.37h-2.14v7.25h2a2.64,2.64,0,0,0,2.14-1,4.14,4.14,0,0,0,.8-2.72,4.31,4.31,0,0,0-.71-2.61A2.47,2.47,0,0,0,446.08,594.69Z"/><path class="cls-4" d="M452.78,603.06v-9.52h1.34v9.52Z"/><path class="cls-4" d="M460.52,601.25l2.86-7.71h1.32l-3.58,9.52h-1.22l-3.67-9.44,1.33-.2Z"/><path class="cls-4" d="M466.81,603.06a.82.82,0,0,1-.61-.25.84.84,0,0,1,0-1.19.83.83,0,0,1,.61-.25.79.79,0,0,1,.59.25.86.86,0,0,1,0,1.19A.78.78,0,0,1,466.81,603.06Z"/><path class="cls-4" d="M477.79,593.32a4.35,4.35,0,0,1,4,2.39,5.82,5.82,0,0,1,0,5.08,4.55,4.55,0,0,1-1.63,1.79,4.42,4.42,0,0,1-2.36.67,4.31,4.31,0,0,1-3.93-2.38,5.82,5.82,0,0,1,0-5.08,4.57,4.57,0,0,1,1.62-1.79A4.46,4.46,0,0,1,477.79,593.32Zm-3.15,5a4.6,4.6,0,0,0,.4,1.95,3.22,3.22,0,0,0,1.11,1.35,2.75,2.75,0,0,0,1.59.48,2.8,2.8,0,0,0,1.63-.5,3.31,3.31,0,0,0,1.13-1.38,4.7,4.7,0,0,0,.41-2,4.56,4.56,0,0,0-.4-1.94,3.25,3.25,0,0,0-1.1-1.34,2.72,2.72,0,0,0-1.58-.48,2.84,2.84,0,0,0-1.64.5,3.3,3.3,0,0,0-1.13,1.37A4.65,4.65,0,0,0,474.64,598.33Z"/><path class="cls-4" d="M484.84,593.54h2.73a4.43,4.43,0,0,1,2.6.7,2.43,2.43,0,0,1,1,2.13,2.67,2.67,0,0,1-.46,1.53,2.75,2.75,0,0,1-1.2,1l2.39,4.2h-1.46l-2.13-3.85a6,6,0,0,1-.88,0h-1.25v3.81h-1.34Zm2.72,1.13h-1.37v3.49h1.3a2.93,2.93,0,0,0,1.65-.41,1.5,1.5,0,0,0,.64-1.32,1.53,1.53,0,0,0-.57-1.35A2.84,2.84,0,0,0,487.56,594.67Z"/><path class="cls-4" d="M499.71,603.06l-3.35-4.38-1,1.09v3.29H494v-9.52h1.34V598l4.34-4.62,1,.78-3.37,3.6,4.09,5.35Z"/><path class="cls-4" d="M503.45,603.06v-9.52h5.36l.18,1h-4.2v3.12H508l.18,1h-3.42V602h4.52l.18,1Z"/><path class="cls-4" d="M511.2,602.54l.31-1.06a5.46,5.46,0,0,0,1.11.42,4.66,4.66,0,0,0,1.25.18,2.72,2.72,0,0,0,1.54-.37,1.15,1.15,0,0,0,.55-1,1.24,1.24,0,0,0-.27-.79,2.67,2.67,0,0,0-.78-.63q-.5-.29-1.4-.68a8.31,8.31,0,0,1-1.41-.76,2.34,2.34,0,0,1-1.06-2.06,2.2,2.2,0,0,1,.38-1.26,2.54,2.54,0,0,1,1.08-.88,4,4,0,0,1,1.66-.32,5,5,0,0,1,1.32.18,6.48,6.48,0,0,1,1.2.45l-.45,1.06a6.42,6.42,0,0,0-.93-.37,3.62,3.62,0,0,0-1-.13,2.54,2.54,0,0,0-1.36.32,1,1,0,0,0-.52.92,1.27,1.27,0,0,0,.27.8,2.53,2.53,0,0,0,.76.62q.49.28,1.44.71a6.11,6.11,0,0,1,1.87,1.19,2.2,2.2,0,0,1,.59,1.6,2.28,2.28,0,0,1-.41,1.34,2.62,2.62,0,0,1-1.18.9,4.78,4.78,0,0,1-1.85.32,6.33,6.33,0,0,1-1.5-.22A3,3,0,0,1,511.2,602.54Z"/><path class="cls-6" d="M418.54,608.6a3.56,3.56,0,0,1,1.9.51,3.39,3.39,0,0,1,1.27,1.39,4.64,4.64,0,0,1,0,4,3.49,3.49,0,0,1-1.29,1.4,3.61,3.61,0,0,1-1.88.52,3.54,3.54,0,0,1-1.89-.5,3.36,3.36,0,0,1-1.27-1.38,4.65,4.65,0,0,1,0-4,3.48,3.48,0,0,1,1.28-1.4A3.63,3.63,0,0,1,418.54,608.6Zm-2.32,3.94a3.54,3.54,0,0,0,.29,1.46,2.35,2.35,0,0,0,.81,1,2.06,2.06,0,0,0,1.2.36,2.11,2.11,0,0,0,1.19-.35,2.38,2.38,0,0,0,.84-1,3.58,3.58,0,0,0,.31-1.54,3.51,3.51,0,0,0-.29-1.45,2.36,2.36,0,0,0-.81-1,2.06,2.06,0,0,0-1.2-.36,2.08,2.08,0,0,0-1.19.36,2.44,2.44,0,0,0-.85,1A3.49,3.49,0,0,0,416.22,612.54Z"/><path class="cls-6" d="M428.84,616.26H424.1v-7.48h1.23v6.51h3.33Z"/><path class="cls-6" d="M433.56,608.78l2.88,7.4-1.22.18-.74-2h-2.94l-.71,1.88h-1.22l2.86-7.48Zm-.57,1.68-1.09,2.92h2.21Z"/><path class="cls-6" d="M442.44,616.26V613H439.3v3.26h-1.23v-7.48l1.23-.06V612h3.13v-3.23h1.23v7.48Z"/><path class="cls-6" d="M446.15,608.78h2.23a3.55,3.55,0,0,1,2.09.57,1.93,1.93,0,0,1,.8,1.69,2.05,2.05,0,0,1-.35,1.2,2.24,2.24,0,0,1-.94.77l1.86,3.26h-1.33l-1.63-2.95a4.23,4.23,0,0,1-.6,0h-.9v2.92h-1.23Zm2.21,1h-1v2.52h1a2.13,2.13,0,0,0,1.19-.3,1.05,1.05,0,0,0,.45-.95,1.12,1.12,0,0,0-.42-1A2.05,2.05,0,0,0,448.37,609.81Z"/><path class="cls-6" d="M456.57,608.78l2.88,7.4-1.22.18-.74-2h-2.94l-.71,1.88h-1.22l2.86-7.48Zm-.57,1.68-1.09,2.92h2.21Z"/><path class="cls-6" d="M463.79,613.2l.1-.95h2.62v3.62a3.9,3.9,0,0,1-1,.39,5.1,5.1,0,0,1-1.23.15,3.79,3.79,0,0,1-2-.51,3.38,3.38,0,0,1-1.3-1.39,4.23,4.23,0,0,1-.45-2,4.12,4.12,0,0,1,.5-2,3.56,3.56,0,0,1,1.39-1.4,4,4,0,0,1,2-.5,5.06,5.06,0,0,1,1,.12,3.65,3.65,0,0,1,1,.34L466,610q-.59-.19-.86-.25a3.45,3.45,0,0,0-.72-.06,2.65,2.65,0,0,0-1.31.33,2.38,2.38,0,0,0-.95,1,3.26,3.26,0,0,0-.35,1.57,3.38,3.38,0,0,0,.31,1.49,2.33,2.33,0,0,0,.85,1,2.27,2.27,0,0,0,1.25.35,4.43,4.43,0,0,0,1.16-.15v-2Z"/><path class="cls-6" d="M471.64,608.78l2.88,7.4-1.22.18-.74-2h-2.94l-.71,1.88h-1.22l2.86-7.48Zm-.57,1.68L470,613.38h2.21Z"/><path class="cls-6" d="M483.62,609.13l-.42,1a6.67,6.67,0,0,0-.76-.33,2.4,2.4,0,0,0-.75-.1,1,1,0,0,0-.71.27.9.9,0,0,0-.26.66,1.24,1.24,0,0,0,.22.7,4.34,4.34,0,0,0,.75.79l1.9,1.75a4.82,4.82,0,0,0,.36-1.7l1.09.44a5.39,5.39,0,0,1-.52,2.11l.88.78-.71.9-.86-.78a3.22,3.22,0,0,1-2.28.79,3.75,3.75,0,0,1-1.47-.3,2.35,2.35,0,0,1-1-.85,2.38,2.38,0,0,1-.38-1.36,2.54,2.54,0,0,1,.3-1.19,3,3,0,0,1,.8-1,1.81,1.81,0,0,1-.32-1.06,2,2,0,0,1,.27-1,2,2,0,0,1,.78-.75,2.38,2.38,0,0,1,1.18-.28A4.21,4.21,0,0,1,483.62,609.13Zm-.68,5.67-2.06-1.88a3.92,3.92,0,0,1-.35-.35,1.77,1.77,0,0,0-.42.58,1.83,1.83,0,0,0-.17.72,1.27,1.27,0,0,0,.46,1.07,1.78,1.78,0,0,0,1.13.36A2,2,0,0,0,482.94,614.8Z"/><path class="cls-6" d="M494.73,616.26,492.28,613l-.77.83v2.46h-1.23v-7.48h1.23v3.3l3.33-3.46.89.71-2.61,2.76,3.12,4.17Z"/><path class="cls-6" d="M497.88,616.26v-7.48h4.33l.18,1h-3.28V612h2.49l.19,1h-2.67v2.34h3.56l.19,1Z"/><path class="cls-6" d="M504.18,615.81l.28-1a5.57,5.57,0,0,0,.89.34,3.4,3.4,0,0,0,1,.15,2.06,2.06,0,0,0,1.11-.25.78.78,0,0,0,.38-.7.77.77,0,0,0-.21-.52,2.1,2.1,0,0,0-.53-.42l-.94-.5a6.23,6.23,0,0,1-1.56-1,1.77,1.77,0,0,1-.52-1.3,1.75,1.75,0,0,1,.3-1,2,2,0,0,1,.87-.7,3.2,3.2,0,0,1,1.34-.26,3.88,3.88,0,0,1,1.05.15,5.48,5.48,0,0,1,1,.38l-.42,1a5.85,5.85,0,0,0-.78-.31,2.75,2.75,0,0,0-.81-.11,1.78,1.78,0,0,0-.93.22.71.71,0,0,0-.36.65.84.84,0,0,0,.19.54,1.81,1.81,0,0,0,.51.42q.31.18,1,.52a10.72,10.72,0,0,1,1.13.65,2.54,2.54,0,0,1,.69.7,1.72,1.72,0,0,1,.27,1,1.81,1.81,0,0,1-.32,1.06,2.07,2.07,0,0,1-.94.72,3.88,3.88,0,0,1-1.49.26,4.52,4.52,0,0,1-1.17-.19A3.23,3.23,0,0,1,504.18,615.81Z"/><path class="cls-6" d="M510.89,616.26v-7.48h4.33l.18,1h-3.28V612h2.49l.19,1h-2.67v2.34h3.56l.19,1Z"/><path class="cls-6" d="M517.61,616.26v-7.48h1.17l3.67,5.27v-5.27h1.24v7.48h-1.18l-3.67-5.3v5.3Z"/><path class="cls-6" d="M526.18,616.26v-7.48h1.23v7.48Z"/><path class="cls-6" d="M533,608.78l2.88,7.4-1.22.18-.74-2H531l-.71,1.88H529l2.86-7.48Zm-.57,1.68-1.09,2.92h2.21Z"/><path class="cls-6" d="M537.49,616.26v-7.48h1.17l3.67,5.27v-5.27h1.24v7.48h-1.18l-3.67-5.3v5.3Z"/><circle class="cls-5" cx="479.78" cy="573.99" r="5"/><path class="cls-7" d="M679.82,287.08h-2.65V279.6h2.69a3,3,0,0,1,2.5,1,4.08,4.08,0,0,1,.84,2.68,4.67,4.67,0,0,1-.39,2,3,3,0,0,1-1.15,1.34A3.36,3.36,0,0,1,679.82,287.08Zm.09-6.58h-1.68v5.7h1.59a2.08,2.08,0,0,0,1.68-.75,3.26,3.26,0,0,0,.63-2.14,3.39,3.39,0,0,0-.56-2.05A1.94,1.94,0,0,0,679.9,280.51Z"/><path class="cls-7" d="M685.17,287.08V279.6h4.21l.14.81h-3.3v2.45h2.54l.14.81h-2.68v2.57h3.55l.14.83Z"/><path class="cls-7" d="M692.74,287.08h-1.06V279.6h2.14a3.38,3.38,0,0,1,2.05.57,2,2,0,0,1,.78,1.76,2.21,2.21,0,0,1-.4,1.34,2.34,2.34,0,0,1-1.06.8,4.06,4.06,0,0,1-1.48.26h-1Zm1.08-6.59h-1.08v3h1a2.07,2.07,0,0,0,1.28-.36,1.39,1.39,0,0,0,.51-1.11,1.36,1.36,0,0,0-.44-1.15A2.12,2.12,0,0,0,693.82,280.5Z"/><path class="cls-7" d="M701.42,279.6,704.3,287l-1,.15-.78-2.09h-3l-.75,2h-1l2.82-7.48Zm-.49,1.42-1.2,3.21h2.43Z"/><path class="cls-7" d="M706,279.6h2.14a3.49,3.49,0,0,1,2,.55,1.91,1.91,0,0,1,.78,1.67,2.1,2.1,0,0,1-.36,1.2,2.17,2.17,0,0,1-.95.75l1.88,3.3h-1.14l-1.67-3a4.75,4.75,0,0,1-.69,0h-1v3H706Zm2.13.89H707v2.74h1a2.3,2.3,0,0,0,1.29-.32,1.18,1.18,0,0,0,.5-1,1.21,1.21,0,0,0-.45-1.06A2.24,2.24,0,0,0,708.09,280.5Z"/><path class="cls-7" d="M718.34,280.44h-2.57v6.64H714.7v-6.64h-2.43v-.84h5.93Z"/><path class="cls-7" d="M720,287.08V279.6h4.21l.14.81H721v2.45h2.54l.14.81H721v2.57h3.55l.14.83Z"/><path class="cls-7" d="M729.62,284.69l-2.07-2.89v5.29H726.5V279.6h.65l2.63,3.7,2.5-3.7h.66v7.48h-1.07v-5.19L730,284.63Z"/><path class="cls-7" d="M735.47,287.08V279.6h4.21l.14.81h-3.3v2.45h2.54l.14.81h-2.68v2.57h3.55l.14.83Z"/><path class="cls-7" d="M742,287.08V279.6h.93l3.88,5.53V279.6h1.07v7.48h-.95L743,281.51v5.58Z"/><path class="cls-7" d="M846.22,503.08h-2.65V495.6h2.69a3,3,0,0,1,2.5,1,4.08,4.08,0,0,1,.84,2.68,4.67,4.67,0,0,1-.39,2,3,3,0,0,1-1.15,1.34A3.36,3.36,0,0,1,846.22,503.08Zm.09-6.58h-1.68v5.7h1.59a2.08,2.08,0,0,0,1.68-.75,3.26,3.26,0,0,0,.63-2.14,3.39,3.39,0,0,0-.56-2.05A1.94,1.94,0,0,0,846.31,496.5Z"/><path class="cls-7" d="M851.57,503.08V495.6h1.06v7.48Z"/><path class="cls-7" d="M857.66,501.66l2.24-6.06h1l-2.82,7.48h-1l-2.88-7.41,1-.15Z"/><path class="cls-7" d="M862.59,503.08V495.6h1.06v7.48Z"/><path class="cls-7" d="M865.75,502.67l.24-.84a4.28,4.28,0,0,0,.87.33,3.66,3.66,0,0,0,1,.14,2.14,2.14,0,0,0,1.21-.29.9.9,0,0,0,.43-.79,1,1,0,0,0-.21-.62,2.11,2.11,0,0,0-.61-.49q-.4-.23-1.1-.53a6.54,6.54,0,0,1-1.11-.6,1.83,1.83,0,0,1-.83-1.62,1.74,1.74,0,0,1,.3-1,2,2,0,0,1,.85-.69,3.12,3.12,0,0,1,1.3-.25,3.91,3.91,0,0,1,1,.14,5.24,5.24,0,0,1,.94.35l-.35.84a5,5,0,0,0-.73-.29,2.87,2.87,0,0,0-.82-.1,2,2,0,0,0-1.07.25.81.81,0,0,0-.41.73,1,1,0,0,0,.21.63,2,2,0,0,0,.59.49q.39.22,1.13.56a4.79,4.79,0,0,1,1.47.93,1.73,1.73,0,0,1,.47,1.25,1.79,1.79,0,0,1-.32,1.05,2.06,2.06,0,0,1-.92.71,3.77,3.77,0,0,1-1.45.25,5,5,0,0,1-1.18-.18A2.35,2.35,0,0,1,865.75,502.67Z"/><path class="cls-7" d="M872.42,503.08V495.6h1.06v7.48Z"/><path class="cls-7" d="M330.89,503.08h-2.65V495.6h2.69a3,3,0,0,1,2.5,1,4.08,4.08,0,0,1,.84,2.68,4.68,4.68,0,0,1-.39,2,3,3,0,0,1-1.15,1.34A3.36,3.36,0,0,1,330.89,503.08Zm.09-6.58H329.3v5.7h1.6a2.08,2.08,0,0,0,1.68-.75,3.26,3.26,0,0,0,.63-2.14,3.39,3.39,0,0,0-.56-2.05A1.94,1.94,0,0,0,331,496.5Z"/><path class="cls-7" d="M336.25,503.08V495.6h1.06v7.48Z"/><path class="cls-7" d="M342.33,501.66l2.24-6.06h1l-2.82,7.48h-1L339,495.66l1-.15Z"/><path class="cls-7" d="M347.26,503.08V495.6h1.06v7.48Z"/><path class="cls-7" d="M350.43,502.67l.24-.84a4.27,4.27,0,0,0,.87.33,3.66,3.66,0,0,0,1,.14,2.14,2.14,0,0,0,1.21-.29.9.9,0,0,0,.43-.79,1,1,0,0,0-.21-.62,2.11,2.11,0,0,0-.61-.49q-.4-.23-1.1-.53a6.56,6.56,0,0,1-1.11-.6,1.83,1.83,0,0,1-.83-1.62,1.73,1.73,0,0,1,.3-1,2,2,0,0,1,.85-.69,3.12,3.12,0,0,1,1.3-.25,3.91,3.91,0,0,1,1,.14,5.24,5.24,0,0,1,.94.35l-.35.84a5,5,0,0,0-.73-.29,2.87,2.87,0,0,0-.82-.1,2,2,0,0,0-1.07.25.81.81,0,0,0-.41.73,1,1,0,0,0,.21.63,2,2,0,0,0,.59.49q.39.22,1.13.56a4.79,4.79,0,0,1,1.47.93,1.73,1.73,0,0,1,.47,1.25,1.79,1.79,0,0,1-.32,1.05,2.06,2.06,0,0,1-.92.71,3.77,3.77,0,0,1-1.45.25,5,5,0,0,1-1.18-.18A2.35,2.35,0,0,1,350.43,502.67Z"/><path class="cls-7" d="M357.09,503.08V495.6h1.06v7.48Z"/><line class="cls-1" x1="257.16" y1="16.71" x2="297.16" y2="16.71"/><path class="cls-4" d="M305.28,19.87V11.71h.95v8.16Z"/><path class="cls-4" d="M309,19.87h-.95V14.05h.71l.16.83a3.5,3.5,0,0,1,1-.72,2.73,2.73,0,0,1,1.16-.29,1.66,1.66,0,0,1,1.37.56,2.31,2.31,0,0,1,.45,1.49v3.94H312v-3.8a1.81,1.81,0,0,0-.24-1,.89.89,0,0,0-.8-.36,2.08,2.08,0,0,0-1,.3,3.78,3.78,0,0,0-1,.76Z"/><path class="cls-4" d="M314.14,19.54l.3-.68a3.52,3.52,0,0,0,1.57.41,2,2,0,0,0,1-.23.71.71,0,0,0,.38-.64q0-.65-1.44-1.13a4.54,4.54,0,0,1-1.37-.68,1.26,1.26,0,0,1-.53-1,1.43,1.43,0,0,1,.58-1.21,2.59,2.59,0,0,1,1.59-.44,3.82,3.82,0,0,1,1,.14,2.55,2.55,0,0,1,.86.37l-.3.65a6.25,6.25,0,0,0-.74-.29,2.66,2.66,0,0,0-.79-.11,1.53,1.53,0,0,0-.88.23.71.71,0,0,0-.34.61.68.68,0,0,0,.36.54,4.42,4.42,0,0,0,1,.44q2,.72,2,1.85a1.46,1.46,0,0,1-.61,1.25A2.9,2.9,0,0,1,316,20a4.36,4.36,0,0,1-1-.13A2.55,2.55,0,0,1,314.14,19.54Z"/><path class="cls-4" d="M321.77,14.15l.31.72h-1.37v3.36a1.17,1.17,0,0,0,.2.73.74.74,0,0,0,.62.26,1.45,1.45,0,0,0,.53-.12l.22.74a2,2,0,0,1-.89.2,1.61,1.61,0,0,1-1.19-.44,1.7,1.7,0,0,1-.44-1.25V14.87h-.84v-.72h.85V12.66l.95-.26v1.75Z"/><path class="cls-4" d="M324.26,19.87h-.95V14.05h.56l.3.94a5.53,5.53,0,0,1,.95-.64,2.1,2.1,0,0,1,1-.3l.23.76a2.28,2.28,0,0,0-1.07.32,4.07,4.07,0,0,0-1,.74Z"/><path class="cls-4" d="M331.09,14H332v5.83h-.71l-.16-.84a3.49,3.49,0,0,1-1,.72A2.73,2.73,0,0,1,329,20a1.66,1.66,0,0,1-1.37-.56,2.31,2.31,0,0,1-.45-1.49V14.05h.95v3.8a1.81,1.81,0,0,0,.24,1,.89.89,0,0,0,.8.36,2.08,2.08,0,0,0,1-.3,3.75,3.75,0,0,0,1-.76Z"/><path class="cls-4" d="M333.67,19.87V11.52l.95-.12v5.15l2.64-2.65.58.6-1.78,1.76,2.4,3.61h-1.12l-1.92-3-.8.8v2.18Z"/><path class="cls-4" d="M341.51,14.15l.31.72h-1.37v3.36a1.17,1.17,0,0,0,.2.73.74.74,0,0,0,.62.26,1.45,1.45,0,0,0,.53-.12l.22.74a2,2,0,0,1-.89.2,1.61,1.61,0,0,1-1.19-.44,1.7,1.7,0,0,1-.44-1.25V14.87h-.84v-.72h.85V12.66l.95-.26v1.75Z"/><path class="cls-4" d="M343.52,12.89a.62.62,0,0,1-.64-.64.64.64,0,0,1,.18-.46.61.61,0,0,1,.46-.19.65.65,0,0,1,.65.65.6.6,0,0,1-.19.45A.63.63,0,0,1,343.52,12.89Zm-.47,7V14.05h1v5.82Z"/><path class="cls-4" d="M345,14.87v-.72h.89v-.91a1.87,1.87,0,0,1,.44-1.3,1.53,1.53,0,0,1,1.19-.49,2,2,0,0,1,.48.06,1.74,1.74,0,0,1,.4.14l-.22.77a1.23,1.23,0,0,0-.25-.08,1.28,1.28,0,0,0-.28,0q-.82,0-.82,1v.85h1.07l.31.72h-1.38v5h-.95v-5Z"/><line class="cls-2" x1="257.16" y1="33.72" x2="297.16" y2="33.72"/><path class="cls-4" d="M310.21,36.88,307.15,33l-.92,1v3h-.95V28.72h.95v4l3.94-4.14.65.56-3,3.18,3.58,4.6Z"/><path class="cls-4" d="M317.17,35.57a2.61,2.61,0,0,1-1,1.08,3,3,0,0,1-1.54.39,2.71,2.71,0,0,1-1.46-.39,2.51,2.51,0,0,1-1-1.09,3.72,3.72,0,0,1-.33-1.6,3.62,3.62,0,0,1,.35-1.58,2.56,2.56,0,0,1,1-1.08,2.87,2.87,0,0,1,1.51-.39,2.61,2.61,0,0,1,2.05.83,3.26,3.26,0,0,1,.74,2.25A3.41,3.41,0,0,1,317.17,35.57Zm-1.13,0a2.54,2.54,0,0,0,.52-1.6,2.67,2.67,0,0,0-.48-1.66,1.61,1.61,0,0,0-1.36-.63,1.66,1.66,0,0,0-1.37.63,2.54,2.54,0,0,0-.52,1.6,2.68,2.68,0,0,0,.48,1.66,1.6,1.6,0,0,0,1.36.64A1.66,1.66,0,0,0,316,35.6Z"/><path class="cls-4" d="M319.61,36.88h-.95V31.06h.56l.3.94a5.53,5.53,0,0,1,.95-.64,2.1,2.1,0,0,1,1-.3l.23.76a2.28,2.28,0,0,0-1.07.32,4.07,4.07,0,0,0-1,.74Z"/><path class="cls-4" d="M327.29,28.42v8.46h-.58l-.18-.44a2.79,2.79,0,0,1-.78.44A2.29,2.29,0,0,1,325,37a2.56,2.56,0,0,1-2-.85,3.3,3.3,0,0,1-.74-2.25,3.5,3.5,0,0,1,.34-1.58,2.56,2.56,0,0,1,1-1.07,2.79,2.79,0,0,1,1.48-.38,2.1,2.1,0,0,1,.67.12,3.22,3.22,0,0,1,.68.32V28.53Zm-1.58,7.67a1.92,1.92,0,0,0,.62-.43V32.23a2,2,0,0,0-1.37-.52,1.57,1.57,0,0,0-1.33.62,2.64,2.64,0,0,0-.48,1.6,2.77,2.77,0,0,0,.46,1.67,1.56,1.56,0,0,0,1.34.63A2,2,0,0,0,325.71,36.1Z"/><path class="cls-4" d="M329.38,29.9a.62.62,0,0,1-.64-.64.64.64,0,0,1,.18-.46.61.61,0,0,1,.46-.19.65.65,0,0,1,.65.65.6.6,0,0,1-.19.45A.63.63,0,0,1,329.38,29.9Zm-.47,7V31.06h1v5.82Z"/><path class="cls-4" d="M332.32,36.88h-.95V31.06h.71l.16.83a3.5,3.5,0,0,1,1-.72,2.73,2.73,0,0,1,1.16-.29,1.66,1.66,0,0,1,1.37.56,2.31,2.31,0,0,1,.45,1.49v3.94h-.95v-3.8a1.81,1.81,0,0,0-.24-1,.89.89,0,0,0-.8-.36,2.08,2.08,0,0,0-1,.3,3.78,3.78,0,0,0-1,.76Z"/><path class="cls-4" d="M338.21,32.13l-.28-.72a2.75,2.75,0,0,1,.92-.36,4.51,4.51,0,0,1,1-.14,2.64,2.64,0,0,1,1.18.25,2,2,0,0,1,.8.7,1.81,1.81,0,0,1,.29,1v4h-.71l-.12-.59a3,3,0,0,1-.8.52,2.21,2.21,0,0,1-.94.22,2,2,0,0,1-1.48-.5,1.76,1.76,0,0,1-.51-1.31,1.59,1.59,0,0,1,.58-1.31,2.34,2.34,0,0,1,1.52-.47h1.5v-.32a1.56,1.56,0,0,0-.31-1,1.18,1.18,0,0,0-1-.37,3.31,3.31,0,0,0-.88.1A5.91,5.91,0,0,0,338.21,32.13Zm.23,3.1a1.07,1.07,0,0,0,.28.73,1,1,0,0,0,.82.31,1.79,1.79,0,0,0,.89-.24,2.73,2.73,0,0,0,.75-.62V34.09h-1.54a1.17,1.17,0,0,0-.88.33A1.12,1.12,0,0,0,338.44,35.23Z"/><path class="cls-4" d="M343.27,36.55l.3-.68a3.52,3.52,0,0,0,1.57.41,2,2,0,0,0,1-.23.71.71,0,0,0,.38-.64q0-.65-1.44-1.13a4.54,4.54,0,0,1-1.37-.68,1.26,1.26,0,0,1-.53-1,1.43,1.43,0,0,1,.58-1.21,2.59,2.59,0,0,1,1.59-.44,3.82,3.82,0,0,1,1,.14,2.55,2.55,0,0,1,.86.37l-.3.65a6.25,6.25,0,0,0-.74-.29,2.66,2.66,0,0,0-.79-.11,1.53,1.53,0,0,0-.88.23.71.71,0,0,0-.34.61.68.68,0,0,0,.36.54,4.42,4.42,0,0,0,1,.44q2,.72,2,1.85a1.46,1.46,0,0,1-.61,1.25,2.9,2.9,0,0,1-1.73.44,4.36,4.36,0,0,1-1-.13A2.55,2.55,0,0,1,343.27,36.55Z"/><path class="cls-4" d="M349.08,29.9a.62.62,0,0,1-.64-.64.64.64,0,0,1,.18-.46.61.61,0,0,1,.46-.19.65.65,0,0,1,.65.65.6.6,0,0,1-.19.45A.63.63,0,0,1,349.08,29.9Zm-.47,7V31.06h1v5.82Z"/></g></g></svg>