<svg xmlns="http://www.w3.org/2000/svg" width="936.99" height="503.41" viewBox="0 0 936.99 503.41"><defs><style>.cls-1,.cls-4{fill:none;stroke-miterlimit:10;stroke-width:2px;}.cls-1{stroke:#353e68;}.cls-2{fill:#c3c7db;}.cls-3{fill:#025eb7;}.cls-4{stroke:#262f49;}.cls-5{fill:#f6871e;}</style></defs><title>Asset 16</title><g id="Layer_2" data-name="Layer 2"><g id="Layer_1_copy_6" data-name="Layer 1 copy 6"><rect class="cls-1" x="368.5" y="1" width="200" height="50" rx="4" ry="4"/><path class="cls-2" d="M428.87,30.11l-3.35-4.38-1,1.09v3.29h-1.34V20.59h1.34V25l4.34-4.62,1,.78-3.37,3.6,4.09,5.35Z"/><path class="cls-2" d="M436.46,20.36a4.35,4.35,0,0,1,4,2.39,5.82,5.82,0,0,1,0,5.08,4.55,4.55,0,0,1-1.63,1.79,4.42,4.42,0,0,1-2.36.67,4.31,4.31,0,0,1-3.93-2.38,5.82,5.82,0,0,1,0-5.08,4.57,4.57,0,0,1,1.62-1.79A4.46,4.46,0,0,1,436.46,20.36Zm-3.15,5a4.6,4.6,0,0,0,.4,1.95,3.22,3.22,0,0,0,1.11,1.35,2.75,2.75,0,0,0,1.59.48,2.81,2.81,0,0,0,1.63-.5,3.31,3.31,0,0,0,1.13-1.38,4.7,4.7,0,0,0,.41-2,4.56,4.56,0,0,0-.4-1.94,3.25,3.25,0,0,0-1.1-1.34,2.72,2.72,0,0,0-1.58-.48,2.84,2.84,0,0,0-1.64.5,3.3,3.3,0,0,0-1.13,1.37A4.65,4.65,0,0,0,433.31,25.38Z"/><path class="cls-2" d="M443.52,20.59h2.73a4.43,4.43,0,0,1,2.6.7,2.43,2.43,0,0,1,1,2.13,2.67,2.67,0,0,1-.46,1.53,2.76,2.76,0,0,1-1.2,1l2.39,4.2h-1.46L447,26.26a6,6,0,0,1-.88,0h-1.25v3.81h-1.34Zm2.72,1.13h-1.37v3.49h1.3a2.93,2.93,0,0,0,1.65-.41,1.5,1.5,0,0,0,.64-1.32,1.54,1.54,0,0,0-.57-1.35A2.84,2.84,0,0,0,446.23,21.72Z"/><path class="cls-2" d="M456,30.11h-3.37V20.59h3.43a3.87,3.87,0,0,1,3.18,1.29,5.2,5.2,0,0,1,1.06,3.41,6,6,0,0,1-.5,2.49,3.86,3.86,0,0,1-1.47,1.71A4.26,4.26,0,0,1,456,30.11Zm.11-8.37H454V29h2a2.64,2.64,0,0,0,2.14-1,4.14,4.14,0,0,0,.8-2.72,4.31,4.31,0,0,0-.71-2.61A2.47,2.47,0,0,0,456.16,21.74Z"/><path class="cls-2" d="M462.86,30.11V20.59h1.34v9.52Z"/><path class="cls-2" d="M467.43,30.11V20.59h1.19l4.94,7v-7h1.36v9.52h-1.2L468.77,23v7.1Z"/><path class="cls-2" d="M481.82,20.59,485.49,30l-1.33.2-1-2.66h-3.88l-1,2.55H477l3.58-9.52Zm-.63,1.81-1.53,4.09h3.09Z"/><path class="cls-2" d="M494.19,21.65h-3.28v8.46h-1.36V21.65h-3.09V20.59H494Z"/><path class="cls-2" d="M500.14,20.36a4.35,4.35,0,0,1,4,2.39,5.81,5.81,0,0,1,0,5.08,4.55,4.55,0,0,1-1.63,1.79,4.41,4.41,0,0,1-2.36.67,4.31,4.31,0,0,1-3.93-2.38,5.81,5.81,0,0,1,0-5.08,4.56,4.56,0,0,1,1.62-1.79A4.46,4.46,0,0,1,500.14,20.36Zm-3.15,5a4.6,4.6,0,0,0,.4,1.95,3.21,3.21,0,0,0,1.11,1.35,2.75,2.75,0,0,0,1.59.48,2.8,2.8,0,0,0,1.63-.5,3.3,3.3,0,0,0,1.13-1.38,4.69,4.69,0,0,0,.41-2,4.56,4.56,0,0,0-.4-1.94,3.25,3.25,0,0,0-1.1-1.34,2.72,2.72,0,0,0-1.58-.48,2.84,2.84,0,0,0-1.64.5,3.3,3.3,0,0,0-1.13,1.37A4.64,4.64,0,0,0,497,25.38Z"/><path class="cls-2" d="M507.2,20.59h2.73a4.43,4.43,0,0,1,2.6.7,2.43,2.43,0,0,1,1,2.13,2.67,2.67,0,0,1-.46,1.53,2.76,2.76,0,0,1-1.2,1l2.39,4.2H512.8l-2.13-3.85a6,6,0,0,1-.88,0h-1.25v3.81H507.2Zm2.72,1.13h-1.37v3.49h1.3a2.93,2.93,0,0,0,1.64-.41,1.5,1.5,0,0,0,.64-1.32,1.54,1.54,0,0,0-.57-1.35A2.84,2.84,0,0,0,509.92,21.72Z"/><rect class="cls-1" x="1" y="224.2" width="200" height="50" rx="4" ry="4"/><path class="cls-2" d="M58,252.28v-8.5h1.34v8.75a2.54,2.54,0,0,1-.17,1,1.54,1.54,0,0,1-.6.67,4.89,4.89,0,0,1-1.19.51l-.53-1a3.61,3.61,0,0,0,.73-.34.81.81,0,0,0,.32-.41A2.3,2.3,0,0,0,58,252.28Z"/><path class="cls-2" d="M63.65,243.78v6a2.64,2.64,0,0,0,.65,1.88,2.24,2.24,0,0,0,1.71.69,2.2,2.2,0,0,0,1.72-.7,2.7,2.7,0,0,0,.63-1.88v-6h1.36v6.12a3.65,3.65,0,0,1-.46,1.83A3.25,3.25,0,0,1,68,253a4,4,0,0,1-2,.46,4.06,4.06,0,0,1-2-.45,3.19,3.19,0,0,1-1.29-1.27,3.68,3.68,0,0,1-.46-1.83v-6.12Z"/><path class="cls-2" d="M72.8,243.78h2.73a4.43,4.43,0,0,1,2.6.7,2.43,2.43,0,0,1,1,2.13,2.67,2.67,0,0,1-.46,1.53,2.76,2.76,0,0,1-1.2,1l2.39,4.2H78.4l-2.13-3.85a6,6,0,0,1-.88,0H74.15v3.81H72.8Zm2.72,1.13H74.15v3.49h1.3A2.93,2.93,0,0,0,77.1,248a1.5,1.5,0,0,0,.64-1.32,1.54,1.54,0,0,0-.57-1.35A2.84,2.84,0,0,0,75.52,244.92Z"/><path class="cls-2" d="M83.16,243.78v6a2.64,2.64,0,0,0,.65,1.88,2.24,2.24,0,0,0,1.71.69,2.2,2.2,0,0,0,1.72-.7,2.7,2.7,0,0,0,.63-1.88v-6h1.36v6.12a3.65,3.65,0,0,1-.46,1.83A3.25,3.25,0,0,1,87.49,253a4,4,0,0,1-2,.46,4.06,4.06,0,0,1-2-.45,3.19,3.19,0,0,1-1.29-1.27,3.68,3.68,0,0,1-.46-1.83v-6.12Z"/><path class="cls-2" d="M99.53,253.3H96.24v-9.52h3q3.28,0,3.28,2.58a2.21,2.21,0,0,1-1.22,1.83,2.78,2.78,0,0,1,1.25.91,2.39,2.39,0,0,1,.46,1.48,2.34,2.34,0,0,1-.94,2A4.24,4.24,0,0,1,99.53,253.3Zm-.41-8.39H97.58v2.93h1.3a3.37,3.37,0,0,0,1.62-.36,1.18,1.18,0,0,0,.62-1.11,1.24,1.24,0,0,0-.5-1.14A2.86,2.86,0,0,0,99.12,244.92Zm.49,4h-2v3.26h1.89a2.83,2.83,0,0,0,1.57-.39,1.33,1.33,0,0,0,.59-1.2,1.51,1.51,0,0,0-.53-1.26A2.34,2.34,0,0,0,99.61,248.94Z"/><path class="cls-2" d="M105.38,253.3v-9.52h1.34v9.52Z"/><path class="cls-2" d="M116.19,244.16l-.42,1a8.5,8.5,0,0,0-1-.31,4.92,4.92,0,0,0-1-.08,2.72,2.72,0,0,0-1.57.48,3.26,3.26,0,0,0-1.11,1.36,4.74,4.74,0,0,0-.41,2,4.91,4.91,0,0,0,.36,1.9,3.18,3.18,0,0,0,1,1.36,2.6,2.6,0,0,0,1.59.5,4.93,4.93,0,0,0,2.09-.42l.52,1a5,5,0,0,1-1.2.4,6.42,6.42,0,0,1-1.34.16,4.34,4.34,0,0,1-2.42-.65,4.1,4.1,0,0,1-1.51-1.76,5.88,5.88,0,0,1-.51-2.48,5.82,5.82,0,0,1,.55-2.57,4.28,4.28,0,0,1,1.58-1.79,4.37,4.37,0,0,1,2.39-.65,6.4,6.4,0,0,1,1.23.15A3.73,3.73,0,0,1,116.19,244.16Z"/><path class="cls-2" d="M122.15,243.78l3.67,9.44-1.33.2-1-2.66h-3.88l-1,2.55h-1.32l3.58-9.52Zm-.63,1.81L120,249.68h3.09Z"/><path class="cls-2" d="M127.92,243.78h2.73a4.43,4.43,0,0,1,2.6.7,2.43,2.43,0,0,1,1,2.13,2.67,2.67,0,0,1-.46,1.53,2.76,2.76,0,0,1-1.2,1l2.39,4.2h-1.46l-2.13-3.85a6,6,0,0,1-.88,0h-1.25v3.81h-1.34Zm2.72,1.13h-1.37v3.49h1.3a2.93,2.93,0,0,0,1.64-.41,1.5,1.5,0,0,0,.64-1.32,1.54,1.54,0,0,0-.57-1.35A2.84,2.84,0,0,0,130.64,244.92Z"/><path class="cls-2" d="M140.76,243.78l3.67,9.44-1.33.2-1-2.66h-3.88l-1,2.55H136l3.58-9.52Zm-.63,1.81-1.53,4.09h3.09Z"/><rect class="cls-1" x="488.97" y="224.2" width="200" height="50" rx="4" ry="4"/><path class="cls-2" d="M548.22,252.79l.31-1.06a5.47,5.47,0,0,0,1.11.42,4.67,4.67,0,0,0,1.25.18,2.72,2.72,0,0,0,1.54-.37,1.15,1.15,0,0,0,.55-1,1.24,1.24,0,0,0-.27-.79,2.67,2.67,0,0,0-.78-.63q-.5-.29-1.4-.68a8.37,8.37,0,0,1-1.41-.76,2.53,2.53,0,0,1-.79-.87A2.5,2.5,0,0,1,548,246a2.2,2.2,0,0,1,.38-1.26,2.54,2.54,0,0,1,1.08-.88,4,4,0,0,1,1.66-.32,5,5,0,0,1,1.32.18,6.56,6.56,0,0,1,1.2.45l-.45,1.06a6.34,6.34,0,0,0-.93-.37,3.63,3.63,0,0,0-1-.13,2.54,2.54,0,0,0-1.36.32,1,1,0,0,0-.52.92,1.28,1.28,0,0,0,.27.81,2.52,2.52,0,0,0,.76.62q.49.28,1.44.71a6.09,6.09,0,0,1,1.87,1.19,2.2,2.2,0,0,1,.6,1.6,2.27,2.27,0,0,1-.41,1.34,2.62,2.62,0,0,1-1.18.9,4.78,4.78,0,0,1-1.85.32,6.34,6.34,0,0,1-1.5-.22A3,3,0,0,1,548.22,252.79Z"/><path class="cls-2" d="M556.7,253.3v-9.52h5.36l.18,1H558v3.12h3.23l.18,1H558v3.28h4.52l.18,1Z"/><path class="cls-2" d="M570.7,253.3l-3.35-4.38-1,1.09v3.29H565v-9.52h1.34v4.41l4.34-4.62,1,.78-3.37,3.6,4.09,5.35Z"/><path class="cls-2" d="M574.44,243.78h2.73a4.43,4.43,0,0,1,2.6.7,2.43,2.43,0,0,1,1,2.13,2.67,2.67,0,0,1-.46,1.53,2.76,2.76,0,0,1-1.2,1l2.39,4.2H580l-2.13-3.85a6,6,0,0,1-.88,0h-1.25v3.81h-1.34Zm2.72,1.13h-1.37v3.49h1.3a2.93,2.93,0,0,0,1.65-.41,1.5,1.5,0,0,0,.64-1.32,1.54,1.54,0,0,0-.57-1.35A2.84,2.84,0,0,0,577.15,244.92Z"/><path class="cls-2" d="M583.59,253.3v-9.52H589l.18,1h-4.2v3.12h3.23l.18,1h-3.42v3.28h4.52l.18,1Z"/><path class="cls-2" d="M598.49,244.85h-3.28v8.46h-1.36v-8.46h-3.09v-1.06h7.55Z"/><path class="cls-2" d="M604.27,243.78l3.67,9.44-1.33.2-1-2.66h-3.88l-1,2.55h-1.32l3.58-9.52Zm-.63,1.81-1.53,4.09h3.09Z"/><path class="cls-2" d="M610,243.78h2.73a4.43,4.43,0,0,1,2.6.7,2.43,2.43,0,0,1,1,2.13,2.67,2.67,0,0,1-.46,1.53,2.76,2.76,0,0,1-1.2,1l2.39,4.2h-1.46l-2.13-3.85a6,6,0,0,1-.88,0h-1.25v3.81H610Zm2.72,1.13h-1.37v3.49h1.3a2.93,2.93,0,0,0,1.64-.41,1.5,1.5,0,0,0,.64-1.32,1.54,1.54,0,0,0-.57-1.35A2.84,2.84,0,0,0,612.75,244.92Z"/><path class="cls-2" d="M619.19,253.3v-9.52h1.34v9.52Z"/><path class="cls-2" d="M623.23,252.79l.31-1.06a5.49,5.49,0,0,0,1.11.42,4.68,4.68,0,0,0,1.25.18,2.72,2.72,0,0,0,1.54-.37,1.15,1.15,0,0,0,.55-1,1.24,1.24,0,0,0-.27-.79,2.67,2.67,0,0,0-.78-.63q-.5-.29-1.4-.68a8.34,8.34,0,0,1-1.41-.76,2.34,2.34,0,0,1-1.06-2.06,2.2,2.2,0,0,1,.38-1.26,2.54,2.54,0,0,1,1.08-.88,4,4,0,0,1,1.66-.32,5,5,0,0,1,1.32.18,6.55,6.55,0,0,1,1.2.45l-.45,1.06a6.36,6.36,0,0,0-.93-.37,3.62,3.62,0,0,0-1-.13,2.54,2.54,0,0,0-1.36.32,1,1,0,0,0-.52.92,1.27,1.27,0,0,0,.27.81,2.53,2.53,0,0,0,.76.62q.49.28,1.44.71a6.11,6.11,0,0,1,1.87,1.19,2.2,2.2,0,0,1,.59,1.6,2.28,2.28,0,0,1-.41,1.34,2.62,2.62,0,0,1-1.18.9,4.78,4.78,0,0,1-1.85.32,6.33,6.33,0,0,1-1.5-.22A3,3,0,0,1,623.23,252.79Z"/><rect class="cls-1" x="735.99" y="224.2" width="200" height="50" rx="4" ry="4"/><path class="cls-2" d="M797.56,253.3h-3.29v-9.52h3q3.28,0,3.28,2.58a2.21,2.21,0,0,1-1.22,1.83,2.78,2.78,0,0,1,1.25.91,2.39,2.39,0,0,1,.46,1.48,2.34,2.34,0,0,1-.94,2A4.24,4.24,0,0,1,797.56,253.3Zm-.41-8.39h-1.54v2.93h1.3a3.37,3.37,0,0,0,1.62-.36,1.18,1.18,0,0,0,.62-1.11,1.24,1.24,0,0,0-.5-1.14A2.86,2.86,0,0,0,797.15,244.92Zm.49,4h-2v3.26h1.89a2.83,2.83,0,0,0,1.57-.39,1.33,1.33,0,0,0,.59-1.2,1.51,1.51,0,0,0-.53-1.26A2.34,2.34,0,0,0,797.64,248.94Z"/><path class="cls-2" d="M803.41,253.3v-9.52h5.36l.18,1h-4.2v3.12H808l.18,1h-3.42v3.28h4.52l.18,1Z"/><path class="cls-2" d="M811.7,253.3v-9.52h1.19l4.94,7v-7h1.36v9.52H818l-4.94-7.1v7.1Z"/><path class="cls-2" d="M825.78,253.3h-3.37v-9.52h3.43a3.87,3.87,0,0,1,3.18,1.29,5.2,5.2,0,0,1,1.06,3.41,6,6,0,0,1-.5,2.49,3.86,3.86,0,0,1-1.47,1.71A4.26,4.26,0,0,1,825.78,253.3Zm.11-8.37h-2.14v7.25h2a2.64,2.64,0,0,0,2.14-1,4.14,4.14,0,0,0,.8-2.72,4.31,4.31,0,0,0-.71-2.61A2.47,2.47,0,0,0,825.89,244.93Z"/><path class="cls-2" d="M836.28,243.78l3.67,9.44-1.33.2-1-2.66h-3.88l-1,2.55h-1.32l3.58-9.52Zm-.63,1.81-1.53,4.09h3.09Z"/><path class="cls-2" d="M847.62,253.3v-4.24h-4.23v4.24h-1.34v-9.52l1.34-.07V248h4.23v-4.2H849v9.52Z"/><path class="cls-2" d="M855.87,243.78l3.67,9.44-1.33.2-1-2.66h-3.88l-1,2.55h-1.32l3.58-9.52Zm-.63,1.81-1.53,4.09h3.09Z"/><path class="cls-2" d="M861.64,243.78h2.73a4.43,4.43,0,0,1,2.6.7,2.43,2.43,0,0,1,1,2.13,2.67,2.67,0,0,1-.46,1.53,2.76,2.76,0,0,1-1.2,1l2.39,4.2h-1.46l-2.13-3.85a6,6,0,0,1-.88,0H863v3.81h-1.34Zm2.72,1.13H863v3.49h1.3a2.93,2.93,0,0,0,1.64-.41,1.5,1.5,0,0,0,.64-1.32,1.54,1.54,0,0,0-.57-1.35A2.84,2.84,0,0,0,864.35,244.92Z"/><path class="cls-2" d="M874.47,243.78l3.67,9.44-1.33.2-1-2.66h-3.88l-1,2.55h-1.32l3.58-9.52Zm-.63,1.81-1.53,4.09h3.09Z"/><rect class="cls-1" x="1" y="442.37" width="200" height="60.04" rx="4" ry="4"/><path class="cls-2" d="M79,469.58l-3.35-4.38-1,1.09v3.29H73.25v-9.52H74.6v4.41l4.34-4.62,1,.78-3.37,3.6,4.09,5.35Z"/><path class="cls-2" d="M86.55,459.84a4.35,4.35,0,0,1,4,2.39,5.82,5.82,0,0,1,0,5.08,4.55,4.55,0,0,1-1.63,1.79,4.42,4.42,0,0,1-2.36.67,4.31,4.31,0,0,1-3.93-2.38,5.82,5.82,0,0,1,0-5.08,4.57,4.57,0,0,1,1.62-1.79A4.46,4.46,0,0,1,86.55,459.84Zm-3.15,5a4.6,4.6,0,0,0,.4,1.95,3.22,3.22,0,0,0,1.11,1.35,2.75,2.75,0,0,0,1.59.48,2.81,2.81,0,0,0,1.63-.5,3.31,3.31,0,0,0,1.13-1.38,4.7,4.7,0,0,0,.41-2,4.56,4.56,0,0,0-.4-1.94,3.25,3.25,0,0,0-1.1-1.34,2.72,2.72,0,0,0-1.58-.48,2.84,2.84,0,0,0-1.64.5,3.3,3.3,0,0,0-1.13,1.37A4.65,4.65,0,0,0,83.4,464.85Z"/><path class="cls-2" d="M97.58,466.53,95,462.85v6.73H93.61v-9.52h.83l3.35,4.7,3.18-4.7h.84v9.52h-1.36V463l-2.37,3.49Z"/><path class="cls-2" d="M105,469.58v-9.52h1.34v9.52Z"/><path class="cls-2" d="M109.05,469.06l.31-1.06a5.47,5.47,0,0,0,1.11.42,4.67,4.67,0,0,0,1.25.18,2.72,2.72,0,0,0,1.54-.37,1.15,1.15,0,0,0,.55-1,1.24,1.24,0,0,0-.27-.79,2.67,2.67,0,0,0-.78-.63q-.5-.29-1.4-.68a8.36,8.36,0,0,1-1.41-.76,2.53,2.53,0,0,1-.79-.87,2.5,2.5,0,0,1-.27-1.2,2.2,2.2,0,0,1,.38-1.26,2.54,2.54,0,0,1,1.08-.88,4,4,0,0,1,1.66-.32,5,5,0,0,1,1.32.18,6.55,6.55,0,0,1,1.2.45l-.45,1.06a6.36,6.36,0,0,0-.93-.37,3.62,3.62,0,0,0-1-.13,2.54,2.54,0,0,0-1.36.32,1,1,0,0,0-.52.92,1.28,1.28,0,0,0,.27.81,2.52,2.52,0,0,0,.76.62q.49.28,1.44.71a6.11,6.11,0,0,1,1.87,1.19,2.2,2.2,0,0,1,.59,1.6,2.28,2.28,0,0,1-.41,1.34,2.62,2.62,0,0,1-1.18.9,4.78,4.78,0,0,1-1.85.32,6.34,6.34,0,0,1-1.51-.22A3,3,0,0,1,109.05,469.06Z"/><path class="cls-2" d="M117.53,469.58v-9.52h1.34v9.52Z"/><path class="cls-2" d="M127,469.58v-6.41l-1.47.78-.62-1.06,2.53-1.23h.9v7.92Z"/><path class="cls-3" d="M49.36,475.3V480a2,2,0,0,0,.47,1.41,1.88,1.88,0,0,0,2.55,0,2,2,0,0,0,.47-1.4V475.3H54.1v4.79a2.86,2.86,0,0,1-.37,1.45,2.58,2.58,0,0,1-1,1,3.61,3.61,0,0,1-3.16,0,2.58,2.58,0,0,1-1-1,2.86,2.86,0,0,1-.37-1.45V475.3Z"/><path class="cls-3" d="M56.47,482.78V475.3h1.17l3.67,5.27V475.3h1.24v7.48H61.38l-3.67-5.3v5.3Z"/><path class="cls-3" d="M67.78,482.78H65V475.3H67.8a3.13,3.13,0,0,1,2.53,1,4,4,0,0,1,.86,2.68,4.68,4.68,0,0,1-.4,2,3,3,0,0,1-1.17,1.33A3.46,3.46,0,0,1,67.78,482.78Zm.07-6.42H66.28v5.39h1.5a2,2,0,0,0,1.58-.69,3.12,3.12,0,0,0,.58-2.05,3.23,3.23,0,0,0-.52-2A1.82,1.82,0,0,0,67.85,476.36Z"/><path class="cls-3" d="M76.21,475.3l2.88,7.4-1.22.18-.74-2H74.2l-.71,1.88H72.26l2.86-7.48ZM75.64,477l-1.09,2.92h2.21Z"/><path class="cls-3" d="M80.72,482.78V475.3h1.17l3.67,5.27V475.3H86.8v7.48H85.62L82,477.48v5.3Z"/><path class="cls-3" d="M92,479.72l.1-.95h2.62v3.62a3.9,3.9,0,0,1-1,.39,5.08,5.08,0,0,1-1.23.15,3.79,3.79,0,0,1-2-.51,3.37,3.37,0,0,1-1.3-1.39,4.23,4.23,0,0,1-.45-2,4.13,4.13,0,0,1,.5-2,3.56,3.56,0,0,1,1.39-1.4,4,4,0,0,1,2-.5,5.09,5.09,0,0,1,1,.12,3.63,3.63,0,0,1,1,.34l-.38.89q-.59-.19-.86-.25a3.41,3.41,0,0,0-.72-.06,2.65,2.65,0,0,0-1.31.33,2.38,2.38,0,0,0-.95,1,3.26,3.26,0,0,0-.35,1.57,3.37,3.37,0,0,0,.31,1.48,2.33,2.33,0,0,0,.85,1,2.27,2.27,0,0,0,1.25.35,4.43,4.43,0,0,0,1.16-.15v-2Z"/><path class="cls-3" d="M102.12,480.26H99.29l-.11-1H102Z"/><path class="cls-3" d="M108.16,475.3V480a2,2,0,0,0,.47,1.41,1.88,1.88,0,0,0,2.55,0,2,2,0,0,0,.47-1.4V475.3h1.24v4.79a2.87,2.87,0,0,1-.37,1.45,2.58,2.58,0,0,1-1,1,3.61,3.61,0,0,1-3.16,0,2.58,2.58,0,0,1-1-1,2.86,2.86,0,0,1-.37-1.45V475.3Z"/><path class="cls-3" d="M115.28,482.78V475.3h1.17l3.67,5.27V475.3h1.24v7.48h-1.18l-3.67-5.3v5.3Z"/><path class="cls-3" d="M126.59,482.78h-2.74V475.3h2.76a3.13,3.13,0,0,1,2.53,1A4,4,0,0,1,130,479a4.66,4.66,0,0,1-.4,2,3,3,0,0,1-1.17,1.33A3.46,3.46,0,0,1,126.59,482.78Zm.07-6.42h-1.57v5.39h1.5a2,2,0,0,0,1.58-.69,3.13,3.13,0,0,0,.58-2.05,3.23,3.23,0,0,0-.52-2A1.82,1.82,0,0,0,126.65,476.36Z"/><path class="cls-3" d="M135,475.3l2.88,7.4-1.22.18-.74-2H133l-.71,1.88h-1.22l2.86-7.48Zm-.57,1.68-1.09,2.92h2.21Z"/><path class="cls-3" d="M139.52,482.78V475.3h1.17l3.67,5.27V475.3h1.24v7.48h-1.18l-3.67-5.3v5.3Z"/><path class="cls-3" d="M150.8,479.72l.1-.95h2.62v3.62a3.88,3.88,0,0,1-1,.39,5.07,5.07,0,0,1-1.23.15,3.79,3.79,0,0,1-2-.51A3.38,3.38,0,0,1,148,481a4.23,4.23,0,0,1-.45-2,4.12,4.12,0,0,1,.5-2,3.56,3.56,0,0,1,1.39-1.4,4,4,0,0,1,2-.5,5.08,5.08,0,0,1,1,.12,3.64,3.64,0,0,1,1,.34l-.38.89q-.59-.19-.86-.25a3.41,3.41,0,0,0-.72-.06,2.65,2.65,0,0,0-1.31.33,2.39,2.39,0,0,0-.95,1,3.27,3.27,0,0,0-.35,1.57,3.38,3.38,0,0,0,.31,1.48,2.34,2.34,0,0,0,.85,1,2.28,2.28,0,0,0,1.25.35,4.42,4.42,0,0,0,1.15-.15v-2Z"/><rect class="cls-1" x="244.98" y="442.37" width="200" height="60.04" rx="4" ry="4"/><path class="cls-2" d="M321.86,469.58l-3.35-4.38-1,1.09v3.29h-1.34v-9.52h1.34v4.41l4.34-4.62,1,.78-3.37,3.6,4.09,5.35Z"/><path class="cls-2" d="M329.45,459.84a4.35,4.35,0,0,1,4,2.39,5.82,5.82,0,0,1,0,5.08,4.55,4.55,0,0,1-1.63,1.79,4.42,4.42,0,0,1-2.36.67,4.31,4.31,0,0,1-3.93-2.38,5.82,5.82,0,0,1,0-5.08,4.57,4.57,0,0,1,1.62-1.79A4.46,4.46,0,0,1,329.45,459.84Zm-3.15,5a4.6,4.6,0,0,0,.4,1.95,3.22,3.22,0,0,0,1.11,1.35,2.75,2.75,0,0,0,1.59.48,2.81,2.81,0,0,0,1.63-.5,3.31,3.31,0,0,0,1.13-1.38,4.7,4.7,0,0,0,.41-2,4.56,4.56,0,0,0-.4-1.94,3.25,3.25,0,0,0-1.1-1.34,2.72,2.72,0,0,0-1.58-.48,2.84,2.84,0,0,0-1.64.5,3.3,3.3,0,0,0-1.13,1.37A4.65,4.65,0,0,0,326.3,464.85Z"/><path class="cls-2" d="M340.48,466.53l-2.63-3.68v6.73H336.5v-9.52h.83l3.35,4.7,3.18-4.7h.84v9.52h-1.36V463L341,466.46Z"/><path class="cls-2" d="M347.91,469.58v-9.52h1.34v9.52Z"/><path class="cls-2" d="M351.94,469.06l.31-1.06a5.47,5.47,0,0,0,1.11.42,4.67,4.67,0,0,0,1.25.18,2.72,2.72,0,0,0,1.54-.37,1.15,1.15,0,0,0,.55-1,1.24,1.24,0,0,0-.27-.79,2.67,2.67,0,0,0-.78-.63q-.5-.29-1.4-.68a8.37,8.37,0,0,1-1.41-.76,2.53,2.53,0,0,1-.79-.87,2.5,2.5,0,0,1-.27-1.2,2.2,2.2,0,0,1,.38-1.26,2.54,2.54,0,0,1,1.08-.88,4,4,0,0,1,1.66-.32,5,5,0,0,1,1.32.18,6.55,6.55,0,0,1,1.2.45l-.45,1.06a6.36,6.36,0,0,0-.93-.37,3.62,3.62,0,0,0-1-.13,2.54,2.54,0,0,0-1.36.32,1,1,0,0,0-.52.92,1.28,1.28,0,0,0,.27.81,2.52,2.52,0,0,0,.76.62q.49.28,1.44.71a6.11,6.11,0,0,1,1.87,1.19,2.2,2.2,0,0,1,.59,1.6,2.28,2.28,0,0,1-.41,1.34,2.62,2.62,0,0,1-1.18.9,4.78,4.78,0,0,1-1.85.32,6.34,6.34,0,0,1-1.5-.22A3,3,0,0,1,351.94,469.06Z"/><path class="cls-2" d="M360.43,469.58v-9.52h1.34v9.52Z"/><path class="cls-2" d="M370.72,461.47a3.55,3.55,0,0,1,2.16.59,2,2,0,0,1,.79,1.67,3.05,3.05,0,0,1-.45,1.59,7.55,7.55,0,0,1-1.64,1.74l-1.78,1.48h4l.25,1H368v-.88l3-2.59a7.73,7.73,0,0,0,1.12-1.18,1.73,1.73,0,0,0,.36-1,1.16,1.16,0,0,0-.46-1,2.17,2.17,0,0,0-1.27-.33,3,3,0,0,0-1.13.19,10,10,0,0,0-1.06.53l-.32-1.08a6.29,6.29,0,0,1,1.13-.52A4.29,4.29,0,0,1,370.72,461.47Z"/><path class="cls-3" d="M292.58,475.61l-.37.89q-.58-.19-.86-.25a3.57,3.57,0,0,0-.73-.06,2,2,0,0,0-1.15.36,2.42,2.42,0,0,0-.81,1,3.63,3.63,0,0,0-.3,1.51,3.74,3.74,0,0,0,.26,1.42,2.39,2.39,0,0,0,.75,1,1.84,1.84,0,0,0,1.16.38,4.05,4.05,0,0,0,1.64-.34l.47.92a4.32,4.32,0,0,1-1,.33,5,5,0,0,1-1.07.13,3.45,3.45,0,0,1-1.91-.51,3.21,3.21,0,0,1-1.19-1.39,4.62,4.62,0,0,1-.4-2,4.55,4.55,0,0,1,.44-2,3.36,3.36,0,0,1,1.25-1.4,3.48,3.48,0,0,1,1.89-.51,4.81,4.81,0,0,1,1,.12A3.48,3.48,0,0,1,292.58,475.61Z"/><path class="cls-3" d="M299.3,475.61l-.37.89q-.58-.19-.86-.25a3.57,3.57,0,0,0-.73-.06,2,2,0,0,0-1.15.36,2.42,2.42,0,0,0-.81,1,3.63,3.63,0,0,0-.3,1.51,3.74,3.74,0,0,0,.26,1.42,2.39,2.39,0,0,0,.75,1,1.84,1.84,0,0,0,1.16.38,4.05,4.05,0,0,0,1.64-.34l.47.92a4.32,4.32,0,0,1-1,.33,5,5,0,0,1-1.07.13,3.45,3.45,0,0,1-1.91-.51,3.21,3.21,0,0,1-1.19-1.39,4.62,4.62,0,0,1-.4-2,4.55,4.55,0,0,1,.44-2,3.36,3.36,0,0,1,1.25-1.4,3.48,3.48,0,0,1,1.89-.51,4.81,4.81,0,0,1,1,.12A3.48,3.48,0,0,1,299.3,475.61Z"/><path class="cls-3" d="M306.38,476.28h-2.56v6.5h-1.25v-6.5h-2.35v-1h6Z"/><path class="cls-3" d="M310.6,481.1l2.16-5.8H314l-2.86,7.48H310l-2.89-7.4,1.23-.18Z"/><path class="cls-3" d="M320.59,482.85l-1,.35a6.66,6.66,0,0,1-1-1.88,6.19,6.19,0,0,1-.36-2.06,6.07,6.07,0,0,1,.35-2,7.68,7.68,0,0,1,1-1.94l1,.35a5.77,5.77,0,0,0-.83,1.7,6.18,6.18,0,0,0-.36,1.9,6.32,6.32,0,0,0,.36,1.95A5.06,5.06,0,0,0,320.59,482.85Z"/><path class="cls-3" d="M323.67,482.78h-1.23V475.3h2.23a3.49,3.49,0,0,1,2.1.58,2.06,2.06,0,0,1,.8,1.79,2.19,2.19,0,0,1-.41,1.35,2.43,2.43,0,0,1-1.09.81,4.06,4.06,0,0,1-1.49.26h-.9Zm1-6.45h-1v2.74h1a1.89,1.89,0,0,0,1.17-.33,1.46,1.46,0,0,0,.05-2.09A1.94,1.94,0,0,0,324.65,476.34Z"/><path class="cls-3" d="M329.39,482.78V475.3h4.33l.18,1h-3.28v2.23h2.49l.19,1h-2.67v2.34h3.56l.19,1Z"/><path class="cls-3" d="M336.11,482.78V475.3h1.17l3.67,5.27V475.3h1.24v7.48H341l-3.67-5.3v5.3Z"/><path class="cls-3" d="M347.38,479.72l.1-.95h2.62v3.62a3.9,3.9,0,0,1-1,.39,5.08,5.08,0,0,1-1.23.15,3.79,3.79,0,0,1-2-.51,3.37,3.37,0,0,1-1.3-1.39,4.23,4.23,0,0,1-.45-2,4.13,4.13,0,0,1,.5-2,3.56,3.56,0,0,1,1.39-1.4,4,4,0,0,1,2-.5,5.09,5.09,0,0,1,1,.12,3.63,3.63,0,0,1,1,.34l-.38.89q-.59-.19-.86-.25a3.41,3.41,0,0,0-.72-.06,2.65,2.65,0,0,0-1.31.33,2.38,2.38,0,0,0-.95,1,3.26,3.26,0,0,0-.35,1.57,3.37,3.37,0,0,0,.31,1.48,2.33,2.33,0,0,0,.85,1,2.27,2.27,0,0,0,1.25.35,4.43,4.43,0,0,0,1.16-.15v-2Z"/><path class="cls-3" d="M355.24,475.3l2.88,7.4-1.22.18-.74-2h-2.94l-.71,1.88h-1.22l2.86-7.48Zm-.57,1.68-1.09,2.92h2.21Z"/><path class="cls-3" d="M368.67,475.3l-2.21,7.48h-1.08l-1.61-5.72-1.57,5.72h-1.08l-2.23-7.4,1.23-.18,1.56,5.9,1.5-5.8h1.22l1.54,5.8,1.5-5.8Z"/><path class="cls-3" d="M373.39,475.3l2.88,7.4-1.22.18-.74-2h-2.94l-.71,1.88h-1.22l2.86-7.48Zm-.57,1.68-1.09,2.92h2.21Z"/><path class="cls-3" d="M377.48,482.33l.28-1a5.53,5.53,0,0,0,.89.34,3.39,3.39,0,0,0,1,.15,2.06,2.06,0,0,0,1.11-.25.78.78,0,0,0,.38-.7.77.77,0,0,0-.21-.52,2.1,2.1,0,0,0-.53-.42q-.33-.19-.94-.5a6.23,6.23,0,0,1-1.56-1.05,1.77,1.77,0,0,1-.52-1.3,1.75,1.75,0,0,1,.3-1,2,2,0,0,1,.87-.7,3.19,3.19,0,0,1,1.34-.26,3.9,3.9,0,0,1,1.05.15,5.49,5.49,0,0,1,1,.38l-.42,1a5.84,5.84,0,0,0-.78-.31,2.75,2.75,0,0,0-.81-.11,1.78,1.78,0,0,0-.93.22.71.71,0,0,0-.36.65.84.84,0,0,0,.19.54,1.82,1.82,0,0,0,.51.42q.31.18,1,.52a10.63,10.63,0,0,1,1.13.65,2.54,2.54,0,0,1,.69.7,1.72,1.72,0,0,1,.27,1,1.81,1.81,0,0,1-.32,1.06,2.07,2.07,0,0,1-.94.72,3.87,3.87,0,0,1-1.49.26,4.52,4.52,0,0,1-1.17-.19A3.22,3.22,0,0,1,377.48,482.33Z"/><path class="cls-3" d="M387.28,475.3l2.88,7.4-1.22.18-.74-2h-2.94l-.71,1.88h-1.22l2.86-7.48Zm-.57,1.68-1.09,2.92h2.21Z"/><path class="cls-3" d="M391.79,482.78V475.3H393l3.67,5.27V475.3h1.24v7.48H396.7l-3.67-5.3v5.3Z"/><path class="cls-3" d="M399.72,475.66l1-.36a6.81,6.81,0,0,1,1,1.9,6.25,6.25,0,0,1,.36,2.06,6,6,0,0,1-.35,2,7.91,7.91,0,0,1-1,1.95l-1-.34a5.7,5.7,0,0,0,.83-1.7,6.27,6.27,0,0,0,.35-1.9,6.43,6.43,0,0,0-.36-1.94A5,5,0,0,0,399.72,475.66Z"/><rect class="cls-1" x="488.97" y="442.37" width="200" height="60.04" rx="4" ry="4"/><path class="cls-2" d="M565.92,469.58l-3.35-4.38-1,1.09v3.29h-1.34v-9.52h1.34v4.41l4.34-4.62,1,.78-3.37,3.6,4.09,5.35Z"/><path class="cls-2" d="M573.51,459.84a4.35,4.35,0,0,1,4,2.39,5.82,5.82,0,0,1,0,5.08,4.55,4.55,0,0,1-1.63,1.79,4.42,4.42,0,0,1-2.36.67,4.31,4.31,0,0,1-3.93-2.38,5.82,5.82,0,0,1,0-5.08,4.57,4.57,0,0,1,1.62-1.79A4.46,4.46,0,0,1,573.51,459.84Zm-3.15,5a4.6,4.6,0,0,0,.4,1.95,3.22,3.22,0,0,0,1.11,1.35,2.75,2.75,0,0,0,1.59.48,2.81,2.81,0,0,0,1.63-.5,3.31,3.31,0,0,0,1.13-1.38,4.7,4.7,0,0,0,.41-2,4.56,4.56,0,0,0-.4-1.94,3.25,3.25,0,0,0-1.1-1.34,2.72,2.72,0,0,0-1.58-.48,2.84,2.84,0,0,0-1.64.5,3.3,3.3,0,0,0-1.13,1.37A4.65,4.65,0,0,0,570.36,464.85Z"/><path class="cls-2" d="M584.54,466.53l-2.63-3.68v6.73h-1.34v-9.52h.83l3.35,4.7,3.18-4.7h.84v9.52h-1.36V463L585,466.46Z"/><path class="cls-2" d="M592,469.58v-9.52h1.34v9.52Z"/><path class="cls-2" d="M596,469.06l.31-1.06a5.47,5.47,0,0,0,1.11.42,4.67,4.67,0,0,0,1.25.18,2.72,2.72,0,0,0,1.54-.37,1.15,1.15,0,0,0,.55-1,1.24,1.24,0,0,0-.27-.79,2.67,2.67,0,0,0-.78-.63q-.5-.29-1.4-.68a8.37,8.37,0,0,1-1.41-.76,2.53,2.53,0,0,1-.79-.87,2.5,2.5,0,0,1-.27-1.2,2.2,2.2,0,0,1,.38-1.26,2.54,2.54,0,0,1,1.08-.88,4,4,0,0,1,1.66-.32,5,5,0,0,1,1.32.18,6.55,6.55,0,0,1,1.2.45l-.45,1.06a6.36,6.36,0,0,0-.93-.37,3.63,3.63,0,0,0-1-.13,2.54,2.54,0,0,0-1.36.32,1,1,0,0,0-.52.92,1.28,1.28,0,0,0,.27.81,2.52,2.52,0,0,0,.76.62q.49.28,1.44.71a6.11,6.11,0,0,1,1.87,1.19,2.2,2.2,0,0,1,.59,1.6,2.28,2.28,0,0,1-.41,1.34,2.62,2.62,0,0,1-1.18.9,4.78,4.78,0,0,1-1.85.32,6.34,6.34,0,0,1-1.5-.22A3,3,0,0,1,596,469.06Z"/><path class="cls-2" d="M604.49,469.58v-9.52h1.34v9.52Z"/><path class="cls-2" d="M614.76,461.47a3.48,3.48,0,0,1,1.57.32,2.32,2.32,0,0,1,1,.86,2.2,2.2,0,0,1,.33,1.17,2,2,0,0,1-.41,1.22,2.14,2.14,0,0,1-1,.76,1.84,1.84,0,0,1,1.08.75,2.35,2.35,0,0,1,.46,1.45,2.42,2.42,0,0,1-.4,1.35,2.67,2.67,0,0,1-1.13,1,4,4,0,0,1-1.7.34,4.93,4.93,0,0,1-1.47-.23,8.33,8.33,0,0,1-1.39-.57l.69-.92a4.9,4.9,0,0,0,1.05.48,3.91,3.91,0,0,0,1.15.15,2.19,2.19,0,0,0,1.34-.43,1.32,1.32,0,0,0,.57-1.11,1.46,1.46,0,0,0-.59-1.23,3.06,3.06,0,0,0-1.84-.45h-.42l-.2-1h.7a2.8,2.8,0,0,0,1.6-.4,1.22,1.22,0,0,0,.59-1.06,1.15,1.15,0,0,0-.45-.91,1.76,1.76,0,0,0-1.18-.38,3.33,3.33,0,0,0-1.18.21,4.4,4.4,0,0,0-1,.5l-.64-.9A5.16,5.16,0,0,1,614.76,461.47Z"/><path class="cls-3" d="M533.33,475.3l2.88,7.4-1.22.18-.74-2h-2.94l-.71,1.88h-1.22l2.86-7.48Zm-.57,1.68-1.09,2.92h2.21Z"/><path class="cls-3" d="M537.42,482.33l.28-1a5.53,5.53,0,0,0,.89.34,3.39,3.39,0,0,0,1,.15,2.06,2.06,0,0,0,1.11-.25.79.79,0,0,0,.39-.7.77.77,0,0,0-.21-.52,2.11,2.11,0,0,0-.53-.42q-.32-.19-.94-.5a6.22,6.22,0,0,1-1.56-1.05,1.77,1.77,0,0,1-.52-1.3,1.75,1.75,0,0,1,.3-1,2,2,0,0,1,.87-.7,3.2,3.2,0,0,1,1.34-.26,3.9,3.9,0,0,1,1.05.15,5.5,5.5,0,0,1,1,.38l-.42,1a5.87,5.87,0,0,0-.78-.31,2.75,2.75,0,0,0-.81-.11,1.78,1.78,0,0,0-.94.22.71.71,0,0,0-.36.65.84.84,0,0,0,.19.54,1.82,1.82,0,0,0,.51.42q.31.18,1,.52a10.59,10.59,0,0,1,1.13.65,2.53,2.53,0,0,1,.69.7,1.72,1.72,0,0,1,.27,1,1.82,1.82,0,0,1-.32,1.06,2.07,2.07,0,0,1-.94.72,3.87,3.87,0,0,1-1.49.26,4.52,4.52,0,0,1-1.17-.19A3.22,3.22,0,0,1,537.42,482.33Z"/><path class="cls-3" d="M545.36,482.78h-1.23V475.3h2.23a3.49,3.49,0,0,1,2.1.58,2.06,2.06,0,0,1,.8,1.79,2.19,2.19,0,0,1-.41,1.35,2.43,2.43,0,0,1-1.09.81,4.06,4.06,0,0,1-1.49.26h-.9Zm1-6.45h-1v2.74h1a1.89,1.89,0,0,0,1.17-.33,1.46,1.46,0,0,0,.05-2.09A1.94,1.94,0,0,0,546.34,476.34Z"/><path class="cls-3" d="M551.08,482.78V475.3h1.23v7.48Z"/><path class="cls-3" d="M554.79,475.3H557a3.55,3.55,0,0,1,2.09.57,1.93,1.93,0,0,1,.8,1.69,2,2,0,0,1-.35,1.2,2.24,2.24,0,0,1-.94.77l1.86,3.26h-1.33l-1.63-2.95a4.23,4.23,0,0,1-.6,0H556v2.92h-1.23Zm2.21,1h-1v2.52h1a2.13,2.13,0,0,0,1.19-.3,1.05,1.05,0,0,0,.45-.95,1.12,1.12,0,0,0-.42-1A2.05,2.05,0,0,0,557,476.34Z"/><path class="cls-3" d="M565.21,475.3l2.88,7.4-1.22.18-.74-2h-2.94l-.71,1.88h-1.22l2.86-7.48Zm-.57,1.68-1.09,2.92h2.21Z"/><path class="cls-3" d="M569.3,482.33l.28-1a5.53,5.53,0,0,0,.89.34,3.39,3.39,0,0,0,1,.15,2.06,2.06,0,0,0,1.11-.25.79.79,0,0,0,.39-.7.77.77,0,0,0-.21-.52,2.11,2.11,0,0,0-.53-.42q-.32-.19-.94-.5a6.22,6.22,0,0,1-1.56-1.05,1.77,1.77,0,0,1-.52-1.3,1.75,1.75,0,0,1,.3-1,2,2,0,0,1,.87-.7,3.2,3.2,0,0,1,1.34-.26,3.9,3.9,0,0,1,1.05.15,5.5,5.5,0,0,1,1,.38l-.42,1a5.87,5.87,0,0,0-.78-.31,2.75,2.75,0,0,0-.81-.11,1.78,1.78,0,0,0-.94.22.71.71,0,0,0-.36.65.84.84,0,0,0,.19.54,1.82,1.82,0,0,0,.51.42q.31.18,1,.52a10.59,10.59,0,0,1,1.13.65,2.53,2.53,0,0,1,.69.7,1.72,1.72,0,0,1,.27,1,1.82,1.82,0,0,1-.32,1.06,2.07,2.07,0,0,1-.94.72,3.87,3.87,0,0,1-1.49.26,4.52,4.52,0,0,1-1.17-.19A3.22,3.22,0,0,1,569.3,482.33Z"/><path class="cls-3" d="M576,482.78V475.3h1.23v7.48Z"/><path class="cls-3" d="M585.93,480.45,584,477.84v4.94h-1.23V475.3h.77l2.57,3.58,2.41-3.58h.76v7.48H588V478l-1.63,2.37Z"/><path class="cls-3" d="M594.85,475.3l2.88,7.4-1.22.18-.74-2h-2.94l-.71,1.88H590.9l2.86-7.48Zm-.57,1.68-1.09,2.92h2.21Z"/><path class="cls-3" d="M603.73,482.78v-3.26h-3.13v3.26h-1.23V475.3l1.23-.06v3.29h3.13V475.3H605v7.48Z"/><path class="cls-3" d="M610.54,475.3l2.88,7.4-1.22.18-.74-2h-2.94l-.71,1.88h-1.22l2.86-7.48ZM610,477l-1.09,2.92h2.21Z"/><path class="cls-3" d="M614.63,482.33l.28-1a5.53,5.53,0,0,0,.89.34,3.39,3.39,0,0,0,1,.15,2.06,2.06,0,0,0,1.11-.25.78.78,0,0,0,.38-.7.77.77,0,0,0-.21-.52,2.1,2.1,0,0,0-.53-.42q-.33-.19-.94-.5A6.23,6.23,0,0,1,615,478.4a1.77,1.77,0,0,1-.52-1.3,1.75,1.75,0,0,1,.3-1,2,2,0,0,1,.87-.7,3.19,3.19,0,0,1,1.34-.26,3.9,3.9,0,0,1,1.05.15,5.49,5.49,0,0,1,1,.38l-.42,1a5.84,5.84,0,0,0-.78-.31,2.75,2.75,0,0,0-.81-.11,1.78,1.78,0,0,0-.93.22.71.71,0,0,0-.36.65.84.84,0,0,0,.19.54,1.82,1.82,0,0,0,.51.42q.31.18,1,.52a10.63,10.63,0,0,1,1.13.65,2.54,2.54,0,0,1,.69.7,1.72,1.72,0,0,1,.27,1,1.81,1.81,0,0,1-.32,1.06,2.07,2.07,0,0,1-.94.72,3.87,3.87,0,0,1-1.49.26,4.52,4.52,0,0,1-1.17-.19A3.22,3.22,0,0,1,614.63,482.33Z"/><path class="cls-3" d="M621.34,482.78V475.3h1.23v7.48Z"/><path class="cls-3" d="M624.63,482.33l.28-1a5.53,5.53,0,0,0,.89.34,3.39,3.39,0,0,0,1,.15,2.06,2.06,0,0,0,1.11-.25.78.78,0,0,0,.38-.7.77.77,0,0,0-.21-.52,2.1,2.1,0,0,0-.53-.42q-.33-.19-.94-.5A6.23,6.23,0,0,1,625,478.4a1.77,1.77,0,0,1-.52-1.3,1.75,1.75,0,0,1,.3-1,2,2,0,0,1,.87-.7,3.19,3.19,0,0,1,1.34-.26,3.9,3.9,0,0,1,1.05.15,5.49,5.49,0,0,1,1,.38l-.42,1a5.84,5.84,0,0,0-.78-.31,2.75,2.75,0,0,0-.81-.11,1.78,1.78,0,0,0-.93.22.71.71,0,0,0-.36.65.84.84,0,0,0,.19.54,1.82,1.82,0,0,0,.51.42q.31.18,1,.52a10.63,10.63,0,0,1,1.13.65,2.54,2.54,0,0,1,.69.7,1.72,1.72,0,0,1,.27,1,1.81,1.81,0,0,1-.32,1.06,2.07,2.07,0,0,1-.94.72,3.87,3.87,0,0,1-1.49.26,4.52,4.52,0,0,1-1.17-.19A3.22,3.22,0,0,1,624.63,482.33Z"/><path class="cls-3" d="M640.26,475.3,638,482.78H637l-1.61-5.72-1.57,5.72h-1.08l-2.23-7.4,1.23-.18,1.56,5.9,1.5-5.8H636l1.54,5.8,1.5-5.8Z"/><path class="cls-3" d="M645,475.3l2.88,7.4-1.22.18-.74-2H643l-.71,1.88H641l2.86-7.48Zm-.57,1.68-1.09,2.92h2.21Z"/><path class="cls-4" d="M100.28,223.08v-77a10,10,0,0,1,10-10h716a10,10,0,0,1,10,10v77"/><line class="cls-4" x1="588.28" y1="223.08" x2="588.28" y2="136.08"/><line class="cls-4" x1="468.28" y1="50.08" x2="468.28" y2="136.08"/><line class="cls-4" x1="345.28" y1="136.08" x2="345.28" y2="441.08"/><path class="cls-4" d="M100.28,441.08v-72a10,10,0,0,1,10-10h468a10,10,0,0,1,10,10v72"/><circle class="cls-5" cx="100.74" cy="223.77" r="5"/><circle class="cls-5" cx="588.04" cy="223.77" r="5"/><circle class="cls-5" cx="836.2" cy="223.77" r="5"/><circle class="cls-5" cx="468.97" cy="50.66" r="5"/><circle class="cls-5" cx="100.74" cy="441.91" r="5"/><circle class="cls-5" cx="345.89" cy="441.91" r="5"/><circle class="cls-5" cx="589.04" cy="441.91" r="5"/></g></g></svg>