<?xml version="1.0" encoding="utf-8"?>
<!-- Generator: Adobe Illustrator 22.0.0, SVG Export Plug-In . SVG Version: 6.00 Build 0)  -->
<svg version="1.1" id="Layer_1" xmlns="http://www.w3.org/2000/svg" xmlns:xlink="http://www.w3.org/1999/xlink" x="0px" y="0px"
	 viewBox="0 0 1520 638.6" style="enable-background:new 0 0 1520 638.6;" xml:space="preserve">
<style type="text/css">
	.st0{fill:none;stroke:#262F49;stroke-width:2;stroke-miterlimit:10;}
	.st1{fill:none;stroke:#262F49;stroke-width:2;stroke-miterlimit:10;stroke-dasharray:8;}
	.st2{fill:none;stroke:#353E68;stroke-width:2;stroke-miterlimit:10;}
	.st3{fill:#C3C7DB;}
	.st4{fill:#F6871E;}
	.st5{fill:#025EB7;}
	.st6{fill:#4D5D7C;}
</style>
<title>Asset 17</title>
<g id="Layer_1_copy_7">
	<path class="st0" d="M370.3,462.7"/>
	<line class="st0" x1="370.4" y1="394.9" x2="370.3" y2="316.7"/>
	<line class="st0" x1="633.2" y1="394.6" x2="633.2" y2="316.7"/>
	<line class="st0" x1="886" y1="394.6" x2="886" y2="316.7"/>
	<line class="st0" x1="1148.5" y1="394.6" x2="1148.5" y2="316.7"/>
	<line class="st0" x1="760.7" y1="51" x2="760.8" y2="318.5"/>
	<path class="st0" d="M542.5,162l-0.3-25c-0.1-5.5,4.4-10,9.9-10.1c0,0,0.1,0,0.1,0h208.6"/>
	<path class="st0" d="M981.5,126.9V95.7c0-5.5-4.5-10-10-10H760.8"/>
	<path class="st0" d="M108.2,394.4v-67.7c0-5.5,4.5-10,10-10h1283c5.5,0,10,4.5,10,10l-0.2,68.1"/>
	<line class="st1" x1="1160.2" y1="394.6" x2="1160.2" y2="328.7"/>
	<line class="st1" x1="896.8" y1="394.6" x2="896.8" y2="328.7"/>
	<line class="st1" x1="645.5" y1="394.6" x2="645.5" y2="328.7"/>
	<line class="st1" x1="382.8" y1="394.6" x2="382.8" y2="328.7"/>
	<path class="st1" d="M772.2,328.7"/>
	<line class="st1" x1="772.2" y1="51.1" x2="772.2" y2="328.7"/>
	<path class="st1" d="M970.2,127.1v-19.7c0-5.5-4.5-10-10-10h-188"/>
	<path class="st1" d="M554.2,162v-13.9c0-5.5,4.5-10,10-10h208"/>
	<path class="st1" d="M1422.6,394.4v-55.7c0-5.5-4.5-10-10-10H130.2c-5.5,0-10,4.5-10,10v55.7"/>
	<path class="st2" d="M660.2,1h202c2.2,0,4,1.8,4,4v42c0,2.2-1.8,4-4,4h-202c-2.2,0-4-1.8-4-4V5C656.2,2.8,658,1,660.2,1z"/>
	<path class="st3" d="M721.3,30.1l-3.3-4.4l-1,1.1v3.3h-1.3v-9.5h1.3V25l4.3-4.6l1,0.8l-3.4,3.6l4.1,5.4L721.3,30.1z"/>
	<path class="st3" d="M725,30.1v-9.5h5.4l0.2,1h-4.2v3.1h3.2l0.2,1h-3.4V29h4.5l0.2,1L725,30.1z"/>
	<path class="st3" d="M739.9,21.7h-3.3v8.5h-1.4v-8.5h-3.1v-1.1h7.5L739.9,21.7z"/>
	<path class="st3" d="M743.2,20.6v6c0,0.7,0.2,1.4,0.7,1.9c0.4,0.5,1.1,0.7,1.7,0.7c0.6,0,1.3-0.2,1.7-0.7c0.4-0.5,0.7-1.2,0.6-1.9
		v-6h1.4v6.1c0,0.6-0.1,1.3-0.5,1.8c-0.3,0.5-0.7,1-1.3,1.3c-0.6,0.3-1.3,0.5-2,0.5c-0.7,0-1.4-0.1-2-0.5c-0.5-0.3-1-0.7-1.3-1.3
		c-0.3-0.6-0.5-1.2-0.5-1.8v-6.1H743.2z"/>
	<path class="st3" d="M756.1,20.6l3.7,9.4l-1.3,0.2l-1-2.7h-3.9l-1,2.5h-1.3l3.6-9.5L756.1,20.6z M755.4,22.4l-1.5,4.1h3.1
		L755.4,22.4z"/>
	<path class="st3" d="M767,20.6v6c0,0.7,0.2,1.4,0.7,1.9c0.4,0.5,1.1,0.7,1.7,0.7c0.6,0,1.3-0.2,1.7-0.7c0.4-0.5,0.7-1.2,0.6-1.9v-6
		h1.3v6.1c0,0.6-0.1,1.3-0.5,1.8c-0.3,0.5-0.7,1-1.3,1.3c-0.6,0.3-1.3,0.5-2,0.5c-0.7,0-1.4-0.1-2-0.5c-0.5-0.3-1-0.7-1.3-1.3
		c-0.3-0.6-0.5-1.2-0.5-1.8v-6.1H767z"/>
	<path class="st3" d="M780.1,27.1l-2.6-3.7v6.7h-1.3v-9.5h0.8l3.3,4.7l3.2-4.7h0.8v9.5H783v-6.6l-2.4,3.5L780.1,27.1z"/>
	<path class="st3" d="M788.7,20.6v6c0,0.7,0.2,1.4,0.7,1.9c0.4,0.5,1.1,0.7,1.7,0.7c0.6,0,1.3-0.2,1.7-0.7c0.4-0.5,0.7-1.2,0.6-1.9
		v-6h1.4v6.1c0,0.6-0.1,1.3-0.5,1.8c-0.3,0.5-0.7,1-1.3,1.3c-0.6,0.3-1.3,0.5-2,0.5c-0.7,0-1.4-0.1-2-0.5c-0.5-0.3-1-0.7-1.3-1.3
		c-0.3-0.6-0.5-1.2-0.5-1.8v-6.1H788.7z"/>
	<path class="st3" d="M801.9,27.1l-2.6-3.7v6.7h-1.3v-9.5h0.8l3.3,4.7l3.2-4.7h0.8v9.5h-1.4v-6.6l-2.4,3.5L801.9,27.1z"/>
	<circle class="st4" cx="760.7" cy="51" r="5"/>
	<path class="st2" d="M441.2,162h202c2.2,0,4,1.8,4,4v56.7c0,2.2-1.8,4-4,4h-202c-2.2,0-4-1.8-4-4V166
		C437.2,163.8,439,162,441.2,162z"/>
	<path class="st3" d="M468.6,199.1h-3.3v-9.5h3c2.2,0,3.3,0.9,3.3,2.6c-0.1,0.8-0.5,1.5-1.2,1.8c0.5,0.2,0.9,0.5,1.3,0.9
		c0.3,0.4,0.5,0.9,0.5,1.5c0,0.8-0.3,1.5-0.9,2C470.4,198.9,469.5,199.1,468.6,199.1z M468.1,190.7h-1.5v2.9h1.3
		c0.6,0,1.1-0.1,1.6-0.4c0.4-0.2,0.6-0.7,0.6-1.1c0-0.4-0.1-0.9-0.5-1.1C469.2,190.8,468.7,190.7,468.1,190.7z M468.6,194.7h-2v3.3
		h1.9c0.6,0,1.1-0.1,1.6-0.4c0.4-0.3,0.6-0.7,0.6-1.2c0-0.5-0.2-0.9-0.5-1.3C469.7,194.8,469.2,194.7,468.6,194.7L468.6,194.7z"/>
	<path class="st3" d="M474.4,199.1v-9.5h5.4l0.2,1h-4.2v3.1h3.3l0.2,1h-3.4v3.3h4.5l0.2,1L474.4,199.1z"/>
	<path class="st3" d="M482.7,199.1v-9.5h1.2l4.9,7v-7h1.4v9.5H489l-5-7.1v7.1H482.7z"/>
	<path class="st3" d="M496.8,199.1h-3.4v-9.5h3.4c1.2-0.1,2.4,0.4,3.2,1.3c0.7,1,1.1,2.2,1.1,3.4c0,0.9-0.2,1.7-0.5,2.5
		c-0.3,0.7-0.8,1.3-1.5,1.7C498.4,198.9,497.6,199.1,496.8,199.1z M496.9,190.7h-2.1v7.3h2c0.8,0,1.6-0.3,2.1-1
		c0.6-0.8,0.9-1.7,0.8-2.7c0-0.9-0.2-1.8-0.7-2.6C498.5,191,497.7,190.7,496.9,190.7L496.9,190.7z"/>
	<path class="st3" d="M507.3,189.6l3.7,9.4l-1.3,0.2l-1-2.7h-3.9l-1,2.6h-1.3l3.6-9.5L507.3,189.6z M506.6,191.4l-1.5,4.1h3.1
		L506.6,191.4z"/>
	<path class="st3" d="M518.6,199.1v-4.2h-4.2v4.2H513v-9.5l1.3-0.1v4.3h4.2v-4.2h1.4v9.5H518.6z"/>
	<path class="st3" d="M526.9,189.6l3.7,9.4l-1.3,0.2l-1-2.7h-3.9l-1,2.6H522l3.6-9.5L526.9,189.6z M526.2,191.4l-1.5,4.1h3.1
		L526.2,191.4z"/>
	<path class="st3" d="M532.6,189.6h2.7c0.9,0,1.8,0.2,2.6,0.7c0.7,0.5,1.1,1.3,1,2.1c0,0.5-0.2,1.1-0.5,1.5c-0.3,0.4-0.7,0.8-1.2,1
		l2.4,4.2h-1.5l-2.1-3.9c-0.3,0-0.6,0-0.9,0H534v3.8h-1.3L532.6,189.6z M535.4,190.7H534v3.5h1.3c0.6,0,1.1-0.1,1.6-0.4
		c0.4-0.3,0.7-0.8,0.6-1.3c0-0.5-0.2-1-0.6-1.4C536.5,190.8,535.9,190.7,535.4,190.7L535.4,190.7z"/>
	<path class="st3" d="M545.5,189.6l3.7,9.4l-1.3,0.2l-1-2.7h-3.9l-1,2.6h-1.3l3.6-9.5L545.5,189.6z M544.8,191.4l-1.5,4.1h3.1
		L544.8,191.4z"/>
	<path class="st3" d="M560.6,190l-0.5,1.1l-0.4-0.2c-0.2-0.1-0.4-0.2-0.6-0.3c-0.3-0.1-0.6-0.1-0.9-0.1c-0.4,0-0.7,0.1-1,0.4
		c-0.2,0.2-0.4,0.6-0.4,0.9c0,0.4,0.1,0.7,0.3,1c0.3,0.4,0.6,0.8,1,1.1l2.6,2.4c0.3-0.7,0.5-1.5,0.5-2.3l1.2,0.4
		c0,1-0.3,1.9-0.7,2.7l1.1,1l-0.8,1l-1.1-1c-0.8,0.7-1.9,1.1-2.9,1.1c-0.6,0-1.3-0.1-1.9-0.4c-1.1-0.5-1.8-1.6-1.8-2.8
		c0-1.1,0.6-2.1,1.5-2.8c-0.3-0.4-0.4-0.9-0.4-1.4c0-0.5,0.1-0.9,0.3-1.3c0.2-0.4,0.6-0.7,1-0.9c0.4-0.2,1-0.4,1.5-0.4
		c0.4,0,0.8,0.1,1.2,0.2C559.9,189.7,560.2,189.8,560.6,190z M560.1,197.3l-2.7-2.5c-0.2-0.2-0.4-0.4-0.6-0.6
		c-0.3,0.2-0.5,0.5-0.6,0.8c-0.2,0.3-0.2,0.7-0.3,1.1c0,0.6,0.2,1.1,0.7,1.5c0.5,0.3,1,0.5,1.6,0.5
		C558.9,198.1,559.6,197.8,560.1,197.3L560.1,197.3z"/>
	<path class="st3" d="M572.9,189.6l3.7,9.4l-1.3,0.2l-1-2.7h-3.9l-1,2.6H568l3.6-9.5L572.9,189.6z M572.3,191.4l-1.5,4.1h3.1
		L572.3,191.4z"/>
	<path class="st3" d="M579.9,189.6v6c0,0.7,0.2,1.4,0.7,1.9c0.4,0.5,1.1,0.7,1.7,0.7c0.6,0,1.3-0.2,1.7-0.7c0.4-0.5,0.7-1.2,0.6-1.9
		v-6h1.4v6.1c0,0.6-0.1,1.3-0.5,1.8c-0.3,0.5-0.7,1-1.3,1.3c-0.6,0.3-1.3,0.5-2,0.5c-0.7,0-1.4-0.1-2-0.4c-0.5-0.3-1-0.7-1.3-1.3
		c-0.3-0.6-0.5-1.2-0.5-1.8v-6.1L579.9,189.6z"/>
	<path class="st3" d="M592.4,199.1H589v-9.5h3.4c1.2-0.1,2.4,0.4,3.2,1.3c0.7,1,1.1,2.2,1.1,3.4c0,0.9-0.2,1.7-0.5,2.5
		c-0.3,0.7-0.8,1.3-1.5,1.7C594,198.9,593.2,199.1,592.4,199.1z M592.5,190.7h-2.1v7.3h2c0.8,0,1.6-0.3,2.1-1
		c0.6-0.8,0.9-1.7,0.8-2.7c0-0.9-0.2-1.8-0.7-2.6C594.1,191,593.3,190.7,592.5,190.7L592.5,190.7z"/>
	<path class="st3" d="M599.2,199.1v-9.5h1.3v9.5H599.2z"/>
	<path class="st3" d="M610.4,190.6h-3.3v8.5h-1.4v-8.5h-3.1v-1.1h7.5L610.4,190.6z"/>
	<circle class="st4" cx="542.5" cy="162" r="5"/>
	<path class="st2" d="M880.3,127.1h202c2.2,0,4,1.8,4,4v42c0,2.2-1.8,4-4,4h-202c-2.2,0-4-1.8-4-4v-42
		C876.3,128.9,878.1,127.1,880.3,127.1z"/>
	<path class="st3" d="M1004.3,146.7v6c0,0.7,0.2,1.4,0.7,1.9c0.4,0.5,1.1,0.7,1.7,0.7c0.6,0,1.3-0.2,1.7-0.7
		c0.4-0.5,0.7-1.2,0.6-1.9v-6h1.4v6.1c0,0.6-0.1,1.3-0.5,1.8c-0.3,0.5-0.7,1-1.3,1.3c-0.6,0.3-1.3,0.5-2,0.5c-0.7,0-1.4-0.1-2-0.4
		c-0.5-0.3-1-0.7-1.3-1.3c-0.3-0.6-0.5-1.2-0.5-1.8v-6.1L1004.3,146.7z"/>
	<path class="st3" d="M1017.5,153.1l-2.6-3.7v6.7h-1.3v-9.5h0.8l3.3,4.7l3.2-4.7h0.8v9.5h-1.4v-6.6l-2.4,3.5L1017.5,153.1z"/>
	<path class="st3" d="M1026.1,146.7v6c0,0.7,0.2,1.4,0.7,1.9c0.4,0.5,1.1,0.7,1.7,0.7c0.6,0,1.3-0.2,1.7-0.7
		c0.4-0.5,0.7-1.2,0.6-1.9v-6h1.4v6.1c0,0.6-0.1,1.3-0.5,1.8c-0.3,0.5-0.7,1-1.3,1.3c-0.6,0.3-1.3,0.5-2,0.5c-0.7,0-1.4-0.1-2-0.4
		c-0.5-0.3-1-0.7-1.3-1.3c-0.3-0.6-0.5-1.2-0.5-1.8v-6.1L1026.1,146.7z"/>
	<path class="st3" d="M1039.3,153.1l-2.6-3.7v6.7h-1.3v-9.5h0.8l3.3,4.7l3.2-4.7h0.8v9.5h-1.4v-6.6l-2.4,3.5L1039.3,153.1z"/>
	<circle class="st4" cx="981.8" cy="127" r="5"/>
	<path class="st2" d="M5,394.6h207c2.2,0,4,1.8,4,4v60.2c0,2.2-1.8,4-4,4H5c-2.2,0-4-1.8-4-4v-60.2C1,396.4,2.8,394.6,5,394.6z"/>
	<path class="st3" d="M86.4,416.4l3.7,9.4l-1.3,0.2l-1-2.7h-3.9l-1,2.5h-1.3l3.6-9.5L86.4,416.4z M85.8,418.2l-1.5,4.1h3.1
		L85.8,418.2z"/>
	<path class="st3" d="M95.6,425.9h-3.4v-9.5h3.4c1.2-0.1,2.4,0.4,3.2,1.3c0.7,1,1.1,2.2,1.1,3.4c0,0.9-0.2,1.7-0.5,2.5
		c-0.3,0.7-0.8,1.3-1.5,1.7C97.2,425.7,96.4,425.9,95.6,425.9z M95.7,417.5h-2.1v7.3h2c0.8,0,1.6-0.3,2.1-1c0.6-0.8,0.9-1.7,0.8-2.7
		c0-0.9-0.2-1.8-0.7-2.6C97.3,417.8,96.5,417.5,95.7,417.5L95.7,417.5z"/>
	<path class="st3" d="M108.1,425.9l-3.3-4.4l-1,1.1v3.3h-1.3v-9.5h1.3v4.4l4.3-4.6l1,0.8l-3.4,3.6l4.1,5.4L108.1,425.9z"/>
	<path class="st3" d="M111.8,425.9v-9.5h5.4l0.2,1h-4.2v3.1h3.2l0.2,1h-3.4v3.3h4.5l0.2,1L111.8,425.9z"/>
	<path class="st3" d="M119.6,425.4l0.3-1.1c0.4,0.2,0.7,0.3,1.1,0.4c0.4,0.1,0.8,0.2,1.3,0.2c0.5,0,1.1-0.1,1.5-0.4
		c0.3-0.2,0.6-0.6,0.6-1c0-0.3-0.1-0.6-0.3-0.8c-0.2-0.3-0.5-0.5-0.8-0.6c-0.3-0.2-0.8-0.4-1.4-0.7c-0.5-0.2-1-0.5-1.4-0.8
		c-0.7-0.5-1.1-1.2-1.1-2.1c0-0.4,0.1-0.9,0.4-1.3c0.3-0.4,0.6-0.7,1.1-0.9c0.5-0.2,1.1-0.3,1.7-0.3c0.4,0,0.9,0.1,1.3,0.2
		c0.4,0.1,0.8,0.3,1.2,0.5l-0.4,1.1c-0.3-0.1-0.6-0.3-0.9-0.4c-0.3-0.1-0.7-0.1-1-0.1c-0.5,0-0.9,0.1-1.4,0.3
		c-0.3,0.2-0.5,0.5-0.5,0.9c0,0.3,0.1,0.6,0.3,0.8c0.2,0.3,0.5,0.5,0.8,0.6c0.3,0.2,0.8,0.4,1.4,0.7c0.7,0.3,1.3,0.7,1.9,1.2
		c0.4,0.4,0.6,1,0.6,1.6c0,0.5-0.1,0.9-0.4,1.3c-0.3,0.4-0.7,0.7-1.2,0.9c-0.6,0.2-1.2,0.3-1.8,0.3c-0.5,0-1-0.1-1.5-0.2
		C120.4,425.8,120,425.6,119.6,425.4z"/>
	<path class="st3" d="M134.7,417.4h-3.3v8.5H130v-8.5h-3v-1.1h7.6L134.7,417.4z"/>
	<path class="st5" d="M13.4,431.6l2.9,7.4l-1.2,0.2l-0.7-2h-2.9l-0.7,1.9H9.4l2.9-7.5L13.4,431.6z M12.8,433.3l-1.1,2.9h2.2
		L12.8,433.3z"/>
	<path class="st5" d="M20.6,439.1h-2.7v-7.5h2.8c1-0.1,1.9,0.3,2.5,1c0.6,0.8,0.9,1.7,0.9,2.7c0,0.7-0.1,1.4-0.4,2
		c-0.2,0.6-0.7,1-1.2,1.3C21.9,438.9,21.3,439.1,20.6,439.1z M20.7,432.7h-1.6v5.4h1.5c0.6,0,1.2-0.2,1.6-0.7c0.4-0.6,0.6-1.3,0.6-2
		c0.1-0.7-0.1-1.4-0.5-2C21.9,432.9,21.3,432.6,20.7,432.7L20.7,432.7z"/>
	<path class="st5" d="M29.1,436.8l-1.9-2.6v4.9H26v-7.5h0.8l2.6,3.6l2.4-3.6h0.8v7.5h-1.3v-4.8l-1.6,2.4L29.1,436.8z"/>
	<path class="st5" d="M35,439.1v-7.5h1.2v7.5H35z"/>
	<path class="st5" d="M38.7,439.1v-7.5h1.2l3.7,5.3v-5.3h1.2v7.5h-1.2l-3.7-5.3v5.3H38.7z"/>
	<path class="st5" d="M47.2,439.1v-7.5h1.2v7.5H47.2z"/>
	<path class="st5" d="M50.5,438.6l0.3-1c0.3,0.1,0.6,0.3,0.9,0.3c0.3,0.1,0.7,0.1,1,0.1c0.4,0,0.8-0.1,1.1-0.3
		c0.2-0.1,0.4-0.4,0.4-0.7c0-0.2-0.1-0.4-0.2-0.5c-0.2-0.2-0.3-0.3-0.5-0.4c-0.2-0.1-0.5-0.3-0.9-0.5c-0.6-0.3-1.1-0.6-1.6-1
		c-0.3-0.3-0.5-0.8-0.5-1.3c0-0.4,0.1-0.7,0.3-1c0.2-0.3,0.5-0.6,0.9-0.7c0.4-0.2,0.9-0.3,1.3-0.3c0.4,0,0.7,0.1,1,0.1
		c0.3,0.1,0.7,0.2,1,0.4l-0.4,1c-0.3-0.1-0.5-0.2-0.8-0.3c-0.3-0.1-0.5-0.1-0.8-0.1c-0.3,0-0.7,0.1-0.9,0.2
		c-0.2,0.1-0.4,0.4-0.4,0.6c0,0.2,0.1,0.4,0.2,0.5c0.1,0.2,0.3,0.3,0.5,0.4c0.2,0.1,0.5,0.3,1,0.5c0.4,0.2,0.8,0.4,1.1,0.6
		c0.3,0.2,0.5,0.4,0.7,0.7c0.2,0.3,0.3,0.6,0.3,1c0,0.4-0.1,0.7-0.3,1.1c-0.2,0.3-0.6,0.6-0.9,0.7c-0.5,0.2-1,0.3-1.5,0.3
		c-0.4-0.1-0.8-0.2-1.2-0.3C51.2,438.9,50.8,438.8,50.5,438.6z"/>
	<path class="st5" d="M62.5,432.6H60v6.5h-1.3v-6.5h-2.4v-1h6L62.5,432.6z"/>
	<path class="st5" d="M64.2,431.6h2.2c0.7,0,1.5,0.2,2.1,0.6c0.5,0.4,0.8,1,0.8,1.7c0,0.4-0.1,0.8-0.3,1.2c-0.2,0.3-0.6,0.6-0.9,0.8
		l1.9,3.3h-1.3l-1.6-3c-0.2,0-0.4,0-0.6,0h-0.9v2.9h-1.2V431.6z M66.4,432.6h-1v2.5h1c0.4,0,0.8-0.1,1.2-0.3c0.3-0.2,0.5-0.6,0.4-1
		c0-0.4-0.1-0.8-0.4-1C67.2,432.7,66.8,432.6,66.4,432.6L66.4,432.6z"/>
	<path class="st5" d="M74.6,431.6l2.9,7.4l-1.2,0.2l-0.7-2h-2.9l-0.7,1.9h-1.2l2.9-7.5L74.6,431.6z M74,433.3l-1.1,2.9h2.2L74,433.3
		z"/>
	<path class="st5" d="M78.7,438.6l0.3-1c0.3,0.1,0.6,0.3,0.9,0.3c0.3,0.1,0.7,0.1,1,0.1c0.4,0,0.8-0.1,1.1-0.3
		c0.2-0.1,0.4-0.4,0.4-0.7c0-0.2-0.1-0.4-0.2-0.5c-0.2-0.2-0.3-0.3-0.5-0.4c-0.2-0.1-0.5-0.3-0.9-0.5c-0.6-0.3-1.1-0.6-1.6-1
		c-0.3-0.3-0.5-0.8-0.5-1.3c0-0.4,0.1-0.7,0.3-1c0.2-0.3,0.5-0.6,0.9-0.7c0.4-0.2,0.9-0.3,1.3-0.3c0.4,0,0.7,0.1,1.1,0.1
		c0.3,0.1,0.7,0.2,1,0.4l-0.4,1c-0.3-0.1-0.5-0.2-0.8-0.3c-0.3-0.1-0.5-0.1-0.8-0.1c-0.3,0-0.7,0.1-0.9,0.2
		c-0.2,0.1-0.4,0.4-0.4,0.6c0,0.2,0.1,0.4,0.2,0.5c0.1,0.2,0.3,0.3,0.5,0.4c0.2,0.1,0.5,0.3,1,0.5c0.4,0.2,0.8,0.4,1.1,0.6
		c0.3,0.2,0.5,0.4,0.7,0.7c0.2,0.3,0.3,0.6,0.3,1c0,0.4-0.1,0.7-0.3,1.1c-0.2,0.3-0.6,0.6-0.9,0.7c-0.5,0.2-1,0.3-1.5,0.3
		c-0.4,0-0.8-0.1-1.2-0.2C79.3,439,79,438.9,78.7,438.6z"/>
	<path class="st5" d="M85.4,439.1v-7.5h1.2v7.5H85.4z"/>
	<path class="st5" d="M96.6,432l-0.4,1c-0.2-0.1-0.5-0.2-0.8-0.3c-0.2-0.1-0.5-0.1-0.8-0.1c-0.3,0-0.5,0.1-0.7,0.3
		c-0.2,0.2-0.3,0.4-0.3,0.7c0,0.3,0.1,0.5,0.2,0.7c0.2,0.3,0.5,0.6,0.8,0.8l1.9,1.8c0.2-0.5,0.3-1.1,0.4-1.7l1.1,0.4
		c0,0.7-0.2,1.4-0.5,2.1l0.9,0.8l-0.7,0.9l-0.9-0.8c-0.6,0.5-1.4,0.8-2.3,0.8c-0.5,0-1-0.1-1.5-0.3c-0.4-0.2-0.8-0.5-1-0.9
		c-0.3-0.4-0.4-0.9-0.4-1.4c0-0.4,0.1-0.8,0.3-1.2c0.2-0.4,0.5-0.7,0.8-1c-0.2-0.3-0.3-0.7-0.3-1.1c0-0.4,0.1-0.7,0.3-1
		c0.2-0.3,0.5-0.6,0.8-0.8c0.4-0.2,0.8-0.3,1.2-0.3C95.3,431.5,96,431.7,96.6,432z M95.9,437.7l-2.1-1.9c-0.1-0.1-0.2-0.2-0.3-0.4
		c-0.2,0.2-0.3,0.4-0.4,0.6c-0.1,0.2-0.2,0.5-0.2,0.7c0,0.4,0.1,0.8,0.5,1.1c0.3,0.2,0.7,0.4,1.1,0.4C95,438.2,95.5,438,95.9,437.7
		L95.9,437.7z"/>
	<path class="st5" d="M107.7,439.1l-2.4-3.3l-0.8,0.8v2.5h-1.2v-7.5h1.2v3.3l3.3-3.5l0.9,0.7l-2.6,2.8l3.1,4.2L107.7,439.1z"/>
	<path class="st5" d="M110.8,439.1v-7.5h4.3l0.2,1h-3.3v2.2h2.5l0.2,1h-2.7v2.3h3.6l0.2,1L110.8,439.1z"/>
	<path class="st5" d="M117.1,438.6l0.3-1c0.3,0.1,0.6,0.3,0.9,0.3c0.3,0.1,0.7,0.2,1,0.1c0.4,0,0.8-0.1,1.1-0.3
		c0.2-0.1,0.4-0.4,0.4-0.7c0-0.2-0.1-0.4-0.2-0.5c-0.2-0.2-0.3-0.3-0.5-0.4l-0.9-0.5c-0.6-0.3-1.1-0.6-1.6-1
		c-0.3-0.3-0.5-0.8-0.5-1.3c0-0.4,0.1-0.7,0.3-1c0.2-0.3,0.5-0.6,0.9-0.7c0.4-0.2,0.9-0.3,1.3-0.3c0.4,0,0.7,0.1,1.1,0.1
		c0.3,0.1,0.7,0.2,1,0.4l-0.4,1c-0.3-0.1-0.5-0.2-0.8-0.3c-0.3-0.1-0.5-0.1-0.8-0.1c-0.3,0-0.6,0.1-0.9,0.2
		c-0.2,0.1-0.4,0.4-0.4,0.6c0,0.2,0.1,0.4,0.2,0.5c0.1,0.2,0.3,0.3,0.5,0.4c0.2,0.1,0.5,0.3,1,0.5c0.4,0.2,0.8,0.4,1.1,0.6
		c0.3,0.2,0.5,0.4,0.7,0.7c0.2,0.3,0.3,0.6,0.3,1c0,0.4-0.1,0.7-0.3,1.1c-0.2,0.3-0.6,0.6-0.9,0.7c-0.5,0.2-1,0.3-1.5,0.3
		c-0.4,0-0.8-0.1-1.2-0.2C117.8,439,117.4,438.9,117.1,438.6z"/>
	<path class="st5" d="M123.8,439.1v-7.5h4.3l0.2,1h-3.3v2.2h2.5l0.2,1h-2.7v2.3h3.6l0.2,1L123.8,439.1z"/>
	<path class="st5" d="M135,439.1l-2.4-3.3l-0.8,0.8v2.5h-1.2v-7.5h1.2v3.3l3.3-3.5l0.9,0.7l-2.6,2.8l3.1,4.2L135,439.1z"/>
	<path class="st5" d="M138.2,431.6h2.2c0.7,0,1.5,0.2,2.1,0.6c0.5,0.4,0.8,1,0.8,1.7c0,0.4-0.1,0.8-0.4,1.2
		c-0.2,0.3-0.6,0.6-0.9,0.8l1.9,3.3h-1.3l-1.6-3c-0.2,0-0.4,0-0.6,0h-0.9v2.9h-1.2L138.2,431.6z M140.4,432.6h-1v2.5h1
		c0.4,0,0.8-0.1,1.2-0.3c0.3-0.2,0.5-0.6,0.4-1c0-0.4-0.1-0.8-0.4-1C141.2,432.7,140.8,432.6,140.4,432.6L140.4,432.6z"/>
	<path class="st5" d="M145.5,439.1v-7.5h4.3l0.2,1h-3.3v2.2h2.5l0.2,1h-2.7v2.3h3.6l0.2,1L145.5,439.1z"/>
	<path class="st5" d="M157.5,432.6H155v6.5h-1.3v-6.5h-2.4v-1h6L157.5,432.6z"/>
	<path class="st5" d="M162.2,431.6l2.9,7.4l-1.2,0.2l-0.7-2h-2.9l-0.7,1.9h-1.2l2.9-7.5L162.2,431.6z M161.7,433.3l-1.1,2.9h2.2
		L161.7,433.3z"/>
	<path class="st5" d="M166.8,431.6h2.3c0.7,0,1.5,0.2,2.1,0.6c0.5,0.4,0.8,1,0.8,1.7c0,0.4-0.1,0.8-0.4,1.2
		c-0.2,0.3-0.6,0.6-0.9,0.8l1.9,3.3h-1.3l-1.6-3c-0.2,0-0.4,0-0.6,0H168v2.9h-1.2L166.8,431.6z M169,432.6h-1v2.5h1
		c0.4,0,0.8-0.1,1.2-0.3c0.3-0.2,0.5-0.6,0.4-1c0-0.4-0.1-0.8-0.4-1C169.8,432.7,169.4,432.6,169,432.6L169,432.6z"/>
	<path class="st5" d="M174.1,439.1v-7.5h1.2v7.5H174.1z"/>
	<path class="st5" d="M180.9,431.6l2.9,7.4l-1.2,0.2l-0.7-2h-2.9l-0.7,1.9h-1.2l2.9-7.5L180.9,431.6z M180.3,433.3l-1.1,2.9h2.2
		L180.3,433.3z"/>
	<path class="st5" d="M190.7,432.6h-2.6v6.5h-1.3v-6.5h-2.4v-1h6L190.7,432.6z"/>
	<path class="st5" d="M195.4,431.6l2.9,7.4l-1.2,0.2l-0.7-2h-2.9l-0.7,1.9h-1.2l2.9-7.5L195.4,431.6z M194.8,433.3l-1.1,2.9h2.3
		L194.8,433.3z"/>
	<path class="st5" d="M199.9,439.1v-7.5h1.2l3.7,5.3v-5.3h1.2v7.5h-1.2l-3.7-5.3v5.3H199.9z"/>
	<circle class="st4" cx="108.2" cy="395.2" r="5"/>
	<path class="st2" d="M267.2,394.6h207c2.2,0,4,1.8,4,4v60.2c0,2.2-1.8,4-4,4h-207c-2.2,0-4-1.8-4-4v-60.2
		C263.2,396.4,265,394.6,267.2,394.6z"/>
	<path class="st3" d="M354.1,419.3h-1.3v-9.5h2.7c0.9,0,1.8,0.2,2.6,0.7c0.7,0.5,1.1,1.4,1,2.2c0,0.6-0.2,1.2-0.5,1.7
		c-0.3,0.5-0.8,0.8-1.4,1c-0.6,0.2-1.2,0.3-1.9,0.3h-1.3L354.1,419.3z M355.5,410.9h-1.4v3.8h1.3c0.6,0,1.2-0.1,1.6-0.5
		c0.4-0.3,0.7-0.9,0.6-1.4c0.1-0.5-0.2-1.1-0.6-1.5C356.7,411,356.1,410.9,355.5,410.9L355.5,410.9z"/>
	<path class="st3" d="M361,418.8l0.3-1.1c0.4,0.2,0.7,0.3,1.1,0.4c0.4,0.1,0.8,0.2,1.3,0.2c0.5,0,1.1-0.1,1.5-0.4
		c0.3-0.2,0.6-0.6,0.5-1c0-0.3-0.1-0.6-0.3-0.8c-0.2-0.3-0.5-0.5-0.8-0.6c-0.3-0.2-0.8-0.4-1.4-0.7c-0.5-0.2-1-0.5-1.4-0.8
		c-0.3-0.2-0.6-0.5-0.8-0.9c-0.2-0.4-0.3-0.8-0.3-1.2c0-0.4,0.1-0.9,0.4-1.3c0.3-0.4,0.6-0.7,1.1-0.9c0.5-0.2,1.1-0.3,1.7-0.3
		c0.4,0,0.9,0.1,1.3,0.2c0.4,0.1,0.8,0.3,1.2,0.5l-0.5,1.1c-0.3-0.1-0.6-0.3-0.9-0.4c-0.3-0.1-0.7-0.1-1-0.1c-0.5,0-0.9,0.1-1.4,0.3
		c-0.3,0.2-0.5,0.5-0.5,0.9c0,0.3,0.1,0.6,0.3,0.8c0.2,0.3,0.5,0.5,0.8,0.6c0.3,0.2,0.8,0.4,1.4,0.7c0.7,0.3,1.3,0.7,1.9,1.2
		c0.4,0.4,0.6,1,0.6,1.6c0,0.5-0.1,0.9-0.4,1.3c-0.3,0.4-0.7,0.7-1.2,0.9c-0.6,0.2-1.2,0.3-1.9,0.3c-0.5,0-1-0.1-1.5-0.2
		C361.8,419.2,361.4,419,361,418.8z"/>
	<path class="st3" d="M372.8,419.3h-3.4v-9.5h3.4c1.2-0.1,2.4,0.4,3.2,1.3c0.7,1,1.1,2.2,1.1,3.4c0,0.9-0.2,1.7-0.5,2.5
		c-0.3,0.7-0.8,1.3-1.5,1.7C374.5,419.1,373.7,419.3,372.8,419.3z M372.9,410.9h-2.1v7.3h2c0.8,0,1.6-0.3,2.1-1
		c0.6-0.8,0.9-1.7,0.8-2.7c0-0.9-0.2-1.8-0.7-2.6C374.5,411.2,373.7,410.9,372.9,410.9L372.9,410.9z"/>
	<path class="st3" d="M383.6,416.2l-2.6-3.7v6.7h-1.3v-9.5h0.8l3.4,4.7l3.2-4.7h0.8v9.5h-1.4v-6.6l-2.4,3.5L383.6,416.2z"/>
	<path class="st5" d="M285.8,432.5h-1.2V425h2.2c0.7,0,1.5,0.2,2.1,0.6c0.6,0.4,0.9,1.1,0.8,1.8c0,0.5-0.1,1-0.4,1.4
		c-0.3,0.4-0.7,0.6-1.1,0.8c-0.5,0.2-1,0.3-1.5,0.3h-0.9L285.8,432.5z M286.8,426h-1v2.7h1c0.4,0,0.8-0.1,1.2-0.3
		c0.6-0.5,0.6-1.5,0.1-2.1c0,0,0,0,0,0C287.7,426.1,287.3,426,286.8,426L286.8,426z"/>
	<path class="st5" d="M291.5,432.5V425h4.3l0.2,1h-3.3v2.2h2.5l0.2,1h-2.7v2.3h3.6l0.2,1L291.5,432.5z"/>
	<path class="st5" d="M298.3,432.5V425h1.2l3.7,5.3V425h1.2v7.5h-1.2l-3.7-5.3v5.3L298.3,432.5z"/>
	<path class="st5" d="M309.5,429.4l0.1-1h2.6v3.6c-0.3,0.2-0.7,0.3-1,0.4c-0.4,0.1-0.8,0.2-1.2,0.1c-0.7,0-1.4-0.2-2-0.5
		c-0.6-0.3-1-0.8-1.3-1.4c-0.3-0.6-0.5-1.3-0.5-2c0-0.7,0.2-1.4,0.5-2c0.3-0.6,0.8-1.1,1.4-1.4c0.6-0.3,1.3-0.5,2-0.5
		c0.3,0,0.7,0,1,0.1c0.3,0.1,0.7,0.2,1,0.3l-0.4,0.9c-0.4-0.1-0.7-0.2-0.9-0.3c-0.2,0-0.5-0.1-0.7-0.1c-0.5,0-0.9,0.1-1.3,0.3
		c-0.4,0.2-0.7,0.6-1,1c-0.2,0.5-0.4,1-0.4,1.6c0,0.5,0.1,1,0.3,1.5c0.2,0.4,0.5,0.8,0.9,1c0.4,0.2,0.8,0.4,1.3,0.4
		c0.4,0,0.8,0,1.2-0.1v-2L309.5,429.4z"/>
	<path class="st5" d="M314.3,432.5V425h4.3l0.2,1h-3.3v2.2h2.5l0.2,1h-2.7v2.3h3.6l0.2,1L314.3,432.5z"/>
	<path class="st5" d="M324.2,430.2l-1.9-2.6v4.9H321V425h0.8l2.6,3.6l2.4-3.6h0.8v7.5h-1.3v-4.8l-1.6,2.4L324.2,430.2z"/>
	<path class="st5" d="M332.8,432.5H330V425h2.6c0.6,0,1.3,0.1,1.8,0.5c0.5,0.4,0.7,1,0.7,1.6c0,0.6-0.4,1.1-0.9,1.4
		c0.4,0.2,0.7,0.4,0.9,0.7c0.6,0.9,0.4,2.1-0.4,2.8C334.2,432.3,333.5,432.5,332.8,432.5z M332.5,426h-1.2v2.1h1
		c0.4,0,0.8-0.1,1.1-0.3c0.3-0.2,0.4-0.5,0.4-0.8c0-0.3-0.1-0.6-0.4-0.8C333.2,426.1,332.8,426,332.5,426L332.5,426z M332.9,429.1
		h-1.6v2.3h1.5c0.4,0,0.8-0.1,1.1-0.3c0.3-0.2,0.4-0.5,0.4-0.8c0-0.3-0.1-0.7-0.4-0.9C333.6,429.2,333.2,429.1,332.9,429.1
		L332.9,429.1z"/>
	<path class="st5" d="M340.4,425l2.9,7.4l-1.2,0.2l-0.7-2h-2.9l-0.7,1.9h-1.2l2.9-7.5L340.4,425z M339.9,426.7l-1.1,2.9h2.2
		L339.9,426.7z"/>
	<path class="st5" d="M344.9,432.5V425h1.2l3.7,5.3V425h1.2v7.5h-1.2l-3.7-5.3v5.3L344.9,432.5z"/>
	<path class="st5" d="M356.2,429.4l0.1-1h2.6v3.6c-0.3,0.2-0.7,0.3-1,0.4c-0.4,0.1-0.8,0.2-1.2,0.1c-0.7,0-1.4-0.2-2-0.5
		c-0.6-0.3-1-0.8-1.3-1.4c-0.3-0.6-0.5-1.3-0.5-2c0-0.7,0.2-1.4,0.5-2c0.3-0.6,0.8-1.1,1.4-1.4c0.6-0.3,1.3-0.5,2-0.5
		c0.3,0,0.7,0,1,0.1c0.3,0.1,0.7,0.2,1,0.3l-0.4,0.9c-0.4-0.1-0.7-0.2-0.9-0.3c-0.2,0-0.5-0.1-0.7-0.1c-0.5,0-0.9,0.1-1.3,0.3
		c-0.4,0.2-0.7,0.6-1,1c-0.2,0.5-0.4,1-0.4,1.6c0,0.5,0.1,1,0.3,1.5c0.2,0.4,0.5,0.8,0.9,1c0.4,0.2,0.8,0.4,1.3,0.4
		c0.4,0,0.8,0,1.2-0.1v-2L356.2,429.4z"/>
	<path class="st5" d="M364.1,425l2.9,7.4l-1.2,0.2l-0.7-2h-2.9l-0.7,1.9h-1.2l2.9-7.5H364.1z M363.5,426.7l-1.1,2.9h2.2L363.5,426.7
		z"/>
	<path class="st5" d="M368.6,432.5V425h1.2l3.7,5.3V425h1.2v7.5h-1.2l-3.7-5.3v5.3L368.6,432.5z"/>
	<path class="st5" d="M379.8,432l0.3-1c0.3,0.1,0.6,0.3,0.9,0.3c0.3,0.1,0.7,0.2,1,0.1c0.4,0,0.8-0.1,1.1-0.3
		c0.2-0.1,0.4-0.4,0.4-0.7c0-0.2-0.1-0.4-0.2-0.5c-0.2-0.2-0.3-0.3-0.5-0.4c-0.2-0.1-0.5-0.3-0.9-0.5c-0.6-0.3-1.1-0.6-1.6-1
		c-0.3-0.3-0.5-0.8-0.5-1.3c0-0.4,0.1-0.7,0.3-1c0.2-0.3,0.5-0.6,0.9-0.7c0.4-0.2,0.9-0.3,1.3-0.3c0.4,0,0.7,0.1,1,0.1
		c0.3,0.1,0.7,0.2,1,0.4l-0.4,1c-0.3-0.1-0.5-0.2-0.8-0.3c-0.3-0.1-0.5-0.1-0.8-0.1c-0.3,0-0.6,0.1-0.9,0.2
		c-0.2,0.1-0.4,0.4-0.4,0.6c0,0.2,0.1,0.4,0.2,0.5c0.1,0.2,0.3,0.3,0.5,0.4c0.2,0.1,0.5,0.3,1,0.5c0.4,0.2,0.8,0.4,1.1,0.6
		c0.3,0.2,0.5,0.4,0.7,0.7c0.2,0.3,0.3,0.6,0.3,1c0,0.4-0.1,0.7-0.3,1.1c-0.2,0.3-0.6,0.6-0.9,0.7c-0.5,0.2-1,0.3-1.5,0.3
		c-0.4,0-0.8-0.1-1.2-0.2C380.4,432.3,380.1,432.2,379.8,432z"/>
	<path class="st5" d="M387.6,425v4.7c0,0.5,0.1,1,0.5,1.4c0.7,0.7,1.8,0.7,2.5,0c0.3-0.4,0.5-0.9,0.5-1.4V425h1.2v4.8
		c0,0.5-0.1,1-0.4,1.5c-0.2,0.4-0.6,0.8-1,1c-1,0.5-2.2,0.5-3.2,0c-0.4-0.2-0.8-0.6-1-1c-0.3-0.4-0.4-0.9-0.4-1.5V425H387.6z"/>
	<path class="st5" d="M397.9,430.2l-1.9-2.6v4.9h-1.2V425h0.8l2.6,3.6l2.4-3.6h0.8v7.5H400v-4.8l-1.6,2.4L397.9,430.2z"/>
	<path class="st5" d="M406.5,432.5h-2.8V425h2.6c0.6,0,1.3,0.1,1.8,0.5c0.5,0.4,0.7,1,0.7,1.6c0,0.6-0.4,1.1-0.9,1.4
		c0.4,0.2,0.7,0.4,0.9,0.7c0.6,0.9,0.4,2.1-0.4,2.8C407.9,432.3,407.2,432.5,406.5,432.5z M406.2,426H405v2.1h1
		c0.4,0,0.8-0.1,1.1-0.3c0.3-0.2,0.4-0.5,0.4-0.8c0-0.3-0.1-0.6-0.4-0.8C406.9,426.1,406.6,426,406.2,426z M406.6,429.1H405v2.3h1.5
		c0.4,0,0.8-0.1,1.1-0.3c0.3-0.2,0.4-0.5,0.4-0.8c0-0.3-0.1-0.7-0.4-0.9C407.3,429.2,407,429.1,406.6,429.1L406.6,429.1z"/>
	<path class="st5" d="M411.1,432.5V425h4.3l0.2,1h-3.3v2.2h2.5l0.2,1h-2.7v2.3h3.6l0.2,1L411.1,432.5z"/>
	<path class="st5" d="M417.8,425h2.2c0.7,0,1.5,0.2,2.1,0.6c0.5,0.4,0.8,1,0.8,1.7c0,0.4-0.1,0.8-0.4,1.2c-0.2,0.3-0.6,0.6-0.9,0.8
		l1.9,3.3h-1.3l-1.6-3c-0.2,0-0.4,0-0.6,0H419v2.9h-1.2L417.8,425z M420,426h-1v2.5h1c0.4,0,0.8-0.1,1.2-0.3c0.3-0.2,0.5-0.6,0.5-1
		c0-0.4-0.1-0.8-0.4-1C420.9,426.1,420.4,426,420,426z"/>
	<path class="st5" d="M430.9,432.5h-2.7V425h2.8c1-0.1,1.9,0.3,2.5,1c0.6,0.8,0.9,1.7,0.9,2.7c0,0.7-0.1,1.4-0.4,2
		c-0.2,0.6-0.7,1-1.2,1.3C432.2,432.3,431.6,432.5,430.9,432.5z M431,426.1h-1.6v5.4h1.5c0.6,0,1.2-0.2,1.6-0.7
		c0.4-0.6,0.6-1.3,0.6-2c0.1-0.7-0.1-1.4-0.5-2C432.2,426.3,431.6,426,431,426.1L431,426.1z"/>
	<path class="st5" d="M439.3,425l2.9,7.4l-1.2,0.2l-0.7-2h-2.9l-0.7,1.9h-1.2l2.9-7.5L439.3,425z M438.8,426.7l-1.1,2.9h2.2
		L438.8,426.7z"/>
	<path class="st5" d="M445.5,432.5v-3l-2.5-4.3l1.2-0.4l1.9,3.5l1.9-3.3h1.3l-2.6,4.5v2.9L445.5,432.5z"/>
	<path class="st5" d="M454,425l2.9,7.4l-1.2,0.2l-0.7-2H452l-0.7,1.9h-1.2l2.9-7.5L454,425z M453.4,426.7l-1.1,2.9h2.2L453.4,426.7z
		"/>
	<path class="st5" d="M341.4,443.4l-1.9-2.6v4.9h-1.2v-7.5h0.8l2.6,3.6l2.4-3.6h0.8v7.5h-1.3v-4.8l-1.6,2.4L341.4,443.4z"/>
	<path class="st5" d="M350.3,438.2l2.9,7.4l-1.2,0.2l-0.7-2h-2.9l-0.7,1.9h-1.2l2.9-7.5L350.3,438.2z M349.7,439.9l-1.1,2.9h2.2
		L349.7,439.9z"/>
	<path class="st5" d="M359.2,445.7v-3.3H356v3.3h-1.2v-7.5l1.2-0.1v3.3h3.1v-3.2h1.2v7.5H359.2z"/>
	<path class="st5" d="M366,438.2l2.9,7.4l-1.2,0.2l-0.7-2H364l-0.7,1.9H362l2.9-7.5L366,438.2z M365.4,439.9l-1.1,2.9h2.2
		L365.4,439.9z"/>
	<path class="st5" d="M370.1,445.2l0.3-1c0.3,0.1,0.6,0.3,0.9,0.3c0.3,0.1,0.7,0.1,1,0.1c0.4,0,0.8-0.1,1.1-0.3
		c0.2-0.1,0.4-0.4,0.4-0.7c0-0.2-0.1-0.4-0.2-0.5c-0.2-0.2-0.3-0.3-0.5-0.4c-0.2-0.1-0.5-0.3-0.9-0.5c-0.6-0.3-1.1-0.6-1.6-1
		c-0.3-0.3-0.5-0.8-0.5-1.3c0-0.4,0.1-0.7,0.3-1c0.2-0.3,0.5-0.6,0.9-0.7c0.4-0.2,0.9-0.3,1.3-0.3c0.4,0,0.7,0.1,1,0.1
		c0.3,0.1,0.7,0.2,1,0.4l-0.4,1c-0.3-0.1-0.5-0.2-0.8-0.3c-0.3-0.1-0.5-0.1-0.8-0.1c-0.3,0-0.7,0.1-0.9,0.2
		c-0.2,0.1-0.4,0.4-0.4,0.6c0,0.2,0.1,0.4,0.2,0.5c0.1,0.2,0.3,0.3,0.5,0.4c0.2,0.1,0.5,0.3,1,0.5c0.4,0.2,0.8,0.4,1.1,0.6
		c0.3,0.2,0.5,0.4,0.7,0.7c0.2,0.3,0.3,0.6,0.3,1c0,0.4-0.1,0.7-0.3,1.1c-0.2,0.3-0.6,0.6-0.9,0.7c-0.5,0.2-1,0.3-1.5,0.3
		c-0.4,0-0.8-0.1-1.2-0.2C370.7,445.6,370.4,445.5,370.1,445.2z"/>
	<path class="st5" d="M376.8,445.7v-7.5h1.2v7.5H376.8z"/>
	<path class="st5" d="M380.1,445.2l0.3-1c0.3,0.1,0.6,0.3,0.9,0.3c0.3,0.1,0.7,0.2,1,0.1c0.4,0,0.8-0.1,1.1-0.3
		c0.2-0.1,0.4-0.4,0.4-0.7c0-0.2-0.1-0.4-0.2-0.5c-0.2-0.2-0.3-0.3-0.5-0.4l-0.9-0.5c-0.6-0.3-1.1-0.6-1.6-1
		c-0.3-0.3-0.5-0.8-0.5-1.3c0-0.4,0.1-0.7,0.3-1c0.2-0.3,0.5-0.6,0.9-0.7c0.4-0.2,0.9-0.3,1.3-0.3c0.4,0,0.7,0.1,1,0.1
		c0.3,0.1,0.7,0.2,1,0.4l-0.4,1c-0.3-0.1-0.5-0.2-0.8-0.3c-0.3-0.1-0.5-0.1-0.8-0.1c-0.3,0-0.6,0.1-0.9,0.2
		c-0.2,0.1-0.4,0.4-0.4,0.6c0,0.2,0.1,0.4,0.2,0.5c0.1,0.2,0.3,0.3,0.5,0.4c0.2,0.1,0.5,0.3,1,0.5c0.4,0.2,0.8,0.4,1.1,0.6
		c0.3,0.2,0.5,0.4,0.7,0.7c0.2,0.3,0.3,0.6,0.3,1c0,0.4-0.1,0.7-0.3,1.1c-0.2,0.3-0.6,0.6-0.9,0.7c-0.5,0.2-1,0.3-1.5,0.3
		c-0.4,0-0.8-0.1-1.2-0.2C380.7,445.6,380.4,445.5,380.1,445.2z"/>
	<path class="st5" d="M395.7,438.2l-2.2,7.5h-1.1l-1.6-5.7l-1.6,5.7h-1.1l-2.2-7.4l1.2-0.2l1.6,5.9l1.5-5.8h1.2l1.6,5.8l1.5-5.8
		L395.7,438.2z"/>
	<path class="st5" d="M400.4,438.2l2.9,7.4l-1.2,0.2l-0.7-2h-2.9l-0.7,1.9h-1.2l2.9-7.5L400.4,438.2z M399.8,439.9l-1.1,2.9h2.3
		L399.8,439.9z"/>
	<circle class="st4" cx="370.4" cy="394.9" r="5"/>
	<path class="st2" d="M529.9,394.6h207c2.2,0,4,1.8,4,4v60.2c0,2.2-1.8,4-4,4h-207c-2.2,0-4-1.8-4-4v-60.2
		C525.9,396.4,527.7,394.6,529.9,394.6z"/>
	<path class="st3" d="M623.8,425.9l-3.3-4.4l-1,1.1v3.3h-1.3v-9.5h1.3v4.4l4.3-4.6l1,0.8l-3.4,3.6l4.1,5.4L623.8,425.9z"/>
	<path class="st3" d="M638.7,416.4l-2.7,9.5h-1.2l-2.1-7.6l-2.1,7.6h-1.2l-2.8-9.4l1.3-0.2l2.1,7.8l2-7.7h1.3l2.1,7.7l2-7.7
		L638.7,416.4z"/>
	<path class="st3" d="M642,416.4v6c0,0.7,0.2,1.4,0.7,1.9c0.4,0.5,1.1,0.7,1.7,0.7c0.6,0,1.3-0.2,1.7-0.7c0.4-0.5,0.7-1.2,0.6-1.9
		v-6h1.4v6.1c0,0.6-0.1,1.3-0.5,1.8c-0.3,0.5-0.7,1-1.3,1.3c-0.6,0.3-1.3,0.5-2,0.5c-0.7,0-1.4-0.1-2-0.5c-0.5-0.3-1-0.7-1.3-1.3
		c-0.3-0.6-0.5-1.2-0.5-1.8v-6.1L642,416.4z"/>
	<path class="st5" d="M590,439.1l-2.5-3.3l-0.8,0.8v2.5h-1.2v-7.5h1.2v3.3l3.3-3.5l0.9,0.7l-2.6,2.8l3.1,4.2L590,439.1z"/>
	<path class="st5" d="M593.1,439.1v-7.5h4.3l0.2,1h-3.3v2.2h2.5l0.2,1h-2.7v2.3h3.6l0.2,1L593.1,439.1z"/>
	<path class="st5" d="M608.8,431.6l-2.2,7.5h-1.1l-1.6-5.7l-1.6,5.7h-1.1l-2.2-7.4l1.2-0.2l1.6,5.9l1.5-5.8h1.2l1.5,5.8l1.5-5.8
		L608.8,431.6z"/>
	<path class="st5" d="M610.4,439.1v-7.5h1.2v7.5H610.4z"/>
	<path class="st5" d="M614.1,431.6h2.2c0.7,0,1.5,0.2,2.1,0.6c0.5,0.4,0.8,1,0.8,1.7c0,0.4-0.1,0.8-0.3,1.2
		c-0.2,0.3-0.6,0.6-0.9,0.8l1.9,3.3h-1.3l-1.6-3c-0.2,0-0.4,0-0.6,0h-0.9v2.9h-1.2L614.1,431.6z M616.3,432.6h-1v2.5h1
		c0.4,0,0.8-0.1,1.2-0.3c0.3-0.2,0.5-0.6,0.5-1c0-0.4-0.1-0.8-0.4-1C617.1,432.7,616.7,432.6,616.3,432.6L616.3,432.6z"/>
	<path class="st5" d="M624.5,431.6l2.9,7.4l-1.2,0.2l-0.7-2h-2.9l-0.7,1.9h-1.2l2.9-7.5L624.5,431.6z M623.9,433.3l-1.1,2.9h2.2
		L623.9,433.3z"/>
	<path class="st5" d="M630.2,431.6v4.7c0,0.5,0.1,1,0.5,1.4c0.7,0.7,1.8,0.7,2.5,0c0.3-0.4,0.5-0.9,0.5-1.4v-4.7h1.2v4.8
		c0,0.5-0.1,1-0.4,1.5c-0.2,0.4-0.6,0.8-1,1c-1,0.5-2.2,0.5-3.2,0c-0.4-0.2-0.8-0.6-1-1c-0.2-0.4-0.4-0.9-0.4-1.5v-4.8L630.2,431.6z
		"/>
	<path class="st5" d="M636.8,438.6l0.3-1c0.3,0.1,0.6,0.3,0.9,0.3c0.3,0.1,0.7,0.1,1,0.1c0.4,0,0.8-0.1,1.1-0.3
		c0.2-0.1,0.4-0.4,0.4-0.7c0-0.2-0.1-0.4-0.2-0.5c-0.2-0.2-0.3-0.3-0.5-0.4c-0.2-0.1-0.5-0.3-0.9-0.5c-0.6-0.3-1.1-0.6-1.6-1
		c-0.3-0.3-0.5-0.8-0.5-1.3c0-0.4,0.1-0.7,0.3-1c0.2-0.3,0.5-0.6,0.9-0.7c0.4-0.2,0.9-0.3,1.3-0.3c0.4,0,0.7,0.1,1,0.1
		c0.3,0.1,0.7,0.2,1,0.4l-0.4,1c-0.3-0.1-0.5-0.2-0.8-0.3c-0.3-0.1-0.5-0.1-0.8-0.1c-0.3,0-0.7,0.1-0.9,0.2
		c-0.2,0.1-0.4,0.4-0.4,0.6c0,0.2,0.1,0.4,0.2,0.5c0.1,0.2,0.3,0.3,0.5,0.4c0.2,0.1,0.5,0.3,1,0.5c0.4,0.2,0.8,0.4,1.1,0.6
		c0.3,0.2,0.5,0.4,0.7,0.7c0.2,0.3,0.3,0.6,0.3,1c0,0.4-0.1,0.7-0.3,1.1c-0.2,0.3-0.6,0.6-0.9,0.7c-0.5,0.2-1,0.3-1.5,0.3
		c-0.4,0-0.8-0.1-1.2-0.2C637.5,439,637.2,438.9,636.8,438.6z"/>
	<path class="st5" d="M646.7,431.6l2.9,7.4l-1.2,0.2l-0.7-2h-2.9l-0.7,1.9h-1.2l2.9-7.5L646.7,431.6z M646.1,433.3l-1.1,2.9h2.2
		L646.1,433.3z"/>
	<path class="st5" d="M655.5,439.1v-3.3h-3.1v3.3h-1.2v-7.5l1.2-0.1v3.3h3.1v-3.2h1.2v7.5H655.5z"/>
	<path class="st5" d="M662.3,431.6l2.9,7.4l-1.2,0.2l-0.7-2h-2.9l-0.7,1.9h-1.2l2.9-7.5L662.3,431.6z M661.8,433.3l-1.1,2.9h2.2
		L661.8,433.3z"/>
	<path class="st5" d="M669.9,431.6l2.9,7.4l-1.2,0.2l-0.7-2h-2.9l-0.7,1.9H666l2.9-7.5L669.9,431.6z M669.4,433.3l-1.1,2.9h2.2
		L669.4,433.3z"/>
	<path class="st5" d="M674.4,439.1v-7.5h1.2l3.7,5.3v-5.3h1.2v7.5h-1.2l-3.7-5.3v5.3H674.4z"/>
	<circle class="st4" cx="633.1" cy="395.2" r="5"/>
	<path class="st2" d="M782.6,394.6h207c2.2,0,4,1.8,4,4v60.2c0,2.2-1.8,4-4,4h-207c-2.2,0-4-1.8-4-4v-60.2
		C778.6,396.4,780.4,394.6,782.6,394.6z"/>
	<path class="st3" d="M854.6,425.9v-9.5h1.3v9.5H854.6z"/>
	<path class="st3" d="M859.1,425.9v-9.5h1.2l4.9,7v-7h1.4v9.5h-1.2l-4.9-7.1v7.1H859.1z"/>
	<path class="st3" d="M874.4,421.6h-3.3v4.3h-1.3v-9.5h5.2l0.2,1h-4v3.2h3.1L874.4,421.6z"/>
	<path class="st3" d="M881.3,416.1c1.7,0,3.2,0.9,4,2.4c0.8,1.6,0.8,3.5,0,5.1c-0.4,0.7-0.9,1.4-1.6,1.8c-0.7,0.4-1.5,0.7-2.4,0.7
		c-1.7,0-3.2-0.9-3.9-2.4c-0.8-1.6-0.8-3.5,0-5.1c0.4-0.7,0.9-1.3,1.6-1.8C879.7,416.4,880.4,416.2,881.3,416.1z M878.1,421.1
		c0,0.7,0.1,1.3,0.4,2c0.2,0.5,0.6,1,1.1,1.4c0.5,0.3,1,0.5,1.6,0.5c0.6,0,1.2-0.2,1.6-0.5c0.5-0.3,0.9-0.8,1.1-1.4
		c0.3-0.6,0.4-1.3,0.4-2c0-0.7-0.1-1.3-0.4-1.9c-0.2-0.5-0.6-1-1.1-1.3c-0.5-0.3-1-0.5-1.6-0.5c-0.6,0-1.2,0.2-1.6,0.5
		c-0.5,0.3-0.9,0.8-1.1,1.4C878.2,419.8,878.1,420.5,878.1,421.1L878.1,421.1z"/>
	<path class="st3" d="M894,425.9l-3.3-4.4l-1,1.1v3.3h-1.3v-9.5h1.3v4.4l4.3-4.6l1,0.8l-3.4,3.6l4.1,5.4L894,425.9z"/>
	<path class="st3" d="M901.6,416.1c1.7,0,3.2,0.9,4,2.4c0.8,1.6,0.8,3.5,0,5.1c-0.4,0.7-0.9,1.4-1.6,1.8c-0.7,0.4-1.5,0.7-2.4,0.7
		c-1.7,0-3.2-0.9-3.9-2.4c-0.8-1.6-0.8-3.5,0-5.1c0.4-0.7,0.9-1.3,1.6-1.8C900,416.4,900.8,416.2,901.6,416.1z M898.5,421.1
		c0,0.7,0.1,1.3,0.4,2c0.2,0.5,0.6,1,1.1,1.4c0.5,0.3,1,0.5,1.6,0.5c0.6,0,1.2-0.2,1.6-0.5c0.5-0.3,0.9-0.8,1.1-1.4
		c0.3-0.6,0.4-1.3,0.4-2c0-0.7-0.1-1.3-0.4-1.9c-0.2-0.5-0.6-1-1.1-1.3c-0.5-0.3-1-0.5-1.6-0.5c-0.6,0-1.2,0.2-1.6,0.5
		c-0.5,0.3-0.9,0.8-1.1,1.4C898.6,419.8,898.5,420.5,898.5,421.1L898.5,421.1z"/>
	<path class="st3" d="M912.7,422.8l-2.7-3.7v6.7h-1.3v-9.5h0.8l3.3,4.7l3.2-4.7h0.8v9.5h-1.4v-6.6l-2.4,3.5L912.7,422.8z"/>
	<path class="st5" d="M814,439.1v-7.5h1.2v7.5H814z"/>
	<path class="st5" d="M817.7,439.1v-7.5h1.2l3.7,5.3v-5.3h1.2v7.5h-1.2l-3.7-5.3v5.3H817.7z"/>
	<path class="st5" d="M830.1,435.8h-2.5v3.3h-1.2v-7.5h4.1l0.2,1h-3.1v2.3h2.4L830.1,435.8z"/>
	<path class="st5" d="M835.4,431.4c0.7,0,1.3,0.2,1.9,0.5c0.5,0.3,1,0.8,1.3,1.4c0.6,1.3,0.6,2.7,0,4c-0.3,0.6-0.7,1.1-1.3,1.4
		c-0.6,0.3-1.2,0.5-1.9,0.5c-0.7,0-1.3-0.2-1.9-0.5c-0.5-0.3-1-0.8-1.3-1.4c-0.6-1.3-0.6-2.7,0-4c0.3-0.6,0.7-1.1,1.3-1.4
		C834.1,431.6,834.7,431.4,835.4,431.4z M833.1,435.4c0,0.5,0.1,1,0.3,1.5c0.2,0.4,0.5,0.7,0.8,1c0.4,0.2,0.8,0.4,1.2,0.4
		c0.4,0,0.8-0.1,1.2-0.4c0.4-0.2,0.7-0.6,0.8-1c0.2-0.5,0.3-1,0.3-1.5c0-0.5-0.1-1-0.3-1.5c-0.2-0.4-0.5-0.7-0.8-1
		c-0.4-0.2-0.8-0.4-1.2-0.4c-0.4,0-0.8,0.1-1.2,0.4c-0.4,0.2-0.7,0.6-0.8,1C833.2,434.3,833.1,434.9,833.1,435.4z"/>
	<path class="st5" d="M840.9,431.6h2.2c0.7,0,1.5,0.2,2.1,0.6c0.5,0.4,0.8,1,0.8,1.7c0,0.4-0.1,0.8-0.3,1.2
		c-0.2,0.3-0.6,0.6-0.9,0.8l1.9,3.3h-1.3l-1.6-3c-0.2,0-0.4,0-0.6,0h-0.9v2.9H841L840.9,431.6z M843.2,432.6h-1v2.5h1
		c0.4,0,0.8-0.1,1.2-0.3c0.3-0.2,0.5-0.6,0.5-1c0-0.4-0.1-0.8-0.4-1C844,432.7,843.6,432.6,843.2,432.6L843.2,432.6z"/>
	<path class="st5" d="M851.4,436.8l-1.9-2.6v4.9h-1.2v-7.5h0.7l2.6,3.6l2.4-3.6h0.8v7.5h-1.3v-4.8l-1.6,2.4L851.4,436.8z"/>
	<path class="st5" d="M860.3,431.6l2.9,7.4l-1.2,0.2l-0.7-2h-2.9l-0.7,1.9h-1.2l2.9-7.5L860.3,431.6z M859.8,433.3l-1.1,2.9h2.2
		L859.8,433.3z"/>
	<path class="st5" d="M864.4,438.6l0.3-1c0.3,0.1,0.6,0.3,0.9,0.3c0.3,0.1,0.7,0.1,1,0.1c0.4,0,0.8-0.1,1.1-0.3
		c0.2-0.1,0.4-0.4,0.4-0.7c0-0.2-0.1-0.4-0.2-0.5c-0.2-0.2-0.3-0.3-0.5-0.4c-0.2-0.1-0.5-0.3-0.9-0.5c-0.6-0.3-1.1-0.6-1.6-1
		c-0.3-0.3-0.5-0.8-0.5-1.3c0-0.4,0.1-0.7,0.3-1c0.2-0.3,0.5-0.6,0.9-0.7c0.4-0.2,0.9-0.3,1.3-0.3c0.4,0,0.7,0.1,1,0.1
		c0.3,0.1,0.7,0.2,1,0.4l-0.4,1c-0.3-0.1-0.5-0.2-0.8-0.3c-0.3-0.1-0.5-0.1-0.8-0.1c-0.3,0-0.6,0.1-0.9,0.2
		c-0.2,0.1-0.4,0.4-0.4,0.6c0,0.2,0.1,0.4,0.2,0.5c0.1,0.2,0.3,0.3,0.5,0.4c0.2,0.1,0.5,0.3,1,0.5c0.4,0.2,0.8,0.4,1.1,0.6
		c0.3,0.2,0.5,0.4,0.7,0.7c0.2,0.3,0.3,0.6,0.3,1c0,0.4-0.1,0.7-0.3,1.1c-0.2,0.3-0.6,0.6-0.9,0.7c-0.5,0.2-1,0.3-1.5,0.3
		c-0.4,0-0.8-0.1-1.2-0.2C865.1,439,864.8,438.9,864.4,438.6z"/>
	<path class="st5" d="M871.2,439.1v-7.5h1.2v7.5H871.2z"/>
	<path class="st5" d="M882.3,432l-0.4,1c-0.2-0.1-0.5-0.2-0.8-0.3c-0.2-0.1-0.5-0.1-0.8-0.1c-0.3,0-0.5,0.1-0.7,0.3
		c-0.2,0.2-0.3,0.4-0.3,0.7c0,0.3,0.1,0.5,0.2,0.7c0.2,0.3,0.5,0.6,0.8,0.8l1.9,1.8c0.2-0.5,0.3-1.1,0.4-1.7l1.1,0.4
		c0,0.7-0.2,1.4-0.5,2.1l0.9,0.8l-0.7,0.9l-0.9-0.8c-0.6,0.5-1.4,0.8-2.3,0.8c-0.5,0-1-0.1-1.5-0.3c-0.9-0.4-1.5-1.2-1.4-2.2
		c0-0.4,0.1-0.8,0.3-1.2c0.2-0.4,0.5-0.7,0.8-1c-0.2-0.3-0.3-0.7-0.3-1.1c0-0.4,0.1-0.7,0.3-1c0.2-0.3,0.5-0.6,0.8-0.8
		c0.4-0.2,0.8-0.3,1.2-0.3C881.1,431.5,881.7,431.7,882.3,432z M881.7,437.7l-2.1-1.9c-0.1-0.1-0.2-0.2-0.3-0.4
		c-0.2,0.2-0.3,0.4-0.4,0.6c-0.1,0.2-0.2,0.5-0.2,0.7c0,0.4,0.1,0.8,0.5,1.1c0.3,0.2,0.7,0.4,1.1,0.4
		C880.8,438.2,881.3,438,881.7,437.7L881.7,437.7z"/>
	<path class="st5" d="M893.4,439.1l-2.4-3.3l-0.8,0.8v2.5H889v-7.5h1.2v3.3l3.3-3.5l0.9,0.7l-2.6,2.8l3.1,4.2L893.4,439.1z"/>
	<path class="st5" d="M899.6,431.4c0.7,0,1.3,0.2,1.9,0.5c0.5,0.3,1,0.8,1.3,1.4c0.6,1.3,0.6,2.7,0,4c-0.3,0.6-0.7,1.1-1.3,1.4
		c-0.6,0.3-1.2,0.5-1.9,0.5c-0.7,0-1.3-0.2-1.9-0.5c-0.5-0.3-1-0.8-1.3-1.4c-0.6-1.3-0.6-2.7,0-4c0.3-0.6,0.7-1.1,1.3-1.4
		C898.3,431.6,899,431.4,899.6,431.4z M897.3,435.4c0,0.5,0.1,1,0.3,1.5c0.2,0.4,0.5,0.7,0.8,1c0.4,0.2,0.8,0.4,1.2,0.4
		c0.4,0,0.8-0.1,1.2-0.4c0.4-0.2,0.7-0.6,0.8-1c0.2-0.5,0.3-1,0.3-1.5c0-0.5-0.1-1-0.3-1.5c-0.2-0.4-0.5-0.7-0.8-1
		c-0.7-0.5-1.7-0.5-2.4,0c-0.4,0.2-0.7,0.6-0.8,1C897.4,434.3,897.3,434.9,897.3,435.4z"/>
	<path class="st5" d="M908.3,436.8l-1.9-2.6v4.9h-1.2v-7.5h0.8l2.6,3.6l2.4-3.6h0.8v7.5h-1.3v-4.8l-1.6,2.4L908.3,436.8z"/>
	<path class="st5" d="M915.3,431.6v4.7c0,0.5,0.1,1,0.5,1.4c0.7,0.7,1.8,0.7,2.5,0c0.3-0.4,0.5-0.9,0.5-1.4v-4.7h1.2v4.8
		c0,0.5-0.1,1-0.4,1.5c-0.2,0.4-0.6,0.8-1,1c-1,0.5-2.2,0.5-3.2,0c-0.4-0.2-0.8-0.6-1-1c-0.2-0.4-0.4-0.9-0.4-1.5v-4.8L915.3,431.6z
		"/>
	<path class="st5" d="M922.4,439.1v-7.5h1.2l3.7,5.3v-5.3h1.2v7.5h-1.2l-3.7-5.3v5.3H922.4z"/>
	<path class="st5" d="M931,439.1v-7.5h1.2v7.5H931z"/>
	<path class="st5" d="M939.2,439.1l-2.5-3.3l-0.8,0.8v2.5h-1.2v-7.5h1.2v3.3l3.3-3.5l0.9,0.7l-2.6,2.8l3.1,4.2L939.2,439.1z"/>
	<path class="st5" d="M945.4,431.6l2.9,7.4l-1.2,0.2l-0.7-2h-2.9l-0.7,1.9h-1.2l2.9-7.5L945.4,431.6z M944.8,433.3l-1.1,2.9h2.3
		L944.8,433.3z"/>
	<path class="st5" d="M949.5,438.6l0.3-1c0.3,0.1,0.6,0.3,0.9,0.3c0.3,0.1,0.7,0.2,1,0.1c0.4,0,0.8-0.1,1.1-0.3
		c0.2-0.1,0.4-0.4,0.4-0.7c0-0.2-0.1-0.4-0.2-0.5c-0.2-0.2-0.3-0.3-0.5-0.4l-0.9-0.5c-0.6-0.3-1.1-0.6-1.6-1
		c-0.3-0.3-0.5-0.8-0.5-1.3c0-0.4,0.1-0.7,0.3-1c0.2-0.3,0.5-0.6,0.9-0.7c0.4-0.2,0.9-0.3,1.3-0.3c0.4,0,0.7,0.1,1,0.1
		c0.3,0.1,0.7,0.2,1,0.4l-0.4,1c-0.3-0.1-0.5-0.2-0.8-0.3c-0.3-0.1-0.5-0.1-0.8-0.1c-0.3,0-0.6,0.1-0.9,0.2
		c-0.2,0.1-0.4,0.4-0.4,0.6c0,0.2,0.1,0.4,0.2,0.5c0.1,0.2,0.3,0.3,0.5,0.4c0.2,0.1,0.5,0.3,1,0.5c0.4,0.2,0.8,0.4,1.1,0.6
		c0.3,0.2,0.5,0.4,0.7,0.7c0.2,0.3,0.3,0.6,0.3,1c0,0.4-0.1,0.7-0.3,1.1c-0.2,0.3-0.6,0.6-0.9,0.7c-0.5,0.2-1,0.3-1.5,0.3
		c-0.4,0-0.8-0.1-1.2-0.2C950.1,439,949.8,438.9,949.5,438.6z"/>
	<path class="st5" d="M956.2,439.1v-7.5h1.2v7.5H956.2z"/>
	<circle class="st4" cx="885.8" cy="395.2" r="5"/>
	<path class="st2" d="M1045.3,394.6h207c2.2,0,4,1.8,4,4v60.2c0,2.2-1.8,4-4,4h-207c-2.2,0-4-1.8-4-4v-60.2
		C1041.3,396.4,1043.1,394.6,1045.3,394.6z"/>
	<path class="st3" d="M1110.4,409.8l3.7,9.4l-1.3,0.2l-1-2.7h-3.9l-1,2.5h-1.3l3.6-9.5L1110.4,409.8z M1109.8,411.6l-1.5,4.1h3.1
		L1109.8,411.6z"/>
	<path class="st3" d="M1119.6,419.3h-3.4v-9.5h3.4c1.2-0.1,2.4,0.4,3.2,1.3c0.7,1,1.1,2.2,1.1,3.4c0,0.9-0.2,1.7-0.5,2.5
		c-0.3,0.7-0.8,1.3-1.5,1.7C1121.2,419.1,1120.4,419.3,1119.6,419.3z M1119.7,410.9h-2.1v7.3h2c0.8,0,1.6-0.3,2.1-1
		c0.6-0.8,0.9-1.7,0.8-2.7c0-0.9-0.2-1.8-0.7-2.6C1121.3,411.2,1120.5,410.9,1119.7,410.9z"/>
	<path class="st3" d="M1129.6,417.5l2.9-7.7h1.3l-3.6,9.5h-1.2l-3.7-9.4l1.3-0.2L1129.6,417.5z"/>
	<path class="st3" d="M1139.7,409.5c1.7,0,3.2,0.9,4,2.4c0.8,1.6,0.8,3.5,0,5.1c-0.4,0.7-0.9,1.4-1.6,1.8c-0.7,0.4-1.5,0.7-2.4,0.7
		c-1.7,0-3.2-0.9-3.9-2.4c-0.8-1.6-0.8-3.5,0-5.1c0.4-0.7,0.9-1.3,1.6-1.8C1138.1,409.8,1138.9,409.6,1139.7,409.5z M1136.5,414.5
		c0,0.7,0.1,1.3,0.4,2c0.2,0.5,0.6,1,1.1,1.4c0.5,0.3,1,0.5,1.6,0.5c0.6,0,1.2-0.2,1.6-0.5c0.5-0.3,0.9-0.8,1.1-1.4
		c0.3-0.6,0.4-1.3,0.4-2c0-0.7-0.1-1.3-0.4-1.9c-0.2-0.5-0.6-1-1.1-1.3c-0.5-0.3-1-0.5-1.6-0.5c-0.6,0-1.2,0.2-1.6,0.5
		c-0.5,0.3-0.9,0.8-1.1,1.4C1136.7,413.2,1136.5,413.9,1136.5,414.5L1136.5,414.5z"/>
	<path class="st3" d="M1152.5,419.3l-3.3-4.4l-1,1.1v3.3h-1.3v-9.5h1.3v4.4l4.3-4.6l1,0.8l-3.4,3.6l4.1,5.4L1152.5,419.3z"/>
	<path class="st3" d="M1156.2,419.3v-9.5h5.4l0.2,1h-4.2v3.1h3.2l0.2,1h-3.4v3.3h4.5l0.2,1L1156.2,419.3z"/>
	<path class="st3" d="M1164,418.8l0.3-1.1c0.4,0.2,0.7,0.3,1.1,0.4c0.4,0.1,0.8,0.2,1.3,0.2c0.5,0,1.1-0.1,1.5-0.4
		c0.3-0.2,0.6-0.6,0.6-1c0-0.3-0.1-0.6-0.3-0.8c-0.2-0.3-0.5-0.5-0.8-0.6c-0.3-0.2-0.8-0.4-1.4-0.7c-0.5-0.2-1-0.5-1.4-0.8
		c-0.7-0.5-1.1-1.2-1.1-2.1c0-0.4,0.1-0.9,0.4-1.3c0.3-0.4,0.6-0.7,1.1-0.9c0.5-0.2,1.1-0.3,1.7-0.3c0.4,0,0.9,0.1,1.3,0.2
		c0.4,0.1,0.8,0.3,1.2,0.5l-0.4,1.1c-0.3-0.1-0.6-0.3-0.9-0.4c-0.3-0.1-0.7-0.1-1-0.1c-0.5,0-0.9,0.1-1.4,0.3
		c-0.3,0.2-0.5,0.5-0.5,0.9c0,0.3,0.1,0.6,0.3,0.8c0.2,0.3,0.5,0.5,0.8,0.6c0.3,0.2,0.8,0.4,1.4,0.7c0.7,0.3,1.3,0.7,1.9,1.2
		c0.4,0.4,0.6,1,0.6,1.6c0,0.5-0.1,0.9-0.4,1.3c-0.3,0.4-0.7,0.7-1.2,0.9c-0.6,0.2-1.2,0.3-1.8,0.3c-0.5,0-1-0.1-1.5-0.2
		C1164.8,419.2,1164.4,419,1164,418.8z"/>
	<path class="st3" d="M1176.4,416.2l-2.6-3.7v6.7h-1.3v-9.5h0.8l3.3,4.7l3.2-4.7h0.8v9.5h-1.4v-6.6l-2.4,3.5L1176.4,416.2z"/>
	<path class="st3" d="M1187.5,409.8l3.7,9.4l-1.3,0.2l-1-2.7h-3.9l-1,2.5h-1.3l3.6-9.5L1187.5,409.8z M1186.9,411.6l-1.5,4.1h3.1
		L1186.9,411.6z"/>
	<path class="st5" d="M1071.4,425l2.9,7.4l-1.2,0.2l-0.7-2h-2.9l-0.7,1.9h-1.2l2.9-7.5L1071.4,425z M1070.9,426.7l-1.1,2.9h2.2
		L1070.9,426.7z"/>
	<path class="st5" d="M1078.7,432.5h-2.7V425h2.8c1-0.1,1.9,0.3,2.5,1c0.6,0.8,0.9,1.7,0.9,2.7c0,0.7-0.1,1.4-0.4,2
		c-0.2,0.6-0.7,1-1.2,1.3C1080,432.3,1079.3,432.5,1078.7,432.5z M1078.8,426.1h-1.6v5.4h1.5c0.6,0,1.2-0.2,1.6-0.7
		c0.4-0.6,0.6-1.3,0.6-2c0.1-0.7-0.1-1.4-0.5-2C1079.9,426.3,1079.3,426,1078.8,426.1L1078.8,426.1z"/>
	<path class="st5" d="M1086.6,430.8l2.2-5.8h1.2l-2.9,7.5h-1.1l-2.9-7.4l1.2-0.2L1086.6,430.8z"/>
	<path class="st5" d="M1094.7,424.8c0.7,0,1.3,0.2,1.9,0.5c0.5,0.3,1,0.8,1.3,1.4c0.6,1.3,0.6,2.7,0,4c-0.3,0.6-0.7,1.1-1.3,1.4
		c-0.6,0.3-1.2,0.5-1.9,0.5c-0.7,0-1.3-0.2-1.9-0.5c-0.5-0.3-1-0.8-1.3-1.4c-0.3-0.6-0.5-1.3-0.4-2c0-0.7,0.1-1.4,0.5-2
		c0.3-0.6,0.7-1.1,1.3-1.4C1093.4,425,1094,424.8,1094.7,424.8z M1092.4,428.8c0,0.5,0.1,1,0.3,1.5c0.2,0.4,0.5,0.7,0.8,1
		c0.4,0.2,0.8,0.4,1.2,0.4c0.4,0,0.8-0.1,1.2-0.4c0.4-0.2,0.7-0.6,0.8-1c0.2-0.5,0.3-1,0.3-1.5c0-0.5-0.1-1-0.3-1.5
		c-0.2-0.4-0.5-0.7-0.8-1c-0.4-0.2-0.8-0.4-1.2-0.4c-0.4,0-0.8,0.1-1.2,0.4c-0.4,0.2-0.7,0.6-0.8,1
		C1092.5,427.7,1092.3,428.3,1092.4,428.8L1092.4,428.8z"/>
	<path class="st5" d="M1104.7,432.5l-2.4-3.3l-0.8,0.8v2.5h-1.2V425h1.2v3.3l3.3-3.5l0.9,0.7l-2.6,2.8l3.1,4.2L1104.7,432.5z"/>
	<path class="st5" d="M1110.9,425l2.9,7.4l-1.2,0.2l-0.7-2h-2.9l-0.7,1.9h-1.2l2.9-7.5L1110.9,425z M1110.4,426.7l-1.1,2.9h2.2
		L1110.4,426.7z"/>
	<path class="st5" d="M1115,432l0.3-1c0.3,0.1,0.6,0.3,0.9,0.3c0.3,0.1,0.7,0.2,1,0.1c0.4,0,0.8-0.1,1.1-0.3
		c0.2-0.1,0.4-0.4,0.4-0.7c0-0.2-0.1-0.4-0.2-0.5c-0.2-0.2-0.3-0.3-0.5-0.4c-0.2-0.1-0.5-0.3-0.9-0.5c-0.6-0.3-1.1-0.6-1.6-1
		c-0.3-0.3-0.5-0.8-0.5-1.3c0-0.4,0.1-0.7,0.3-1c0.2-0.3,0.5-0.6,0.9-0.7c0.4-0.2,0.9-0.3,1.3-0.3c0.4,0,0.7,0.1,1.1,0.1
		c0.3,0.1,0.7,0.2,1,0.4l-0.4,1c-0.3-0.1-0.5-0.2-0.8-0.3c-0.3-0.1-0.5-0.1-0.8-0.1c-0.3,0-0.6,0.1-0.9,0.2
		c-0.2,0.1-0.4,0.4-0.4,0.6c0,0.2,0.1,0.4,0.2,0.5c0.1,0.2,0.3,0.3,0.5,0.4c0.2,0.1,0.5,0.3,1,0.5c0.4,0.2,0.8,0.4,1.1,0.6
		c0.3,0.2,0.5,0.4,0.7,0.7c0.2,0.3,0.3,0.6,0.3,1c0,0.4-0.1,0.7-0.3,1.1c-0.2,0.3-0.6,0.6-0.9,0.7c-0.5,0.2-1,0.3-1.5,0.3
		c-0.4,0-0.8-0.1-1.2-0.2C1115.7,432.4,1115.3,432.2,1115,432z"/>
	<path class="st5" d="M1121.7,432.5V425h1.3v7.5L1121.7,432.5z"/>
	<path class="st5" d="M1132.9,425.4l-0.4,1c-0.2-0.1-0.5-0.2-0.8-0.3c-0.2-0.1-0.5-0.1-0.8-0.1c-0.3,0-0.5,0.1-0.7,0.3
		c-0.2,0.2-0.3,0.4-0.3,0.6c0,0.3,0.1,0.5,0.2,0.7c0.2,0.3,0.5,0.6,0.8,0.8l1.9,1.8c0.2-0.5,0.3-1.1,0.4-1.7l1.1,0.4
		c0,0.7-0.2,1.4-0.5,2.1l0.9,0.8l-0.7,0.9l-0.9-0.8c-0.6,0.5-1.4,0.8-2.3,0.8c-0.5,0-1-0.1-1.5-0.3c-0.9-0.4-1.5-1.2-1.4-2.2
		c0-0.4,0.1-0.8,0.3-1.2c0.2-0.4,0.5-0.7,0.8-1c-0.2-0.3-0.3-0.7-0.3-1.1c0-0.4,0.1-0.7,0.3-1c0.2-0.3,0.5-0.6,0.8-0.8
		c0.4-0.2,0.8-0.3,1.2-0.3C1131.6,424.9,1132.3,425,1132.9,425.4z M1132.2,431l-2.1-1.9c-0.1-0.1-0.2-0.2-0.3-0.4
		c-0.2,0.2-0.3,0.4-0.4,0.6c-0.1,0.2-0.2,0.5-0.2,0.7c0,0.4,0.1,0.8,0.5,1.1c0.3,0.2,0.7,0.4,1.1,0.4
		C1131.3,431.6,1131.8,431.4,1132.2,431L1132.2,431z"/>
	<path class="st5" d="M1144,432.5l-2.4-3.3l-0.8,0.8v2.5h-1.2V425h1.2v3.3l3.3-3.5l0.9,0.7l-2.6,2.8l3.1,4.2L1144,432.5z"/>
	<path class="st5" d="M1147.2,432.5V425h4.3l0.2,1h-3.3v2.2h2.5l0.2,1h-2.7v2.3h3.6l0.2,1L1147.2,432.5z"/>
	<path class="st5" d="M1153.5,432l0.3-1c0.3,0.1,0.6,0.3,0.9,0.3c0.3,0.1,0.7,0.2,1,0.1c0.4,0,0.8-0.1,1.1-0.3
		c0.2-0.1,0.4-0.4,0.4-0.7c0-0.2-0.1-0.4-0.2-0.5c-0.2-0.2-0.3-0.3-0.5-0.4c-0.2-0.1-0.5-0.3-0.9-0.5c-0.6-0.3-1.1-0.6-1.6-1
		c-0.3-0.3-0.5-0.8-0.5-1.3c0-0.4,0.1-0.7,0.3-1c0.2-0.3,0.5-0.6,0.9-0.7c0.4-0.2,0.9-0.3,1.3-0.3c0.4,0,0.7,0.1,1.1,0.1
		c0.3,0.1,0.7,0.2,1,0.4l-0.4,1c-0.3-0.1-0.5-0.2-0.8-0.3c-0.3-0.1-0.5-0.1-0.8-0.1c-0.3,0-0.6,0.1-0.9,0.2
		c-0.2,0.1-0.4,0.4-0.4,0.6c0,0.2,0.1,0.4,0.2,0.5c0.1,0.2,0.3,0.3,0.5,0.4c0.2,0.1,0.5,0.3,1,0.5c0.4,0.2,0.8,0.4,1.1,0.6
		c0.3,0.2,0.5,0.4,0.7,0.7c0.2,0.3,0.3,0.6,0.3,1c0,0.4-0.1,0.7-0.3,1.1c-0.2,0.3-0.6,0.6-0.9,0.7c-0.5,0.2-1,0.3-1.5,0.3
		c-0.4,0-0.8-0.1-1.2-0.2C1154.1,432.4,1153.8,432.2,1153.5,432z"/>
	<path class="st5" d="M1160.2,432.5V425h4.3l0.2,1h-3.3v2.2h2.5l0.2,1h-2.7v2.3h3.6l0.2,1L1160.2,432.5z"/>
	<path class="st5" d="M1166.9,431.6V425h1.2v6.8c0,0.3,0,0.6-0.2,0.8c-0.1,0.2-0.3,0.4-0.5,0.5c-0.3,0.2-0.6,0.3-1,0.4l-0.5-0.9
		c0.2-0.1,0.4-0.2,0.6-0.3c0.1-0.1,0.2-0.2,0.2-0.3C1166.9,432,1166.9,431.8,1166.9,431.6z"/>
	<path class="st5" d="M1173.6,425l2.9,7.4l-1.2,0.2l-0.7-2h-2.9l-0.7,1.9h-1.2l2.9-7.5L1173.6,425z M1173.1,426.7l-1.1,2.9h2.2
		L1173.1,426.7z"/>
	<path class="st5" d="M1182.5,432.5v-3.3h-3.1v3.3h-1.2V425l1.2,0v3.3h3.1V425h1.2v7.5L1182.5,432.5z"/>
	<path class="st5" d="M1191.5,426h-2.5v6.5h-1.3V426h-2.3v-1h6L1191.5,426z"/>
	<path class="st5" d="M1193.2,432.5V425h4.3l0.2,1h-3.3v2.2h2.5l0.2,1h-2.7v2.3h3.6l0.2,1L1193.2,432.5z"/>
	<path class="st5" d="M1199.9,425h2.2c0.7,0,1.5,0.2,2.1,0.6c0.5,0.4,0.8,1,0.8,1.7c0,0.4-0.1,0.8-0.3,1.2c-0.2,0.3-0.6,0.6-0.9,0.8
		l1.9,3.3h-1.3l-1.6-3c-0.2,0-0.4,0-0.6,0h-0.9v2.9h-1.2L1199.9,425z M1202.1,426h-1v2.5h1c0.4,0,0.8-0.1,1.2-0.3
		c0.3-0.2,0.5-0.6,0.4-1c0-0.4-0.1-0.8-0.4-1C1202.9,426.1,1202.5,426,1202.1,426z"/>
	<path class="st5" d="M1210.3,425l2.9,7.4l-1.2,0.2l-0.7-2h-2.9l-0.7,1.9h-1.2l2.9-7.5L1210.3,425z M1209.7,426.7l-1.1,2.9h2.2
		L1209.7,426.7z"/>
	<path class="st5" d="M1217.9,425l2.9,7.4l-1.2,0.2l-0.7-2h-2.9l-0.7,1.9h-1.2l2.9-7.5L1217.9,425z M1217.3,426.7l-1.1,2.9h2.2
		L1217.3,426.7z"/>
	<path class="st5" d="M1222.4,432.5V425h1.2l3.7,5.3V425h1.2v7.5h-1.2l-3.7-5.3v5.3L1222.4,432.5z"/>
	<path class="st5" d="M1119.5,443.4l-1.9-2.6v4.9h-1.2v-7.5h0.8l2.6,3.6l2.4-3.6h0.8v7.5h-1.3v-4.8l-1.6,2.4L1119.5,443.4z"/>
	<path class="st5" d="M1128.4,438.2l2.9,7.4l-1.2,0.2l-0.7-2h-2.9l-0.7,1.9h-1.2l2.9-7.5L1128.4,438.2z M1127.8,439.9l-1.1,2.9h2.2
		L1127.8,439.9z"/>
	<path class="st5" d="M1137.3,445.7v-3.3h-3.1v3.3h-1.2v-7.5l1.2-0.1v3.3h3.1v-3.2h1.2v7.5H1137.3z"/>
	<path class="st5" d="M1144.1,438.2l2.9,7.4l-1.2,0.2l-0.7-2h-2.9l-0.7,1.9h-1.2l2.9-7.5L1144.1,438.2z M1143.5,439.9l-1.1,2.9h2.2
		L1143.5,439.9z"/>
	<path class="st5" d="M1148.2,445.2l0.3-1c0.3,0.1,0.6,0.3,0.9,0.3c0.3,0.1,0.7,0.1,1,0.1c0.4,0,0.8-0.1,1.1-0.3
		c0.2-0.1,0.4-0.4,0.4-0.7c0-0.2-0.1-0.4-0.2-0.5c-0.2-0.2-0.3-0.3-0.5-0.4c-0.2-0.1-0.5-0.3-0.9-0.5c-0.6-0.3-1.1-0.6-1.6-1
		c-0.3-0.3-0.5-0.8-0.5-1.3c0-0.4,0.1-0.7,0.3-1c0.2-0.3,0.5-0.6,0.9-0.7c0.4-0.2,0.9-0.3,1.3-0.3c0.4,0,0.7,0.1,1.1,0.1
		c0.3,0.1,0.7,0.2,1,0.4l-0.4,1c-0.3-0.1-0.5-0.2-0.8-0.3c-0.3-0.1-0.5-0.1-0.8-0.1c-0.3,0-0.7,0.1-0.9,0.2
		c-0.2,0.1-0.4,0.4-0.4,0.6c0,0.2,0.1,0.4,0.2,0.5c0.1,0.2,0.3,0.3,0.5,0.4c0.2,0.1,0.5,0.3,1,0.5c0.4,0.2,0.8,0.4,1.1,0.6
		c0.3,0.2,0.5,0.4,0.7,0.7c0.2,0.3,0.3,0.6,0.3,1c0,0.4-0.1,0.7-0.3,1.1c-0.2,0.3-0.6,0.6-0.9,0.7c-0.5,0.2-1,0.3-1.5,0.3
		c-0.4,0-0.8-0.1-1.2-0.2C1148.8,445.6,1148.5,445.5,1148.2,445.2z"/>
	<path class="st5" d="M1154.9,445.7v-7.5h1.2v7.5H1154.9z"/>
	<path class="st5" d="M1158.2,445.2l0.3-1c0.3,0.1,0.6,0.3,0.9,0.3c0.3,0.1,0.7,0.2,1,0.1c0.4,0,0.8-0.1,1.1-0.3
		c0.2-0.1,0.4-0.4,0.4-0.7c0-0.2-0.1-0.4-0.2-0.5c-0.2-0.2-0.3-0.3-0.5-0.4l-0.9-0.5c-0.6-0.3-1.1-0.6-1.6-1
		c-0.3-0.3-0.5-0.8-0.5-1.3c0-0.4,0.1-0.7,0.3-1c0.2-0.3,0.5-0.6,0.9-0.7c0.4-0.2,0.9-0.3,1.3-0.3c0.4,0,0.7,0.1,1.1,0.1
		c0.3,0.1,0.7,0.2,1,0.4l-0.4,1c-0.3-0.1-0.5-0.2-0.8-0.3c-0.3-0.1-0.5-0.1-0.8-0.1c-0.3,0-0.6,0.1-0.9,0.2
		c-0.2,0.1-0.4,0.4-0.4,0.6c0,0.2,0.1,0.4,0.2,0.5c0.1,0.2,0.3,0.3,0.5,0.4c0.2,0.1,0.5,0.3,1,0.5c0.4,0.2,0.8,0.4,1.1,0.6
		c0.3,0.2,0.5,0.4,0.7,0.7c0.2,0.3,0.3,0.6,0.3,1c0,0.4-0.1,0.7-0.3,1.1c-0.2,0.3-0.6,0.6-0.9,0.7c-0.5,0.2-1,0.3-1.5,0.3
		c-0.4,0-0.8-0.1-1.2-0.2C1158.8,445.6,1158.5,445.5,1158.2,445.2z"/>
	<path class="st5" d="M1173.8,438.2l-2.2,7.5h-1.1l-1.6-5.7l-1.6,5.7h-1.1l-2.2-7.4l1.2-0.2l1.6,5.9l1.5-5.8h1.2l1.5,5.8l1.5-5.8
		L1173.8,438.2z"/>
	<path class="st5" d="M1178.5,438.2l2.9,7.4l-1.2,0.2l-0.7-2h-2.9l-0.7,1.9h-1.2l2.9-7.5L1178.5,438.2z M1177.9,439.9l-1.1,2.9h2.2
		L1177.9,439.9z"/>
	<circle class="st4" cx="1148.5" cy="394.9" r="5"/>
	<path class="st2" d="M1308,394.8h207c2.2,0,4,1.8,4,4v60c0,2.2-1.8,4-4,4h-207c-2.2,0-4-1.8-4-4v-60
		C1304,396.6,1305.8,394.8,1308,394.8z"/>
	<path class="st3" d="M1388.2,425.3l0.3-1.1c0.4,0.2,0.7,0.3,1.1,0.4c0.4,0.1,0.8,0.2,1.3,0.2c0.5,0,1.1-0.1,1.5-0.4
		c0.3-0.2,0.6-0.6,0.6-1c0-0.3-0.1-0.6-0.3-0.8c-0.2-0.3-0.5-0.5-0.8-0.6c-0.3-0.2-0.8-0.4-1.4-0.7c-0.5-0.2-1-0.5-1.4-0.8
		c-0.3-0.2-0.6-0.5-0.8-0.9c-0.2-0.4-0.3-0.8-0.3-1.2c0-0.4,0.1-0.9,0.4-1.3c0.3-0.4,0.6-0.7,1.1-0.9c0.5-0.2,1.1-0.3,1.7-0.3
		c0.4,0,0.9,0.1,1.3,0.2c0.4,0.1,0.8,0.3,1.2,0.5l-0.4,1.1c-0.3-0.1-0.6-0.3-0.9-0.4c-0.3-0.1-0.7-0.1-1-0.1c-0.5,0-0.9,0.1-1.4,0.3
		c-0.3,0.2-0.5,0.5-0.5,0.9c0,0.3,0.1,0.6,0.3,0.8c0.2,0.3,0.5,0.5,0.8,0.6c0.3,0.2,0.8,0.4,1.4,0.7c0.7,0.3,1.3,0.7,1.9,1.2
		c0.4,0.4,0.6,1,0.6,1.6c0,0.5-0.1,0.9-0.4,1.3c-0.3,0.4-0.7,0.7-1.2,0.9c-0.6,0.2-1.2,0.3-1.8,0.3c-0.5,0-1-0.1-1.5-0.2
		C1389,425.7,1388.6,425.6,1388.2,425.3z"/>
	<path class="st3" d="M1400.6,416.1c1.7,0,3.2,0.9,4,2.4c0.8,1.6,0.8,3.5,0,5.1c-0.4,0.7-0.9,1.4-1.6,1.8c-0.7,0.4-1.5,0.7-2.4,0.7
		c-1.7,0-3.2-0.9-3.9-2.4c-0.8-1.6-0.8-3.5,0-5.1c0.4-0.7,0.9-1.3,1.6-1.8C1398.9,416.4,1399.7,416.1,1400.6,416.1z M1397.4,421.1
		c0,0.7,0.1,1.3,0.4,2c0.2,0.5,0.6,1,1.1,1.4c0.5,0.3,1,0.5,1.6,0.5c0.6,0,1.2-0.2,1.6-0.5c0.5-0.3,0.9-0.8,1.1-1.4
		c0.3-0.6,0.4-1.3,0.4-2c0-0.7-0.1-1.3-0.4-1.9c-0.2-0.5-0.6-1-1.1-1.3c-0.5-0.3-1-0.5-1.6-0.5c-0.6,0-1.2,0.2-1.6,0.5
		c-0.5,0.3-0.9,0.8-1.1,1.4C1397.5,419.7,1397.4,420.4,1397.4,421.1L1397.4,421.1z"/>
	<path class="st3" d="M1407.1,425.3l0.3-1.1c0.4,0.2,0.7,0.3,1.1,0.4c0.4,0.1,0.8,0.2,1.3,0.2c0.5,0,1.1-0.1,1.5-0.4
		c0.3-0.2,0.6-0.6,0.6-1c0-0.3-0.1-0.6-0.3-0.8c-0.2-0.3-0.5-0.5-0.8-0.6c-0.3-0.2-0.8-0.4-1.4-0.7c-0.5-0.2-1-0.5-1.4-0.8
		c-0.7-0.5-1.1-1.2-1.1-2.1c0-0.4,0.1-0.9,0.4-1.3c0.3-0.4,0.6-0.7,1.1-0.9c0.5-0.2,1.1-0.3,1.7-0.3c0.4,0,0.9,0.1,1.3,0.2
		c0.4,0.1,0.8,0.3,1.2,0.5l-0.4,1.1c-0.3-0.1-0.6-0.3-0.9-0.4c-0.3-0.1-0.7-0.1-1-0.1c-0.5,0-0.9,0.1-1.4,0.3
		c-0.3,0.2-0.5,0.5-0.5,0.9c0,0.3,0.1,0.6,0.3,0.8c0.2,0.3,0.5,0.5,0.8,0.6c0.3,0.2,0.8,0.4,1.4,0.7c0.7,0.3,1.3,0.7,1.9,1.2
		c0.4,0.4,0.6,1,0.6,1.6c0,0.5-0.1,0.9-0.4,1.3c-0.3,0.4-0.7,0.7-1.2,0.9c-0.6,0.2-1.2,0.3-1.8,0.3c-0.5,0-1-0.1-1.5-0.2
		C1407.9,425.7,1407.4,425.6,1407.1,425.3z"/>
	<path class="st3" d="M1419.5,422.8l-2.6-3.7v6.7h-1.3v-9.5h0.8l3.3,4.7l3.2-4.7h0.8v9.5h-1.4v-6.6l-2.4,3.5L1419.5,422.8z"/>
	<path class="st3" d="M1430.7,416.3l3.7,9.4l-1.3,0.2l-1-2.7h-3.9l-1,2.5h-1.3l3.6-9.5L1430.7,416.3z M1430,418.1l-1.5,4.1h3.1
		L1430,418.1z"/>
	<path class="st5" d="M1353.5,438.6l0.3-1c0.3,0.1,0.6,0.3,0.9,0.3c0.3,0.1,0.7,0.2,1,0.1c0.4,0,0.8-0.1,1.1-0.3
		c0.2-0.1,0.4-0.4,0.4-0.7c0-0.2-0.1-0.4-0.2-0.5c-0.2-0.2-0.3-0.3-0.5-0.4l-0.9-0.5c-0.6-0.3-1.1-0.6-1.6-1
		c-0.3-0.3-0.5-0.8-0.5-1.3c0-0.4,0.1-0.7,0.3-1c0.2-0.3,0.5-0.6,0.9-0.7c0.4-0.2,0.9-0.3,1.3-0.3c0.4,0,0.7,0.1,1.1,0.1
		c0.3,0.1,0.7,0.2,1,0.4l-0.4,1c-0.3-0.1-0.5-0.2-0.8-0.3c-0.3-0.1-0.5-0.1-0.8-0.1c-0.3,0-0.6,0.1-0.9,0.2
		c-0.2,0.1-0.4,0.4-0.4,0.6c0,0.2,0.1,0.4,0.2,0.5c0.1,0.2,0.3,0.3,0.5,0.4c0.2,0.1,0.5,0.3,1,0.5c0.4,0.2,0.8,0.4,1.1,0.6
		c0.3,0.2,0.5,0.4,0.7,0.7c0.2,0.3,0.3,0.6,0.3,1c0,0.4-0.1,0.7-0.3,1.1c-0.2,0.3-0.6,0.6-0.9,0.7c-0.5,0.2-1,0.3-1.5,0.3
		c-0.4,0-0.8-0.1-1.2-0.2C1354.2,439,1353.8,438.8,1353.5,438.6z"/>
	<path class="st5" d="M1363.3,431.4c0.7,0,1.3,0.2,1.9,0.5c0.5,0.3,1,0.8,1.3,1.4c0.6,1.3,0.6,2.7,0,4c-0.3,0.6-0.7,1.1-1.3,1.4
		c-0.6,0.3-1.2,0.5-1.9,0.5c-0.7,0-1.3-0.2-1.9-0.5c-0.5-0.3-1-0.8-1.3-1.4c-0.6-1.3-0.6-2.7,0-4c0.3-0.6,0.7-1.1,1.3-1.4
		C1362,431.6,1362.6,431.4,1363.3,431.4z M1361,435.3c0,0.5,0.1,1,0.3,1.5c0.2,0.4,0.5,0.7,0.8,1c0.4,0.2,0.8,0.4,1.2,0.4
		c0.4,0,0.8-0.1,1.2-0.4c0.4-0.2,0.7-0.6,0.8-1c0.2-0.5,0.3-1,0.3-1.5c0-0.5-0.1-1-0.3-1.5c-0.2-0.4-0.5-0.7-0.8-1
		c-0.4-0.2-0.8-0.4-1.2-0.4c-0.4,0-0.8,0.1-1.2,0.4c-0.4,0.2-0.7,0.6-0.8,1C1361.1,434.3,1361,434.8,1361,435.3L1361,435.3z"/>
	<path class="st5" d="M1368.4,438.6l0.3-1c0.3,0.1,0.6,0.3,0.9,0.3c0.3,0.1,0.7,0.1,1,0.1c0.4,0,0.8-0.1,1.1-0.3
		c0.2-0.1,0.4-0.4,0.4-0.7c0-0.2-0.1-0.4-0.2-0.5c-0.2-0.2-0.3-0.3-0.5-0.4c-0.2-0.1-0.5-0.3-0.9-0.5c-0.6-0.3-1.1-0.6-1.6-1
		c-0.3-0.3-0.5-0.8-0.5-1.3c0-0.4,0.1-0.7,0.3-1c0.2-0.3,0.5-0.6,0.9-0.7c0.4-0.2,0.9-0.3,1.3-0.3c0.4,0,0.7,0.1,1.1,0.1
		c0.3,0.1,0.7,0.2,1,0.4l-0.4,1c-0.3-0.1-0.5-0.2-0.8-0.3c-0.3-0.1-0.5-0.1-0.8-0.1c-0.3,0-0.7,0.1-0.9,0.2
		c-0.2,0.1-0.4,0.4-0.4,0.6c0,0.2,0.1,0.4,0.2,0.5c0.1,0.2,0.3,0.3,0.5,0.4c0.2,0.1,0.5,0.3,1,0.5c0.4,0.2,0.8,0.4,1.1,0.6
		c0.3,0.2,0.5,0.4,0.7,0.7c0.2,0.3,0.3,0.6,0.3,1c0,0.4-0.1,0.7-0.3,1.1c-0.2,0.3-0.6,0.6-0.9,0.7c-0.5,0.2-1,0.3-1.5,0.3
		c-0.4,0-0.8-0.1-1.2-0.2C1369.1,439,1368.7,438.8,1368.4,438.6z"/>
	<path class="st5" d="M1375.1,439v-7.5h1.2v7.5H1375.1z"/>
	<path class="st5" d="M1381.9,431.6l2.9,7.4l-1.2,0.2l-0.7-2h-2.9l-0.7,1.9h-1.2l2.9-7.5L1381.9,431.6z M1381.4,433.3l-1.1,2.9h2.2
		L1381.4,433.3z"/>
	<path class="st5" d="M1391.2,439h-4.7v-7.5h1.2v6.5h3.3L1391.2,439z"/>
	<path class="st5" d="M1399,436.7l-1.9-2.6v4.9h-1.2v-7.5h0.8l2.6,3.6l2.4-3.6h0.8v7.5h-1.3v-4.8l-1.6,2.4L1399,436.7z"/>
	<path class="st5" d="M1407.9,431.6l2.9,7.4l-1.2,0.2l-0.7-2h-2.9l-0.7,1.9h-1.2l2.9-7.5L1407.9,431.6z M1407.4,433.3l-1.1,2.9h2.2
		L1407.4,433.3z"/>
	<path class="st5" d="M1412,438.6l0.3-1c0.3,0.1,0.6,0.3,0.9,0.3c0.3,0.1,0.7,0.1,1,0.1c0.4,0,0.8-0.1,1.1-0.3
		c0.2-0.1,0.4-0.4,0.4-0.7c0-0.2-0.1-0.4-0.2-0.5c-0.2-0.2-0.3-0.3-0.5-0.4c-0.2-0.1-0.5-0.3-0.9-0.5c-0.6-0.3-1.1-0.6-1.6-1
		c-0.3-0.3-0.5-0.8-0.5-1.3c0-0.4,0.1-0.7,0.3-1c0.2-0.3,0.5-0.6,0.9-0.7c0.4-0.2,0.9-0.3,1.3-0.3c0.4,0,0.7,0.1,1.1,0.1
		c0.3,0.1,0.7,0.2,1,0.4l-0.4,1c-0.3-0.1-0.5-0.2-0.8-0.3c-0.3-0.1-0.5-0.1-0.8-0.1c-0.3,0-0.7,0.1-0.9,0.2
		c-0.2,0.1-0.4,0.4-0.4,0.6c0,0.2,0.1,0.4,0.2,0.5c0.1,0.2,0.3,0.3,0.5,0.4c0.2,0.1,0.5,0.3,1,0.5c0.4,0.2,0.8,0.4,1.1,0.6
		c0.3,0.2,0.5,0.4,0.7,0.7c0.2,0.3,0.3,0.6,0.3,1c0,0.4-0.1,0.7-0.3,1.1c-0.2,0.3-0.6,0.6-0.9,0.7c-0.5,0.2-1,0.3-1.5,0.3
		c-0.4,0-0.8-0.1-1.2-0.3C1412.6,438.9,1412.3,438.8,1412,438.6z"/>
	<path class="st5" d="M1420.3,439v-2.9l-2.5-4.3l1.2-0.4l1.9,3.5l1.9-3.3h1.3l-2.6,4.5v2.9H1420.3z"/>
	<path class="st5" d="M1428.9,431.6l2.9,7.4l-1.2,0.2l-0.7-2h-2.9l-0.7,1.9h-1.2l2.9-7.5L1428.9,431.6z M1428.3,433.3l-1.1,2.9h2.2
		L1428.3,433.3z"/>
	<path class="st5" d="M1433.4,431.6h2.2c0.7,0,1.5,0.2,2.1,0.6c0.5,0.4,0.8,1,0.8,1.7c0,0.4-0.1,0.8-0.3,1.2
		c-0.2,0.3-0.6,0.6-0.9,0.8l1.9,3.3h-1.3l-1.6-3c-0.2,0-0.4,0-0.6,0h-0.9v2.9h-1.2L1433.4,431.6z M1435.6,432.6h-1v2.5h1
		c0.4,0,0.8-0.1,1.2-0.3c0.3-0.2,0.5-0.6,0.4-1c0-0.4-0.1-0.8-0.4-1C1436.5,432.6,1436.1,432.6,1435.6,432.6L1435.6,432.6z"/>
	<path class="st5" d="M1443.8,431.6l2.9,7.4l-1.2,0.2l-0.7-2h-2.9l-0.7,1.9h-1.2l2.9-7.5L1443.8,431.6z M1443.3,433.3l-1.1,2.9h2.2
		L1443.3,433.3z"/>
	<path class="st5" d="M1452.8,439l-2.4-3.3l-0.8,0.8v2.5h-1.2v-7.5h1.2v3.3l3.3-3.5l0.9,0.7l-2.6,2.8l3.1,4.2H1452.8z"/>
	<path class="st5" d="M1459,431.6l2.9,7.4l-1.2,0.2l-0.7-2h-2.9l-0.7,1.9h-1.2l2.9-7.5L1459,431.6z M1458.4,433.3l-1.1,2.9h2.2
		L1458.4,433.3z"/>
	<path class="st5" d="M1468.9,432.5h-2.6v6.5h-1.3v-6.5h-2.3v-1h6L1468.9,432.5z"/>
	<circle class="st4" cx="1411" cy="394.8" r="5"/>
	<path class="st6" d="M679.8,287.1h-2.7v-7.5h2.7c0.9-0.1,1.9,0.3,2.5,1c0.6,0.8,0.9,1.7,0.8,2.7c0,0.7-0.1,1.4-0.4,2
		c-0.2,0.6-0.6,1-1.2,1.3C681.1,286.9,680.5,287.1,679.8,287.1z M679.9,280.5h-1.7v5.7h1.6c0.6,0,1.3-0.3,1.7-0.8
		c0.5-0.6,0.7-1.4,0.6-2.1c0-0.7-0.2-1.4-0.6-2C681.2,280.7,680.5,280.5,679.9,280.5L679.9,280.5z"/>
	<path class="st6" d="M685.2,287.1v-7.5h4.2l0.1,0.8h-3.3v2.5h2.5l0.1,0.8h-2.7v2.6h3.5l0.1,0.8L685.2,287.1z"/>
	<path class="st6" d="M692.7,287.1h-1.1v-7.5h2.1c0.7,0,1.4,0.2,2,0.6c0.5,0.4,0.8,1.1,0.8,1.8c0,0.5-0.1,0.9-0.4,1.3
		c-0.3,0.4-0.6,0.6-1.1,0.8c-0.5,0.2-1,0.3-1.5,0.3h-1L692.7,287.1z M693.8,280.5h-1.1v3h1c0.5,0,0.9-0.1,1.3-0.4
		c0.3-0.3,0.5-0.7,0.5-1.1c0-0.4-0.1-0.9-0.4-1.1C694.7,280.6,694.3,280.5,693.8,280.5L693.8,280.5z"/>
	<path class="st6" d="M701.4,279.6l2.9,7.4l-1,0.1l-0.8-2.1h-3l-0.8,2h-1l2.8-7.5L701.4,279.6z M700.9,281l-1.2,3.2h2.4L700.9,281z"
		/>
	<path class="st6" d="M706,279.6h2.1c0.7,0,1.4,0.2,2,0.5c0.5,0.4,0.8,1,0.8,1.7c0,0.4-0.1,0.8-0.4,1.2c-0.2,0.3-0.6,0.6-1,0.8
		l1.9,3.3h-1.1l-1.7-3c-0.2,0-0.5,0-0.7,0h-1v3h-1V279.6z M708.1,280.5H707v2.7h1c0.5,0,0.9-0.1,1.3-0.3c0.3-0.2,0.5-0.6,0.5-1
		c0-0.4-0.1-0.8-0.5-1.1C709,280.6,708.5,280.5,708.1,280.5L708.1,280.5z"/>
	<path class="st6" d="M718.3,280.4h-2.6v6.6h-1.1v-6.6h-2.4v-0.8h5.9L718.3,280.4z"/>
	<path class="st6" d="M720,287.1v-7.5h4.2l0.1,0.8H721v2.5h2.5l0.1,0.8H721v2.6h3.5l0.1,0.8L720,287.1z"/>
	<path class="st6" d="M729.6,284.7l-2.1-2.9v5.3h-1v-7.5h0.7l2.6,3.7l2.5-3.7h0.7v7.5h-1.1v-5.2l-1.9,2.7L729.6,284.7z"/>
	<path class="st6" d="M735.5,287.1v-7.5h4.2l0.1,0.8h-3.3v2.5h2.5l0.1,0.8h-2.7v2.6h3.5l0.1,0.8L735.5,287.1z"/>
	<path class="st6" d="M742,287.1v-7.5h0.9l3.9,5.5v-5.5h1.1v7.5h-1l-3.9-5.6v5.6L742,287.1z"/>
	<line class="st0" x1="257.2" y1="16.7" x2="297.2" y2="16.7"/>
	<path class="st3" d="M305.3,19.9v-8.2h1v8.2L305.3,19.9z"/>
	<path class="st3" d="M309,19.9h-1v-5.8h0.7l0.2,0.8c0.3-0.3,0.6-0.5,1-0.7c0.4-0.2,0.8-0.3,1.2-0.3c0.5,0,1,0.2,1.4,0.6
		c0.3,0.4,0.5,1,0.5,1.5v3.9H312v-3.8c0-0.3-0.1-0.7-0.2-1c-0.2-0.3-0.5-0.4-0.8-0.4c-0.4,0-0.7,0.1-1,0.3c-0.4,0.2-0.7,0.5-1,0.8
		L309,19.9z"/>
	<path class="st3" d="M314.1,19.5l0.3-0.7c0.5,0.3,1,0.4,1.6,0.4c0.3,0,0.7-0.1,1-0.2c0.2-0.1,0.4-0.4,0.4-0.6
		c0-0.4-0.5-0.8-1.4-1.1c-0.5-0.1-1-0.4-1.4-0.7c-0.3-0.2-0.5-0.6-0.5-1c0-0.5,0.2-0.9,0.6-1.2c0.5-0.3,1-0.5,1.6-0.4
		c0.3,0,0.7,0,1,0.1c0.3,0.1,0.6,0.2,0.9,0.4l-0.3,0.6c-0.2-0.1-0.5-0.2-0.7-0.3c-0.3-0.1-0.5-0.1-0.8-0.1c-0.3,0-0.6,0.1-0.9,0.2
		c-0.2,0.1-0.3,0.4-0.3,0.6c0,0.2,0.2,0.4,0.4,0.5c0.3,0.2,0.6,0.3,1,0.4c1.3,0.5,2,1.1,2,1.9c0,0.5-0.2,1-0.6,1.3
		c-0.5,0.3-1.2,0.4-1.8,0.4c-0.3,0-0.7,0-1-0.1C314.7,19.8,314.4,19.7,314.1,19.5z"/>
	<path class="st3" d="M321.8,14.2l0.3,0.7h-1.4v3.4c0,0.3,0.1,0.5,0.2,0.7c0.2,0.2,0.4,0.3,0.6,0.3c0.2,0,0.4,0,0.5-0.1l0.2,0.7
		c-0.3,0.1-0.6,0.2-0.9,0.2c-0.4,0-0.9-0.1-1.2-0.4c-0.3-0.3-0.5-0.8-0.4-1.3v-3.5h-0.8v-0.7h0.9v-1.5l1-0.3v1.8H321.8z"/>
	<path class="st3" d="M324.3,19.9h-1v-5.8h0.6l0.3,0.9c0.3-0.2,0.6-0.5,1-0.6c0.3-0.2,0.6-0.3,1-0.3l0.2,0.8c-0.4,0-0.7,0.1-1.1,0.3
		c-0.4,0.2-0.7,0.4-1,0.7L324.3,19.9z"/>
	<path class="st3" d="M331.1,14h0.9v5.8h-0.7l-0.2-0.8c-0.3,0.3-0.6,0.5-1,0.7c-0.4,0.2-0.7,0.3-1.1,0.3c-0.5,0-1-0.2-1.4-0.6
		c-0.3-0.4-0.5-1-0.5-1.5v-3.9h1v3.8c0,0.3,0.1,0.7,0.2,1c0.2,0.3,0.5,0.4,0.8,0.4c0.4,0,0.7-0.1,1-0.3c0.4-0.2,0.7-0.5,1-0.8
		L331.1,14z"/>
	<path class="st3" d="M333.7,19.9v-8.3l1-0.1v5.1l2.6-2.6l0.6,0.6l-1.8,1.8l2.4,3.6h-1.1l-1.9-3l-0.8,0.8v2.2L333.7,19.9z"/>
	<path class="st3" d="M341.5,14.2l0.3,0.7h-1.4v3.4c0,0.3,0.1,0.5,0.2,0.7c0.2,0.2,0.4,0.3,0.6,0.3c0.2,0,0.4,0,0.5-0.1l0.2,0.7
		c-0.3,0.1-0.6,0.2-0.9,0.2c-0.4,0-0.9-0.1-1.2-0.4c-0.3-0.3-0.5-0.8-0.4-1.3v-3.5h-0.8v-0.7h0.9v-1.5l1-0.3v1.8H341.5z"/>
	<path class="st3" d="M343.5,12.9c-0.3,0-0.6-0.3-0.6-0.6c0,0,0,0,0,0c0-0.2,0.1-0.3,0.2-0.5c0.1-0.1,0.3-0.2,0.5-0.2
		c0.4,0,0.6,0.3,0.6,0.6c0,0.2-0.1,0.3-0.2,0.4C343.9,12.8,343.7,12.9,343.5,12.9z M343,19.9v-5.8h1v5.8L343,19.9z"/>
	<path class="st3" d="M345,14.9v-0.7h0.9v-0.9c0-0.5,0.1-0.9,0.4-1.3c0.3-0.3,0.7-0.5,1.2-0.5c0.2,0,0.3,0,0.5,0.1
		c0.1,0,0.3,0.1,0.4,0.1l-0.2,0.8c-0.1,0-0.2-0.1-0.3-0.1c-0.1,0-0.2,0-0.3,0c-0.5,0-0.8,0.3-0.8,1v0.9h1.1l0.3,0.7h-1.4v5h-1v-5
		L345,14.9z"/>
	<line class="st1" x1="257.2" y1="33.7" x2="297.2" y2="33.7"/>
	<path class="st3" d="M310.2,36.9l-3.1-3.9l-0.9,1v3h-1v-8.3h1v4l3.9-4.1l0.6,0.6l-3,3.2l3.6,4.6L310.2,36.9z"/>
	<path class="st3" d="M317.2,35.6c-0.2,0.4-0.6,0.8-1,1.1c-0.5,0.3-1,0.4-1.5,0.4c-0.5,0-1-0.1-1.5-0.4c-0.4-0.3-0.8-0.6-1-1.1
		c-0.2-0.5-0.3-1-0.3-1.6c0-0.5,0.1-1.1,0.4-1.6c0.2-0.5,0.6-0.8,1-1.1c0.5-0.3,1-0.4,1.5-0.4c0.8,0,1.5,0.3,2,0.8
		c0.5,0.6,0.8,1.4,0.7,2.3C317.5,34.5,317.4,35.1,317.2,35.6z M316,35.6c0.4-0.5,0.5-1,0.5-1.6c0-0.6-0.1-1.2-0.5-1.7
		c-0.3-0.4-0.8-0.7-1.4-0.6c-0.5,0-1,0.2-1.4,0.6c-0.4,0.5-0.5,1-0.5,1.6c0,0.6,0.1,1.2,0.5,1.7c0.3,0.4,0.8,0.7,1.4,0.6
		C315.2,36.2,315.7,36,316,35.6L316,35.6z"/>
	<path class="st3" d="M319.6,36.9h-1v-5.8h0.6l0.3,0.9c0.3-0.2,0.6-0.5,1-0.6c0.3-0.2,0.6-0.3,1-0.3l0.2,0.8c-0.4,0-0.7,0.1-1.1,0.3
		c-0.4,0.2-0.7,0.4-1,0.7L319.6,36.9z"/>
	<path class="st3" d="M327.3,28.4v8.5h-0.6l-0.2-0.4c-0.2,0.2-0.5,0.3-0.8,0.4c-0.2,0.1-0.5,0.1-0.8,0.1c-0.8,0-1.5-0.3-2-0.8
		c-0.5-0.6-0.8-1.4-0.7-2.3c0-0.5,0.1-1.1,0.3-1.6c0.2-0.4,0.6-0.8,1-1.1c0.4-0.3,1-0.4,1.5-0.4c0.2,0,0.5,0,0.7,0.1
		c0.2,0.1,0.5,0.2,0.7,0.3v-2.8L327.3,28.4z M325.7,36.1c0.2-0.1,0.4-0.2,0.6-0.4v-3.4c-0.4-0.3-0.9-0.5-1.4-0.5
		c-0.5,0-1,0.2-1.3,0.6c-0.3,0.5-0.5,1-0.5,1.6c0,0.6,0.1,1.2,0.5,1.7c0.3,0.4,0.8,0.7,1.3,0.6C325.2,36.2,325.5,36.2,325.7,36.1
		L325.7,36.1z"/>
	<path class="st3" d="M329.4,29.9c-0.3,0-0.6-0.3-0.6-0.6c0,0,0,0,0,0c0-0.2,0.1-0.3,0.2-0.5c0.1-0.1,0.3-0.2,0.5-0.2
		c0.4,0,0.6,0.3,0.6,0.6c0,0.2-0.1,0.3-0.2,0.5C329.7,29.8,329.6,29.9,329.4,29.9z M328.9,36.9v-5.8h1v5.8L328.9,36.9z"/>
	<path class="st3" d="M332.3,36.9h-1v-5.8h0.7l0.2,0.8c0.3-0.3,0.6-0.5,1-0.7c0.4-0.2,0.8-0.3,1.2-0.3c0.5,0,1,0.2,1.4,0.6
		c0.3,0.4,0.5,1,0.5,1.5v3.9h-1v-3.8c0-0.3-0.1-0.7-0.2-1c-0.2-0.3-0.5-0.4-0.8-0.4c-0.4,0-0.7,0.1-1,0.3c-0.4,0.2-0.7,0.5-1,0.8
		L332.3,36.9z"/>
	<path class="st3" d="M338.2,32.1l-0.3-0.7c0.3-0.2,0.6-0.3,0.9-0.4c0.3-0.1,0.7-0.1,1-0.1c0.4,0,0.8,0.1,1.2,0.3
		c0.3,0.2,0.6,0.4,0.8,0.7c0.2,0.3,0.3,0.6,0.3,1v4h-0.7l-0.1-0.6c-0.2,0.2-0.5,0.4-0.8,0.5c-0.3,0.1-0.6,0.2-0.9,0.2
		c-0.5,0-1.1-0.1-1.5-0.5c-0.3-0.3-0.5-0.8-0.5-1.3c0-0.5,0.2-1,0.6-1.3c0.4-0.3,1-0.5,1.5-0.5h1.5v-0.3c0-0.4-0.1-0.7-0.3-1
		c-0.3-0.3-0.6-0.4-1-0.4c-0.3,0-0.6,0-0.9,0.1C338.7,31.9,338.5,32,338.2,32.1z M338.4,35.2c0,0.3,0.1,0.5,0.3,0.7
		c0.2,0.2,0.5,0.3,0.8,0.3c0.3,0,0.6-0.1,0.9-0.2c0.3-0.2,0.5-0.4,0.8-0.6v-1.3h-1.5c-0.3,0-0.6,0.1-0.9,0.3
		C338.5,34.6,338.4,34.9,338.4,35.2z"/>
	<path class="st3" d="M343.3,36.6l0.3-0.7c0.5,0.3,1,0.4,1.6,0.4c0.3,0,0.7-0.1,1-0.2c0.2-0.1,0.4-0.4,0.4-0.6
		c0-0.4-0.5-0.8-1.4-1.1c-0.5-0.1-1-0.4-1.4-0.7c-0.3-0.2-0.5-0.6-0.5-1c0-0.5,0.2-0.9,0.6-1.2c0.5-0.3,1-0.5,1.6-0.4
		c0.3,0,0.7,0,1,0.1c0.3,0.1,0.6,0.2,0.9,0.4l-0.3,0.7c-0.2-0.1-0.5-0.2-0.7-0.3c-0.3-0.1-0.5-0.1-0.8-0.1c-0.3,0-0.6,0.1-0.9,0.2
		c-0.2,0.1-0.3,0.4-0.3,0.6c0,0.2,0.2,0.4,0.4,0.5c0.3,0.2,0.6,0.3,1,0.4c1.3,0.5,2,1.1,2,1.8c0,0.5-0.2,1-0.6,1.3
		c-0.5,0.3-1.1,0.5-1.7,0.4c-0.3,0-0.7,0-1-0.1C343.9,36.9,343.5,36.7,343.3,36.6z"/>
	<path class="st3" d="M349.1,29.9c-0.3,0-0.6-0.3-0.6-0.6c0,0,0,0,0,0c0-0.2,0.1-0.3,0.2-0.5c0.1-0.1,0.3-0.2,0.5-0.2
		c0.4,0,0.6,0.3,0.6,0.6c0,0.2-0.1,0.3-0.2,0.5C349.4,29.8,349.3,29.9,349.1,29.9z M348.6,36.9v-5.8h1v5.8L348.6,36.9z"/>
	<g>
		<path class="st3" d="M921.4,147.6c0,0.1-0.1,0.1-0.1,0.2c0,0-0.1,0.1-0.2,0.1c-0.1,0-0.2,0-0.3-0.1c-0.1-0.1-0.2-0.2-0.4-0.3
			s-0.4-0.2-0.6-0.3c-0.2-0.1-0.5-0.1-0.8-0.1c-0.3,0-0.6,0-0.8,0.1s-0.4,0.2-0.6,0.3s-0.3,0.3-0.4,0.5s-0.1,0.4-0.1,0.6
			c0,0.3,0.1,0.5,0.2,0.7c0.1,0.2,0.3,0.3,0.5,0.5c0.2,0.1,0.5,0.2,0.8,0.3c0.3,0.1,0.6,0.2,0.9,0.3c0.3,0.1,0.6,0.2,0.9,0.3
			c0.3,0.1,0.5,0.3,0.8,0.5c0.2,0.2,0.4,0.4,0.5,0.7c0.1,0.3,0.2,0.6,0.2,1.1c0,0.4-0.1,0.9-0.2,1.2c-0.1,0.4-0.4,0.7-0.7,1
			c-0.3,0.3-0.6,0.5-1.1,0.7c-0.4,0.2-0.9,0.2-1.4,0.2c-0.6,0-1.2-0.1-1.8-0.4c-0.5-0.2-1-0.6-1.4-1l0.4-0.6c0-0.1,0.1-0.1,0.1-0.1
			c0.1,0,0.1-0.1,0.2-0.1c0.1,0,0.2,0.1,0.3,0.2s0.3,0.2,0.5,0.3c0.2,0.1,0.4,0.2,0.7,0.3s0.6,0.2,1,0.2c0.3,0,0.6,0,0.9-0.1
			s0.5-0.2,0.6-0.4s0.3-0.4,0.4-0.6c0.1-0.2,0.1-0.5,0.1-0.7c0-0.3-0.1-0.6-0.2-0.7c-0.1-0.2-0.3-0.4-0.5-0.5
			c-0.2-0.1-0.5-0.2-0.8-0.3c-0.3-0.1-0.6-0.2-0.9-0.3s-0.6-0.2-0.9-0.3s-0.5-0.3-0.8-0.5c-0.2-0.2-0.4-0.5-0.5-0.8
			c-0.1-0.3-0.2-0.7-0.2-1.1c0-0.4,0.1-0.7,0.2-1c0.1-0.3,0.3-0.6,0.6-0.9c0.3-0.3,0.6-0.5,1-0.6c0.4-0.2,0.8-0.2,1.3-0.2
			c0.6,0,1.1,0.1,1.5,0.3s0.9,0.4,1.2,0.8L921.4,147.6z"/>
		<path class="st3" d="M930.1,146v1.1h-4.8v3.3h3.9v1.1h-3.9v3.4h4.8v1.1H924v-10H930.1z"/>
		<path class="st3" d="M933.9,150.4h0.5c0.2,0,0.3,0,0.4-0.1c0.1,0,0.2-0.1,0.3-0.2l3.3-3.8c0.1-0.1,0.2-0.2,0.3-0.2
			s0.2-0.1,0.4-0.1h1.2l-3.8,4.3c-0.1,0.1-0.2,0.2-0.3,0.3c-0.1,0.1-0.2,0.1-0.3,0.2c0.1,0,0.2,0.1,0.3,0.2c0.1,0.1,0.2,0.2,0.3,0.3
			l4,4.8h-1.2c-0.1,0-0.2,0-0.2,0s-0.1,0-0.2-0.1c0,0-0.1-0.1-0.1-0.1c0,0-0.1-0.1-0.1-0.1l-3.5-4c-0.1-0.1-0.1-0.1-0.1-0.1
			c0,0-0.1-0.1-0.2-0.1c-0.1,0-0.1,0-0.2-0.1c-0.1,0-0.2,0-0.3,0h-0.6v4.6h-1.4v-10h1.4V150.4z"/>
		<path class="st3" d="M943.7,151.8v4.2h-1.4v-10h2.8c0.6,0,1.2,0.1,1.6,0.2s0.8,0.3,1.1,0.6c0.3,0.2,0.5,0.5,0.7,0.9
			c0.1,0.3,0.2,0.7,0.2,1.2c0,0.4-0.1,0.7-0.2,1c-0.1,0.3-0.3,0.6-0.5,0.8c-0.2,0.2-0.5,0.5-0.8,0.6c-0.3,0.2-0.7,0.3-1,0.4
			c0.2,0.1,0.3,0.2,0.4,0.4l2.9,4h-1.2c-0.2,0-0.4-0.1-0.5-0.3l-2.6-3.6c-0.1-0.1-0.2-0.2-0.3-0.2c-0.1,0-0.2-0.1-0.4-0.1H943.7z
			 M943.7,150.9h1.4c0.4,0,0.7,0,1-0.1s0.6-0.2,0.8-0.4c0.2-0.2,0.4-0.4,0.5-0.6s0.2-0.5,0.2-0.8c0-0.6-0.2-1-0.6-1.4
			c-0.4-0.3-1-0.5-1.8-0.5h-1.5V150.9z"/>
		<path class="st3" d="M957.7,146v1.1h-4.8v3.3h3.9v1.1h-3.9v3.4h4.8v1.1h-6.2v-10H957.7z"/>
		<path class="st3" d="M966.7,146v1.1h-3.2v8.9h-1.4v-8.9h-3.3V146H966.7z"/>
		<path class="st3" d="M975.8,156h-1c-0.1,0-0.2,0-0.3-0.1s-0.1-0.1-0.2-0.2l-0.9-2.4h-4.5l-0.9,2.4c0,0.1-0.1,0.2-0.2,0.2
			c-0.1,0.1-0.2,0.1-0.3,0.1h-1l4-10h1.4L975.8,156z M969.2,152.3h3.7l-1.6-4.1c-0.1-0.3-0.2-0.6-0.3-0.9c-0.1,0.2-0.1,0.4-0.2,0.5
			c0,0.2-0.1,0.3-0.1,0.4L969.2,152.3z"/>
		<path class="st3" d="M978.8,151.8v4.2h-1.4v-10h2.8c0.6,0,1.2,0.1,1.6,0.2s0.8,0.3,1.1,0.6c0.3,0.2,0.5,0.5,0.7,0.9
			c0.1,0.3,0.2,0.7,0.2,1.2c0,0.4-0.1,0.7-0.2,1c-0.1,0.3-0.3,0.6-0.5,0.8c-0.2,0.2-0.5,0.5-0.8,0.6c-0.3,0.2-0.7,0.3-1,0.4
			c0.2,0.1,0.3,0.2,0.4,0.4l2.9,4h-1.2c-0.2,0-0.4-0.1-0.5-0.3l-2.6-3.6c-0.1-0.1-0.2-0.2-0.3-0.2c-0.1,0-0.2-0.1-0.4-0.1H978.8z
			 M978.8,150.9h1.4c0.4,0,0.7,0,1-0.1s0.6-0.2,0.8-0.4c0.2-0.2,0.4-0.4,0.5-0.6s0.2-0.5,0.2-0.8c0-0.6-0.2-1-0.6-1.4
			c-0.4-0.3-1-0.5-1.8-0.5h-1.5V150.9z"/>
		<path class="st3" d="M988.2,156h-1.4v-10h1.4V156z"/>
		<path class="st3" d="M996.3,147.6c0,0.1-0.1,0.1-0.1,0.2c0,0-0.1,0.1-0.2,0.1c-0.1,0-0.2,0-0.3-0.1c-0.1-0.1-0.2-0.2-0.4-0.3
			s-0.4-0.2-0.6-0.3c-0.2-0.1-0.5-0.1-0.8-0.1c-0.3,0-0.6,0-0.8,0.1s-0.4,0.2-0.6,0.3s-0.3,0.3-0.4,0.5s-0.1,0.4-0.1,0.6
			c0,0.3,0.1,0.5,0.2,0.7c0.1,0.2,0.3,0.3,0.5,0.5c0.2,0.1,0.5,0.2,0.8,0.3c0.3,0.1,0.6,0.2,0.9,0.3c0.3,0.1,0.6,0.2,0.9,0.3
			c0.3,0.1,0.5,0.3,0.8,0.5c0.2,0.2,0.4,0.4,0.5,0.7c0.1,0.3,0.2,0.6,0.2,1.1c0,0.4-0.1,0.9-0.2,1.2c-0.1,0.4-0.4,0.7-0.7,1
			c-0.3,0.3-0.6,0.5-1.1,0.7c-0.4,0.2-0.9,0.2-1.4,0.2c-0.6,0-1.2-0.1-1.8-0.4c-0.5-0.2-1-0.6-1.4-1l0.4-0.6c0-0.1,0.1-0.1,0.1-0.1
			c0.1,0,0.1-0.1,0.2-0.1c0.1,0,0.2,0.1,0.3,0.2s0.3,0.2,0.5,0.3c0.2,0.1,0.4,0.2,0.7,0.3s0.6,0.2,1,0.2c0.3,0,0.6,0,0.9-0.1
			s0.5-0.2,0.6-0.4s0.3-0.4,0.4-0.6c0.1-0.2,0.1-0.5,0.1-0.7c0-0.3-0.1-0.6-0.2-0.7c-0.1-0.2-0.3-0.4-0.5-0.5
			c-0.2-0.1-0.5-0.2-0.8-0.3c-0.3-0.1-0.6-0.2-0.9-0.3s-0.6-0.2-0.9-0.3s-0.5-0.3-0.8-0.5c-0.2-0.2-0.4-0.5-0.5-0.8
			c-0.1-0.3-0.2-0.7-0.2-1.1c0-0.4,0.1-0.7,0.2-1c0.1-0.3,0.3-0.6,0.6-0.9c0.3-0.3,0.6-0.5,1-0.6c0.4-0.2,0.8-0.2,1.3-0.2
			c0.6,0,1.1,0.1,1.5,0.3s0.9,0.4,1.2,0.8L996.3,147.6z"/>
	</g>
</g>
</svg>
