<svg xmlns="http://www.w3.org/2000/svg" width="633.76" height="313.21" viewBox="0 0 633.76 313.21"><defs><style>.cls-1,.cls-2,.cls-3{fill:none;stroke-miterlimit:10;stroke-width:2px;}.cls-1,.cls-2{stroke:#262f49;}.cls-2{stroke-dasharray:8;}.cls-3{stroke:#353e68;}.cls-4{fill:#c3c7db;}.cls-5{fill:#025eb7;}.cls-6{fill:#f6871e;}</style></defs><title>Asset 18</title><g id="Layer_2" data-name="Layer 2"><g id="Layer_4" data-name="Layer 4"><path class="cls-1" d="M108.24,244.28l-.07-79.67a10,10,0,0,1,10-10h396.7a10,10,0,0,1,10,10l.14,79.7"/><line class="cls-2" x1="215.47" y1="278.1" x2="417.72" y2="278.1"/><line class="cls-1" x1="316.62" y1="69.32" x2="316.41" y2="154.6"/><rect class="cls-3" x="1" y="244" width="215" height="68.22" rx="4" ry="4"/><path class="cls-4" d="M92.42,264.43H89.16v4.27H87.81v-9.52H93l.2,1h-4v3.19h3.09Z"/><path class="cls-4" d="M96.73,268.7H95.39v-9.52h2.73a4.3,4.3,0,0,1,2.61.73,2.6,2.6,0,0,1,1,2.24,2.8,2.8,0,0,1-.5,1.71,3,3,0,0,1-1.35,1,5.15,5.15,0,0,1-1.88.33H96.73Zm1.37-8.39H96.73v3.77H98a2.64,2.64,0,0,0,1.63-.46,1.77,1.77,0,0,0,.65-1.41,1.73,1.73,0,0,0-.56-1.46A2.69,2.69,0,0,0,98.11,260.31Z"/><path class="cls-4" d="M107.78,259.18l3.67,9.44-1.33.2-1-2.66h-3.88l-1,2.55H103l3.58-9.52Zm-.63,1.81-1.53,4.09h3.09Z"/><path class="cls-4" d="M120.15,260.24h-3.28v8.46h-1.36v-8.46h-3.09v-1.06H120Z"/><path class="cls-4" d="M128,268.7l-3.35-4.38-1,1.09v3.29h-1.34v-9.52h1.34v4.41l4.34-4.62,1,.78-3.37,3.6,4.09,5.35Z"/><path class="cls-5" d="M23,278.63H20.48v3.27H19.25v-7.48h4.13l.19,1H20.48v2.3h2.39Z"/><path class="cls-5" d="M28.36,274.24a3.57,3.57,0,0,1,1.9.51,3.4,3.4,0,0,1,1.27,1.39,4.65,4.65,0,0,1,0,4,3.49,3.49,0,0,1-1.29,1.4,3.59,3.59,0,0,1-1.88.52,3.54,3.54,0,0,1-1.89-.5,3.37,3.37,0,0,1-1.27-1.38,4.64,4.64,0,0,1,0-4,3.48,3.48,0,0,1,1.28-1.4A3.62,3.62,0,0,1,28.36,274.24ZM26,278.18a3.56,3.56,0,0,0,.29,1.46,2.36,2.36,0,0,0,.81,1,2.06,2.06,0,0,0,1.2.36,2.12,2.12,0,0,0,1.19-.35,2.38,2.38,0,0,0,.84-1,3.57,3.57,0,0,0,.31-1.53,3.52,3.52,0,0,0-.29-1.45,2.38,2.38,0,0,0-.81-1,2.15,2.15,0,0,0-2.39,0,2.44,2.44,0,0,0-.85,1A3.48,3.48,0,0,0,26,278.18Z"/><path class="cls-5" d="M33.91,274.42h2.23a3.55,3.55,0,0,1,2.09.57,1.93,1.93,0,0,1,.8,1.69,2,2,0,0,1-.35,1.2,2.24,2.24,0,0,1-.93.77l1.86,3.26H38.28l-1.63-2.95a4.23,4.23,0,0,1-.6,0h-.9v2.92H33.91Zm2.21,1h-1V278h1a2.13,2.13,0,0,0,1.19-.3,1,1,0,0,0,.45-.95,1.12,1.12,0,0,0-.42-1A2,2,0,0,0,36.12,275.45Z"/><path class="cls-5" d="M42.37,274.42v4.69a2,2,0,0,0,.47,1.41,1.88,1.88,0,0,0,2.55,0,2,2,0,0,0,.47-1.4v-4.69h1.24v4.79a2.86,2.86,0,0,1-.37,1.45,2.59,2.59,0,0,1-1,1,3.61,3.61,0,0,1-3.16,0,2.58,2.58,0,0,1-1-1,2.85,2.85,0,0,1-.37-1.45v-4.79Z"/><path class="cls-5" d="M52.65,279.56,50.72,277v4.94H49.49v-7.48h.77L52.83,278l2.41-3.58H56v7.48H54.75v-4.76l-1.63,2.37Z"/><path class="cls-5" d="M62.77,281.9H61.53v-7.48h2.23a3.48,3.48,0,0,1,2.09.58,2.06,2.06,0,0,1,.8,1.79,2.19,2.19,0,0,1-.41,1.35,2.43,2.43,0,0,1-1.09.81,4.07,4.07,0,0,1-1.49.26h-.9Zm1-6.45h-1v2.74h1a1.89,1.89,0,0,0,1.17-.33,1.46,1.46,0,0,0,.05-2.09A1.94,1.94,0,0,0,63.74,275.45Z"/><path class="cls-5" d="M68.48,281.9v-7.48h4.33l.18,1H69.72v2.23H72.2l.19,1H69.72v2.34h3.56l.19,1Z"/><path class="cls-5" d="M75.21,274.42h2.23a3.56,3.56,0,0,1,2.09.57,1.93,1.93,0,0,1,.8,1.69,2,2,0,0,1-.35,1.2,2.25,2.25,0,0,1-.94.77l1.86,3.26H79.57l-1.63-2.95a4.24,4.24,0,0,1-.61,0h-.9v2.92H75.21Zm2.21,1h-1V278h1a2.12,2.12,0,0,0,1.19-.3,1,1,0,0,0,.45-.95,1.12,1.12,0,0,0-.42-1A2.05,2.05,0,0,0,77.42,275.45Z"/><path class="cls-5" d="M91.45,274.42l-2.21,7.48H88.16l-1.61-5.72L85,281.9H83.91l-2.23-7.4,1.23-.18,1.56,5.9,1.5-5.8h1.22l1.54,5.8,1.5-5.8Z"/><path class="cls-5" d="M96.17,274.42l2.88,7.4-1.22.18-.74-2H94.16l-.71,1.88H92.22l2.86-7.48Zm-.57,1.68L94.51,279h2.21Z"/><path class="cls-5" d="M105.14,281.9l-2.45-3.29-.77.83v2.46h-1.23v-7.48h1.23v3.3l3.33-3.46.89.71-2.61,2.76,3.12,4.17Z"/><path class="cls-5" d="M108.28,281.9v-7.48h1.23v7.48Z"/><path class="cls-5" d="M116.73,281.9H112v-7.48h1.23v6.51h3.33Z"/><path class="cls-5" d="M121.45,274.42l2.88,7.4-1.22.18-.74-2h-2.94l-.71,1.88H117.5l2.86-7.48Zm-.57,1.68L119.79,279H122Z"/><path class="cls-5" d="M126,281.9v-7.48h1.17l3.67,5.27v-5.27H132v7.48h-1.18l-3.67-5.3v5.3Z"/><path class="cls-5" d="M140.68,274.42l2.88,7.4-1.22.18-.74-2h-2.94l-.71,1.88h-1.22l2.86-7.48Zm-.57,1.68L139,279h2.21Z"/><path class="cls-5" d="M145.19,281.9v-7.48h1.17l3.67,5.27v-5.27h1.24v7.48h-1.18l-3.67-5.3v5.3Z"/><path class="cls-5" d="M156.46,278.84l.1-.95h2.62v3.62a3.88,3.88,0,0,1-1,.39,5,5,0,0,1-1.23.15,3.78,3.78,0,0,1-2-.51,3.38,3.38,0,0,1-1.3-1.39,4.23,4.23,0,0,1-.45-2,4.12,4.12,0,0,1,.5-2,3.56,3.56,0,0,1,1.39-1.4,4,4,0,0,1,2-.5,5.11,5.11,0,0,1,1,.12,3.62,3.62,0,0,1,1,.34l-.38.89q-.59-.19-.86-.25a3.38,3.38,0,0,0-.72-.06,2.64,2.64,0,0,0-1.31.33,2.39,2.39,0,0,0-.95,1,3.27,3.27,0,0,0-.35,1.57,3.38,3.38,0,0,0,.31,1.48,2.34,2.34,0,0,0,.85,1,2.28,2.28,0,0,0,1.25.35,4.42,4.42,0,0,0,1.15-.15v-2Z"/><path class="cls-5" d="M165.68,281.9l-2.45-3.29-.77.83v2.46h-1.23v-7.48h1.23v3.3l3.33-3.46.89.71-2.61,2.76,3.12,4.17Z"/><path class="cls-5" d="M171.92,274.42l2.88,7.4-1.22.18-.74-2H169.9l-.71,1.88H168l2.86-7.48Zm-.57,1.68L170.26,279h2.21Z"/><path class="cls-5" d="M181.74,275.4h-2.56v6.5h-1.25v-6.5h-2.35v-1h6Z"/><path class="cls-5" d="M186.46,274.42l2.88,7.4-1.22.18-.74-2h-2.94l-.71,1.88h-1.22l2.86-7.48Zm-.57,1.68L184.8,279H187Z"/><path class="cls-5" d="M191,281.9v-7.48h1.17l3.67,5.27v-5.27h1.24v7.48h-1.18l-3.67-5.3v5.3Z"/><path class="cls-5" d="M61.91,288.59H59.35v6.5H58.1v-6.5H55.74v-1h6Z"/><path class="cls-5" d="M63.54,295.1v-7.48h4.33l.18,1H64.77v2.23h2.49l.19,1H64.77v2.34h3.56l.19,1Z"/><path class="cls-5" d="M74.72,295.1l-2.45-3.29-.77.83v2.46H70.26v-7.48h1.23v3.3l3.33-3.46.89.71-2.61,2.76,3.12,4.17Z"/><path class="cls-5" d="M77.86,295.1v-7.48H79l3.67,5.27v-5.27h1.24v7.48H82.77l-3.67-5.3v5.3Z"/><path class="cls-5" d="M86.43,295.1v-7.48h1.23v7.48Z"/><path class="cls-5" d="M94.59,295.1l-2.45-3.29-.77.83v2.46H90.14v-7.48h1.23v3.3l3.33-3.46.89.71L93,290.93l3.12,4.17Z"/><path class="cls-5" d="M105.25,295.1l-2.45-3.29-.77.83v2.46H100.8v-7.48H102v3.3l3.33-3.46.89.71-2.61,2.76,3.12,4.17Z"/><path class="cls-5" d="M111.46,287.44a3.56,3.56,0,0,1,1.9.51,3.39,3.39,0,0,1,1.27,1.39,4.64,4.64,0,0,1,0,4,3.5,3.5,0,0,1-1.29,1.4,3.61,3.61,0,0,1-1.88.52,3.54,3.54,0,0,1-1.89-.5,3.36,3.36,0,0,1-1.27-1.38,4.64,4.64,0,0,1,0-4,3.48,3.48,0,0,1,1.28-1.4A3.62,3.62,0,0,1,111.46,287.44Zm-2.32,3.94a3.55,3.55,0,0,0,.29,1.46,2.35,2.35,0,0,0,.81,1,2.06,2.06,0,0,0,1.2.36,2.11,2.11,0,0,0,1.19-.35,2.38,2.38,0,0,0,.84-1,3.58,3.58,0,0,0,.31-1.54,3.51,3.51,0,0,0-.29-1.45,2.37,2.37,0,0,0-.81-1,2.15,2.15,0,0,0-2.39,0,2.44,2.44,0,0,0-.85,1A3.49,3.49,0,0,0,109.13,291.38Z"/><path class="cls-5" d="M120.17,292.76l-1.92-2.61v4.94H117v-7.48h.77l2.57,3.58,2.41-3.58h.76v7.48h-1.25v-4.76l-1.63,2.37Z"/><path class="cls-5" d="M127.23,295.1H126v-7.48h2.23a3.5,3.5,0,0,1,2.1.58,2.06,2.06,0,0,1,.8,1.79,2.19,2.19,0,0,1-.41,1.35,2.43,2.43,0,0,1-1.09.81,4.05,4.05,0,0,1-1.49.26h-.9Zm1-6.45h-1v2.74h1a1.88,1.88,0,0,0,1.17-.33,1.27,1.27,0,0,0,.47-1,1.28,1.28,0,0,0-.41-1.08A1.94,1.94,0,0,0,128.21,288.65Z"/><path class="cls-5" d="M134.08,287.62v4.69a2,2,0,0,0,.47,1.41,1.88,1.88,0,0,0,2.55,0,2,2,0,0,0,.47-1.4v-4.69h1.24v4.79a2.87,2.87,0,0,1-.37,1.45,2.58,2.58,0,0,1-1,1,3.61,3.61,0,0,1-3.16,0,2.57,2.57,0,0,1-1-1,2.86,2.86,0,0,1-.37-1.45v-4.79Z"/><path class="cls-5" d="M146.51,288.59h-2.56v6.5h-1.25v-6.5h-2.35v-1h6Z"/><path class="cls-5" d="M148.14,295.1v-7.48h4.33l.18,1h-3.28v2.23h2.49l.19,1h-2.67v2.34h3.56l.19,1Z"/><path class="cls-5" d="M154.86,287.62h2.23a3.55,3.55,0,0,1,2.09.57,1.93,1.93,0,0,1,.8,1.69,2.05,2.05,0,0,1-.35,1.2,2.25,2.25,0,0,1-.94.77l1.86,3.26h-1.33l-1.63-2.95a4.23,4.23,0,0,1-.61,0h-.9v2.92h-1.23Zm2.21,1h-1v2.52h1a2.12,2.12,0,0,0,1.19-.3,1.05,1.05,0,0,0,.45-.95,1.12,1.12,0,0,0-.42-1A2.05,2.05,0,0,0,157.07,288.65Z"/><circle class="cls-6" cx="108.24" cy="244.28" r="5"/><rect class="cls-3" x="417.76" y="244" width="215" height="68.22" rx="4" ry="4"/><path class="cls-4" d="M507.59,268.7v-9.52H513l.18,1h-4.2v3.12h3.23l.18,1h-3.42v3.28h4.52l.18,1Z"/><path class="cls-4" d="M519.86,265.64,517.23,262v6.73h-1.34v-9.52h.83l3.35,4.7,3.18-4.7h.84v9.52h-1.36v-6.61l-2.37,3.49Z"/><path class="cls-4" d="M533.9,260.24h-3.28v8.46h-1.36v-8.46h-3.09v-1.06h7.55Z"/><path class="cls-4" d="M541.71,268.7l-3.35-4.38-1,1.09v3.29H536v-9.52h1.34v4.41l4.34-4.62,1,.78-3.37,3.6,4.09,5.35Z"/><path class="cls-5" d="M461.33,281.9v-7.48h4.33l.18,1h-3.28v2.23H465l.19,1h-2.67v2.34h3.56l.19,1Z"/><path class="cls-5" d="M472.5,281.9l-2.45-3.29-.77.83v2.46H468v-7.48h1.23v3.3l3.33-3.46.89.71-2.61,2.76L474,281.9Z"/><path class="cls-5" d="M475.23,281.45l.28-1a5.48,5.48,0,0,0,.89.34,3.37,3.37,0,0,0,1,.15,2.06,2.06,0,0,0,1.11-.25.79.79,0,0,0,.39-.7.77.77,0,0,0-.21-.52,2.11,2.11,0,0,0-.53-.42q-.32-.19-.94-.5a6.22,6.22,0,0,1-1.56-1.05,1.77,1.77,0,0,1-.52-1.3,1.74,1.74,0,0,1,.3-1,2,2,0,0,1,.87-.7,3.19,3.19,0,0,1,1.34-.26,3.92,3.92,0,0,1,1.05.15,5.51,5.51,0,0,1,1,.38l-.42,1a5.86,5.86,0,0,0-.78-.31,2.75,2.75,0,0,0-.81-.11,1.78,1.78,0,0,0-.94.22.71.71,0,0,0-.36.65.84.84,0,0,0,.19.54,1.83,1.83,0,0,0,.51.42q.31.18,1,.52a10.51,10.51,0,0,1,1.13.65,2.53,2.53,0,0,1,.69.7,1.72,1.72,0,0,1,.27,1,1.82,1.82,0,0,1-.32,1.06,2.07,2.07,0,0,1-.94.72,3.86,3.86,0,0,1-1.49.26,4.52,4.52,0,0,1-1.17-.19A3.21,3.21,0,0,1,475.23,281.45Z"/><path class="cls-5" d="M481.94,281.9v-7.48h4.33l.18,1h-3.28v2.23h2.49l.19,1h-2.67v2.34h3.56l.19,1Z"/><path class="cls-5" d="M493.12,281.9l-2.45-3.29-.77.83v2.46h-1.23v-7.48h1.23v3.3l3.33-3.46.89.71-2.61,2.76,3.12,4.17Z"/><path class="cls-5" d="M497.4,274.42v4.69a2,2,0,0,0,.47,1.41,1.88,1.88,0,0,0,2.55,0,2,2,0,0,0,.47-1.4v-4.69h1.24v4.79a2.86,2.86,0,0,1-.37,1.45,2.59,2.59,0,0,1-1,1,3.61,3.61,0,0,1-3.16,0,2.58,2.58,0,0,1-1-1,2.86,2.86,0,0,1-.37-1.45v-4.79Z"/><path class="cls-5" d="M509.83,275.4h-2.56v6.5H506v-6.5h-2.35v-1h6Z"/><path class="cls-5" d="M511.45,281.9v-7.48h1.23v7.48Z"/><path class="cls-5" d="M518.94,278.63h-2.55v3.27h-1.23v-7.48h4.13l.19,1h-3.08v2.3h2.39Z"/><path class="cls-5" d="M527.43,279.56,525.5,277v4.94h-1.23v-7.48H525l2.57,3.58,2.41-3.58h.76v7.48h-1.25v-4.76l-1.63,2.37Z"/><path class="cls-5" d="M536.35,274.42l2.88,7.4L538,282l-.74-2h-2.94l-.71,1.88H532.4l2.86-7.48Zm-.57,1.68L534.69,279h2.21Z"/><path class="cls-5" d="M545.22,281.9v-3.26h-3.13v3.26h-1.23v-7.48l1.23-.05v3.29h3.13v-3.23h1.23v7.48Z"/><path class="cls-5" d="M552,274.42l2.88,7.4-1.22.18-.74-2H550l-.71,1.88h-1.22l2.86-7.48Zm-.57,1.68L550.37,279h2.21Z"/><path class="cls-5" d="M556.12,281.45l.28-1a5.48,5.48,0,0,0,.89.34,3.37,3.37,0,0,0,1,.15,2.06,2.06,0,0,0,1.11-.25.79.79,0,0,0,.38-.7.77.77,0,0,0-.21-.52,2.1,2.1,0,0,0-.53-.42q-.33-.19-.94-.5a6.23,6.23,0,0,1-1.56-1.05,1.77,1.77,0,0,1-.52-1.3,1.74,1.74,0,0,1,.3-1,2,2,0,0,1,.87-.7,3.18,3.18,0,0,1,1.34-.26,3.92,3.92,0,0,1,1.05.15,5.49,5.49,0,0,1,1,.38l-.42,1a5.83,5.83,0,0,0-.78-.31,2.75,2.75,0,0,0-.81-.11,1.78,1.78,0,0,0-.93.22.71.71,0,0,0-.36.65.84.84,0,0,0,.19.54,1.83,1.83,0,0,0,.51.42q.31.18,1,.52a10.55,10.55,0,0,1,1.13.65,2.53,2.53,0,0,1,.69.7,1.72,1.72,0,0,1,.27,1,1.81,1.81,0,0,1-.32,1.06,2.07,2.07,0,0,1-.94.72,3.86,3.86,0,0,1-1.49.26,4.52,4.52,0,0,1-1.17-.19A3.2,3.2,0,0,1,556.12,281.45Z"/><path class="cls-5" d="M562.83,281.9v-7.48h1.23v7.48Z"/><path class="cls-5" d="M566.12,281.45l.28-1a5.48,5.48,0,0,0,.89.34,3.37,3.37,0,0,0,1,.15,2.06,2.06,0,0,0,1.11-.25.79.79,0,0,0,.38-.7.77.77,0,0,0-.21-.52,2.1,2.1,0,0,0-.53-.42q-.33-.19-.94-.5a6.23,6.23,0,0,1-1.56-1.05,1.77,1.77,0,0,1-.52-1.3,1.74,1.74,0,0,1,.3-1,2,2,0,0,1,.87-.7,3.18,3.18,0,0,1,1.34-.26,3.92,3.92,0,0,1,1.05.15,5.49,5.49,0,0,1,1,.38l-.42,1a5.83,5.83,0,0,0-.78-.31,2.75,2.75,0,0,0-.81-.11,1.78,1.78,0,0,0-.93.22.71.71,0,0,0-.36.65.84.84,0,0,0,.19.54,1.83,1.83,0,0,0,.51.42q.31.18,1,.52a10.55,10.55,0,0,1,1.13.65,2.53,2.53,0,0,1,.69.7,1.72,1.72,0,0,1,.27,1,1.81,1.81,0,0,1-.32,1.06,2.07,2.07,0,0,1-.94.72,3.86,3.86,0,0,1-1.49.26,4.52,4.52,0,0,1-1.17-.19A3.2,3.2,0,0,1,566.12,281.45Z"/><path class="cls-5" d="M581.75,274.42l-2.21,7.48h-1.08l-1.61-5.72-1.57,5.72h-1.08l-2.23-7.4,1.23-.18,1.56,5.9,1.5-5.8h1.22l1.54,5.8,1.5-5.8Z"/><path class="cls-5" d="M586.47,274.42l2.88,7.4-1.22.18-.74-2h-2.94l-.71,1.88h-1.22l2.86-7.48Zm-.57,1.68L584.81,279H587Z"/><path class="cls-5" d="M478.67,288.59h-2.56v6.5h-1.25v-6.5H472.5v-1h6Z"/><path class="cls-5" d="M480.3,295.1v-7.48h4.33l.18,1h-3.28v2.23H484l.19,1h-2.67v2.34h3.56l.19,1Z"/><path class="cls-5" d="M491.48,295.1,489,291.81l-.77.83v2.46H487v-7.48h1.23v3.3l3.33-3.46.89.71-2.61,2.76L493,295.1Z"/><path class="cls-5" d="M494.62,295.1v-7.48h1.17l3.67,5.27v-5.27h1.24v7.48h-1.18l-3.67-5.3v5.3Z"/><path class="cls-5" d="M503.19,295.1v-7.48h1.23v7.48Z"/><path class="cls-5" d="M511.35,295.1l-2.45-3.29-.77.83v2.46H506.9v-7.48h1.23v3.3l3.33-3.46.89.71-2.61,2.76,3.12,4.17Z"/><path class="cls-5" d="M522,295.1l-2.45-3.29-.77.83v2.46h-1.23v-7.48h1.23v3.3l3.33-3.46.89.71-2.61,2.76,3.12,4.17Z"/><path class="cls-5" d="M528.22,287.44a3.56,3.56,0,0,1,1.9.51,3.39,3.39,0,0,1,1.27,1.39,4.64,4.64,0,0,1,0,4,3.49,3.49,0,0,1-1.29,1.4,3.61,3.61,0,0,1-1.88.52,3.54,3.54,0,0,1-1.89-.5,3.36,3.36,0,0,1-1.27-1.38,4.65,4.65,0,0,1,0-4,3.48,3.48,0,0,1,1.28-1.4A3.63,3.63,0,0,1,528.22,287.44Zm-2.32,3.94a3.54,3.54,0,0,0,.29,1.46,2.35,2.35,0,0,0,.81,1,2.06,2.06,0,0,0,1.2.36,2.11,2.11,0,0,0,1.19-.35,2.38,2.38,0,0,0,.84-1,3.58,3.58,0,0,0,.31-1.54,3.51,3.51,0,0,0-.29-1.45,2.36,2.36,0,0,0-.81-1,2.06,2.06,0,0,0-1.2-.36,2.08,2.08,0,0,0-1.19.36,2.44,2.44,0,0,0-.85,1A3.49,3.49,0,0,0,525.9,291.38Z"/><path class="cls-5" d="M536.93,292.76,535,290.16v4.94h-1.23v-7.48h.77l2.57,3.58,2.41-3.58h.76v7.48H539v-4.76l-1.63,2.37Z"/><path class="cls-5" d="M544,295.1h-1.23v-7.48H545a3.5,3.5,0,0,1,2.1.58,2.06,2.06,0,0,1,.8,1.79,2.19,2.19,0,0,1-.41,1.35,2.43,2.43,0,0,1-1.09.81,4.05,4.05,0,0,1-1.49.26H544Zm1-6.45h-1v2.74h1a1.88,1.88,0,0,0,1.17-.33,1.27,1.27,0,0,0,.47-1,1.28,1.28,0,0,0-.41-1.08A1.94,1.94,0,0,0,545,288.65Z"/><path class="cls-5" d="M550.84,287.62v4.69a2,2,0,0,0,.47,1.41,1.88,1.88,0,0,0,2.55,0,2,2,0,0,0,.47-1.4v-4.69h1.24v4.79a2.87,2.87,0,0,1-.37,1.45,2.58,2.58,0,0,1-1,1,3.61,3.61,0,0,1-3.16,0,2.57,2.57,0,0,1-1-1,2.86,2.86,0,0,1-.37-1.45v-4.79Z"/><path class="cls-5" d="M563.27,288.59h-2.56v6.5h-1.25v-6.5H557.1v-1h6Z"/><path class="cls-5" d="M564.9,295.1v-7.48h4.33l.18,1h-3.28v2.23h2.49l.19,1h-2.67v2.34h3.56l.19,1Z"/><path class="cls-5" d="M571.62,287.62h2.23a3.55,3.55,0,0,1,2.09.57,1.93,1.93,0,0,1,.8,1.69,2.05,2.05,0,0,1-.35,1.2,2.25,2.25,0,0,1-.94.77l1.86,3.26H576l-1.63-2.95a4.23,4.23,0,0,1-.61,0h-.9v2.92h-1.23Zm2.21,1h-1v2.52h1a2.12,2.12,0,0,0,1.19-.3,1.05,1.05,0,0,0,.45-.95,1.12,1.12,0,0,0-.42-1A2.05,2.05,0,0,0,573.83,288.65Z"/><circle class="cls-6" cx="525" cy="244.28" r="5"/><rect class="cls-3" x="209.38" y="1" width="215" height="68.22" rx="4" ry="4"/><path class="cls-4" d="M292.33,22.65,289.7,19V25.7h-1.34V16.18h.83l3.35,4.7,3.18-4.7h.84V25.7h-1.36V19.09l-2.37,3.49Z"/><path class="cls-4" d="M305.48,25.7l-3.35-4.38-1,1.09V25.7h-1.34V16.18h1.34v4.41L305.45,16l1,.78L303,20.35l4.09,5.35Z"/><path class="cls-4" d="M312.51,25.7h-3.29V16.18h3q3.28,0,3.28,2.58a2.21,2.21,0,0,1-1.22,1.83,2.78,2.78,0,0,1,1.25.91A2.39,2.39,0,0,1,316,23a2.35,2.35,0,0,1-.94,2A4.24,4.24,0,0,1,312.51,25.7Zm-.41-8.39h-1.54v2.93h1.3a3.36,3.36,0,0,0,1.62-.36,1.18,1.18,0,0,0,.62-1.11,1.24,1.24,0,0,0-.5-1.14A2.86,2.86,0,0,0,312.1,17.31Zm.49,4h-2v3.26h1.89a2.83,2.83,0,0,0,1.57-.39,1.33,1.33,0,0,0,.59-1.2,1.51,1.51,0,0,0-.53-1.26A2.35,2.35,0,0,0,312.59,21.33Z"/><path class="cls-4" d="M322.33,22.65,319.7,19V25.7h-1.34V16.18h.83l3.35,4.7,3.18-4.7h.84V25.7h-1.36V19.09l-2.37,3.49Z"/><path class="cls-4" d="M336.38,17.24H333.1V25.7h-1.36V17.24h-3.09V16.18h7.55Z"/><path class="cls-4" d="M344.19,25.7l-3.35-4.38-1,1.09V25.7h-1.34V16.18h1.34v4.41L344.16,16l1,.78-3.37,3.6,4.09,5.35Z"/><path class="cls-5" d="M231.09,36.57,229.17,34V38.9h-1.23V31.42h.77L231.28,35l2.41-3.58h.76V38.9h-1.25V34.13l-1.63,2.37Z"/><path class="cls-5" d="M238.05,31.42V36.1a2,2,0,0,0,.47,1.41,1.88,1.88,0,0,0,2.55,0,2,2,0,0,0,.47-1.4V31.42h1.24V36.2a2.86,2.86,0,0,1-.37,1.45,2.58,2.58,0,0,1-1,1,3.61,3.61,0,0,1-3.16,0,2.58,2.58,0,0,1-1-1,2.86,2.86,0,0,1-.37-1.45V31.42Z"/><path class="cls-5" d="M244.75,38.45l.28-1a5.57,5.57,0,0,0,.89.34,3.41,3.41,0,0,0,1,.15A2.06,2.06,0,0,0,248,37.7a.78.78,0,0,0,.39-.7.77.77,0,0,0-.21-.52,2.11,2.11,0,0,0-.53-.42q-.32-.19-.94-.5a6.22,6.22,0,0,1-1.56-1,1.77,1.77,0,0,1-.52-1.3,1.75,1.75,0,0,1,.3-1,2,2,0,0,1,.87-.7,3.2,3.2,0,0,1,1.34-.26,3.88,3.88,0,0,1,1.05.15,5.5,5.5,0,0,1,1,.38l-.42,1a5.88,5.88,0,0,0-.78-.31,2.75,2.75,0,0,0-.81-.11,1.78,1.78,0,0,0-.94.22.71.71,0,0,0-.36.65.84.84,0,0,0,.19.54,1.81,1.81,0,0,0,.51.42q.31.18,1,.52a10.68,10.68,0,0,1,1.13.65,2.54,2.54,0,0,1,.69.7,1.72,1.72,0,0,1,.27,1,1.81,1.81,0,0,1-.32,1.06,2.07,2.07,0,0,1-.94.72,3.88,3.88,0,0,1-1.49.26,4.52,4.52,0,0,1-1.17-.19A3.23,3.23,0,0,1,244.75,38.45Z"/><path class="cls-5" d="M253.07,38.9V35.95l-2.46-4.31,1.21-.4,1.86,3.46,1.92-3.29h1.31L254.31,36V38.9Z"/><path class="cls-5" d="M261.63,31.42l2.88,7.4-1.22.18-.74-2h-2.94l-.71,1.88h-1.22l2.86-7.48Zm-.57,1.68L260,36h2.21Z"/><path class="cls-5" d="M275.06,31.42l-2.21,7.48h-1.08l-1.61-5.72-1.57,5.72h-1.08l-2.23-7.4,1.23-.18,1.56,5.9,1.5-5.8h1.22l1.54,5.8,1.5-5.8Z"/><path class="cls-5" d="M279.78,31.42l2.88,7.4-1.22.18-.74-2h-2.94L277,38.9h-1.22l2.86-7.48Zm-.57,1.68L278.11,36h2.21Z"/><path class="cls-5" d="M284.29,31.42h2.23a3.55,3.55,0,0,1,2.09.57,1.93,1.93,0,0,1,.8,1.69,2.05,2.05,0,0,1-.35,1.2,2.24,2.24,0,0,1-.94.77L290,38.9h-1.33L287,35.95a4.23,4.23,0,0,1-.6,0h-.9V38.9h-1.23Zm2.21,1h-1V35h1a2.13,2.13,0,0,0,1.19-.3,1.05,1.05,0,0,0,.45-.95,1.12,1.12,0,0,0-.42-1A2.05,2.05,0,0,0,286.5,32.45Z"/><path class="cls-5" d="M294.7,31.42l2.88,7.4-1.22.18-.74-2h-2.94L292,38.9h-1.22l2.86-7.48Zm-.57,1.68L293,36h2.21Z"/><path class="cls-5" d="M303.58,38.9V35.64h-3.13V38.9h-1.23V31.42l1.23-.06v3.29h3.13V31.42h1.23V38.9Z"/><path class="cls-5" d="M314.81,38.9l-2.45-3.29-.77.83V38.9h-1.23V31.42h1.23v3.3l3.33-3.46.89.71-2.61,2.76,3.12,4.17Z"/><path class="cls-5" d="M318,38.9V31.42h4.33l.18,1h-3.28v2.23h2.49l.19,1h-2.67v2.34h3.56l.19,1Z"/><path class="cls-5" d="M329.42,38.9h-4.74V31.42h1.23v6.51h3.33Z"/><path class="cls-5" d="M332.18,31.42V36.1a2,2,0,0,0,.47,1.41,1.88,1.88,0,0,0,2.55,0,2,2,0,0,0,.47-1.4V31.42h1.24V36.2a2.87,2.87,0,0,1-.37,1.45,2.58,2.58,0,0,1-1,1,3.61,3.61,0,0,1-3.16,0,2.57,2.57,0,0,1-1-1,2.86,2.86,0,0,1-.37-1.45V31.42Z"/><path class="cls-5" d="M342.39,31.42l2.88,7.4L344,39l-.74-2h-2.94l-.71,1.88h-1.22l2.86-7.48Zm-.57,1.68L340.73,36h2.21Z"/><path class="cls-5" d="M346.9,31.42h2.23a3.55,3.55,0,0,1,2.09.57,1.93,1.93,0,0,1,.8,1.69,2.05,2.05,0,0,1-.35,1.2,2.25,2.25,0,0,1-.94.77l1.86,3.26h-1.33l-1.63-2.95a4.23,4.23,0,0,1-.61,0h-.9V38.9H346.9Zm2.21,1h-1V35h1a2.12,2.12,0,0,0,1.19-.3,1.05,1.05,0,0,0,.45-.95,1.12,1.12,0,0,0-.42-1A2.05,2.05,0,0,0,349.11,32.45Z"/><path class="cls-5" d="M356.93,35.84l.1-.95h2.62v3.62a3.88,3.88,0,0,1-1,.39,5.09,5.09,0,0,1-1.23.15,3.79,3.79,0,0,1-2-.51,3.39,3.39,0,0,1-1.3-1.39,4.23,4.23,0,0,1-.45-2,4.12,4.12,0,0,1,.5-2,3.55,3.55,0,0,1,1.39-1.4,4,4,0,0,1,2-.5,5,5,0,0,1,1,.12,3.66,3.66,0,0,1,1,.34l-.38.89q-.59-.19-.86-.25a3.44,3.44,0,0,0-.72-.06,2.65,2.65,0,0,0-1.31.33,2.39,2.39,0,0,0-.95,1,3.27,3.27,0,0,0-.35,1.57,3.38,3.38,0,0,0,.31,1.49,2.34,2.34,0,0,0,.85,1,2.27,2.27,0,0,0,1.25.35,4.42,4.42,0,0,0,1.15-.15v-2Z"/><path class="cls-5" d="M364.78,31.42l2.88,7.4-1.22.18-.74-2h-2.94l-.71,1.88h-1.22l2.86-7.48Zm-.57,1.68L363.12,36h2.21Z"/><path class="cls-5" d="M375.17,38.9h-2.82V31.42H375a3.06,3.06,0,0,1,1.84.49,1.82,1.82,0,0,1,.67,1.57,1.74,1.74,0,0,1-.88,1.39,2.26,2.26,0,0,1,.92.73,2.13,2.13,0,0,1-.4,2.75A3.13,3.13,0,0,1,375.17,38.9Zm-.35-6.45h-1.23v2.09h1a2.31,2.31,0,0,0,1.14-.26.85.85,0,0,0,.43-.79.89.89,0,0,0-.35-.81A1.91,1.91,0,0,0,374.81,32.45Zm.39,3.09h-1.62v2.33h1.51a1.86,1.86,0,0,0,1.08-.28,1,1,0,0,0,.4-.84,1.11,1.11,0,0,0-.37-.9A1.52,1.52,0,0,0,375.2,35.54Z"/><path class="cls-5" d="M379.68,38.9V31.42H384l.18,1h-3.28v2.23h2.49l.19,1h-2.67v2.34h3.56l.19,1Z"/><path class="cls-5" d="M386,38.45l.28-1a5.57,5.57,0,0,0,.89.34,3.4,3.4,0,0,0,1,.15,2.06,2.06,0,0,0,1.11-.25.78.78,0,0,0,.38-.7.77.77,0,0,0-.21-.52,2.1,2.1,0,0,0-.53-.42l-.94-.5a6.23,6.23,0,0,1-1.56-1,1.77,1.77,0,0,1-.52-1.3,1.75,1.75,0,0,1,.3-1,2,2,0,0,1,.87-.7,3.2,3.2,0,0,1,1.34-.26,3.88,3.88,0,0,1,1.05.15,5.48,5.48,0,0,1,1,.38l-.42,1a5.85,5.85,0,0,0-.78-.31,2.75,2.75,0,0,0-.81-.11,1.78,1.78,0,0,0-.93.22.71.71,0,0,0-.36.65.84.84,0,0,0,.19.54,1.81,1.81,0,0,0,.51.42q.31.18,1,.52a10.72,10.72,0,0,1,1.13.65,2.54,2.54,0,0,1,.69.7,1.72,1.72,0,0,1,.27,1,1.81,1.81,0,0,1-.32,1.06,2.07,2.07,0,0,1-.94.72,3.88,3.88,0,0,1-1.49.26,4.52,4.52,0,0,1-1.17-.19A3.23,3.23,0,0,1,386,38.45Z"/><path class="cls-5" d="M395.78,31.42l2.88,7.4-1.22.18-.74-2h-2.94l-.71,1.88h-1.22l2.86-7.48Zm-.57,1.68L394.12,36h2.21Z"/><path class="cls-5" d="M400.29,31.42h2.23a3.55,3.55,0,0,1,2.09.57,1.93,1.93,0,0,1,.8,1.69,2.05,2.05,0,0,1-.35,1.2,2.25,2.25,0,0,1-.94.77L406,38.9h-1.33L403,35.95a4.23,4.23,0,0,1-.61,0h-.9V38.9h-1.23Zm2.21,1h-1V35h1a2.12,2.12,0,0,0,1.19-.3,1.05,1.05,0,0,0,.45-.95,1.12,1.12,0,0,0-.42-1A2.05,2.05,0,0,0,402.5,32.45Z"/><path class="cls-5" d="M233.25,49.77l-1.92-2.61V52.1h-1.23V44.62h.77l2.57,3.58,2.41-3.58h.76V52.1h-1.25V47.33l-1.63,2.37Z"/><path class="cls-5" d="M242.17,44.62l2.88,7.4-1.22.18-.74-2h-2.94l-.71,1.88h-1.22l2.86-7.48Zm-.57,1.68-1.09,2.92h2.21Z"/><path class="cls-5" d="M251,52.1V48.84h-3.13V52.1h-1.23V44.62l1.23-.05v3.29H251V44.62h1.23V52.1Z"/><path class="cls-5" d="M257.86,44.62l2.88,7.4-1.22.18-.74-2h-2.94l-.71,1.88h-1.22l2.86-7.48Zm-.57,1.68-1.09,2.92h2.21Z"/><path class="cls-5" d="M262,51.65l.28-1a5.48,5.48,0,0,0,.89.34,3.37,3.37,0,0,0,1,.15,2.06,2.06,0,0,0,1.11-.25.79.79,0,0,0,.39-.7.77.77,0,0,0-.21-.52,2.11,2.11,0,0,0-.53-.42q-.32-.19-.94-.5a6.22,6.22,0,0,1-1.56-1.05,1.77,1.77,0,0,1-.52-1.3,1.74,1.74,0,0,1,.3-1,2,2,0,0,1,.87-.7,3.19,3.19,0,0,1,1.34-.26,3.92,3.92,0,0,1,1.05.15,5.51,5.51,0,0,1,1,.38l-.42,1a5.86,5.86,0,0,0-.78-.31,2.75,2.75,0,0,0-.81-.11,1.78,1.78,0,0,0-.94.22.71.71,0,0,0-.36.65.84.84,0,0,0,.19.54,1.83,1.83,0,0,0,.51.42q.31.18,1,.52a10.51,10.51,0,0,1,1.13.65,2.53,2.53,0,0,1,.69.7,1.72,1.72,0,0,1,.27,1,1.82,1.82,0,0,1-.32,1.06,2.07,2.07,0,0,1-.94.72,3.86,3.86,0,0,1-1.49.26,4.52,4.52,0,0,1-1.17-.19A3.21,3.21,0,0,1,262,51.65Z"/><path class="cls-5" d="M268.66,52.1V44.62h1.23V52.1Z"/><path class="cls-5" d="M271.95,51.65l.28-1a5.48,5.48,0,0,0,.89.34,3.37,3.37,0,0,0,1,.15,2.06,2.06,0,0,0,1.11-.25.79.79,0,0,0,.39-.7.77.77,0,0,0-.21-.52,2.11,2.11,0,0,0-.53-.42q-.32-.19-.94-.5a6.22,6.22,0,0,1-1.56-1.05,1.77,1.77,0,0,1-.52-1.3,1.74,1.74,0,0,1,.3-1,2,2,0,0,1,.87-.7,3.19,3.19,0,0,1,1.34-.26,3.92,3.92,0,0,1,1.05.15,5.51,5.51,0,0,1,1,.38l-.42,1a5.86,5.86,0,0,0-.78-.31,2.75,2.75,0,0,0-.81-.11,1.78,1.78,0,0,0-.94.22.71.71,0,0,0-.36.65.84.84,0,0,0,.19.54,1.83,1.83,0,0,0,.51.42q.31.18,1,.52a10.51,10.51,0,0,1,1.13.65,2.53,2.53,0,0,1,.69.7,1.72,1.72,0,0,1,.27,1,1.82,1.82,0,0,1-.32,1.06,2.07,2.07,0,0,1-.94.72,3.86,3.86,0,0,1-1.49.26,4.52,4.52,0,0,1-1.17-.19A3.21,3.21,0,0,1,271.95,51.65Z"/><path class="cls-5" d="M287.58,44.62l-2.21,7.48h-1.08l-1.61-5.72-1.57,5.72H280l-2.23-7.4,1.23-.18,1.56,5.9,1.5-5.8h1.22l1.54,5.8,1.5-5.8Z"/><path class="cls-5" d="M292.3,44.62l2.88,7.4L294,52.2l-.74-2h-2.94l-.71,1.88h-1.22l2.86-7.48Zm-.57,1.68-1.09,2.92h2.21Z"/><path class="cls-5" d="M305.18,45.6h-2.56v6.5h-1.25V45.6H299v-1h6Z"/><path class="cls-5" d="M306.81,52.1V44.62h4.33l.18,1H308v2.23h2.49l.19,1H308v2.34h3.56l.19,1Z"/><path class="cls-5" d="M318,52.1l-2.45-3.29-.77.83V52.1h-1.23V44.62h1.23v3.3l3.33-3.46.89.71-2.61,2.76,3.12,4.17Z"/><path class="cls-5" d="M321.13,52.1V44.62h1.17L326,49.89V44.62h1.24V52.1H326l-3.67-5.3v5.3Z"/><path class="cls-5" d="M329.7,52.1V44.62h1.23V52.1Z"/><path class="cls-5" d="M337.86,52.1l-2.45-3.29-.77.83V52.1h-1.23V44.62h1.23v3.3L338,44.45l.89.71-2.61,2.76,3.12,4.17Z"/><path class="cls-5" d="M348.52,52.1l-2.45-3.29-.77.83V52.1h-1.23V44.62h1.23v3.3l3.33-3.46.89.71-2.61,2.76L350,52.1Z"/><path class="cls-5" d="M354.72,44.44a3.57,3.57,0,0,1,1.9.51,3.39,3.39,0,0,1,1.27,1.39,4.65,4.65,0,0,1,0,4,3.48,3.48,0,0,1-1.29,1.4,3.59,3.59,0,0,1-1.88.52,3.54,3.54,0,0,1-1.89-.5,3.36,3.36,0,0,1-1.27-1.38,4.32,4.32,0,0,1-.45-2,4.36,4.36,0,0,1,.46-2,3.49,3.49,0,0,1,1.28-1.4A3.62,3.62,0,0,1,354.72,44.44Zm-2.32,3.94a3.54,3.54,0,0,0,.29,1.46,2.36,2.36,0,0,0,.81,1,2.06,2.06,0,0,0,1.2.36,2.12,2.12,0,0,0,1.19-.35,2.39,2.39,0,0,0,.84-1,3.57,3.57,0,0,0,.31-1.53,3.5,3.5,0,0,0-.29-1.45,2.37,2.37,0,0,0-.81-1,2.15,2.15,0,0,0-2.39,0,2.44,2.44,0,0,0-.85,1A3.5,3.5,0,0,0,352.4,48.38Z"/><path class="cls-5" d="M363.44,49.77l-1.92-2.61V52.1h-1.23V44.62H361l2.57,3.58L366,44.62h.76V52.1h-1.25V47.33l-1.63,2.37Z"/><path class="cls-5" d="M370.5,52.1h-1.23V44.62h2.23a3.49,3.49,0,0,1,2.1.58,2.06,2.06,0,0,1,.8,1.79,2.19,2.19,0,0,1-.41,1.35,2.43,2.43,0,0,1-1.09.81,4.07,4.07,0,0,1-1.49.26h-.9Zm1-6.45h-1v2.74h1a1.89,1.89,0,0,0,1.17-.33,1.46,1.46,0,0,0,.06-2.09A1.94,1.94,0,0,0,371.48,45.65Z"/><path class="cls-5" d="M377.35,44.62V49.3a2,2,0,0,0,.47,1.41,1.88,1.88,0,0,0,2.55,0,2,2,0,0,0,.47-1.4V44.62h1.24V49.4a2.86,2.86,0,0,1-.37,1.45,2.58,2.58,0,0,1-1,1,3.61,3.61,0,0,1-3.16,0,2.58,2.58,0,0,1-1-1,2.85,2.85,0,0,1-.37-1.45V44.62Z"/><path class="cls-5" d="M389.78,45.6h-2.56v6.5H386V45.6h-2.35v-1h6Z"/><path class="cls-5" d="M391.41,52.1V44.62h4.33l.18,1h-3.28v2.23h2.49l.19,1h-2.67v2.34h3.56l.19,1Z"/><path class="cls-5" d="M398.13,44.62h2.23a3.55,3.55,0,0,1,2.09.57,1.93,1.93,0,0,1,.8,1.69,2,2,0,0,1-.35,1.2,2.25,2.25,0,0,1-.94.77l1.86,3.26H402.5l-1.63-2.95a4.23,4.23,0,0,1-.61,0h-.9V52.1h-1.23Zm2.21,1h-1v2.52h1a2.12,2.12,0,0,0,1.19-.3,1,1,0,0,0,.45-.95,1.12,1.12,0,0,0-.42-1A2.05,2.05,0,0,0,400.34,45.65Z"/><circle class="cls-6" cx="316.62" cy="69.32" r="5"/><line class="cls-1" x1="517.48" y1="19.1" x2="557.48" y2="19.1"/><path class="cls-4" d="M565.6,22.26V14.1h.95v8.16Z"/><path class="cls-4" d="M569.35,22.26h-.95V16.44h.71l.16.83a3.5,3.5,0,0,1,1-.72,2.73,2.73,0,0,1,1.16-.29,1.66,1.66,0,0,1,1.37.56,2.31,2.31,0,0,1,.45,1.49v3.94h-.95v-3.8a1.81,1.81,0,0,0-.24-1,.89.89,0,0,0-.8-.36,2.08,2.08,0,0,0-1,.3,3.78,3.78,0,0,0-1,.76Z"/><path class="cls-4" d="M574.45,21.93l.3-.68a3.52,3.52,0,0,0,1.57.41,2,2,0,0,0,1-.23.71.71,0,0,0,.38-.64q0-.65-1.44-1.13a4.54,4.54,0,0,1-1.37-.68,1.26,1.26,0,0,1-.53-1,1.43,1.43,0,0,1,.58-1.21,2.59,2.59,0,0,1,1.59-.44,3.82,3.82,0,0,1,1,.14,2.55,2.55,0,0,1,.86.37l-.3.65a6.25,6.25,0,0,0-.74-.29,2.66,2.66,0,0,0-.79-.11,1.53,1.53,0,0,0-.88.23.71.71,0,0,0-.34.61.68.68,0,0,0,.36.54,4.42,4.42,0,0,0,1,.44q2,.72,2,1.85A1.46,1.46,0,0,1,578,22a2.9,2.9,0,0,1-1.73.44,4.36,4.36,0,0,1-1-.13A2.55,2.55,0,0,1,574.45,21.93Z"/><path class="cls-4" d="M582.08,16.54l.31.72H581v3.36a1.17,1.17,0,0,0,.2.73.74.74,0,0,0,.62.26,1.45,1.45,0,0,0,.53-.12l.22.74a2,2,0,0,1-.89.2,1.61,1.61,0,0,1-1.19-.44,1.7,1.7,0,0,1-.44-1.25V17.26h-.84v-.72h.85V15l.95-.26v1.75Z"/><path class="cls-4" d="M584.58,22.26h-.95V16.44h.56l.3.94a5.53,5.53,0,0,1,.95-.64,2.1,2.1,0,0,1,1-.3l.23.76a2.28,2.28,0,0,0-1.07.32,4.07,4.07,0,0,0-1,.74Z"/><path class="cls-4" d="M591.41,16.43h.95v5.83h-.71l-.16-.84a3.49,3.49,0,0,1-1,.72,2.73,2.73,0,0,1-1.16.29,1.66,1.66,0,0,1-1.37-.56,2.31,2.31,0,0,1-.45-1.49V16.44h.95v3.8a1.81,1.81,0,0,0,.24,1,.89.89,0,0,0,.8.36,2.08,2.08,0,0,0,1-.3,3.75,3.75,0,0,0,1-.76Z"/><path class="cls-4" d="M594,22.26V13.91l.95-.12v5.15l2.64-2.65.58.6-1.78,1.76,2.4,3.61h-1.12l-1.92-3-.8.8v2.18Z"/><path class="cls-4" d="M601.82,16.54l.31.72h-1.37v3.36a1.17,1.17,0,0,0,.2.73.74.74,0,0,0,.62.26,1.45,1.45,0,0,0,.53-.12l.22.74a2,2,0,0,1-.89.2,1.61,1.61,0,0,1-1.19-.44,1.7,1.7,0,0,1-.44-1.25V17.26H599v-.72h.85V15l.95-.26v1.75Z"/><path class="cls-4" d="M603.84,15.28a.62.62,0,0,1-.64-.64.64.64,0,0,1,.18-.46.61.61,0,0,1,.46-.19.65.65,0,0,1,.65.65.6.6,0,0,1-.19.45A.63.63,0,0,1,603.84,15.28Zm-.47,7V16.44h1v5.82Z"/><path class="cls-4" d="M605.28,17.26v-.72h.89v-.91a1.87,1.87,0,0,1,.44-1.3,1.53,1.53,0,0,1,1.19-.49,2,2,0,0,1,.48.06,1.74,1.74,0,0,1,.4.14l-.22.77a1.23,1.23,0,0,0-.25-.08,1.28,1.28,0,0,0-.28,0q-.82,0-.82,1v.85h1.07l.31.72H607.1v5h-.95v-5Z"/><line class="cls-2" x1="517.48" y1="36.11" x2="557.48" y2="36.11"/><path class="cls-4" d="M570.53,39.27l-3.06-3.92-.92,1v3h-.95V31.11h.95v4l3.94-4.14.65.56-3,3.18,3.58,4.6Z"/><path class="cls-4" d="M577.48,38a2.61,2.61,0,0,1-1,1.08,3,3,0,0,1-1.54.39,2.71,2.71,0,0,1-1.46-.39,2.51,2.51,0,0,1-1-1.09,3.72,3.72,0,0,1-.33-1.6,3.62,3.62,0,0,1,.35-1.58,2.56,2.56,0,0,1,1-1.08A2.87,2.87,0,0,1,575,33.3a2.61,2.61,0,0,1,2.05.83,3.26,3.26,0,0,1,.74,2.25A3.41,3.41,0,0,1,577.48,38Zm-1.13,0a2.54,2.54,0,0,0,.52-1.6,2.67,2.67,0,0,0-.48-1.66A1.61,1.61,0,0,0,575,34.1a1.66,1.66,0,0,0-1.37.63,2.54,2.54,0,0,0-.52,1.6,2.68,2.68,0,0,0,.48,1.66,1.6,1.6,0,0,0,1.36.64A1.66,1.66,0,0,0,576.35,38Z"/><path class="cls-4" d="M579.92,39.27H579V33.45h.56l.3.94a5.53,5.53,0,0,1,.95-.64,2.1,2.1,0,0,1,1-.3l.23.76a2.28,2.28,0,0,0-1.07.32,4.07,4.07,0,0,0-1,.74Z"/><path class="cls-4" d="M587.6,30.81v8.46H587l-.18-.44a2.79,2.79,0,0,1-.78.44,2.29,2.29,0,0,1-.79.16,2.56,2.56,0,0,1-2-.85,3.3,3.3,0,0,1-.74-2.25,3.5,3.5,0,0,1,.34-1.58,2.56,2.56,0,0,1,1-1.07,2.79,2.79,0,0,1,1.48-.38,2.1,2.1,0,0,1,.67.12,3.22,3.22,0,0,1,.68.32V30.92ZM586,38.49a1.92,1.92,0,0,0,.62-.43V34.62a2,2,0,0,0-1.37-.52,1.57,1.57,0,0,0-1.33.62,2.64,2.64,0,0,0-.48,1.6,2.77,2.77,0,0,0,.46,1.67,1.56,1.56,0,0,0,1.34.63A2,2,0,0,0,586,38.49Z"/><path class="cls-4" d="M589.69,32.29a.62.62,0,0,1-.64-.64.64.64,0,0,1,.18-.46.61.61,0,0,1,.46-.19.65.65,0,0,1,.65.65.6.6,0,0,1-.19.45A.63.63,0,0,1,589.69,32.29Zm-.47,7V33.45h1v5.82Z"/><path class="cls-4" d="M592.63,39.27h-.95V33.45h.71l.16.83a3.5,3.5,0,0,1,1-.72,2.73,2.73,0,0,1,1.16-.29,1.66,1.66,0,0,1,1.37.56,2.31,2.31,0,0,1,.45,1.49v3.94h-.95v-3.8a1.81,1.81,0,0,0-.24-1,.89.89,0,0,0-.8-.36,2.08,2.08,0,0,0-1,.3,3.78,3.78,0,0,0-1,.76Z"/><path class="cls-4" d="M598.52,34.52l-.28-.72a2.75,2.75,0,0,1,.92-.36,4.51,4.51,0,0,1,1-.14,2.64,2.64,0,0,1,1.18.25,2,2,0,0,1,.8.7,1.81,1.81,0,0,1,.29,1v4h-.71l-.12-.59a3,3,0,0,1-.8.52,2.21,2.21,0,0,1-.94.22,2,2,0,0,1-1.48-.5,1.76,1.76,0,0,1-.51-1.31,1.59,1.59,0,0,1,.58-1.31,2.34,2.34,0,0,1,1.52-.47h1.5v-.32a1.56,1.56,0,0,0-.31-1,1.18,1.18,0,0,0-1-.37,3.31,3.31,0,0,0-.88.1A5.91,5.91,0,0,0,598.52,34.52Zm.23,3.1a1.07,1.07,0,0,0,.28.73,1,1,0,0,0,.82.31,1.79,1.79,0,0,0,.89-.24,2.73,2.73,0,0,0,.75-.62V36.48H600a1.17,1.17,0,0,0-.88.33A1.12,1.12,0,0,0,598.75,37.62Z"/><path class="cls-4" d="M603.59,38.94l.3-.68a3.52,3.52,0,0,0,1.57.41,2,2,0,0,0,1-.23.71.71,0,0,0,.38-.64q0-.65-1.44-1.13a4.54,4.54,0,0,1-1.37-.68,1.26,1.26,0,0,1-.53-1,1.43,1.43,0,0,1,.58-1.21,2.59,2.59,0,0,1,1.59-.44,3.82,3.82,0,0,1,1,.14,2.55,2.55,0,0,1,.86.37l-.3.65a6.25,6.25,0,0,0-.74-.29,2.66,2.66,0,0,0-.79-.11,1.53,1.53,0,0,0-.88.23.71.71,0,0,0-.34.61.68.68,0,0,0,.36.54,4.42,4.42,0,0,0,1,.44q2,.72,2,1.85a1.46,1.46,0,0,1-.61,1.25,2.9,2.9,0,0,1-1.73.44,4.36,4.36,0,0,1-1-.13A2.55,2.55,0,0,1,603.59,38.94Z"/><path class="cls-4" d="M609.4,32.29a.62.62,0,0,1-.64-.64.64.64,0,0,1,.18-.46.61.61,0,0,1,.46-.19.65.65,0,0,1,.65.65.6.6,0,0,1-.19.45A.63.63,0,0,1,609.4,32.29Zm-.47,7V33.45h1v5.82Z"/></g></g></svg>